*
*
G04 PADS 9.5 Build Number: 522968 generated Gerber (RS-274-X) file*
G04 PC Version=2.1*
*
%IN "Variometer-STM32.pcb"*%
*
%MOIN*%
*
%FSLAX35Y35*%
*
*
*
*
G04 PC Standard Apertures*
*
*
G04 Thermal Relief Aperture macro.*
%AMTER*
1,1,$1,0,0*
1,0,$1-$2,0,0*
21,0,$3,$4,0,0,45*
21,0,$3,$4,0,0,135*
%
*
*
G04 Annular Aperture macro.*
%AMANN*
1,1,$1,0,0*
1,0,$2,0,0*
%
*
*
G04 Odd Aperture macro.*
%AMODD*
1,1,$1,0,0*
1,0,$1-0.005,0,0*
%
*
*
G04 PC Custom Aperture Macros*
*
*
*
*
*
*
G04 PC Aperture Table*
*
%ADD010C,0.001*%
%ADD011C,0.01*%
*
*
*
*
G04 PC Circuitry*
G04 Layer Name Variometer-STM32.pcb - circuitry*
%LPD*%
*
*
G04 PC Custom Flashes*
G04 Layer Name Variometer-STM32.pcb - flashes*
%LPD*%
*
*
G04 PC Circuitry*
G04 Layer Name Variometer-STM32.pcb - circuitry*
%LPD*%
*
G54D10*
G54D11*
G01X147988Y318445D02*
X155988D01*
X151988Y314445D02*
Y322445D01*
X155693Y322945D02*
X155579Y323257D01*
X155352Y323570*
X155125Y323726*
X154670*
X154443Y323570*
X154215Y323257*
X154102Y322945*
X153988Y322476*
Y321695*
X154102Y321226*
X154215Y320914*
X154443Y320601*
X154670Y320445*
X155125*
X155352Y320601*
X155579Y320914*
X155693Y321226*
X147988Y308445D02*
X155988D01*
X151988Y304445D02*
Y312445D01*
X155693Y312945D02*
X155579Y313257D01*
X155352Y313570*
X155125Y313726*
X154670*
X154443Y313570*
X154215Y313257*
X154102Y312945*
X153988Y312476*
Y311695*
X154102Y311226*
X154215Y310914*
X154443Y310601*
X154670Y310445*
X155125*
X155352Y310601*
X155579Y310914*
X155693Y311226*
X147988Y298445D02*
X155988D01*
X151988Y294445D02*
Y302445D01*
X155693Y302945D02*
X155579Y303257D01*
X155352Y303570*
X155125Y303726*
X154670*
X154443Y303570*
X154215Y303257*
X154102Y302945*
X153988Y302476*
Y301695*
X154102Y301226*
X154215Y300914*
X154443Y300601*
X154670Y300445*
X155125*
X155352Y300601*
X155579Y300914*
X155693Y301226*
X147988Y288445D02*
X155988D01*
X151988Y284445D02*
Y292445D01*
X155693Y292945D02*
X155579Y293257D01*
X155352Y293570*
X155125Y293726*
X154670*
X154443Y293570*
X154215Y293257*
X154102Y292945*
X153988Y292476*
Y291695*
X154102Y291226*
X154215Y290914*
X154443Y290601*
X154670Y290445*
X155125*
X155352Y290601*
X155579Y290914*
X155693Y291226*
X147988Y278445D02*
X155988D01*
X151988Y274445D02*
Y282445D01*
X155693Y282945D02*
X155579Y283257D01*
X155352Y283570*
X155125Y283726*
X154670*
X154443Y283570*
X154215Y283257*
X154102Y282945*
X153988Y282476*
Y281695*
X154102Y281226*
X154215Y280914*
X154443Y280601*
X154670Y280445*
X155125*
X155352Y280601*
X155579Y280914*
X155693Y281226*
X147988Y268445D02*
X155988D01*
X151988Y264445D02*
Y272445D01*
X155693Y272945D02*
X155579Y273257D01*
X155352Y273570*
X155125Y273726*
X154670*
X154443Y273570*
X154215Y273257*
X154102Y272945*
X153988Y272476*
Y271695*
X154102Y271226*
X154215Y270914*
X154443Y270601*
X154670Y270445*
X155125*
X155352Y270601*
X155579Y270914*
X155693Y271226*
X147988Y258445D02*
X155988D01*
X151988Y254445D02*
Y262445D01*
X155693Y262945D02*
X155579Y263257D01*
X155352Y263570*
X155125Y263726*
X154670*
X154443Y263570*
X154215Y263257*
X154102Y262945*
X153988Y262476*
Y261695*
X154102Y261226*
X154215Y260914*
X154443Y260601*
X154670Y260445*
X155125*
X155352Y260601*
X155579Y260914*
X155693Y261226*
X147988Y248445D02*
X155988D01*
X151988Y244445D02*
Y252445D01*
X155693Y252945D02*
X155579Y253257D01*
X155352Y253570*
X155125Y253726*
X154670*
X154443Y253570*
X154215Y253257*
X154102Y252945*
X153988Y252476*
Y251695*
X154102Y251226*
X154215Y250914*
X154443Y250601*
X154670Y250445*
X155125*
X155352Y250601*
X155579Y250914*
X155693Y251226*
X197575Y315945D02*
X205575D01*
X201575Y311945D02*
Y319945D01*
X203575Y321226D02*
Y317945D01*
Y321226D02*
X204598D01*
X204938Y321070*
X205052Y320914*
X205166Y320601*
Y320289*
X205052Y319976*
X204938Y319820*
X204598Y319664*
X203575D02*
X204598D01*
X204938Y319507*
X205052Y319351*
X205166Y319039*
Y318570*
X205052Y318257*
X204938Y318101*
X204598Y317945*
X203575*
X461551Y246063D02*
X469551D01*
X465551Y242063D02*
Y250063D01*
X467551Y251344D02*
Y248063D01*
Y251344D02*
X468574D01*
X468915Y251188*
X469028Y251032*
X469142Y250719*
Y250407*
X469028Y250094*
X468915Y249938*
X468574Y249782*
X467551D02*
X468574D01*
X468915Y249625*
X469028Y249469*
X469142Y249157*
Y248688*
X469028Y248375*
X468915Y248219*
X468574Y248063*
X467551*
X468299Y138500D02*
X476299Y146500D01*
Y138500*
X468299Y146500*
Y138500*
X116098D02*
X124098Y146500D01*
Y138500*
X116098Y146500*
Y138500*
X468299Y283500D02*
X476299Y291500D01*
Y283500*
X468299Y291500*
Y283500*
X487732Y194425D02*
X495732D01*
X487732Y202425*
X495732*
X487732Y194425*
Y199346D02*
X495732D01*
X487732Y207346*
X495732*
X487732Y199346*
X116098Y283500D02*
X124098Y291500D01*
Y283500*
X116098Y291500*
Y283500*
X458205Y318835D02*
X466205D01*
X458205Y326835*
X466205*
X458205Y318835*
X453283D02*
X461283D01*
X453283Y326835*
X461283*
X453283Y318835*
X448362D02*
X456362D01*
X448362Y326835*
X456362*
X448362Y318835*
X443441D02*
X451441D01*
X443441Y326835*
X451441*
X443441Y318835*
X438520D02*
X446520D01*
X438520Y326835*
X446520*
X438520Y318835*
X433598D02*
X441598D01*
X433598Y326835*
X441598*
X433598Y318835*
X428677D02*
X436677D01*
X428677Y326835*
X436677*
X428677Y318835*
X423756D02*
X431756D01*
X423756Y326835*
X431756*
X423756Y318835*
X277890Y103874D02*
X285890D01*
X277890Y111874*
X285890*
X277890Y103874*
X282811D02*
X290811D01*
X282811Y111874*
X290811*
X282811Y103874*
X287732D02*
X295732D01*
X287732Y111874*
X295732*
X287732Y103874*
X292654D02*
X300654D01*
X292654Y111874*
X300654*
X292654Y103874*
X202953Y110173D02*
X206953Y114173D01*
X202953Y118173*
X198953Y114173*
X202953Y110173*
Y114173D02*
Y118173D01*
X220669Y110173D02*
X224669Y114173D01*
X220669Y118173*
X216669Y114173*
X220669Y110173*
Y114173D02*
Y118173D01*
X194031Y120016D02*
X202031D01*
Y128016*
X194031*
Y120016*
X198031Y124016D02*
Y128016D01*
X221591Y120016D02*
X229591D01*
Y128016*
X221591*
Y120016*
X225591Y124016D02*
Y128016D01*
X397055Y110638D02*
X401055Y114638D01*
X397055Y118638*
X393055Y114638*
X397055Y110638*
Y114638D02*
Y118638D01*
X414772Y110638D02*
X418772Y114638D01*
X414772Y118638*
X410772Y114638*
X414772Y110638*
Y114638D02*
Y118638D01*
X388134Y120480D02*
X396134D01*
Y128480*
X388134*
Y120480*
X392134Y124480D02*
Y128480D01*
X415693Y120480D02*
X423693D01*
Y128480*
X415693*
Y120480*
X419693Y124480D02*
Y128480D01*
X465291Y179528D02*
X473291D01*
X469291Y175528D02*
Y183528D01*
X472200Y184809D02*
X471291Y181528D01*
X472200Y184809D02*
X473110Y181528D01*
X471632Y182621D02*
X472769D01*
X435370Y179528D02*
X443370D01*
X439370Y175528D02*
Y183528D01*
X442279Y184809D02*
X441370Y181528D01*
X442279Y184809D02*
X443188Y181528D01*
X441711Y182621D02*
X442847D01*
X435094Y136181D02*
X443094D01*
X439094Y132181D02*
Y140181D01*
X442004Y141462D02*
X441094Y138181D01*
X442004Y141462D02*
X442913Y138181D01*
X441435Y139275D02*
X442572D01*
X446906Y136181D02*
X454906D01*
X450906Y132181D02*
Y140181D01*
X453815Y141462D02*
X452906Y138181D01*
X453815Y141462D02*
X454724Y138181D01*
X453246Y139275D02*
X454383D01*
X411236Y151181D02*
X419236D01*
X415236Y147181D02*
Y155181D01*
X418145Y156462D02*
X417236Y153181D01*
X418145Y156462D02*
X419054Y153181D01*
X417577Y154275D02*
X418713D01*
X401236Y151181D02*
X409236D01*
X405236Y147181D02*
Y155181D01*
X408145Y156462D02*
X407236Y153181D01*
X408145Y156462D02*
X409054Y153181D01*
X407577Y154275D02*
X408713D01*
X411236Y166929D02*
X419236D01*
X415236Y162929D02*
Y170929D01*
X418145Y172210D02*
X417236Y168929D01*
X418145Y172210D02*
X419054Y168929D01*
X417577Y170023D02*
X418713D01*
X401236Y166929D02*
X409236D01*
X405236Y162929D02*
Y170929D01*
X408145Y172210D02*
X407236Y168929D01*
X408145Y172210D02*
X409054Y168929D01*
X407577Y170023D02*
X408713D01*
X411236Y198425D02*
X419236D01*
X415236Y194425D02*
Y202425D01*
X418145Y203706D02*
X417236Y200425D01*
X418145Y203706D02*
X419054Y200425D01*
X417577Y201519D02*
X418713D01*
X401236Y198425D02*
X409236D01*
X405236Y194425D02*
Y202425D01*
X408145Y203706D02*
X407236Y200425D01*
X408145Y203706D02*
X409054Y200425D01*
X407577Y201519D02*
X408713D01*
X411236Y182677D02*
X419236D01*
X415236Y178677D02*
Y186677D01*
X418145Y187958D02*
X417236Y184677D01*
X418145Y187958D02*
X419054Y184677D01*
X417577Y185771D02*
X418713D01*
X401236Y182677D02*
X409236D01*
X405236Y178677D02*
Y186677D01*
X408145Y187958D02*
X407236Y184677D01*
X408145Y187958D02*
X409054Y184677D01*
X407577Y185771D02*
X408713D01*
X130646Y175709D02*
X138646D01*
X134646Y171709D02*
Y179709D01*
X137555Y180990D02*
X136646Y177709D01*
X137555Y180990D02*
X138464Y177709D01*
X136987Y178802D02*
X138123D01*
X130646Y185709D02*
X138646D01*
X134646Y181709D02*
Y189709D01*
X137555Y190990D02*
X136646Y187709D01*
X137555Y190990D02*
X138464Y187709D01*
X136987Y188802D02*
X138123D01*
X130646Y234764D02*
X138646D01*
X134646Y230764D02*
Y238764D01*
X137555Y240045D02*
X136646Y236764D01*
X137555Y240045D02*
X138464Y236764D01*
X136987Y237858D02*
X138123D01*
X130646Y244764D02*
X138646D01*
X134646Y240764D02*
Y248764D01*
X137555Y250045D02*
X136646Y246764D01*
X137555Y250045D02*
X138464Y246764D01*
X136987Y247858D02*
X138123D01*
X199740Y161787D02*
X207740D01*
X199740Y169787*
X207740*
X199740Y161787*
X194819D02*
X202819D01*
X194819Y169787*
X202819*
X194819Y161787*
X150764Y122362D02*
X158764D01*
X154764Y118362D02*
Y126362D01*
X184150Y108283D02*
X192150Y116283D01*
X184150D02*
X192150Y108283D01*
X188244Y124567D02*
X196244D01*
X192244Y120567D02*
Y128567D01*
X207772Y110709D02*
X215772D01*
X211772Y106709D02*
Y114709D01*
X231748Y116732D02*
X239748D01*
X235748Y112732D02*
Y120732D01*
X281433Y119213D02*
X289433D01*
X285433Y115213D02*
Y123213D01*
X303677Y116732D02*
X311677D01*
X307677Y112732D02*
Y120732D01*
X296079Y120118D02*
X304079D01*
X300079Y116118D02*
Y124118D01*
X303717Y113228D02*
X311717D01*
X307717Y109228D02*
Y117228D01*
X354465Y109409D02*
X362465D01*
X358465Y105409D02*
Y113409D01*
X352260Y118110D02*
X360260D01*
X356260Y114110D02*
Y122110D01*
X147339Y137520D02*
X155339D01*
X151339Y133520D02*
Y141520D01*
X169701Y135000D02*
X177701D01*
X173701Y131000D02*
Y139000D01*
X169701Y126378D02*
X177701D01*
X173701Y122378D02*
Y130378D01*
X184150Y133756D02*
X192150Y141756D01*
X184150D02*
X192150Y133756D01*
X203874Y129740D02*
X211874Y137740D01*
X203874D02*
X211874Y129740D01*
X199504Y136496D02*
X207504D01*
X203504Y132496D02*
Y140496D01*
X193520Y136693D02*
X201520D01*
X197520Y132693D02*
Y140693D01*
X207772Y128031D02*
X215772D01*
X211772Y124031D02*
Y132031D01*
X231748Y134606D02*
X239748D01*
X235748Y130606D02*
Y138606D01*
X244110Y135000D02*
X252110D01*
X248110Y131000D02*
Y139000D01*
X234583Y141339D02*
X242583D01*
X238583Y137339D02*
Y145339D01*
X253992Y126614D02*
X261992D01*
X257992Y122614D02*
Y130614D01*
X267457Y131496D02*
X275457D01*
X271457Y127496D02*
Y135496D01*
X305173Y134449D02*
X313173D01*
X309173Y130449D02*
Y138449D01*
X301354Y137638D02*
X309354D01*
X305354Y133638D02*
Y141638D01*
X313008Y131575D02*
X321008D01*
X317008Y127575D02*
Y135575D01*
X319228Y127732D02*
X327228Y135732D01*
X319228D02*
X327228Y127732D01*
X326709Y142520D02*
X334709D01*
X330709Y138520D02*
Y146520D01*
X360606Y127496D02*
X368606Y135496D01*
X360606D02*
X368606Y127496D01*
X171157Y153126D02*
X179157Y161126D01*
X171157D02*
X179157Y153126D01*
X203874Y147575D02*
X211874Y155575D01*
X203874D02*
X211874Y147575D01*
X197850Y146890D02*
X205850D01*
X201850Y142890D02*
Y150890D01*
X245606Y155512D02*
X253606D01*
X249606Y151512D02*
Y159512D01*
X234583Y157480D02*
X242583D01*
X238583Y153480D02*
Y161480D01*
X231433Y144425D02*
X239433Y152425D01*
X231433D02*
X239433Y144425D01*
X251906Y151575D02*
X259906D01*
X255906Y147575D02*
Y155575D01*
X265488Y155512D02*
X273488D01*
X269488Y151512D02*
Y159512D01*
X285370Y143244D02*
X293370Y151244D01*
X285370D02*
X293370Y143244D01*
X313165Y156929D02*
X321165D01*
X317165Y152929D02*
Y160929D01*
X319228Y157142D02*
X327228Y165142D01*
X319228D02*
X327228Y157142D01*
X331906Y165827D02*
X339906D01*
X335906Y161827D02*
Y169827D01*
X329071Y151969D02*
X337071D01*
X333071Y147969D02*
Y155969D01*
X366157Y163622D02*
X374157D01*
X370157Y159622D02*
Y167622D01*
X418835Y159055D02*
X426835D01*
X422835Y155055D02*
Y163055D01*
X426709Y159055D02*
X434709D01*
X430709Y155055D02*
Y163055D01*
X102220Y168976D02*
X110220D01*
X106220Y164976D02*
Y172976D01*
X107811Y178740D02*
X115811D01*
X111811Y174740D02*
Y182740D01*
X115685Y178740D02*
X123685D01*
X119685Y174740D02*
Y182740D01*
X115685Y182677D02*
X123685D01*
X119685Y178677D02*
Y186677D01*
X107811Y182677D02*
X115811D01*
X111811Y178677D02*
Y186677D01*
X158992Y184646D02*
X166992D01*
X162992Y180646D02*
Y188646D01*
X153087Y184646D02*
X161087D01*
X157087Y180646D02*
Y188646D01*
X164898Y184646D02*
X172898D01*
X168898Y180646D02*
Y188646D01*
X154622Y176709D02*
X162622Y184709D01*
X154622D02*
X162622Y176709D01*
X170803Y184646D02*
X178803D01*
X174803Y180646D02*
Y188646D01*
X236669Y165370D02*
X244669Y173370D01*
X236669D02*
X244669Y165370D01*
X286472Y181772D02*
X294472D01*
X290472Y177772D02*
Y185772D01*
X286512Y186102D02*
X294512D01*
X290512Y182102D02*
Y190102D01*
X322693Y181417D02*
X330693D01*
X326693Y177417D02*
Y185417D01*
X326512Y179764D02*
X334512D01*
X330512Y175764D02*
Y183764D01*
X313165Y177638D02*
X321165D01*
X317165Y173638D02*
Y181638D01*
X330449Y178189D02*
X338449D01*
X334449Y174189D02*
Y182189D01*
X364583Y182677D02*
X372583D01*
X368583Y178677D02*
Y186677D01*
X378205Y181024D02*
X386205D01*
X382205Y177024D02*
Y185024D01*
X426709Y166929D02*
X434709D01*
X430709Y162929D02*
Y170929D01*
X418835Y166929D02*
X426835D01*
X422835Y162929D02*
Y170929D01*
X418835Y174803D02*
X426835D01*
X422835Y170803D02*
Y178803D01*
X426709Y174803D02*
X434709D01*
X430709Y170803D02*
Y178803D01*
X426709Y182677D02*
X434709D01*
X430709Y178677D02*
Y186677D01*
X418835Y182677D02*
X426835D01*
X422835Y178677D02*
Y186677D01*
X107811Y194488D02*
X115811D01*
X111811Y190488D02*
Y198488D01*
X107811Y190551D02*
X115811D01*
X111811Y186551D02*
Y194551D01*
X115685Y194488D02*
X123685D01*
X119685Y190488D02*
Y198488D01*
X115685Y190551D02*
X123685D01*
X119685Y186551D02*
Y194551D01*
X143520Y185961D02*
X151520Y193961D01*
X143520D02*
X151520Y185961D01*
X203677Y190866D02*
X211677D01*
X207677Y186866D02*
Y194866D01*
X190488Y199150D02*
X198488Y207150D01*
X190488D02*
X198488Y199150D01*
X245055D02*
X253055Y207150D01*
X245055D02*
X253055Y199150D01*
X245055Y183480D02*
X253055Y191480D01*
X245055D02*
X253055Y183480D01*
X261354Y202362D02*
X269354D01*
X265354Y198362D02*
Y206362D01*
X257417Y202362D02*
X265417D01*
X261417Y198362D02*
Y206362D01*
X253480Y202362D02*
X261480D01*
X257480Y198362D02*
Y206362D01*
X249543Y202362D02*
X257543D01*
X253543Y198362D02*
Y206362D01*
X305173Y201772D02*
X313173D01*
X309173Y197772D02*
Y205772D01*
X302535Y197835D02*
X310535D01*
X306535Y193835D02*
Y201835D01*
X302811Y190866D02*
X310811D01*
X306811Y186866D02*
Y194866D01*
X300213Y199803D02*
X308213D01*
X304213Y195803D02*
Y203803D01*
X305724Y205709D02*
X313724D01*
X309724Y201709D02*
Y209709D01*
X302890Y203740D02*
X310890D01*
X306890Y199740D02*
Y207740D01*
X322693Y206102D02*
X330693D01*
X326693Y202102D02*
Y210102D01*
X309110Y190866D02*
X317110D01*
X313110Y186866D02*
Y194866D01*
X319425Y201181D02*
X327425D01*
X323425Y197181D02*
Y205181D01*
X307417Y188110D02*
X315417D01*
X311417Y184110D02*
Y192110D01*
X320409Y197047D02*
X328409D01*
X324409Y193047D02*
Y201047D01*
X336551Y195236D02*
X344551D01*
X340551Y191236D02*
Y199236D01*
X332417Y203780D02*
X340417D01*
X336417Y199780D02*
Y207780D01*
X339346Y195866D02*
X347346D01*
X343346Y191866D02*
Y199866D01*
X328480Y194331D02*
X336480D01*
X332480Y190331D02*
Y198331D01*
X336709Y201772D02*
X344709D01*
X340709Y197772D02*
Y205772D01*
X350134Y203819D02*
X358134D01*
X354134Y199819D02*
Y207819D01*
X362969Y199803D02*
X370969D01*
X366969Y195803D02*
Y203803D01*
X365764Y197835D02*
X373764D01*
X369764Y193835D02*
Y201835D01*
X388953Y188622D02*
X396953D01*
X392953Y184622D02*
Y192622D01*
X419504Y188622D02*
X427504D01*
X423504Y184622D02*
Y192622D01*
X115685Y225984D02*
X123685D01*
X119685Y221984D02*
Y229984D01*
X107811Y225984D02*
X115811D01*
X111811Y221984D02*
Y229984D01*
X133008Y210236D02*
X141008D01*
X137008Y206236D02*
Y214236D01*
X136984Y214213D02*
X144984D01*
X140984Y210213D02*
Y218213D01*
X199228Y214173D02*
X207228D01*
X203228Y210173D02*
Y218173D01*
X261354Y222047D02*
X269354D01*
X265354Y218047D02*
Y226047D01*
X261354Y218110D02*
X269354D01*
X265354Y214110D02*
Y222110D01*
X261354Y214173D02*
X269354D01*
X265354Y210173D02*
Y218173D01*
X257417Y214173D02*
X265417D01*
X261417Y210173D02*
Y218173D01*
X253480Y214173D02*
X261480D01*
X257480Y210173D02*
Y218173D01*
X277850Y209701D02*
X285850Y217701D01*
X277850D02*
X285850Y209701D01*
X300843Y215551D02*
X308843D01*
X304843Y211551D02*
Y219551D01*
X292850Y211614D02*
X300850D01*
X296850Y207614D02*
Y215614D01*
X296787Y213583D02*
X304787D01*
X300787Y209583D02*
Y217583D01*
X302024Y209528D02*
X310024D01*
X306024Y205528D02*
Y213528D01*
X288913Y218307D02*
X296913D01*
X292913Y214307D02*
Y222307D01*
X302024Y218307D02*
X310024D01*
X306024Y214307D02*
Y222307D01*
X322575Y215866D02*
X330575D01*
X326575Y211866D02*
Y219866D01*
X312693Y222835D02*
X320693D01*
X316693Y218835D02*
Y226835D01*
X324465Y213858D02*
X332465D01*
X328465Y209858D02*
Y217858D01*
X310764Y219764D02*
X318764D01*
X314764Y215764D02*
Y223764D01*
X344031Y220079D02*
X352031D01*
X348031Y216079D02*
Y224079D01*
X344031Y224016D02*
X352031D01*
X348031Y220016D02*
Y228016D01*
X334386Y207874D02*
X342386D01*
X338386Y203874D02*
Y211874D01*
X355843Y220079D02*
X363843D01*
X359843Y216079D02*
Y224079D01*
X347969Y224016D02*
X355969D01*
X351969Y220016D02*
Y228016D01*
X355843Y224016D02*
X363843D01*
X359843Y220016D02*
Y228016D01*
X347969Y220079D02*
X355969D01*
X351969Y216079D02*
Y224079D01*
X354465Y210630D02*
X362465D01*
X358465Y206630D02*
Y214630D01*
X352260Y208189D02*
X360260D01*
X356260Y204189D02*
Y212189D01*
X357850Y211630D02*
X365850Y219630D01*
X357850D02*
X365850Y211630D01*
X359780Y224016D02*
X367780D01*
X363780Y220016D02*
Y228016D01*
X359780Y220079D02*
X367780D01*
X363780Y216079D02*
Y224079D01*
X400921Y209055D02*
X408921D01*
X404921Y205055D02*
Y213055D01*
X426945Y209055D02*
X434945D01*
X430945Y205055D02*
Y213055D01*
X446394Y214173D02*
X454394D01*
X450394Y210173D02*
Y218173D01*
X446394Y222047D02*
X454394D01*
X450394Y218047D02*
Y226047D01*
X462142Y214173D02*
X470142D01*
X466142Y210173D02*
Y218173D01*
X454268Y214173D02*
X462268D01*
X458268Y210173D02*
Y218173D01*
X454268Y222047D02*
X462268D01*
X458268Y218047D02*
Y226047D01*
X462142Y222047D02*
X470142D01*
X466142Y218047D02*
Y226047D01*
X477890Y214173D02*
X485890D01*
X481890Y210173D02*
Y218173D01*
X470016Y214173D02*
X478016D01*
X474016Y210173D02*
Y218173D01*
X470016Y222047D02*
X478016D01*
X474016Y218047D02*
Y226047D01*
X477890Y222047D02*
X485890D01*
X481890Y218047D02*
Y226047D01*
X485764Y222047D02*
X493764D01*
X489764Y218047D02*
Y226047D01*
X115685Y229921D02*
X123685D01*
X119685Y225921D02*
Y233921D01*
X115685Y237795D02*
X123685D01*
X119685Y233795D02*
Y241795D01*
X107811Y229921D02*
X115811D01*
X111811Y225921D02*
Y233921D01*
X107811Y241732D02*
X115811D01*
X111811Y237732D02*
Y245732D01*
X107811Y237795D02*
X115811D01*
X111811Y233795D02*
Y241795D01*
X115685Y241732D02*
X123685D01*
X119685Y237732D02*
Y245732D01*
X164031Y244213D02*
X172031D01*
X168031Y240213D02*
Y248213D01*
X202299Y233189D02*
X210299D01*
X206299Y229189D02*
Y237189D01*
X202299Y240039D02*
X210299D01*
X206299Y236039D02*
Y244039D01*
X247496Y233402D02*
X255496Y241402D01*
X247496D02*
X255496Y233402D01*
X277890Y233717D02*
X285890Y241717D01*
X277890D02*
X285890Y233717D01*
X302890Y244213D02*
X310890D01*
X306890Y240213D02*
Y248213D01*
X323559Y229685D02*
X331559D01*
X327559Y225685D02*
Y233685D01*
X323677Y231472D02*
X331677Y239472D01*
X323677D02*
X331677Y231472D01*
X351866Y245512D02*
X359866D01*
X355866Y241512D02*
Y249512D01*
X377890Y234583D02*
X385890Y242583D01*
X377890D02*
X385890Y234583D01*
X389701Y226890D02*
X397701D01*
X393701Y222890D02*
Y230890D01*
X418244Y245984D02*
X426244D01*
X422244Y241984D02*
Y249984D01*
X435882Y243110D02*
X443882D01*
X439882Y239110D02*
Y247110D01*
X446394Y229921D02*
X454394D01*
X450394Y225921D02*
Y233921D01*
X462142Y229921D02*
X470142D01*
X466142Y225921D02*
Y233921D01*
X454268Y229921D02*
X462268D01*
X458268Y225921D02*
Y233921D01*
X485764Y229921D02*
X493764D01*
X489764Y225921D02*
Y233921D01*
X477890Y229921D02*
X485890D01*
X481890Y225921D02*
Y233921D01*
X470016Y229921D02*
X478016D01*
X474016Y225921D02*
Y233921D01*
X102220Y251220D02*
X110220D01*
X106220Y247220D02*
Y255220D01*
X172575Y247992D02*
X180575D01*
X176575Y243992D02*
Y251992D01*
X226748Y251260D02*
X234748D01*
X230748Y247260D02*
Y255260D01*
X235843Y254055D02*
X243843D01*
X239843Y250055D02*
Y258055D01*
X244110Y254031D02*
X252110Y262031D01*
X244110D02*
X252110Y254031D01*
X288913Y264252D02*
X296913D01*
X292913Y260252D02*
Y268252D01*
X305724Y247992D02*
X313724D01*
X309724Y243992D02*
Y251992D01*
X254583Y272126D02*
X262583D01*
X258583Y268126D02*
Y276126D01*
X300843Y286063D02*
X308843D01*
X304843Y282063D02*
Y290063D01*
X308283Y275709D02*
X316283D01*
X312283Y271709D02*
Y279709D01*
X313913Y279843D02*
X321913D01*
X317913Y275843D02*
Y283843D01*
X339346Y275709D02*
X347346D01*
X343346Y271709D02*
Y279709D01*
X330134Y266575D02*
X338134D01*
X334134Y262575D02*
Y270575D01*
X336709Y279843D02*
X344709D01*
X340709Y275843D02*
Y283843D01*
X362969Y269606D02*
X370969D01*
X366969Y265606D02*
Y273606D01*
X365764Y272913D02*
X373764D01*
X369764Y268913D02*
Y276913D01*
X374110Y266575D02*
X382110D01*
X378110Y262575D02*
Y270575D01*
X433795Y286063D02*
X441795D01*
X437795Y282063D02*
Y290063D01*
X438677Y269228D02*
X446677Y277228D01*
X438677D02*
X446677Y269228D01*
X227142Y291417D02*
X235142D01*
X231142Y287417D02*
Y295417D01*
X235921Y291614D02*
X243921D01*
X239921Y287614D02*
Y295614D01*
X244031Y287614D02*
X252031Y295614D01*
X244031D02*
X252031Y287614D01*
X250921Y288189D02*
X258921D01*
X254921Y284189D02*
Y292189D01*
X292850Y288976D02*
X300850D01*
X296850Y284976D02*
Y292976D01*
X296787Y288976D02*
X304787D01*
X300787Y284976D02*
Y292976D01*
X368087Y300512D02*
X376087D01*
X372087Y296512D02*
Y304512D01*
X376551Y294764D02*
X384551D01*
X380551Y290764D02*
Y298764D01*
X413283Y299543D02*
X421283Y307543D01*
X413283D02*
X421283Y299543D01*
X438441Y294567D02*
X446441D01*
X442441Y290567D02*
Y298567D01*
X227024Y314331D02*
X235024D01*
X231024Y310331D02*
Y318331D01*
X256433Y314173D02*
X264433D01*
X260433Y310173D02*
Y318173D01*
X329780Y310331D02*
X337780Y318331D01*
X329780D02*
X337780Y310331D01*
X351787Y318465D02*
X359787D01*
X355787Y314465D02*
Y322465D01*
X377929Y327638D02*
X385929D01*
X381929Y323638D02*
Y331638D01*
X100000Y126815D02*
Y303185D01*
X125063*
Y330000*
X476937*
Y303185*
X501000*
Y126815*
X476940*
X476937Y100000*
X125063*
Y126815*
X100000*
X533071Y340000D02*
X791071D01*
X533071Y316000D02*
X791071D01*
X533071Y292000D02*
X791071D01*
X533071Y268000D02*
X791071D01*
X533071Y244000D02*
X791071D01*
X533071Y220000D02*
X791071D01*
X533071Y196000D02*
X791071D01*
X533071Y172000D02*
X791071D01*
X533071Y148000D02*
X791071D01*
X533071Y124000D02*
X791071D01*
X533071Y100000D02*
X791071D01*
X533071Y340000D02*
Y100000D01*
X617071Y340000D02*
Y100000D01*
X653071Y340000D02*
Y100000D01*
X689071Y340000D02*
Y100000D01*
X743071Y340000D02*
Y100000D01*
X791071Y340000D02*
Y100000D01*
X568571Y328750D02*
X568025Y329500D01*
X567207Y329875*
X566116*
X565298Y329500*
X564753Y328750*
Y328000*
X565025Y327250*
X565298Y326875*
X565844Y326500*
X567480Y325750*
X568025Y325375*
X568298Y325000*
X568571Y324250*
Y323125*
X568025Y322375*
X567207Y322000*
X566116*
X565298Y322375*
X564753Y323125*
X571025Y329875D02*
Y322000D01*
X577298Y329875D02*
X573480Y322000D01*
Y329875D02*
X577298D01*
X573480Y322000D02*
X577298D01*
X579753Y329875D02*
Y322000D01*
Y329875D02*
X583298D01*
X579753Y326125D02*
X581935D01*
X579753Y322000D02*
X583298D01*
X626935Y329875D02*
X626389Y329500D01*
X625844Y328750*
X625571Y328000*
X625298Y326875*
Y325000*
X625571Y323875*
X625844Y323125*
X626389Y322375*
X626935Y322000*
X628025*
X628571Y322375*
X629116Y323125*
X629389Y323875*
X629662Y325000*
Y326875*
X629389Y328000*
X629116Y328750*
X628571Y329500*
X628025Y329875*
X626935*
X627753Y323500D02*
X629389Y321250D01*
X634025Y329875D02*
Y322000D01*
X632116Y329875D02*
X635935D01*
X638389D02*
X640571Y326125D01*
Y322000*
X642753Y329875D02*
X640571Y326125D01*
X665116Y328750D02*
X664571Y329500D01*
X663753Y329875*
X662662*
X661844Y329500*
X661298Y328750*
Y328000*
X661571Y327250*
X661844Y326875*
X662389Y326500*
X664025Y325750*
X664571Y325375*
X664844Y325000*
X665116Y324250*
Y323125*
X664571Y322375*
X663753Y322000*
X662662*
X661844Y322375*
X661298Y323125*
X667571Y329875D02*
X669753Y326125D01*
Y322000*
X671935Y329875D02*
X669753Y326125D01*
X674389Y329875D02*
Y322000D01*
Y329875D02*
X676571Y322000D01*
X678753Y329875D02*
X676571Y322000D01*
X678753Y329875D02*
Y322000D01*
X700571Y329875D02*
Y322000D01*
Y329875D02*
X703025D01*
X703844Y329500*
X704116Y329125*
X704389Y328375*
Y327250*
X704116Y326500*
X703844Y326125*
X703025Y325750*
X700571*
X706844Y329875D02*
Y322000D01*
X710116*
X714753Y329875D02*
X712571Y322000D01*
X714753Y329875D02*
X716935Y322000D01*
X713389Y324625D02*
X716116D01*
X721298Y329875D02*
Y322000D01*
X719389Y329875D02*
X723207D01*
X725662D02*
Y322000D01*
Y329875D02*
X729207D01*
X725662Y326125D02*
X727844D01*
X725662Y322000D02*
X729207D01*
X731662Y329875D02*
Y322000D01*
Y329875D02*
X733571D01*
X734389Y329500*
X734935Y328750*
X734935D02*
X735207Y328000D01*
X735480Y326875*
Y325000*
X735207Y323875*
X734935Y323125*
X734935D02*
X734389Y322375D01*
X733571Y322000*
X731662*
X759753Y329875D02*
Y322000D01*
X757844Y329875D02*
X761662D01*
X765753D02*
X765207Y329500D01*
X764662Y328750*
X764389Y328000*
X764116Y326875*
Y325000*
X764389Y323875*
X764662Y323125*
X765207Y322375*
X765753Y322000*
X766844*
X767389Y322375*
X767935Y323125*
X767935D02*
X768207Y323875D01*
X768480Y325000*
Y326875*
X768207Y328000*
X767935Y328750*
X767935D02*
X767389Y329500D01*
X766844Y329875*
X765753*
X770935D02*
Y322000D01*
X770935D02*
X774207D01*
X540707Y305875D02*
X539889Y305500D01*
X539344Y304375*
X539071Y302500*
Y301375*
X539344Y299500*
X539889Y298375*
X540707Y298000*
X541253*
X542071Y298375*
X542616Y299500*
X542889Y301375*
Y302500*
X542616Y304375*
X542071Y305500*
X541253Y305875*
X540707*
X545616Y298750D02*
X545344Y298375D01*
X545616Y298000*
X545889Y298375*
X545616Y298750*
X548616Y304000D02*
Y304375D01*
X548889Y305125*
X549162Y305500*
X549707Y305875*
X550798*
X551344Y305500*
X551616Y305125*
X551889Y304375*
Y303625*
X551616Y302875*
X551071Y301750*
X548344Y298000*
X552162*
X627071Y304375D02*
X627616Y304750D01*
X628435Y305875*
X628435D02*
Y298000D01*
X632253Y305875D02*
X631435Y305500D01*
X631435D02*
X631162Y304750D01*
Y304000*
X631435Y303250*
X631435D02*
X631980Y302875D01*
X633071Y302500*
X633889Y302125*
X634435Y301375*
X634435D02*
X634707Y300625D01*
Y299500*
X634435Y298750*
X634435D02*
X634162Y298375D01*
X633344Y298000*
X632253*
X631435Y298375*
X631435D02*
X631162Y298750D01*
X630889Y299500*
Y300625*
X631162Y301375*
X631707Y302125*
X632525Y302500*
X633616Y302875*
X634162Y303250*
X634435Y304000*
X634435D02*
Y304750D01*
X634435D02*
X634162Y305500D01*
X633344Y305875*
X632253*
X637707D02*
X640707D01*
X639071Y302875*
X639889*
X640435Y302500*
X640435D02*
X640707Y302125D01*
X640980Y301000*
Y300250*
X640707Y299125*
X640162Y298375*
X639344Y298000*
X638525*
X637707Y298375*
X637435Y298750*
X637435D02*
X637162Y299500D01*
X665071Y304000D02*
X677071D01*
X671071Y298000D02*
Y310000D01*
X697707Y305875D02*
X699889Y302125D01*
Y298000*
X702071Y305875D02*
X699889Y302125D01*
X704525Y305875D02*
Y298000D01*
Y305875D02*
X708071D01*
X704525Y302125D02*
X706707D01*
X704525Y298000D02*
X708071D01*
X714344Y304750D02*
X713798Y305500D01*
X712980Y305875*
X711889*
X711071Y305500*
X710525Y304750*
Y304000*
X710798Y303250*
X711071Y302875*
X711616Y302500*
X713253Y301750*
X713798Y301375*
X714071Y301000*
X714344Y300250*
Y299125*
X713798Y298375*
X712980Y298000*
X711889*
X711071Y298375*
X710525Y299125*
X750889Y304750D02*
Y298000D01*
X748435Y301375D02*
X753344D01*
X760707Y307375D02*
X755798Y295375D01*
X763162Y301375D02*
X768071D01*
X772162Y305875D02*
X771344Y305500D01*
X770798Y304375*
X770525Y302500*
Y301375*
X770798Y299500*
X771344Y298375*
X772162Y298000*
X772707*
X773525Y298375*
X774071Y299500*
X774344Y301375*
Y302500*
X774071Y304375*
X773525Y305500*
X772707Y305875*
X772162*
X777071Y298750D02*
X776798Y298375D01*
X777071Y298000*
X777344Y298375*
X777071Y298750*
X781435Y305875D02*
X780616Y305500D01*
X780071Y304375*
X779798Y302500*
Y301375*
X780071Y299500*
X780616Y298375*
X781435Y298000*
X781980*
X782798Y298375*
X783344Y299500*
X783616Y301375*
Y302500*
X783344Y304375*
X782798Y305500*
X781980Y305875*
X781435*
X540707Y281875D02*
X539889Y281500D01*
X539344Y280375*
X539071Y278500*
Y277375*
X539344Y275500*
X539889Y274375*
X540707Y274000*
X541253*
X542071Y274375*
X542616Y275500*
X542889Y277375*
Y278500*
X542616Y280375*
X542071Y281500*
X541253Y281875*
X540707*
X545616Y274750D02*
X545344Y274375D01*
X545616Y274000*
X545889Y274375*
X545616Y274750*
X551071Y281875D02*
X548344Y276625D01*
X552435*
X551071Y281875D02*
Y274000D01*
X629253Y280000D02*
Y280375D01*
X629525Y281125*
X629798Y281500*
X630344Y281875*
X631435*
X631980Y281500*
X632253Y281125*
X632525Y280375*
Y279625*
X632253Y278875*
X631707Y277750*
X628980Y274000*
X632798*
X639071Y281875D02*
X636344Y274000D01*
X635253Y281875D02*
X639071D01*
X665071Y274000D02*
X677071Y286000D01*
X665071D02*
X677071Y274000D01*
X697707Y281875D02*
X699889Y278125D01*
Y274000*
X702071Y281875D02*
X699889Y278125D01*
X704525Y281875D02*
Y274000D01*
Y281875D02*
X708071D01*
X704525Y278125D02*
X706707D01*
X704525Y274000D02*
X708071D01*
X714344Y280750D02*
X713798Y281500D01*
X712980Y281875*
X711889*
X711071Y281500*
X710525Y280750*
Y280000*
X710798Y279250*
X711071Y278875*
X711616Y278500*
X713253Y277750*
X713798Y277375*
X714071Y277000*
X714344Y276250*
Y275125*
X713798Y274375*
X712980Y274000*
X711889*
X711071Y274375*
X710525Y275125*
X750889Y280750D02*
Y274000D01*
X748435Y277375D02*
X753344D01*
X760707Y283375D02*
X755798Y271375D01*
X763162Y277375D02*
X768071D01*
X772162Y281875D02*
X771344Y281500D01*
X770798Y280375*
X770525Y278500*
Y277375*
X770798Y275500*
X771344Y274375*
X772162Y274000*
X772707*
X773525Y274375*
X774071Y275500*
X774344Y277375*
Y278500*
X774071Y280375*
X773525Y281500*
X772707Y281875*
X772162*
X777071Y274750D02*
X776798Y274375D01*
X777071Y274000*
X777344Y274375*
X777071Y274750*
X781435Y281875D02*
X780616Y281500D01*
X780071Y280375*
X779798Y278500*
Y277375*
X780071Y275500*
X780616Y274375*
X781435Y274000*
X781980*
X782798Y274375*
X783344Y275500*
X783616Y277375*
Y278500*
X783344Y280375*
X782798Y281500*
X781980Y281875*
X781435*
X539071Y256375D02*
X539616Y256750D01*
X540435Y257875*
X540435D02*
Y250000D01*
X543162Y250750D02*
X542889Y250375D01*
X543162Y250000*
X543435Y250375*
X543435D02*
X543162Y250750D01*
X546435Y257875D02*
X549435D01*
X549435D02*
X547798Y254875D01*
X548616*
X549162Y254500*
X549435Y254125*
X549435D02*
X549707Y253000D01*
Y252250*
X549435Y251125*
X549435D02*
X548889Y250375D01*
X548071Y250000*
X547253*
X546435Y250375*
X546435D02*
X546162Y250750D01*
X545889Y251500*
X634707Y257875D02*
X631980Y252625D01*
X636071*
X634707Y257875D02*
Y250000D01*
X665071D02*
X677071D01*
Y262000*
X665071*
Y250000*
X671071Y256000D02*
Y262000D01*
X697707Y257875D02*
X699889Y254125D01*
Y250000*
X702071Y257875D02*
X699889Y254125D01*
X704525Y257875D02*
Y250000D01*
Y257875D02*
X708071D01*
X704525Y254125D02*
X706707D01*
X704525Y250000D02*
X708071D01*
X714344Y256750D02*
X713798Y257500D01*
X712980Y257875*
X711889*
X711071Y257500*
X710525Y256750*
Y256000*
X710798Y255250*
X711071Y254875*
X711616Y254500*
X713253Y253750*
X713798Y253375*
X714071Y253000*
X714344Y252250*
Y251125*
X713798Y250375*
X712980Y250000*
X711889*
X711071Y250375*
X710525Y251125*
X750889Y256750D02*
Y250000D01*
X748435Y253375D02*
X753344D01*
X760707Y259375D02*
X755798Y247375D01*
X763162Y253375D02*
X768071D01*
X772162Y257875D02*
X771344Y257500D01*
X770798Y256375*
X770525Y254500*
Y253375*
X770798Y251500*
X771344Y250375*
X772162Y250000*
X772707*
X773525Y250375*
X774071Y251500*
X774344Y253375*
Y254500*
X774071Y256375*
X773525Y257500*
X772707Y257875*
X772162*
X777071Y250750D02*
X776798Y250375D01*
X777071Y250000*
X777344Y250375*
X777071Y250750*
X781435Y257875D02*
X780616Y257500D01*
X780071Y256375*
X779798Y254500*
Y253375*
X780071Y251500*
X780616Y250375*
X781435Y250000*
X781980*
X782798Y250375*
X783344Y251500*
X783616Y253375*
Y254500*
X783344Y256375*
X782798Y257500*
X781980Y257875*
X781435*
X539071Y232375D02*
X539616Y232750D01*
X540435Y233875*
X540435D02*
Y226000D01*
X634707Y233875D02*
X631980Y228625D01*
X636071*
X634707Y233875D02*
Y226000D01*
X671071D02*
X677071Y232000D01*
X671071Y238000*
X665071Y232000*
X671071Y226000*
Y232000D02*
Y238000D01*
X697707Y233875D02*
X699889Y230125D01*
Y226000*
X702071Y233875D02*
X699889Y230125D01*
X704525Y233875D02*
Y226000D01*
Y233875D02*
X708071D01*
X704525Y230125D02*
X706707D01*
X704525Y226000D02*
X708071D01*
X714344Y232750D02*
X713798Y233500D01*
X712980Y233875*
X711889*
X711071Y233500*
X710525Y232750*
Y232000*
X710798Y231250*
X711071Y230875*
X711616Y230500*
X713253Y229750*
X713798Y229375*
X714071Y229000*
X714344Y228250*
Y227125*
X713798Y226375*
X712980Y226000*
X711889*
X711071Y226375*
X710525Y227125*
X750889Y232750D02*
Y226000D01*
X748435Y229375D02*
X753344D01*
X760707Y235375D02*
X755798Y223375D01*
X763162Y229375D02*
X768071D01*
X772162Y233875D02*
X771344Y233500D01*
X770798Y232375*
X770525Y230500*
Y229375*
X770798Y227500*
X771344Y226375*
X772162Y226000*
X772707*
X773525Y226375*
X774071Y227500*
X774344Y229375*
Y230500*
X774071Y232375*
X773525Y233500*
X772707Y233875*
X772162*
X777071Y226750D02*
X776798Y226375D01*
X777071Y226000*
X777344Y226375*
X777071Y226750*
X781435Y233875D02*
X780616Y233500D01*
X780071Y232375*
X779798Y230500*
Y229375*
X780071Y227500*
X780616Y226375*
X781435Y226000*
X781980*
X782798Y226375*
X783344Y227500*
X783616Y229375*
Y230500*
X783344Y232375*
X782798Y233500*
X781980Y233875*
X781435*
X540707Y209875D02*
X539889Y209500D01*
X539344Y208375*
X539071Y206500*
Y205375*
X539344Y203500*
X539889Y202375*
X540707Y202000*
X541253*
X542071Y202375*
X542616Y203500*
X542889Y205375*
Y206500*
X542616Y208375*
X542071Y209500*
X541253Y209875*
X540707*
X545616Y202750D02*
X545344Y202375D01*
X545616Y202000*
X545889Y202375*
X545616Y202750*
X551889Y209875D02*
X549162D01*
X548889Y206500*
X549162Y206875*
X549980Y207250*
X550798*
X551616Y206875*
X552162Y206125*
X552435Y205000*
X552435D02*
X552162Y204250D01*
X551889Y203125*
X551344Y202375*
X550525Y202000*
X549707*
X548889Y202375*
X548616Y202750*
X548344Y203500*
X630344Y208375D02*
X630889Y208750D01*
X631707Y209875*
Y202000*
X637435Y208750D02*
X637162Y209500D01*
X636344Y209875*
X635798*
X634980Y209500*
X634435Y208375*
X634435D02*
X634162Y206500D01*
Y204625*
X634435Y203125*
X634435D02*
X634980Y202375D01*
X635798Y202000*
X636071*
X636889Y202375*
X637435Y203125*
X637435D02*
X637707Y204250D01*
Y204625*
X637435Y205750*
X637435D02*
X636889Y206500D01*
X636071Y206875*
X635798*
X634980Y206500*
X634435Y205750*
X634435D02*
X634162Y204625D01*
X665071Y202000D02*
X677071D01*
X665071Y214000*
X677071*
X665071Y202000*
X697707Y209875D02*
X699889Y206125D01*
Y202000*
X702071Y209875D02*
X699889Y206125D01*
X704525Y209875D02*
Y202000D01*
Y209875D02*
X708071D01*
X704525Y206125D02*
X706707D01*
X704525Y202000D02*
X708071D01*
X714344Y208750D02*
X713798Y209500D01*
X712980Y209875*
X711889*
X711071Y209500*
X710525Y208750*
Y208000*
X710798Y207250*
X711071Y206875*
X711616Y206500*
X713253Y205750*
X713798Y205375*
X714071Y205000*
X714344Y204250*
Y203125*
X713798Y202375*
X712980Y202000*
X711889*
X711071Y202375*
X710525Y203125*
X750889Y208750D02*
Y202000D01*
X748435Y205375D02*
X753344D01*
X760707Y211375D02*
X755798Y199375D01*
X763162Y205375D02*
X768071D01*
X772162Y209875D02*
X771344Y209500D01*
X770798Y208375*
X770525Y206500*
Y205375*
X770798Y203500*
X771344Y202375*
X772162Y202000*
X772707*
X773525Y202375*
X774071Y203500*
X774344Y205375*
Y206500*
X774071Y208375*
X773525Y209500*
X772707Y209875*
X772162*
X777071Y202750D02*
X776798Y202375D01*
X777071Y202000*
X777344Y202375*
X777071Y202750*
X781435Y209875D02*
X780616Y209500D01*
X780071Y208375*
X779798Y206500*
Y205375*
X780071Y203500*
X780616Y202375*
X781435Y202000*
X781980*
X782798Y202375*
X783344Y203500*
X783616Y205375*
Y206500*
X783344Y208375*
X782798Y209500*
X781980Y209875*
X781435*
X539344Y184000D02*
Y184375D01*
X539616Y185125*
X539889Y185500*
X540435Y185875*
X540435D02*
X541525D01*
X542071Y185500*
X542344Y185125*
X542616Y184375*
Y183625*
X542344Y182875*
X541798Y181750*
X539071Y178000*
X542889*
X545616Y178750D02*
X545344Y178375D01*
X545616Y178000*
X545889Y178375*
X545616Y178750*
X551889Y185875D02*
X549162D01*
X548889Y182500*
X549162Y182875*
X549980Y183250*
X550798*
X551616Y182875*
X552162Y182125*
X552435Y181000*
X552435D02*
X552162Y180250D01*
X551889Y179125*
X551344Y178375*
X550525Y178000*
X549707*
X548889Y178375*
X548616Y178750*
X548344Y179500*
X634707Y185875D02*
X631980Y180625D01*
X636071*
X634707Y185875D02*
Y178000D01*
X665071D02*
X677071Y190000D01*
Y178000*
X665071Y190000*
Y178000*
X697707Y185875D02*
X699889Y182125D01*
Y178000*
X702071Y185875D02*
X699889Y182125D01*
X704525Y185875D02*
Y178000D01*
Y185875D02*
X708071D01*
X704525Y182125D02*
X706707D01*
X704525Y178000D02*
X708071D01*
X714344Y184750D02*
X713798Y185500D01*
X712980Y185875*
X711889*
X711071Y185500*
X710525Y184750*
Y184000*
X710798Y183250*
X711071Y182875*
X711616Y182500*
X713253Y181750*
X713798Y181375*
X714071Y181000*
X714344Y180250*
Y179125*
X713798Y178375*
X712980Y178000*
X711889*
X711071Y178375*
X710525Y179125*
X750889Y184750D02*
Y178000D01*
X748435Y181375D02*
X753344D01*
X760707Y187375D02*
X755798Y175375D01*
X763162Y181375D02*
X768071D01*
X772162Y185875D02*
X771344Y185500D01*
X770798Y184375*
X770525Y182500*
Y181375*
X770798Y179500*
X771344Y178375*
X772162Y178000*
X772707*
X773525Y178375*
X774071Y179500*
X774344Y181375*
Y182500*
X774071Y184375*
X773525Y185500*
X772707Y185875*
X772162*
X777071Y178750D02*
X776798Y178375D01*
X777071Y178000*
X777344Y178375*
X777071Y178750*
X781435Y185875D02*
X780616Y185500D01*
X780071Y184375*
X779798Y182500*
Y181375*
X780071Y179500*
X780616Y178375*
X781435Y178000*
X781980*
X782798Y178375*
X783344Y179500*
X783616Y181375*
Y182500*
X783344Y184375*
X782798Y185500*
X781980Y185875*
X781435*
X540707Y161875D02*
X539889Y161500D01*
X539344Y160375*
X539071Y158500*
Y157375*
X539344Y155500*
X539889Y154375*
X540707Y154000*
X541253*
X542071Y154375*
X542616Y155500*
X542889Y157375*
Y158500*
X542616Y160375*
X542071Y161500*
X541253Y161875*
X540707*
X545616Y154750D02*
X545344Y154375D01*
X545616Y154000*
X545889Y154375*
X545616Y154750*
X549707Y161875D02*
X548889Y161500D01*
X548616Y160750*
Y160000*
X548889Y159250*
X549435Y158875*
X549435D02*
X550525Y158500D01*
X551344Y158125*
X551889Y157375*
X552162Y156625*
Y155500*
X551889Y154750*
X551616Y154375*
X550798Y154000*
X549707*
X548889Y154375*
X548616Y154750*
X548344Y155500*
Y156625*
X548616Y157375*
X549162Y158125*
X549980Y158500*
X551071Y158875*
X551616Y159250*
X551889Y160000*
Y160750*
X551616Y161500*
X550798Y161875*
X549707*
X630344Y160375D02*
X630889Y160750D01*
X631707Y161875*
Y154000*
X637435Y160750D02*
X637162Y161500D01*
X636344Y161875*
X635798*
X634980Y161500*
X634435Y160375*
X634435D02*
X634162Y158500D01*
Y156625*
X634435Y155125*
X634435D02*
X634980Y154375D01*
X635798Y154000*
X636071*
X636889Y154375*
X637435Y155125*
X637435D02*
X637707Y156250D01*
Y156625*
X637435Y157750*
X637435D02*
X636889Y158500D01*
X636071Y158875*
X635798*
X634980Y158500*
X634435Y157750*
X634435D02*
X634162Y156625D01*
X665071Y160000D02*
X677071D01*
X671071Y154000D02*
Y166000D01*
X675816Y169300D02*
X674071Y163000D01*
X675816Y169300D02*
X677562Y163000D01*
X674725Y165100D02*
X676907D01*
X697707Y161875D02*
X699889Y158125D01*
Y154000*
X702071Y161875D02*
X699889Y158125D01*
X704525Y161875D02*
Y154000D01*
Y161875D02*
X708071D01*
X704525Y158125D02*
X706707D01*
X704525Y154000D02*
X708071D01*
X714344Y160750D02*
X713798Y161500D01*
X712980Y161875*
X711889*
X711071Y161500*
X710525Y160750*
Y160000*
X710798Y159250*
X711071Y158875*
X711616Y158500*
X713253Y157750*
X713798Y157375*
X714071Y157000*
X714344Y156250*
Y155125*
X713798Y154375*
X712980Y154000*
X711889*
X711071Y154375*
X710525Y155125*
X750889Y160750D02*
Y154000D01*
X748435Y157375D02*
X753344D01*
X760707Y163375D02*
X755798Y151375D01*
X763162Y157375D02*
X768071D01*
X772162Y161875D02*
X771344Y161500D01*
X770798Y160375*
X770525Y158500*
Y157375*
X770798Y155500*
X771344Y154375*
X772162Y154000*
X772707*
X773525Y154375*
X774071Y155500*
X774344Y157375*
Y158500*
X774071Y160375*
X773525Y161500*
X772707Y161875*
X772162*
X777071Y154750D02*
X776798Y154375D01*
X777071Y154000*
X777344Y154375*
X777071Y154750*
X781435Y161875D02*
X780616Y161500D01*
X780071Y160375*
X779798Y158500*
Y157375*
X780071Y155500*
X780616Y154375*
X781435Y154000*
X781980*
X782798Y154375*
X783344Y155500*
X783616Y157375*
Y158500*
X783344Y160375*
X782798Y161500*
X781980Y161875*
X781435*
X539616Y137875D02*
X542616D01*
X540980Y134875*
X541798*
X542344Y134500*
X542616Y134125*
X542889Y133000*
Y132250*
X542616Y131125*
X542071Y130375*
X541253Y130000*
X540435*
X540435D02*
X539616Y130375D01*
X539344Y130750*
X539071Y131500*
X632389Y136000D02*
Y136375D01*
X632662Y137125*
X632935Y137500*
X632935D02*
X633480Y137875D01*
X634571*
X635116Y137500*
X635389Y137125*
X635662Y136375*
Y135625*
X635389Y134875*
X634844Y133750*
X632116Y130000*
X635935*
X665071Y136000D02*
X677071D01*
X671071Y130000D02*
Y142000D01*
X674071Y145300D02*
Y139000D01*
Y145300D02*
X676035D01*
X676035D02*
X676689Y145000D01*
X676907Y144700*
X677125Y144100*
Y143500*
X676907Y142900*
X676689Y142600*
X676035Y142300*
X674071D02*
X676035D01*
X676035D02*
X676689Y142000D01*
X676907Y141700*
X677125Y141100*
Y140200*
X676907Y139600*
X676689Y139300*
X676035Y139000*
X676035D02*
X674071D01*
X697707Y137875D02*
X699889Y134125D01*
Y130000*
X702071Y137875D02*
X699889Y134125D01*
X704525Y137875D02*
Y130000D01*
Y137875D02*
X708071D01*
X704525Y134125D02*
X706707D01*
X704525Y130000D02*
X708071D01*
X714344Y136750D02*
X713798Y137500D01*
X712980Y137875*
X711889*
X711071Y137500*
X710525Y136750*
Y136000*
X710798Y135250*
X711071Y134875*
X711616Y134500*
X713253Y133750*
X713798Y133375*
X714071Y133000*
X714344Y132250*
Y131125*
X713798Y130375*
X712980Y130000*
X711889*
X711071Y130375*
X710525Y131125*
X750889Y136750D02*
Y130000D01*
X748435Y133375D02*
X753344D01*
X760707Y139375D02*
X755798Y127375D01*
X763162Y133375D02*
X768071D01*
X772162Y137875D02*
X771344Y137500D01*
X770798Y136375*
X770525Y134500*
Y133375*
X770798Y131500*
X771344Y130375*
X772162Y130000*
X772707*
X773525Y130375*
X774071Y131500*
X774344Y133375*
Y134500*
X774071Y136375*
X773525Y137500*
X772707Y137875*
X772162*
X777071Y130750D02*
X776798Y130375D01*
X777071Y130000*
X777344Y130375*
X777071Y130750*
X781435Y137875D02*
X780616Y137500D01*
X780071Y136375*
X779798Y134500*
Y133375*
X780071Y131500*
X780616Y130375*
X781435Y130000*
X781980*
X782798Y130375*
X783344Y131500*
X783616Y133375*
Y134500*
X783344Y136375*
X782798Y137500*
X781980Y137875*
X781435*
X540707Y113875D02*
X539889Y113500D01*
X539344Y112375*
X539071Y110500*
Y109375*
X539344Y107500*
X539889Y106375*
X540707Y106000*
X541253*
X542071Y106375*
X542616Y107500*
X542889Y109375*
Y110500*
X542616Y112375*
X542071Y113500*
X541253Y113875*
X540707*
X545616Y106750D02*
X545344Y106375D01*
X545616Y106000*
X545889Y106375*
X545616Y106750*
X551889Y111250D02*
X551616Y110125D01*
X551071Y109375*
X550253Y109000*
X549980*
X549162Y109375*
X548616Y110125*
X548344Y111250*
Y111625*
X548616Y112750*
X549162Y113500*
X549980Y113875*
X550253*
X551071Y113500*
X551616Y112750*
X551889Y111250*
Y109375*
X551616Y107500*
X551071Y106375*
X550253Y106000*
X549707*
X548889Y106375*
X548616Y107125*
X633480Y113875D02*
X632662Y113500D01*
X632389Y112750*
Y112000*
X632662Y111250*
X633207Y110875*
X634298Y110500*
X635116Y110125*
X635662Y109375*
X635935Y108625*
X635935D02*
Y107500D01*
X635935D02*
X635662Y106750D01*
X635389Y106375*
X634571Y106000*
X633480*
X632662Y106375*
X632389Y106750*
X632116Y107500*
Y108625*
X632389Y109375*
X632935Y110125*
X632935D02*
X633753Y110500D01*
X634844Y110875*
X635389Y111250*
X635662Y112000*
Y112750*
X635389Y113500*
X634571Y113875*
X633480*
X665071Y112000D02*
X677071D01*
X671071Y106000D02*
Y118000D01*
X677344Y119800D02*
X677125Y120400D01*
X676689Y121000*
X676253Y121300*
X675380*
X674944Y121000*
X674507Y120400*
X674289Y119800*
X674071Y118900*
Y117400*
X674289Y116500*
X674507Y115900*
X674944Y115300*
X675380Y115000*
X676253*
X676689Y115300*
X677125Y115900*
X677344Y116500*
X697707Y113875D02*
X699889Y110125D01*
Y106000*
X702071Y113875D02*
X699889Y110125D01*
X704525Y113875D02*
Y106000D01*
Y113875D02*
X708071D01*
X704525Y110125D02*
X706707D01*
X704525Y106000D02*
X708071D01*
X714344Y112750D02*
X713798Y113500D01*
X712980Y113875*
X711889*
X711071Y113500*
X710525Y112750*
Y112000*
X710798Y111250*
X711071Y110875*
X711616Y110500*
X713253Y109750*
X713798Y109375*
X714071Y109000*
X714344Y108250*
Y107125*
X713798Y106375*
X712980Y106000*
X711889*
X711071Y106375*
X710525Y107125*
X750889Y112750D02*
Y106000D01*
X748435Y109375D02*
X753344D01*
X760707Y115375D02*
X755798Y103375D01*
X763162Y109375D02*
X768071D01*
X772162Y113875D02*
X771344Y113500D01*
X770798Y112375*
X770525Y110500*
Y109375*
X770798Y107500*
X771344Y106375*
X772162Y106000*
X772707*
X773525Y106375*
X774071Y107500*
X774344Y109375*
Y110500*
X774071Y112375*
X773525Y113500*
X772707Y113875*
X772162*
X777071Y106750D02*
X776798Y106375D01*
X777071Y106000*
X777344Y106375*
X777071Y106750*
X781435Y113875D02*
X780616Y113500D01*
X780071Y112375*
X779798Y110500*
Y109375*
X780071Y107500*
X780616Y106375*
X781435Y106000*
X781980*
X782798Y106375*
X783344Y107500*
X783616Y109375*
Y110500*
X783344Y112375*
X782798Y113500*
X781980Y113875*
X781435*
X0Y0D02*
M02*
