%
T1C.00787F0S0
X010622Y016898
X011181Y017874
X011969Y017874
X011969Y018268
X011181Y018268
X011181Y019055
X011969Y019055
X011969Y019449
X011181Y019449
X011969Y022598
X011181Y022598
X011969Y022992
X011181Y022992
X011969Y02378
X011181Y02378
X011181Y024173
X011969Y024173
X010622Y025122
X017657Y024799
X016803Y024421
X014098Y021421
X013701Y021024
X016299Y018465
X015709Y018465
X01689Y018465
X01748Y018465
X015134Y013752
X01737Y0135
X01737Y012638
X015476Y012236
X021177Y011071
X019224Y012457
X021177Y012803
X02035Y01365
X019752Y013669
X020185Y014689
X020768Y019087
X020323Y021417
X02063Y023319
X02063Y024004
X023075Y025126
X023114Y029142
X023102Y031433
X023992Y029161
X025492Y028819
X023984Y025406
X025354Y020236
X023858Y015748
X024961Y015551
X025591Y015157
X023858Y014134
X024811Y0135
X023575Y013461
X023575Y011673
X025799Y012661
X027146Y01315
X026949Y015551
X026535Y020236
X026142Y020236
X025748Y020236
X026535Y021417
X026142Y021417
X025748Y021417
X026535Y021811
X026535Y022205
X025858Y027213
X026043Y031417
X029685Y028898
X030079Y028898
X030484Y028606
X029291Y026425
X029291Y021831
X030602Y021831
X030484Y021555
X030079Y021358
X029685Y021161
X030602Y020953
X030421Y01998
X029051Y01861
X029047Y018177
X030535Y013764
X030008Y012012
X028543Y011921
X030772Y011323
X030768Y011673
X031701Y013157
X030917Y013445
X033071Y014252
X031717Y015693
X031717Y017764
X033051Y017976
X032669Y018142
X031142Y018811
X031311Y019087
X030681Y019087
X032441Y019705
X030654Y019783
X032343Y020118
X030917Y020177
X030689Y020374
X030972Y020571
X032669Y02061
X032846Y021386
X032657Y021587
X031476Y021976
X031669Y022283
X032756Y022969
X030689Y024421
X030972Y024799
X031228Y027571
X031791Y027984
X035579Y031846
X034071Y027984
X034335Y027571
X033413Y026657
X035587Y024551
X035197Y022402
X034803Y022402
X034803Y022008
X035197Y022008
X033839Y020787
X035413Y020382
X033642Y020378
X034071Y020177
X034335Y019587
X034055Y019524
X033248Y019433
X033445Y017819
X033591Y016583
X033307Y015197
X035846Y010941
X035626Y011811
X037016Y016362
X036858Y018268
X036976Y019783
X036697Y01998
X035626Y020819
X035846Y021063
X036378Y022008
X035984Y022008
X036378Y022402
X035984Y022402
X037811Y026657
X036697Y026961
X036976Y027291
X038055Y029476
X037209Y030051
X038193Y032764
X042224Y024598
X03937Y022689
X040492Y020906
X043094Y020906
X04235Y018862
X039295Y018862
X043071Y018268
X042283Y018268
X03822Y018102
X042283Y01748
X043071Y01748
X043071Y016693
X042283Y016693
X043071Y015906
X042283Y015906
X045039Y021417
X046614Y021417
X045827Y021417
X047402Y021417
X045039Y022205
X045827Y022205
X046614Y022205
X047402Y022205
X046614Y022992
X045827Y022992
X047402Y022992
X045039Y022992
X043988Y024311
X04378Y028606
X044244Y029457
X048189Y022992
X048976Y022992
X048976Y022205
X048189Y022205
X048189Y021417
T2C.01575F095S3
X017516Y015713
X015862Y018071
X014752Y018996
X019449Y020315
X020787Y015157
X018815Y013776
X020787Y013374
X018815Y011228
X023543Y014843
X024067Y016937
X024906Y018748
X024906Y020315
X02515Y02374
X024811Y025803
X024803Y029161
X028189Y023772
X032768Y023547
X028185Y02137
X032323Y016114
X028937Y014724
X032323Y013173
X036461Y01315
X036185Y021563
X038189Y023858
X033378Y031433
X041728Y030354
X044268Y027323
T3C.01969F095S3
X020374Y016579
X019882Y016579
X028189Y010787
X028681Y010787
X029173Y010787
X029665Y010787
X042776Y032283
X04376Y032283
X043268Y032283
X044252Y032283
X045236Y032283
X044744Y032283
X04622Y032283
X045728Y032283
X049173Y020335
X049173Y019843
T4C.0315F197S55
X013465Y017571
X013465Y018571
X013465Y023476
X013465Y024476
X040524Y019843
X040524Y018268
X040524Y016693
X040524Y015118
X043909Y013618
X045091Y013618
X041524Y015118
X041524Y016693
X043937Y017953
X041524Y018268
X041524Y019843
X046929Y017953
T5C.03543F197S55
X015199Y024844
X015199Y025844
X015199Y026844
X015199Y027844
X015199Y028844
X015199Y029844
X015199Y030844
X015199Y031844
T6C.03937F197S55
X020295Y011417
X022067Y011417
X039706Y011464
X041477Y011464
T7C.05118F107S55
X019803Y012402
X022559Y012402
X039213Y012448
X041969Y012448
T8C.09843F066S55
X01201Y01425
X01201Y02875
X04723Y02875
X04723Y01425
T9C.11811F069S658
X020157Y031594
X046555Y024606
M30
