%
T1C.00787F0S0
X0105Y014
X0105Y0145
X011Y015
X0105Y015
X0105Y0155
X011Y0155
X0115Y0155
X012Y0155
X0125Y0155
X011Y016
X0105Y016
X0125Y016
X012Y016
X0115Y016
X011969Y018224
X012807Y021024
X0105Y0255
X011Y0255
X0125Y0255
X012Y0255
X0115Y0255
X011Y026
X0105Y026
X0115Y026
X012Y026
X0125Y026
X011Y0265
X0105Y0265
X0125Y0265
X012Y0265
X0115Y0265
X0105Y027
X011Y027
X0115Y027
X012Y027
X0125Y027
X011Y0275
X0105Y0275
X0125Y0275
X012Y0275
X0115Y0275
X0105Y028
X0105Y0285
X0105Y029
X013Y0325
X0135Y0325
X014Y0325
X013Y032
X014Y032
X0135Y032
X013Y0315
X0135Y0315
X014Y0315
X013Y031
X014Y031
X0135Y031
X013Y0305
X0135Y0305
X014Y0305
X013Y03
X014Y03
X0135Y03
X013Y0295
X0135Y0295
X014Y0295
X014Y029
X0135Y029
X014Y0285
X0135Y0285
X0135Y028
X013Y028
X014Y028
X014Y0275
X0135Y0275
X013Y0275
X0135Y027
X013Y027
X014Y027
X014Y0265
X013Y0265
X0135Y0265
X014Y026
X0135Y026
X013Y026
X014Y0255
X0135Y0255
X013Y0255
X01348Y021417
X013Y016
X0135Y016
X014Y016
X014Y0155
X0135Y0155
X013Y0155
X0135Y015
X014Y015
X013Y015
X017037Y013053
X017063Y013821
X02046Y019561
X02006Y021415
X018661Y024846
X018661Y025846
X018661Y026846
X018661Y027846
X018661Y028846
X023Y0305
X025Y0305
X0245Y0305
X024Y0305
X0235Y0305
X023Y03
X025Y03
X0245Y03
X024Y03
X0235Y03
X02505Y0287
X0233Y0287
X0245Y02813
X023504Y026693
X02437Y026693
X025236Y026693
X021386Y020711
X020941Y020453
X020941Y019283
X021386Y019025
X022122Y015142
X022118Y013374
X027063Y011366
X027456Y011613
X026327Y01185
X027063Y014583
X027456Y015201
X027618Y019283
X027926Y019561
X027286Y019868
X02787Y020622
X027618Y02216
X02787Y026016
X025669Y026693
X025882Y029315
X0265Y03
X026Y03
X0255Y03
X0255Y0305
X0265Y0305
X026Y0305
X02913Y029488
X028894Y029291
X029587Y029094
X028646Y028898
X029378Y028701
X028382Y028378
X028197Y022952
X029941Y02198
X030138Y021555
X030169Y020768
X030488Y020374
X030169Y020177
X030488Y019783
X028197Y019025
X028537Y018402
X030488Y018402
X028111Y018111
X030488Y016693
X030488Y013492
X028681Y01315
X030169Y012835
X029004Y011945
X031335Y011224
X031049Y012637
X031083Y013228
X030803Y01372
X032344Y014704
X030803Y017559
X032856Y018077
X030803Y018465
X032274Y019311
X030803Y019975
X030803Y020571
X030803Y021358
X032461Y022579
X031012Y022726
X032854Y022862
X031281Y022952
X032811Y023191
X031716Y025154
X031012Y025154
X031281Y025441
X032811Y025484
X031217Y028646
X034016Y026016
X033799Y025484
X03315Y025484
X033484Y025469
X033051Y023438
X033583Y023295
X034035Y022638
X033051Y022579
X033248Y021646
X033642Y02145
X033051Y021437
X034094Y02111
X035223Y020369
X035429Y02015
X034173Y019783
X033248Y019528
X035231Y019004
X034894Y01872
X033057Y018314
X034035Y018165
X033839Y01785
X033111Y017537
X033111Y016465
X033878Y015663
X033922Y01372
X035391Y013613
X034243Y013491
X035094Y012866
X033835Y011598
X033783Y010709
X036295Y011142
X036295Y012016
X037888Y019395
X036398Y019819
X036661Y020169
X03615Y020965
X03589Y021161
X035693Y02261
X037888Y023317
X036398Y025524
X037374Y025925
X036866Y026197
X037854Y026346
X037842Y027841
X0363Y02805
X035591Y028248
X035874Y028484
X039Y0275
X0385Y0275
X0395Y0275
X04Y0275
X039Y027
X0395Y027
X04Y027
X0385Y027
X038209Y023056
X039228Y022523
X038524Y019004
X038903Y018992
X038903Y018621
X038165Y018488
X038534Y013949
X0425Y014
X0425Y0145
X0425Y015
X0425Y0155
X0425Y016
X0425Y0165
X0425Y017
X0425Y0175
X0425Y018
X0425Y0185
X042603Y018919
X042603Y025565
X0425Y027
X0405Y027
X041Y027
X0415Y027
X042Y027
X0425Y0275
X0415Y0275
X041Y0275
X042Y0275
X0405Y0275
X0425Y028
X042Y028
X04122Y02822
X042Y0285
X0425Y0285
X0425Y031
X042Y031
X0425Y0315
X042Y0315
X043Y0315
X045Y0315
X0445Y0315
X044Y0315
X0435Y0315
X043Y031
X045Y031
X0445Y031
X0435Y031
X044Y031
X0445Y03
X044Y03
X045Y03
X045Y0295
X0445Y0295
X044Y0295
X045Y029
X0445Y029
X044Y029
X043Y0285
X0435Y0285
X044Y0285
X0445Y0285
X045Y0285
X045Y028
X0445Y028
X044Y028
X0435Y028
X043Y028
X044Y0275
X0445Y0275
X0435Y0275
X045Y0275
X043Y0275
X0445Y027
X0435Y027
X044Y027
X045Y027
X043Y027
X043Y025
X0435Y025
X044Y025
X0435Y0245
X044Y0245
X043Y0245
X043Y024
X0435Y024
X044Y024
X044226Y02282
X0435Y0205
X043Y0205
X0435Y02
X043Y02
X043Y0195
X0435Y0195
X0435Y019
X044Y019
X043Y019
X044Y0185
X0435Y0185
X043Y0185
X043Y018
X0435Y0175
X043Y0175
X0435Y017
X043Y017
X0435Y0165
X043Y0165
X0435Y016
X043Y016
X0435Y0155
X043Y0155
X0435Y015
X043Y015
X043Y0145
X0435Y0145
X0435Y014
X043Y014
X047Y0105
X0465Y0105
X0465Y011
X047Y011
X047Y0115
X0465Y012
X047Y012
X047Y0125
X0465Y0125
X0475Y013
X0465Y013
X046Y013
X047Y013
X046Y0135
X046Y014
X046Y0145
X046Y015
X047Y0155
X0465Y0155
X046Y0155
X0475Y0155
X0465Y016
X047Y016
X046Y016
X0475Y016
X047Y0165
X0465Y0165
X0475Y0165
X0475Y017
X047Y017
X0475Y0175
X0475Y0265
X0475Y027
X0475Y0275
X047Y03
X0465Y03
X0465Y0305
X047Y0305
X0455Y031
X047Y031
X0465Y031
X0455Y0315
X0465Y0315
X047Y0315
X047Y032
X0465Y032
X047Y0325
X0465Y0325
X049Y03
X0485Y03
X0495Y03
X049Y0295
X0495Y0295
X0485Y0295
X0495Y029
X049Y029
X0485Y029
X0485Y0285
X049Y0285
X0495Y0285
X049Y028
X0485Y028
X0495Y028
X049Y0275
X0495Y0275
X0485Y0275
X048Y0275
X0485Y027
X0495Y027
X048Y027
X049Y027
X0485Y0265
X048Y0265
X049Y0265
X0495Y0265
X048Y0185
X048Y018
X048Y0175
X048Y017
X048Y0165
X048Y016
X048Y0155
X0485Y014
X049Y014
X0485Y0135
X049Y0135
X0495Y0135
X0485Y013
X0495Y013
X049Y013
X048Y013
T2C.01575F095S3
X015193Y016311
X015193Y017598
X014886Y020075
X017181Y021024
X014886Y02272
X020425Y017634
X025392Y017524
X02502Y013945
X0229Y013895
X023574Y011326
X026527Y017524
X029602Y0209
X025582Y021783
X029602Y023236
X029476Y031764
X037126Y032067
X032752Y031764
X033138Y015867
X033138Y012598
X042921Y010843
X041524Y021323
X041988Y023701
X039547Y030667
X045826Y029808
X046469Y024803
X046469Y022594
T3C.01969F095S3
X021142Y013992
X02065Y013992
X028189Y010787
X028681Y010787
X029173Y010787
X029665Y010787
X044697Y011051
X044205Y011051
T4C.0315F197S55
X013465Y017571
X013465Y018571
X013465Y023476
X013465Y024476
X041524Y019843
X040524Y019843
X041524Y018268
X040524Y018268
X041524Y016693
X040524Y016693
X041524Y015118
X040524Y015118
X043909Y013618
X045091Y013618
X043937Y017953
X046929Y017953
T5C.03543F197S55
X015199Y024844
X015199Y025844
X015199Y026844
X015199Y027844
X015199Y028844
X015199Y029844
X015199Y030844
X015199Y031844
X038622Y029173
X038622Y026173
T6C.03937F197S55
X020453Y011417
X022224Y011417
X039706Y011464
X041477Y011464
T7C.05118F107S55
X019961Y012402
X022717Y012402
X039213Y012448
X041969Y012448
T8C.09843F066S55
X01201Y01425
X01201Y02875
X04723Y02875
X04723Y01425
T9C.11811F069S658
X042677Y029587
M30
