*
*
G04 PADS 9.5 Build Number: 522968 generated Gerber (RS-274-X) file*
G04 PC Version=2.1*
*
%IN "Variometer-STM32-Rev2.p"*%
*
%MOIN*%
*
%FSLAX35Y35*%
*
*
*
*
G04 PC Standard Apertures*
*
*
G04 Thermal Relief Aperture macro.*
%AMTER*
1,1,$1,0,0*
1,0,$1-$2,0,0*
21,0,$3,$4,0,0,45*
21,0,$3,$4,0,0,135*
%
*
*
G04 Annular Aperture macro.*
%AMANN*
1,1,$1,0,0*
1,0,$2,0,0*
%
*
*
G04 Odd Aperture macro.*
%AMODD*
1,1,$1,0,0*
1,0,$1-0.005,0,0*
%
*
*
G04 PC Custom Aperture Macros*
*
*
*
*
*
*
G04 PC Aperture Table*
*
%ADD010C,0.001*%
%ADD066C,0.08087*%
%ADD067C,0.09268*%
%ADD068R,0.04858X0.04071*%
%ADD070C,0.12811*%
%ADD075C,0.18717*%
%ADD076R,0.04543X0.04543*%
%ADD077C,0.04543*%
%ADD081R,0.07299X0.07299*%
%ADD082R,0.07299X0.06512*%
%ADD083R,0.04071X0.04858*%
%ADD093C,0.07299*%
%ADD094C,0.06512*%
%ADD095R,0.06512X0.06512*%
%ADD098R,0.06512X0.07299*%
%ADD105R,0.04937X0.06906*%
%ADD106R,0.08874X0.12811*%
%ADD107O,0.02969X0.05724*%
*
*
*
*
G04 PC Circuitry*
G04 Layer Name Variometer-STM32-Rev2.p - circuitry*
%LPD*%
*
*
G04 PC Custom Flashes*
G04 Layer Name Variometer-STM32-Rev2.p - flashes*
%LPD*%
*
*
G04 PC Circuitry*
G04 Layer Name Variometer-STM32-Rev2.p - circuitry*
%LPD*%
*
G54D10*
G54D66*
G01X204528Y114173D03*
X222244D03*
X397055Y114638D03*
X414772D03*
G54D67*
X199606Y124016D03*
X227165D03*
X392134Y124480D03*
X419693D03*
G54D68*
X334134Y115984D03*
X327913D03*
X334134Y107087D03*
X327913D03*
X165472Y268445D03*
X171693D03*
X389016Y198425D03*
X395236D03*
X176890Y124961D03*
X183110D03*
X442244Y208661D03*
X448465D03*
X389016Y151181D03*
X395236D03*
X389016Y166929D03*
X395236D03*
X412205Y320472D03*
X405984D03*
X165472Y288445D03*
X171693D03*
X165472Y278445D03*
X171693D03*
X176890Y142756D03*
X183110D03*
X442244Y199606D03*
X448465D03*
X389016Y182677D03*
X395236D03*
X344803Y308189D03*
X338583D03*
X327520Y274724D03*
X321299D03*
X327520Y308189D03*
X321299D03*
X165472Y318445D03*
X171693D03*
X386181Y320669D03*
X392402D03*
X402953Y289606D03*
X396732D03*
X338583Y274724D03*
X344803D03*
X165472Y258445D03*
X171693D03*
X165472Y248445D03*
X171693D03*
G54D70*
X426772Y295866D03*
G54D75*
X472299Y142500D03*
X120098D03*
X472299Y287500D03*
X120098D03*
G54D76*
X442677Y107402D03*
X281890Y107874D03*
X211417Y139921D03*
G54D77*
X447598Y107402D03*
X286811Y107874D03*
X291732D03*
X296654D03*
X206496Y139921D03*
G54D81*
X469291Y209843D03*
Y194882D03*
G54D82*
X165483Y308228D03*
X175719D03*
G54D83*
X124528Y244291D03*
Y238071D03*
Y175906D03*
Y182126D03*
X258819Y283425D03*
Y277205D03*
X250394Y283425D03*
Y277205D03*
X241732Y283425D03*
Y277205D03*
X401787Y130614D03*
Y124394D03*
X233071Y283425D03*
Y277205D03*
X347323Y294685D03*
Y288465D03*
X412205Y301614D03*
Y307835D03*
X410382Y124394D03*
Y130614D03*
X386220Y301614D03*
Y307835D03*
G54D93*
X469291Y179528D03*
X439370D03*
X151988Y318445D03*
Y308445D03*
Y298445D03*
Y288445D03*
Y278445D03*
Y268445D03*
Y258445D03*
Y248445D03*
X386220Y291732D03*
Y261732D03*
G54D94*
X439094Y136181D03*
X450906D03*
X405236Y151181D03*
Y166929D03*
Y198425D03*
Y182677D03*
X134646Y185709D03*
Y244764D03*
G54D95*
X415236Y151181D03*
Y166929D03*
Y198425D03*
Y182677D03*
X134646Y175709D03*
Y234764D03*
G54D98*
X318898Y286457D03*
Y296693D03*
G54D105*
X448425Y190945D03*
X454331D03*
X460236D03*
G54D106*
X454331Y179528D03*
G54D107*
X329213Y297480D03*
X332953D03*
X336693D03*
Y285669D03*
X329213D03*
X395472Y310630D03*
X399213D03*
X402953D03*
Y298819D03*
X395472D03*
X0Y0D02*
M02*
