*
*
G04 PADS 9.5 Build Number: 522968 generated Gerber (RS-274-X) file*
G04 PC Version=2.1*
*
%IN "Variometer-STM32.pcb"*%
*
%MOIN*%
*
%FSLAX35Y35*%
*
*
*
*
G04 PC Standard Apertures*
*
*
G04 Thermal Relief Aperture macro.*
%AMTER*
1,1,$1,0,0*
1,0,$1-$2,0,0*
21,0,$3,$4,0,0,45*
21,0,$3,$4,0,0,135*
%
*
*
G04 Annular Aperture macro.*
%AMANN*
1,1,$1,0,0*
1,0,$2,0,0*
%
*
*
G04 Odd Aperture macro.*
%AMODD*
1,1,$1,0,0*
1,0,$1-0.005,0,0*
%
*
*
G04 PC Custom Aperture Macros*
*
*
*
*
*
*
G04 PC Aperture Table*
*
%ADD010C,0.001*%
%ADD064R,0.048X0.04*%
%ADD065C,0.07299*%
%ADD066C,0.12811*%
%ADD068R,0.04X0.048*%
%ADD074C,0.16748*%
%ADD077R,0.04543X0.04543*%
%ADD078C,0.04543*%
%ADD082R,0.046X0.046*%
%ADD083R,0.046X0.06*%
%ADD084R,0.07X0.07*%
%ADD097C,0.08087*%
%ADD098C,0.09268*%
%ADD099C,0.06512*%
%ADD101R,0.06512X0.06512*%
%ADD106R,0.05724X0.03047*%
%ADD107R,0.04346X0.08283*%
*
*
*
*
G04 PC Circuitry*
G04 Layer Name Variometer-STM32.pcb - circuitry*
%LPD*%
*
*
G04 PC Custom Flashes*
G04 Layer Name Variometer-STM32.pcb - flashes*
%LPD*%
*
*
G04 PC Circuitry*
G04 Layer Name Variometer-STM32.pcb - circuitry*
%LPD*%
*
G54D10*
G54D64*
G01X455168Y273228D03*
X461368D03*
X264911Y279921D03*
X258711D03*
X264911Y288583D03*
X258711D03*
X389026Y198425D03*
X395226D03*
X389026Y151181D03*
X395226D03*
X389026Y166929D03*
X395226D03*
X389026Y182677D03*
X395226D03*
X330680Y291732D03*
X336880D03*
G54D65*
X151988Y318445D03*
Y308445D03*
Y298445D03*
Y288445D03*
Y278445D03*
Y268445D03*
Y258445D03*
Y248445D03*
X469291Y179528D03*
X439370D03*
G54D66*
X199488Y315945D03*
X465551Y246063D03*
G54D68*
X459843Y207037D03*
Y200837D03*
X174016Y278297D03*
Y272097D03*
X239764Y281152D03*
Y287352D03*
X231102Y281152D03*
Y287352D03*
X248031Y281152D03*
Y287352D03*
X164961Y278297D03*
Y272097D03*
X468504Y207037D03*
Y200837D03*
X401787Y130604D03*
Y124404D03*
X410382D03*
Y130604D03*
X446457Y307824D03*
Y301624D03*
X463780Y307824D03*
Y301624D03*
X455118Y307824D03*
Y301624D03*
X429134Y307824D03*
Y301624D03*
X437795Y307824D03*
Y301624D03*
X248031Y307824D03*
Y301624D03*
X239764Y307824D03*
Y301624D03*
G54D74*
X472299Y142500D03*
X120098D03*
X472299Y287500D03*
X120098D03*
G54D77*
X491732Y198425D03*
X462205Y322835D03*
X281890Y107874D03*
X203740Y165787D03*
G54D78*
X491732Y203346D03*
X457283Y322835D03*
X452362D03*
X447441D03*
X442520D03*
X437598D03*
X432677D03*
X427756D03*
X286811Y107874D03*
X291732D03*
X296654D03*
X198819Y165787D03*
G54D82*
X337530Y301612D03*
X330030D03*
G54D83*
X333780Y309612D03*
G54D84*
X451518Y261417D03*
X465018D03*
X442502Y111417D03*
X456002D03*
G54D97*
X202953Y114173D03*
X220669D03*
X397055Y114638D03*
X414772D03*
G54D98*
X198031Y124016D03*
X225591D03*
X392134Y124480D03*
X419693D03*
G54D99*
X439094Y136181D03*
X450906D03*
X405236Y151181D03*
Y166929D03*
Y198425D03*
Y182677D03*
X134646Y175709D03*
Y185709D03*
Y234764D03*
Y244764D03*
G54D101*
X415236Y151181D03*
Y166929D03*
Y198425D03*
Y182677D03*
G54D106*
X444882Y203937D03*
Y198031D03*
Y192126D03*
G54D107*
X429724Y198031D03*
X0Y0D02*
M02*
