*
*
G04 PADS 9.5 Build Number: 522968 generated Gerber (RS-274-X) file*
G04 PC Version=2.1*
*
%IN "Variometer-STM32-Rev2.p"*%
*
%MOIN*%
*
%FSLAX35Y35*%
*
*
*
*
G04 PC Standard Apertures*
*
*
G04 Thermal Relief Aperture macro.*
%AMTER*
1,1,$1,0,0*
1,0,$1-$2,0,0*
21,0,$3,$4,0,0,45*
21,0,$3,$4,0,0,135*
%
*
*
G04 Annular Aperture macro.*
%AMANN*
1,1,$1,0,0*
1,0,$2,0,0*
%
*
*
G04 Odd Aperture macro.*
%AMODD*
1,1,$1,0,0*
1,0,$1-0.005,0,0*
%
*
*
G04 PC Custom Aperture Macros*
*
*
*
*
*
*
G04 PC Aperture Table*
*
%ADD010C,0.001*%
%ADD021R,0.038X0.03*%
%ADD022R,0.03937X0.07874*%
%ADD024R,0.07874X0.01772*%
%ADD025R,0.08268X0.05709*%
%ADD026R,0.0748X0.09252*%
%ADD027R,0.0748X0.04626*%
%ADD031R,0.04803X0.01575*%
%ADD032O,0.04724X0.01969*%
%ADD033R,0.036X0.036*%
%ADD034R,0.036X0.05*%
%ADD035R,0.06299X0.06299*%
%ADD036R,0.06299X0.05512*%
%ADD037R,0.03X0.038*%
%ADD038R,0.02362X0.06299*%
%ADD039R,0.06102X0.11024*%
%ADD040R,0.06102X0.08268*%
%ADD041R,0.05512X0.0748*%
%ADD042R,0.05512X0.11811*%
%ADD043R,0.05512X0.11024*%
%ADD044R,0.06299X0.06102*%
%ADD045R,0.05X0.036*%
%ADD046R,0.01181X0.06102*%
%ADD047R,0.06102X0.01181*%
%ADD048R,0.03937X0.06929*%
%ADD052R,0.07874X0.05512*%
%ADD053R,0.05X0.06*%
%ADD054R,0.06X0.05*%
%ADD055R,0.05512X0.06299*%
%ADD056O,0.07087X0.02362*%
%ADD057R,0.11811X0.03937*%
%ADD058R,0.04803X0.02717*%
*
*
*
*
G04 PC Circuitry*
G04 Layer Name Variometer-STM32-Rev2.p - circuitry*
%LPD*%
*
*
G04 PC Custom Flashes*
G04 Layer Name Variometer-STM32-Rev2.p - flashes*
%LPD*%
*
*
G04 PC Circuitry*
G04 Layer Name Variometer-STM32-Rev2.p - circuitry*
%LPD*%
*
G54D10*
G54D21*
G01X296250Y159843D03*
X290050D03*
X155069Y231496D03*
X148869D03*
X194439Y214173D03*
X188239D03*
X148869Y222835D03*
X155069D03*
X143572Y130079D03*
X137372D03*
X154911Y187126D03*
X148711D03*
X366979Y215984D03*
X373179D03*
X155069Y196850D03*
X148869D03*
X173257D03*
X167057D03*
X182254Y133543D03*
X188454D03*
X177903Y214173D03*
X171703D03*
X137372Y138976D03*
X143572D03*
X258415Y145866D03*
X252215D03*
X182254Y124961D03*
X188454D03*
X252215Y158031D03*
X258415D03*
X373179Y207087D03*
X366979D03*
X148869Y205512D03*
X155069D03*
X148869Y214173D03*
X155069D03*
X290050Y142323D03*
X296250D03*
Y131496D03*
X290050D03*
X296250Y122835D03*
X290050D03*
Y151181D03*
X296250D03*
Y193976D03*
X290050D03*
X356743Y124409D03*
X362943D03*
X173257Y187126D03*
X167057D03*
X182254Y142756D03*
X188454D03*
X258415Y204409D03*
X252215D03*
X290050Y179528D03*
X296250D03*
X290050Y170866D03*
X296250D03*
X356743Y115748D03*
X362943D03*
X356743Y107087D03*
X362943D03*
X252215Y118504D03*
X258415D03*
G54D22*
X402165Y261024D03*
X408071D03*
X413976D03*
X419882D03*
X425787D03*
X431693D03*
X437598D03*
X443504D03*
X449409D03*
X455315D03*
Y324016D03*
X425787D03*
X402165D03*
G54D24*
X116181Y215354D03*
Y212795D03*
Y210236D03*
Y207677D03*
Y205118D03*
G54D25*
X113543Y219882D03*
Y200591D03*
G54D26*
X104488Y221654D03*
Y198819D03*
G54D27*
Y206929D03*
Y213543D03*
G54D31*
X156575Y138209D03*
Y135650D03*
Y133091D03*
Y130531D03*
X166890D03*
Y133091D03*
Y135650D03*
Y138209D03*
G54D32*
X167638Y168504D03*
Y172244D03*
Y175984D03*
X155827D03*
Y168504D03*
X249409Y175236D03*
Y171496D03*
Y167756D03*
X261220D03*
Y175236D03*
X249409Y221890D03*
Y218150D03*
Y214409D03*
X261220D03*
Y221890D03*
G54D33*
X186919Y168344D03*
X194419D03*
X187589Y223265D03*
X195089D03*
X170903Y230915D03*
Y223415D03*
G54D34*
X190669Y176344D03*
X191339Y231265D03*
G54D35*
X154252Y154882D03*
X169213D03*
G54D36*
X260433Y232362D03*
X250197D03*
X260433Y185079D03*
X250197D03*
G54D37*
X411024Y247273D03*
Y241073D03*
X238504Y128927D03*
Y122727D03*
Y176979D03*
Y183179D03*
X270945Y164832D03*
Y158632D03*
X254331Y252234D03*
Y246034D03*
X318110Y170817D03*
Y164617D03*
X206299Y224065D03*
Y230265D03*
X156890Y114990D03*
Y108790D03*
X166457D03*
Y114990D03*
X263307Y252234D03*
Y246034D03*
X230709Y252234D03*
Y246034D03*
X446654Y247273D03*
Y241073D03*
X340157Y244281D03*
Y238081D03*
X145591Y175344D03*
Y169144D03*
X179094Y175344D03*
Y169144D03*
X238504Y206034D03*
Y212234D03*
X331496Y244281D03*
Y238081D03*
X344094Y164617D03*
Y170817D03*
X455315Y247273D03*
Y241073D03*
X473150Y244853D03*
Y251053D03*
X419882Y247273D03*
Y241073D03*
X270945Y182824D03*
Y176624D03*
X320472Y238081D03*
Y244281D03*
X473150Y233021D03*
Y226821D03*
X335433Y170817D03*
Y164617D03*
X326772Y170817D03*
Y164617D03*
X348819Y151092D03*
Y144892D03*
X314173D03*
Y151092D03*
X402165Y247273D03*
Y241073D03*
X270945Y230187D03*
Y223987D03*
X238504D03*
Y230187D03*
Y139105D03*
Y145305D03*
X270945Y212234D03*
Y206034D03*
X238504Y158632D03*
Y164832D03*
X229094D03*
Y158632D03*
X270945Y122727D03*
Y128927D03*
X245197Y252234D03*
Y246034D03*
G54D38*
X261024Y262598D03*
X256693D03*
X252362D03*
X248031D03*
X243701D03*
X239370D03*
X235039D03*
X230709D03*
G54D39*
X222598Y272441D03*
G54D40*
Y302756D03*
G54D41*
X222283Y321457D03*
X279764Y325394D03*
G54D42*
X282520Y308661D03*
G54D43*
Y270669D03*
G54D44*
X269291Y263780D03*
G54D45*
X178903Y227165D03*
G54D46*
X320669Y188287D03*
X322638D03*
X324606D03*
X326575D03*
X328543D03*
X330512D03*
X332480D03*
X334449D03*
X336417D03*
X338386D03*
X340354D03*
X342323D03*
Y221161D03*
X340354D03*
X338386D03*
X336417D03*
X334449D03*
X332480D03*
X330512D03*
X328543D03*
X326575D03*
X324606D03*
X322638D03*
X320669D03*
G54D47*
X347933Y193898D03*
Y195866D03*
Y197835D03*
Y199803D03*
Y201772D03*
Y203740D03*
Y205709D03*
Y207677D03*
Y209646D03*
Y211614D03*
Y213583D03*
Y215551D03*
X315059D03*
Y213583D03*
Y211614D03*
Y209646D03*
Y207677D03*
Y205709D03*
Y203740D03*
Y201772D03*
Y199803D03*
Y197835D03*
Y195866D03*
Y193898D03*
G54D48*
X488031Y223622D03*
Y254173D03*
G54D52*
X323622Y142992D03*
X339370D03*
Y152441D03*
X323622D03*
G54D53*
X186969Y187075D03*
Y196075D03*
G54D54*
X296014Y203701D03*
X287014D03*
G54D55*
X391969Y251575D03*
Y241339D03*
G54D56*
X320472Y126004D03*
Y121004D03*
Y116004D03*
Y111004D03*
X343307D03*
Y116004D03*
Y121004D03*
Y126004D03*
G54D57*
X303150Y296654D03*
Y286654D03*
Y276654D03*
Y266654D03*
X368504D03*
Y276654D03*
Y286654D03*
Y296654D03*
G54D58*
X260413Y128307D03*
Y132047D03*
Y135787D03*
X250217D03*
Y132047D03*
Y128307D03*
X0Y0D02*
M02*
