*
*
G04 PADS 9.5 Build Number: 522968 generated Gerber (RS-274-X) file*
G04 PC Version=2.1*
*
%IN "Variometer-STM32-Rev2.p"*%
*
%MOIN*%
*
%FSLAX35Y35*%
*
*
*
*
G04 PC Standard Apertures*
*
*
G04 Thermal Relief Aperture macro.*
%AMTER*
1,1,$1,0,0*
1,0,$1-$2,0,0*
21,0,$3,$4,0,0,45*
21,0,$3,$4,0,0,135*
%
*
*
G04 Annular Aperture macro.*
%AMANN*
1,1,$1,0,0*
1,0,$2,0,0*
%
*
*
G04 Odd Aperture macro.*
%AMODD*
1,1,$1,0,0*
1,0,$1-0.005,0,0*
%
*
*
G04 PC Custom Aperture Macros*
*
*
*
*
*
*
G04 PC Aperture Table*
*
%ADD010C,0.001*%
%ADD021R,0.038X0.03*%
%ADD035R,0.06299X0.06299*%
%ADD036R,0.06299X0.05512*%
%ADD037R,0.03X0.038*%
%ADD055R,0.05512X0.06299*%
%ADD062R,0.03937X0.05906*%
%ADD063R,0.07874X0.11811*%
%ADD064O,0.01969X0.04724*%
*
*
*
*
G04 PC Circuitry*
G04 Layer Name Variometer-STM32-Rev2.p - circuitry*
%LPD*%
*
*
G04 PC Custom Flashes*
G04 Layer Name Variometer-STM32-Rev2.p - flashes*
%LPD*%
*
*
G04 PC Circuitry*
G04 Layer Name Variometer-STM32-Rev2.p - circuitry*
%LPD*%
*
G54D10*
G54D21*
G01X334124Y115984D03*
X327924D03*
X334124Y107087D03*
X327924D03*
X165483Y268445D03*
X171683D03*
X389026Y198425D03*
X395226D03*
X176900Y124961D03*
X183100D03*
X442254Y208661D03*
X448454D03*
X389026Y151181D03*
X395226D03*
X389026Y166929D03*
X395226D03*
X412194Y320472D03*
X405994D03*
X165483Y288445D03*
X171683D03*
X165483Y278445D03*
X171683D03*
X176900Y142756D03*
X183100D03*
X442254Y199606D03*
X448454D03*
X389026Y182677D03*
X395226D03*
X344793Y308189D03*
X338593D03*
X327509Y274724D03*
X321309D03*
X327509Y308189D03*
X321309D03*
X165483Y318445D03*
X171683D03*
X386191Y320669D03*
X392391D03*
X402943Y289606D03*
X396743D03*
X338593Y274724D03*
X344793D03*
X165483Y258445D03*
X171683D03*
X165483Y248445D03*
X171683D03*
G54D35*
X469291Y209843D03*
Y194882D03*
G54D36*
X165483Y308228D03*
X175719D03*
G54D37*
X124528Y244281D03*
Y238081D03*
Y175916D03*
Y182116D03*
X258819Y283415D03*
Y277215D03*
X250394Y283415D03*
Y277215D03*
X241732Y283415D03*
Y277215D03*
X401787Y130604D03*
Y124404D03*
X233071Y283415D03*
Y277215D03*
X347323Y294675D03*
Y288475D03*
X412205Y301624D03*
Y307824D03*
X410382Y124404D03*
Y130604D03*
X386220Y301624D03*
Y307824D03*
G54D55*
X318898Y286457D03*
Y296693D03*
G54D62*
X448425Y190945D03*
X454331D03*
X460236D03*
G54D63*
X454331Y179528D03*
G54D64*
X329213Y297480D03*
X332953D03*
X336693D03*
Y285669D03*
X329213D03*
X395472Y310630D03*
X399213D03*
X402953D03*
Y298819D03*
X395472D03*
X0Y0D02*
M02*
