*
*
G04 PADS 9.5 Build Number: 522968 generated Gerber (RS-274-X) file*
G04 PC Version=2.1*
*
%IN "Variometer-STM32-Rev2.p"*%
*
%MOIN*%
*
%FSLAX35Y35*%
*
*
*
*
G04 PC Standard Apertures*
*
*
G04 Thermal Relief Aperture macro.*
%AMTER*
1,1,$1,0,0*
1,0,$1-$2,0,0*
21,0,$3,$4,0,0,45*
21,0,$3,$4,0,0,135*
%
*
*
G04 Annular Aperture macro.*
%AMANN*
1,1,$1,0,0*
1,0,$2,0,0*
%
*
*
G04 Odd Aperture macro.*
%AMODD*
1,1,$1,0,0*
1,0,$1-0.005,0,0*
%
*
*
G04 PC Custom Aperture Macros*
*
*
*
*
*
*
G04 PC Aperture Table*
*
%ADD010C,0.001*%
%ADD011C,0.01*%
%ADD012C,0.00472*%
*
*
*
*
G04 PC Circuitry*
G04 Layer Name Variometer-STM32-Rev2.p - circuitry*
%LPD*%
*
*
G04 PC Custom Flashes*
G04 Layer Name Variometer-STM32-Rev2.p - flashes*
%LPD*%
*
*
G04 PC Circuitry*
G04 Layer Name Variometer-STM32-Rev2.p - circuitry*
%LPD*%
*
G54D10*
G54D11*
G01X162723Y303819D02*
Y312323D01*
X169101Y303728D02*
X161101D01*
Y312728*
X169101*
X172101Y303728D02*
X180101D01*
Y312728*
X172101*
X332224Y119484D02*
X338024D01*
Y112484*
X332224*
X329824Y119484D02*
X324024D01*
Y112484*
X329824*
X332224Y110587D02*
X338024D01*
Y103587*
X332224*
X329824Y110587D02*
X324024D01*
Y103587*
X329824*
X167383Y264945D02*
X161583D01*
Y271945*
X167383*
X169783Y264945D02*
X175583D01*
Y271945*
X169783*
X474252Y191339D02*
X464291D01*
X474291Y198612D02*
Y190562D01*
X464287Y190567D02*
G75*
G03X474288Y190558I5004J4650D01*
G01X464291Y190562D02*
Y198612D01*
X474291Y206112D02*
Y214162D01*
Y214163D02*
G03X464292I-5000J-3768D01*
G01X464291Y214162D02*
Y206112D01*
X390926Y194925D02*
X385126D01*
Y201925*
X390926*
X393326Y194925D02*
X399126D01*
Y201925*
X393326*
X178800Y121461D02*
X173000D01*
Y128461*
X178800*
X181200Y121461D02*
X187000D01*
Y128461*
X181200*
X444154Y205161D02*
X438354D01*
Y212161*
X444154*
X446554Y205161D02*
X452354D01*
Y212161*
X446554*
X121028Y242381D02*
Y248181D01*
X128028*
Y242381*
X121028Y239981D02*
Y234181D01*
X128028*
Y239981*
Y177816D02*
Y172016D01*
X121028*
Y177816*
X128028Y180216D02*
Y186016D01*
X121028*
Y180216*
X255319Y281515D02*
Y287315D01*
X262319*
Y281515*
X255319Y279115D02*
Y273315D01*
X262319*
Y279115*
X246894Y281515D02*
Y287315D01*
X253894*
Y281515*
X246894Y279115D02*
Y273315D01*
X253894*
Y279115*
X238232Y281515D02*
Y287315D01*
X245232*
Y281515*
X238232Y279115D02*
Y273315D01*
X245232*
Y279115*
X390926Y147681D02*
X385126D01*
Y154681*
X390926*
X393326Y147681D02*
X399126D01*
Y154681*
X393326*
X390926Y163429D02*
X385126D01*
Y170429*
X390926*
X393326Y163429D02*
X399126D01*
Y170429*
X393326*
X398287Y128704D02*
Y134504D01*
X405287*
Y128704*
X398287Y126304D02*
Y120504D01*
X405287*
Y126304*
X229571Y281515D02*
Y287315D01*
X236571*
Y281515*
X229571Y279115D02*
Y273315D01*
X236571*
Y279115*
X410294Y323972D02*
X416094D01*
Y316972*
X410294*
X407894Y323972D02*
X402094D01*
Y316972*
X407894*
X167383Y284945D02*
X161583D01*
Y291945*
X167383*
X169783Y284945D02*
X175583D01*
Y291945*
X169783*
X167383Y274945D02*
X161583D01*
Y281945*
X167383*
X169783Y274945D02*
X175583D01*
Y281945*
X169783*
X178800Y139256D02*
X173000D01*
Y146256*
X178800*
X181200Y139256D02*
X187000D01*
Y146256*
X181200*
X444154Y196106D02*
X438354D01*
Y203106*
X444154*
X446554Y196106D02*
X452354D01*
Y203106*
X446554*
X390926Y179177D02*
X385126D01*
Y186177*
X390926*
X393326Y179177D02*
X399126D01*
Y186177*
X393326*
X343823Y292775D02*
Y298575D01*
X350823*
Y292775*
X343823Y290375D02*
Y284575D01*
X350823*
Y290375*
X415705Y303524D02*
Y297724D01*
X408705*
Y303524*
X415705Y305924D02*
Y311724D01*
X408705*
Y305924*
X413882Y126304D02*
Y120504D01*
X406882*
Y126304*
X413882Y128704D02*
Y134504D01*
X406882*
Y128704*
X342893Y311689D02*
X348693D01*
Y304689*
X342893*
X340493Y311689D02*
X334693D01*
Y304689*
X340493*
X445276Y177953D02*
X463386D01*
Y188189*
X445276*
Y177953*
X323307Y283697D02*
X314803D01*
X323398Y290075D02*
Y282075D01*
X314398*
Y290075*
X323398Y293075D02*
Y301075D01*
X314398*
Y293075*
X325609Y278224D02*
X331409D01*
Y271224*
X325609*
X323209Y278224D02*
X317409D01*
Y271224*
X323209*
X325609Y311689D02*
X331409D01*
Y304689*
X325609*
X323209Y311689D02*
X317409D01*
Y304689*
X323209*
X167383Y314945D02*
X161583D01*
Y321945*
X167383*
X169783Y314945D02*
X175583D01*
Y321945*
X169783*
X389720Y303524D02*
Y297724D01*
X382720*
Y303524*
X389720Y305924D02*
Y311724D01*
X382720*
Y305924*
X388091Y317169D02*
X382291D01*
Y324169*
X388091*
X390491Y317169D02*
X396291D01*
Y324169*
X390491*
X401043Y293106D02*
X406843D01*
Y286106*
X401043*
X398643Y293106D02*
X392843D01*
Y286106*
X398643*
X340493Y271224D02*
X334693D01*
Y278224*
X340493*
X342893Y271224D02*
X348693D01*
Y278224*
X342893*
X167383Y254945D02*
X161583D01*
Y261945*
X167383*
X169783Y254945D02*
X175583D01*
Y261945*
X169783*
X167383Y244945D02*
X161583D01*
Y251945*
X167383*
X169783Y244945D02*
X175583D01*
Y251945*
X169783*
G54D12*
X327244Y295118D02*
Y288031D01*
X338661*
Y295118*
X327244*
X393504Y308268D02*
Y301181D01*
X404921*
Y308268*
X393504*
X185923Y309331D02*
X186027Y309616D01*
X186235Y309902*
X186442Y310044*
X186858*
X187065Y309902*
X187273Y309616*
X187377Y309331*
X187480Y308903*
Y308189*
X187377Y307761*
X187273Y307475*
X187065Y307190*
X186858Y307047*
X186442*
X186235Y307190*
X186027Y307475*
X185923Y307761*
X184989Y309473D02*
X184782Y309616D01*
X184470Y310044*
Y307047*
X182913Y310044D02*
X183225Y309902D01*
X183432Y309473*
X183536Y308760*
Y308332*
X183432Y307618*
X183225Y307190*
X182913Y307047*
X182706*
X182394Y307190*
X182187Y307618*
X182083Y308332*
Y308760*
X182187Y309473*
X182394Y309902*
X182706Y310044*
X182913*
X346181Y117367D02*
Y114370D01*
Y117367D02*
X345247D01*
X344936Y117224*
X344832Y117082*
X344728Y116796*
Y116511*
X344832Y116225*
X344936Y116083*
X345247Y115940*
X346181*
X345455D02*
X344728Y114370D01*
X343586Y117367D02*
X342445D01*
X343067Y116225*
X342756*
X342548Y116083*
X342445Y115940*
X342341Y115512*
Y115226*
X342445Y114798*
X342652Y114513*
X342963Y114370*
X343275*
X343586Y114513*
X343690Y114656*
X343794Y114941*
X341199Y117367D02*
X340057D01*
X340680Y116225*
X340369*
X340161Y116083*
X340057Y115940*
X339953Y115512*
Y115226*
X340057Y114798*
X340265Y114513*
X340576Y114370*
X340888*
X341199Y114513*
X341303Y114656*
X341407Y114941*
X345827Y108430D02*
Y105433D01*
Y108430D02*
X344893D01*
X344581Y108287*
X344477Y108145*
X344374Y107859*
Y107574*
X344477Y107288*
X344581Y107146*
X344893Y107003*
X345827*
X345100D02*
X344374Y105433D01*
X343232Y108430D02*
X342090D01*
X342713Y107288*
X342402*
X342194Y107146*
X342090Y107003*
X341986Y106575*
Y106289*
X342090Y105861*
X342298Y105576*
X342609Y105433*
X342921*
X343232Y105576*
X343336Y105719*
X343440Y106004*
X339807Y108002D02*
X339911Y108287D01*
X340222Y108430*
X340429*
X340741Y108287*
X340948Y107859*
X341052Y107146*
Y106432*
X340948Y105861*
X340741Y105576*
X340429Y105433*
X340326*
X340014Y105576*
X339807Y105861*
X339703Y106289*
Y106432*
X339807Y106860*
X340014Y107146*
X340326Y107288*
X340429*
X340741Y107146*
X340948Y106860*
X341052Y106432*
X183583Y270359D02*
Y267362D01*
Y270359D02*
X182649D01*
X182337Y270217*
X182233Y270074*
X182130Y269788*
Y269503*
X182233Y269218*
X182337Y269075*
X182649Y268932*
X183583*
X182856D02*
X182130Y267362D01*
X180157Y270359D02*
X181195Y268361D01*
X179639*
X180157Y270359D02*
Y267362D01*
X178601Y269646D02*
Y269788D01*
X178497Y270074*
X178393Y270217*
X178185Y270359*
X177770*
X177563Y270217*
X177459Y270074*
X177355Y269788*
Y269503*
X177459Y269218*
X177666Y268789*
X178704Y267362*
X177251*
X480157Y193784D02*
Y190787D01*
Y193784D02*
X479431D01*
X479120Y193642*
X478912Y193356*
X478808Y193071*
X478704Y192643*
Y191929*
X478808Y191501*
X478912Y191216*
X479120Y190930*
X479431Y190787*
X480157*
X477251Y193784D02*
X477563Y193642D01*
X477666Y193356*
Y193071*
X477563Y192785*
X477355Y192643*
X476940Y192500*
X476628Y192357*
X476421Y192072*
X476317Y191786*
Y191358*
X476421Y191073*
X476525Y190930*
X476836Y190787*
X477251*
X477563Y190930*
X477666Y191073*
X477770Y191358*
Y191786*
X477666Y192072*
X477459Y192357*
X477147Y192500*
X476732Y192643*
X476525Y192785*
X476421Y193071*
Y193356*
X476525Y193642*
X476836Y193784*
X477251*
X399291Y193206D02*
Y190209D01*
Y193206D02*
X398357D01*
X398046Y193063*
X397942Y192920*
X397838Y192635*
Y192349*
X397942Y192064*
X398046Y191921*
X398357Y191779*
X399291*
X398565D02*
X397838Y190209D01*
X395555Y193206D02*
X396593D01*
X396696Y191921*
X396593Y192064*
X396281Y192207*
X395970*
X395659Y192064*
X395451Y191779*
X395347Y191350*
X395451Y191065*
X395555Y190637*
X395762Y190351*
X396074Y190209*
X396385*
X396696Y190351*
X396800Y190494*
X396904Y190780*
X394309Y192492D02*
Y192635D01*
X394205Y192920*
X394102Y193063*
X393894Y193206*
X393479*
X393271Y193063*
X393167Y192920*
X393167D02*
X393064Y192635D01*
Y192349*
X393167Y192064*
X393167D02*
X393375Y191636D01*
X394413Y190209*
X392960*
X194134Y126540D02*
Y123543D01*
Y126540D02*
X193200D01*
X192888Y126398*
X192785Y126255*
X192681Y125969*
Y125684*
X192785Y125399*
X192888Y125256*
X193200Y125113*
X194134*
X193407D02*
X192681Y123543D01*
X191539Y126540D02*
X190397D01*
X191020Y125399*
X190709*
X190501Y125256*
X190397Y125113*
X190293Y124685*
Y124400*
X190397Y123971*
X190605Y123686*
X190916Y123543*
X191228*
X191539Y123686*
X191643Y123829*
X191747Y124114*
X188010Y126540D02*
X189048D01*
X189152Y125256*
X189048Y125399*
X188737Y125541*
X188425*
X188114Y125399*
X187906Y125113*
X187802Y124685*
X187906Y124400*
X188010Y123971*
X188218Y123686*
X188529Y123543*
X188840*
X189152Y123686*
X189256Y123829*
X189359Y124114*
X460157Y210477D02*
Y207480D01*
Y210477D02*
X459223D01*
X458912Y210335*
X458808Y210192*
X458704Y209906*
Y209621*
X458808Y209336*
X458912Y209193*
X459223Y209050*
X460157*
X459431D02*
X458704Y207480D01*
X456421Y210477D02*
X457459D01*
X457563Y209193*
X457459Y209336*
X457147Y209478*
X456836*
X456525Y209336*
X456317Y209050*
X456213Y208622*
X456317Y208337*
X456421Y207908*
X456628Y207623*
X456940Y207480*
X457251*
X457563Y207623*
X457666Y207766*
X457770Y208051*
X455072Y210477D02*
X453930D01*
X454553Y209336*
X454241*
X454034Y209193*
X453930Y209050*
X453826Y208622*
Y208337*
X453930Y207908*
X454137Y207623*
X454449Y207480*
X454760*
X455072Y207623*
X455175Y207766*
X455279Y208051*
X127047Y232210D02*
Y229213D01*
Y232210D02*
X126113D01*
X125802Y232067*
X125698Y231924*
X125594Y231639*
Y231353*
X125698Y231068*
X125802Y230925*
X126113Y230782*
X127047*
X126321D02*
X125594Y229213D01*
X124556Y231496D02*
Y231639D01*
X124452Y231924*
X124349Y232067*
X124141Y232210*
X123726*
X123518Y232067*
X123414Y231924*
X123311Y231639*
Y231353*
X123414Y231068*
X123622Y230640*
X124660Y229213*
X123207*
X127795Y170477D02*
Y167480D01*
Y170477D02*
X126861D01*
X126550Y170335*
X126446Y170192*
X126342Y169906*
Y169621*
X126446Y169336*
X126550Y169193*
X126861Y169050*
X127795*
X127069D02*
X126342Y167480D01*
X125304Y169764D02*
Y169906D01*
X125200Y170192*
X125097Y170335*
X124889Y170477*
X124474*
X124266Y170335*
X124162Y170192*
X124059Y169906*
Y169621*
X124162Y169336*
X124370Y168907*
X125408Y167480*
X123955*
X122398Y170477D02*
X122709Y170335D01*
X122917Y169906*
X123021Y169193*
Y168765*
X122917Y168051*
X122709Y167623*
X122398Y167480*
X122190*
X121879Y167623*
X121671Y168051*
X121568Y168765*
Y169193*
X121671Y169906*
X121879Y170335*
X122190Y170477*
X122398*
X261654Y291816D02*
Y288819D01*
Y291816D02*
X260719D01*
X260408Y291673*
X260304Y291531*
X260200Y291245*
Y290960*
X260304Y290674*
X260408Y290531*
X260719Y290389*
X261654*
X260927D02*
X260200Y288819D01*
X258228Y291816D02*
X259266Y289818D01*
X257709*
X258228Y291816D02*
Y288819D01*
X255426Y290817D02*
X255530Y290389D01*
X255737Y290103*
X256049Y289961*
X256152*
X256464Y290103*
X256671Y290389*
X256775Y290817*
Y290960*
X256671Y291388*
X256464Y291673*
X256152Y291816*
X256049*
X255737Y291673*
X255530Y291388*
X255426Y290817*
Y290103*
X255530Y289390*
X255737Y288962*
X256049Y288819*
X256256*
X256568Y288962*
X256671Y289247*
X253106Y292009D02*
Y289012D01*
Y292009D02*
X252172D01*
X251861Y291866*
X251757Y291723*
X251653Y291438*
Y291153*
X251757Y290867*
X251861Y290724*
X252172Y290582*
X253106*
X252380D02*
X251653Y289012D01*
X249681Y292009D02*
X250719Y290011D01*
X249162*
X249681Y292009D02*
Y289012D01*
X247190Y292009D02*
X248228Y290011D01*
X246671*
X247190Y292009D02*
Y289012D01*
X245039Y291816D02*
Y288819D01*
Y291816D02*
X244105D01*
X243794Y291673*
X243690Y291531*
X243586Y291245*
Y290960*
X243690Y290674*
X243794Y290531*
X244105Y290389*
X245039*
X244313D02*
X243586Y288819D01*
X241614Y291816D02*
X242652Y289818D01*
X241095*
X241614Y291816D02*
Y288819D01*
X238708Y291816D02*
X239746Y288819D01*
X240161Y291816D02*
X238708D01*
X398898Y146029D02*
Y143031D01*
Y146029D02*
X397963D01*
X397652Y145886*
X397548Y145743*
X397445Y145458*
Y145172*
X397548Y144887*
X397652Y144744*
X397963Y144601*
X398898*
X398171D02*
X397445Y143031D01*
X395161Y146029D02*
X396199D01*
X396303Y144744*
X396199Y144887*
X395888Y145030*
X395576*
X395265Y144887*
X395057Y144601*
X394953Y144173*
X395057Y143888*
X395161Y143460*
X395369Y143174*
X395680Y143031*
X395991*
X396303Y143174*
X396407Y143317*
X396510Y143602*
X392566Y146029D02*
X393604Y143031D01*
X394019Y146029D02*
X392566D01*
X399130Y161883D02*
Y158886D01*
Y161883D02*
X398196D01*
X397884Y161740*
X397781Y161597*
X397677Y161312*
Y161027*
X397781Y160741*
X397884Y160598*
X398196Y160456*
X399130*
X398403D02*
X397677Y158886D01*
X395393Y161883D02*
X396431D01*
X396535Y160598*
X396431Y160741*
X396120Y160884*
X395809*
X395497Y160741*
X395290Y160456*
X395186Y160028*
X395290Y159742*
X395393Y159314*
X395601Y159029*
X395912Y158886*
X396224*
X396535Y159029*
X396639Y159171*
X396743Y159457*
X393006Y161455D02*
X393110Y161740D01*
X393421Y161883*
X393629*
X393940Y161740*
X394148Y161312*
X394252Y160598*
Y159885*
X394148Y159314*
X393940Y159029*
X393629Y158886*
X393525*
X393214Y159029*
X393006Y159314*
X392902Y159742*
Y159885*
X393006Y160313*
X393214Y160598*
X393525Y160741*
X393629*
X393940Y160598*
X394148Y160313*
X394252Y159885*
X404472Y139733D02*
Y136736D01*
Y139733D02*
X403538D01*
X403227Y139591*
X403123Y139448*
X403019Y139162*
Y138877*
X403123Y138592*
X403227Y138449*
X403538Y138306*
X404472*
X403746D02*
X403019Y136736D01*
X400736Y139733D02*
X401774D01*
X401878Y138449*
X401774Y138592*
X401462Y138734*
X401151*
X400840Y138592*
X400632Y138306*
X400528Y137878*
X400632Y137593*
X400736Y137164*
X400943Y136879*
X401255Y136736*
X401566*
X401878Y136879*
X401981Y137022*
X402085Y137307*
X399075Y139733D02*
X399387Y139591D01*
X399490Y139305*
Y139020*
X399387Y138734*
X399179Y138592*
X398764Y138449*
X398452Y138306*
X398245Y138021*
X398141Y137735*
Y137307*
X398245Y137022*
X398349Y136879*
X398660Y136736*
X399075*
X399387Y136879*
X399490Y137022*
X399594Y137307*
Y137735*
X399490Y138021*
X399283Y138306*
X398971Y138449*
X398556Y138592*
X398349Y138734*
X398245Y139020*
Y139305*
X398349Y139591*
X398660Y139733*
X399075*
X236299Y291816D02*
Y288819D01*
Y291816D02*
X235365D01*
X235054Y291673*
X234950Y291531*
X234846Y291245*
Y290960*
X234950Y290674*
X235054Y290531*
X235365Y290389*
X236299*
X235573D02*
X234846Y288819D01*
X232874Y291816D02*
X233912Y289818D01*
X232355*
X232874Y291816D02*
Y288819D01*
X230175Y291388D02*
X230279Y291673D01*
X230591Y291816*
X230798*
X231110Y291673*
X231317Y291245*
X231421Y290531*
Y289818*
X231317Y289247*
X231110Y288962*
X230798Y288819*
X230694*
X230383Y288962*
X230175Y289247*
X230072Y289675*
Y289818*
X230175Y290246*
X230383Y290531*
X230694Y290674*
X230798*
X231110Y290531*
X231317Y290246*
X231421Y289818*
X421811Y321422D02*
Y318425D01*
Y321422D02*
X420877D01*
X420565Y321280*
X420565D02*
X420462Y321137D01*
X420358Y320851*
Y320566*
X420462Y320281*
X420565Y320138*
X420565D02*
X420877Y319995D01*
X421811*
X421084D02*
X420358Y318425D01*
X419216Y321422D02*
X418074D01*
X418697Y320281*
X418386*
X418178Y320138*
X418074Y319995*
X417971Y319567*
Y319281*
X418074Y318853*
X418282Y318568*
X418593Y318425*
X418905*
X419216Y318568*
X419320Y318711*
X419424Y318996*
X183465Y290044D02*
Y287047D01*
Y290044D02*
X182530D01*
X182219Y289902*
X182115Y289759*
X182011Y289473*
Y289188*
X182115Y288903*
X182219Y288760*
X182530Y288617*
X183465*
X182738D02*
X182011Y287047D01*
X179728Y290044D02*
X180766D01*
X180870Y288760*
X180766Y288903*
X180455Y289045*
X180143*
X179832Y288903*
X179624Y288617*
X179520Y288189*
X179624Y287904*
X179728Y287475*
X179936Y287190*
X180247Y287047*
X180558*
X180870Y287190*
X180974Y287333*
X181077Y287618*
X178586Y289473D02*
X178379Y289616D01*
X178067Y290044*
Y287047*
X183465Y280359D02*
Y277362D01*
Y280359D02*
X182530D01*
X182219Y280217*
X182115Y280074*
X182011Y279788*
Y279503*
X182115Y279218*
X182219Y279075*
X182530Y278932*
X183465*
X182738D02*
X182011Y277362D01*
X179728Y280359D02*
X180766D01*
X180870Y279075*
X180766Y279218*
X180455Y279360*
X180143*
X179832Y279218*
X179624Y278932*
X179520Y278504*
X179624Y278219*
X179728Y277790*
X179936Y277505*
X180247Y277362*
X180558*
X180870Y277505*
X180974Y277648*
X181077Y277933*
X177963Y280359D02*
X178275Y280217D01*
X178482Y279788*
X178586Y279075*
Y278647*
X178482Y277933*
X178275Y277505*
X177963Y277362*
X177756*
X177445Y277505*
X177237Y277933*
X177133Y278647*
Y279075*
X177237Y279788*
X177445Y280217*
X177756Y280359*
X177963*
X194055Y144454D02*
Y141457D01*
Y144454D02*
X193121D01*
X192810Y144311*
X192706Y144168*
X192602Y143883*
Y143597*
X192706Y143312*
X192810Y143169*
X193121Y143027*
X194055*
X193329D02*
X192602Y141457D01*
X191564Y143740D02*
Y143883D01*
X191460Y144168*
X191356Y144311*
X191149Y144454*
X190734*
X190526Y144311*
X190422Y144168*
X190319Y143883*
Y143597*
X190422Y143312*
X190630Y142884*
X191668Y141457*
X190215*
X187827Y144454D02*
X188865Y141457D01*
X189281Y144454D02*
X187827D01*
X460354Y201383D02*
Y198386D01*
Y201383D02*
X459420D01*
X459109Y201240*
X459005Y201097*
X458901Y200812*
Y200527*
X459005Y200241*
X459109Y200098*
X459420Y199956*
X460354*
X459628D02*
X458901Y198386D01*
X456618Y201383D02*
X457656D01*
X457759Y200098*
X457656Y200241*
X457344Y200384*
X457033*
X456722Y200241*
X456514Y199956*
X456410Y199528*
X456514Y199242*
X456618Y198814*
X456825Y198529*
X457137Y198386*
X457448*
X457759Y198529*
X457863Y198671*
X457967Y198957*
X454438Y201383D02*
X455476Y199385D01*
X453919*
X454438Y201383D02*
Y198386D01*
X399291Y176981D02*
Y173984D01*
Y176981D02*
X398357D01*
X398046Y176839*
X397942Y176696*
X397838Y176410*
Y176125*
X397942Y175840*
X398046Y175697*
X398357Y175554*
X399291*
X398565D02*
X397838Y173984D01*
X395555Y176981D02*
X396593D01*
X396696Y175697*
X396593Y175840*
X396281Y175982*
X395970*
X395659Y175840*
X395451Y175554*
X395347Y175126*
X395451Y174841*
X395555Y174412*
X395762Y174127*
X396074Y173984*
X396385*
X396696Y174127*
X396800Y174270*
X396904Y174555*
X393064Y176981D02*
X394102D01*
X394205Y175697*
X394102Y175840*
X393790Y175982*
X393479*
X393167Y175840*
X393167D02*
X392960Y175554D01*
X392856Y175126*
X392960Y174841*
X393064Y174412*
X393271Y174127*
X393583Y173984*
X393894*
X394205Y174127*
X394309Y174270*
X394413Y174555*
X350630Y283273D02*
Y280276D01*
Y283273D02*
X349696D01*
X349384Y283130*
X349281Y282987*
X349177Y282702*
Y282416*
X349281Y282131*
X349384Y281988*
X349696Y281845*
X350630*
X349903D02*
X349177Y280276D01*
X347205Y283273D02*
X348243Y281275D01*
X346686*
X347205Y283273D02*
Y280276D01*
X345129Y283273D02*
X345440Y283130D01*
X345648Y282702*
X345752Y281988*
Y281560*
X345648Y280846*
X345440Y280418*
X345129Y280276*
X344921*
X344610Y280418*
X344402Y280846*
X344298Y281560*
Y281988*
X344402Y282702*
X344610Y283130*
X344921Y283273*
X345129*
X415827Y295792D02*
Y292795D01*
Y295792D02*
X414893D01*
X414581Y295650*
X414477Y295507*
X414374Y295221*
Y294936*
X414477Y294651*
X414581Y294508*
X414893Y294365*
X415827*
X415100D02*
X414374Y292795D01*
X412194Y295364D02*
X412298Y295650D01*
X412609Y295792*
X412817*
X413128Y295650*
X413336Y295221*
X413440Y294508*
Y293794*
X413336Y293223*
X413128Y292938*
X412817Y292795*
X412713*
X412402Y292938*
X412194Y293223*
X412090Y293652*
Y293794*
X412194Y294222*
X412402Y294508*
X412713Y294651*
X412817*
X413128Y294508*
X413336Y294222*
X413440Y293794*
X409807Y295792D02*
X410845D01*
X410948Y294508*
X410845Y294651*
X410533Y294793*
X410222*
X409911Y294651*
X409703Y294365*
X409599Y293937*
X409703Y293652*
X409807Y293223*
X410014Y292938*
X410326Y292795*
X410637*
X410948Y292938*
X411052Y293081*
X411156Y293366*
X412685Y139733D02*
Y136736D01*
Y139733D02*
X411751D01*
X411440Y139591*
X411336Y139448*
X411232Y139162*
Y138877*
X411336Y138592*
X411440Y138449*
X411751Y138306*
X412685*
X411958D02*
X411232Y136736D01*
X408948Y139733D02*
X409986D01*
X410090Y138449*
X409986Y138592*
X409675Y138734*
X409364*
X409052Y138592*
X408845Y138306*
X408741Y137878*
X408845Y137593*
X408948Y137164*
X409156Y136879*
X409467Y136736*
X409779*
X410090Y136879*
X410194Y137022*
X410298Y137307*
X406457Y138734D02*
X406561Y138306D01*
X406769Y138021*
X407080Y137878*
X407184*
X407495Y138021*
X407703Y138306*
X407807Y138734*
Y138877*
X407703Y139305*
X407495Y139591*
X407184Y139733*
X407080*
X406769Y139591*
X406561Y139305*
X406457Y138734*
Y138021*
X406561Y137307*
X406769Y136879*
X407080Y136736*
X407288*
X407599Y136879*
X407703Y137164*
X355236Y309218D02*
Y306220D01*
Y309218D02*
X354302D01*
X353991Y309075*
X353887Y308932*
X353783Y308647*
Y308361*
X353887Y308076*
X353991Y307933*
X354302Y307790*
X355236*
X354510D02*
X353783Y306220D01*
X351603Y308789D02*
X351707Y309075D01*
X352019Y309218*
X352226*
X352538Y309075*
X352745Y308647*
X352849Y307933*
Y307219*
X352745Y306649*
X352538Y306363*
X352226Y306220*
X352122*
X351811Y306363*
X351603Y306649*
X351500Y307077*
Y307219*
X351603Y307648*
X351811Y307933*
X352122Y308076*
X352226*
X352538Y307933*
X352745Y307648*
X352849Y307219*
X350565Y308647D02*
X350358Y308789D01*
X350047Y309218*
Y306220*
X463196Y176068D02*
X463404Y175925D01*
X463611Y175640*
X463715Y175354*
X463819Y174926*
Y174213*
X463715Y173784*
X463611Y173499*
X463404Y173214*
X463196Y173071*
X462781*
X462573Y173214*
X462366Y173499*
X462262Y173784*
X462158Y174213*
Y174926*
X462262Y175354*
X462366Y175640*
X462573Y175925*
X462781Y176068*
X463196*
X462885Y173642D02*
X462262Y172785D01*
X461016Y176068D02*
X459875D01*
X460497Y174926*
X460186*
X459979Y174783*
X459875Y174641*
X459771Y174213*
Y173927*
X459875Y173499*
X460082Y173214*
X460394Y173071*
X460705*
X461016Y173214*
X461120Y173356*
X461224Y173642*
X310727Y283228D02*
X310830Y283514D01*
X311038Y283799*
X311246Y283942*
X311661*
X311868Y283799*
X312076Y283514*
X312180Y283228*
X312283Y282800*
Y282087*
X312180Y281658*
X312076Y281373*
X311868Y281088*
X311661Y280945*
X311246*
X311038Y281088*
X310830Y281373*
X310727Y281658*
X309792Y283371D02*
X309585Y283514D01*
X309273Y283942*
Y280945*
X308236Y283228D02*
Y283371D01*
X308132Y283656*
X308028Y283799*
X307820Y283942*
X307405*
X307198Y283799*
X307094Y283656*
X306990Y283371*
Y283086*
X307094Y282800*
X307301Y282372*
X308339Y280945*
X306886*
X314309Y275197D02*
X314413Y275482D01*
X314621Y275768*
X314828Y275910*
X315243*
X315451Y275768*
X315659Y275482*
X315762Y275197*
X315866Y274769*
Y274055*
X315762Y273627*
X315659Y273342*
X315451Y273056*
X315243Y272913*
X314828*
X314621Y273056*
X314413Y273342*
X314309Y273627*
X313168Y275910D02*
X312026D01*
X312649Y274769*
X312337*
X312130Y274626*
X312026Y274483*
X311922Y274055*
Y273770*
X312026Y273342*
X312233Y273056*
X312545Y272913*
X312856*
X313168Y273056*
X313168D02*
X313271Y273199D01*
X313375Y273484*
X310884Y275197D02*
Y275340D01*
X310780Y275625*
X310676Y275768*
X310469Y275910*
X310054*
X309846Y275768*
X309742Y275625*
X309639Y275340*
Y275054*
X309742Y274769*
X309950Y274341*
X310988Y272913*
X309535*
X313364Y309173D02*
X313468Y309459D01*
X313676Y309744*
X313883Y309887*
X314298*
X314506Y309744*
X314714Y309459*
X314817Y309173*
X314921Y308745*
Y308031*
X314817Y307603*
X314714Y307318*
X314506Y307032*
X314298Y306890*
X313883*
X313676Y307032*
X313468Y307318*
X313364Y307603*
X312223Y309887D02*
X311081D01*
X311704Y308745*
X311392*
X311185Y308602*
X311081Y308460*
X310977Y308031*
Y307746*
X311081Y307318*
X311288Y307032*
X311600Y306890*
X311911*
X312223Y307032*
X312326Y307175*
X312430Y307461*
X309835Y309887D02*
X308694D01*
X309316Y308745*
X309005*
X308797Y308602*
X308694Y308460*
X308590Y308031*
Y307746*
X308694Y307318*
X308901Y307032*
X309213Y306890*
X309524*
X309835Y307032*
X309939Y307175*
X310043Y307461*
X182105Y319016D02*
X182208Y319301D01*
X182416Y319587*
X182623Y319729*
X183039*
X183246Y319587*
X183454Y319301*
X183558Y319016*
X183661Y318588*
Y317874*
X183558Y317446*
X183454Y317160*
X183246Y316875*
X183039Y316732*
X182623*
X182416Y316875*
X182208Y317160*
X182105Y317446*
X180963Y319729D02*
X179821D01*
X180444Y318588*
X180132*
X179925Y318445*
X179821Y318302*
X179717Y317874*
Y317589*
X179821Y317160*
X180029Y316875*
X180340Y316732*
X180651*
X180963Y316875*
X181067Y317018*
X181170Y317303*
X177745Y319729D02*
X178783Y317731D01*
X177226*
X177745Y319729D02*
Y316732D01*
X379230Y301654D02*
X379334Y301939D01*
X379542Y302224*
X379749Y302367*
X380165*
X380372Y302224*
X380580Y301939*
X380684Y301654*
X380787Y301225*
Y300512*
X380684Y300084*
X380580Y299798*
X380372Y299513*
X380165Y299370*
X379749*
X379542Y299513*
X379334Y299798*
X379230Y300084*
X378089Y302367D02*
X376947D01*
X377570Y301225*
X377258*
X377051Y301083*
X376947Y300940*
X376843Y300512*
Y300226*
X376947Y299798*
X377155Y299513*
X377466Y299370*
X377777*
X378089Y299513*
X378193Y299656*
X378296Y299941*
X374664Y301939D02*
X374767Y302224D01*
X375079Y302367*
X375286*
X375598Y302224*
X375805Y301796*
X375909Y301083*
Y300369*
X375805Y299798*
X375598Y299513*
X375286Y299370*
X375183*
X374871Y299513*
X374664Y299798*
X374560Y300226*
Y300369*
X374664Y300797*
X374871Y301083*
X375183Y301225*
X375286*
X375598Y301083*
X375805Y300797*
X375909Y300369*
X379270Y321732D02*
X379374Y322018D01*
X379581Y322303*
X379789Y322446*
X380204*
X380412Y322303*
X380619Y322018*
X380723Y321732*
X380827Y321304*
Y320591*
X380723Y320162*
X380619Y319877*
X380412Y319592*
X380204Y319449*
X379789*
X379581Y319592*
X379374Y319877*
X379270Y320162*
X378128Y322446D02*
X376986D01*
X377609Y321304*
X377298*
X377090Y321161*
X376986Y321019*
X376883Y320591*
Y320305*
X376986Y319877*
X377194Y319592*
X377505Y319449*
X377817*
X378128Y319592*
X378232Y319734*
X378336Y320020*
X374495Y322446D02*
X375533Y319449D01*
X375948Y322446D02*
X374495D01*
X405687Y283504D02*
X405791Y283789D01*
X405999Y284075*
X406206Y284218*
X406621*
X406829Y284075*
X407037Y283789*
X407140Y283504*
X407244Y283076*
Y282362*
X407140Y281934*
X407037Y281649*
X406829Y281363*
X406621Y281220*
X406206*
X405999Y281363*
X405791Y281649*
X405687Y281934*
X404545Y284218D02*
X403404D01*
X404026Y283076*
X403715*
X403508Y282933*
X403404Y282790*
X403300Y282362*
Y282077*
X403404Y281649*
X403611Y281363*
X403923Y281220*
X404234*
X404545Y281363*
X404649Y281506*
X404753Y281791*
X401847Y284218D02*
X402158Y284075D01*
X402262Y283789*
Y283504*
X402158Y283219*
X401951Y283076*
X401535Y282933*
X401224Y282790*
X401016Y282505*
X400913Y282219*
Y281791*
X401016Y281506*
X401120Y281363*
X401432Y281220*
X401847*
X402158Y281363*
X402262Y281506*
X402366Y281791*
Y282219*
X402262Y282505*
X402054Y282790*
X401743Y282933*
X401328Y283076*
X401120Y283219*
X401016Y283504*
Y283789*
X401120Y284075*
X401432Y284218*
X401847*
X355018Y275433D02*
X355122Y275719D01*
X355329Y276004*
X355537Y276147*
X355952*
X356160Y276004*
X356367Y275719*
X356471Y275433*
X356575Y275005*
Y274291*
X356471Y273863*
X356367Y273578*
X356160Y273292*
X355952Y273150*
X355537*
X355329Y273292*
X355122Y273578*
X355018Y273863*
X353046Y276147D02*
X354084Y274149D01*
X352527*
X353046Y276147D02*
Y273150D01*
X350970Y276147D02*
X351281Y276004D01*
X351489Y275576*
X351593Y274862*
Y274434*
X351489Y273720*
X351281Y273292*
X350970Y273150*
X350762*
X350451Y273292*
X350243Y273720*
X350140Y274434*
Y274862*
X350243Y275576*
X350451Y276004*
X350762Y276147*
X350970*
X183465Y260674D02*
Y257677D01*
Y260674D02*
X182530D01*
X182219Y260531*
X182115Y260389*
X182011Y260103*
Y259818*
X182115Y259532*
X182219Y259390*
X182530Y259247*
X183465*
X182738D02*
X182011Y257677D01*
X180039Y260674D02*
X181077Y258676D01*
X179520*
X180039Y260674D02*
Y257677D01*
X178379Y260674D02*
X177237D01*
X177860Y259532*
X177548*
X177341Y259390*
X177237Y259247*
X177133Y258819*
Y258533*
X177237Y258105*
X177445Y257820*
X177756Y257677*
X178067*
X178379Y257820*
X178482Y257963*
X178586Y258248*
X183465Y249926D02*
Y246929D01*
Y249926D02*
X182530D01*
X182219Y249783*
X182115Y249641*
X182011Y249355*
Y249070*
X182115Y248784*
X182219Y248642*
X182530Y248499*
X183465*
X182738D02*
X182011Y246929D01*
X180039Y249926D02*
X181077Y247928D01*
X179520*
X180039Y249926D02*
Y246929D01*
X177237Y249926D02*
X178275D01*
X178379Y248642*
X178275Y248784*
X177963Y248927*
X177652*
X177341Y248784*
X177133Y248499*
X177029Y248071*
X177133Y247785*
X177237Y247357*
X177445Y247072*
X177756Y246929*
X178067*
X178379Y247072*
X178482Y247215*
X178586Y247500*
X335906Y293036D02*
Y290896D01*
X335802Y290468*
X335594Y290182*
X335283Y290039*
X335075*
X334764Y290182*
X334556Y290468*
X334452Y290896*
Y293036*
X333518Y292466D02*
X333311Y292608D01*
X332999Y293036*
Y290039*
X331858Y293036D02*
X330716D01*
X331339Y291895*
X331027*
X330820Y291752*
X330716Y291609*
X330612Y291181*
Y290896*
X330716Y290468*
X330923Y290182*
X331235Y290039*
X331546*
X331858Y290182*
X331961Y290325*
X332065Y290610*
X401772Y306147D02*
Y304006D01*
X401668Y303578*
X401460Y303292*
X401149Y303150*
X400941*
X400630Y303292*
X400422Y303578*
X400319Y304006*
Y306147*
X399384Y305576D02*
X399177Y305719D01*
X398865Y306147*
Y303150*
X396893Y306147D02*
X397931Y304149D01*
X396374*
X396893Y306147D02*
Y303150D01*
G74*
X0Y0D02*
M02*
