*
*
G04 PADS 9.5 Build Number: 522968 generated Gerber (RS-274-X) file*
G04 PC Version=2.1*
*
%IN "Variometer-STM32.pcb"*%
*
%MOIN*%
*
%FSLAX35Y35*%
*
*
*
*
G04 PC Standard Apertures*
*
*
G04 Thermal Relief Aperture macro.*
%AMTER*
1,1,$1,0,0*
1,0,$1-$2,0,0*
21,0,$3,$4,0,0,45*
21,0,$3,$4,0,0,135*
%
*
*
G04 Annular Aperture macro.*
%AMANN*
1,1,$1,0,0*
1,0,$2,0,0*
%
*
*
G04 Odd Aperture macro.*
%AMODD*
1,1,$1,0,0*
1,0,$1-0.005,0,0*
%
*
*
G04 PC Custom Aperture Macros*
*
*
*
*
*
*
G04 PC Aperture Table*
*
%ADD010C,0.001*%
%ADD011C,0.01*%
%ADD013C,0.00787*%
%ADD016C,0.005*%
*
*
*
*
G04 PC Circuitry*
G04 Layer Name Variometer-STM32.pcb - circuitry*
%LPD*%
*
*
G04 PC Custom Flashes*
G04 Layer Name Variometer-STM32.pcb - flashes*
%LPD*%
*
*
G04 PC Circuitry*
G04 Layer Name Variometer-STM32.pcb - circuitry*
%LPD*%
*
G54D10*
G54D11*
G01X251531Y283052D02*
Y277252D01*
X244531*
Y283052*
X251531Y285452D02*
Y291252D01*
X244531*
Y285452*
X336780Y309512D02*
X339280D01*
Y304512*
X330780Y309512D02*
X328280D01*
Y304512*
X334280Y300512D02*
X333280D01*
X442957Y305924D02*
Y311724D01*
X449957*
Y305924*
X442957Y303524D02*
Y297724D01*
X449957*
Y303524*
X460280Y305924D02*
Y311724D01*
X467280*
Y305924*
X460280Y303524D02*
Y297724D01*
X467280*
Y303524*
X451618Y305924D02*
Y311724D01*
X458618*
Y305924*
X451618Y303524D02*
Y297724D01*
X458618*
Y303524*
X425634Y305924D02*
Y311724D01*
X432634*
Y305924*
X425634Y303524D02*
Y297724D01*
X432634*
Y303524*
X434295Y305924D02*
Y311724D01*
X441295*
Y305924*
X434295Y303524D02*
Y297724D01*
X441295*
Y303524*
X459488Y116378D02*
Y106417D01*
X453002Y116417D02*
X461052D01*
X461047Y106413D02*
G75*
G03X461056Y116414I-4650J5004D01*
G01X461052Y106417D02*
X453002D01*
X445502Y116417D02*
X437452D01*
X437451D02*
G03Y106418I3768J-5000D01*
G01X437452Y106417D02*
X445502D01*
X244531Y305924D02*
Y311724D01*
X251531*
Y305924*
X244531Y303524D02*
Y297724D01*
X251531*
Y303524*
X236264Y305924D02*
Y311724D01*
X243264*
Y305924*
X236264Y303524D02*
Y297724D01*
X243264*
Y303524*
X390926Y194925D02*
X385126D01*
Y201925*
X390926*
X393326Y194925D02*
X399126D01*
Y201925*
X393326*
X444863Y201618D02*
X439063D01*
Y208618*
X444863*
X447263Y201618D02*
X453063D01*
Y208618*
X447263*
X263011Y283421D02*
X268811D01*
Y276421*
X263011*
X260611Y283421D02*
X254811D01*
Y276421*
X260611*
X263011Y292083D02*
X268811D01*
Y285083*
X263011*
X260611Y292083D02*
X254811D01*
Y285083*
X260611*
X243264Y283052D02*
Y277252D01*
X236264*
Y283052*
X243264Y285452D02*
Y291252D01*
X236264*
Y285452*
X390926Y147681D02*
X385126D01*
Y154681*
X390926*
X393326Y147681D02*
X399126D01*
Y154681*
X393326*
X390926Y163429D02*
X385126D01*
Y170429*
X390926*
X393326Y163429D02*
X399126D01*
Y170429*
X393326*
X398287Y128704D02*
Y134504D01*
X405287*
Y128704*
X398287Y126304D02*
Y120504D01*
X405287*
Y126304*
X234602Y283052D02*
Y277252D01*
X227602*
Y283052*
X234602Y285452D02*
Y291252D01*
X227602*
Y285452*
X170516Y276397D02*
Y282197D01*
X177516*
Y276397*
X170516Y273997D02*
Y268197D01*
X177516*
Y273997*
X161461Y276397D02*
Y282197D01*
X168461*
Y276397*
X161461Y273997D02*
Y268197D01*
X168461*
Y273997*
X463405Y208618D02*
X469205D01*
Y201618*
X463405*
X461005Y208618D02*
X455205D01*
Y201618*
X461005*
X390926Y179177D02*
X385126D01*
Y186177*
X390926*
X393326Y179177D02*
X399126D01*
Y186177*
X393326*
X332580Y288232D02*
X326780D01*
Y295232*
X332580*
X334980Y288232D02*
X340780D01*
Y295232*
X334980*
X413882Y126304D02*
Y120504D01*
X406882*
Y126304*
X413882Y128704D02*
Y134504D01*
X406882*
Y128704*
X457068Y269728D02*
X451268D01*
Y276728*
X457068*
X459468Y269728D02*
X465268D01*
Y276728*
X459468*
X450276Y257008D02*
Y265512D01*
X456768Y256917D02*
X448768D01*
Y265917*
X456768*
X459768Y256917D02*
X467768D01*
Y265917*
X459768*
X445276Y181496D02*
X463386D01*
Y191732*
X445276*
Y181496*
G54D13*
X250630Y275005D02*
Y272008D01*
Y275005D02*
X249696D01*
X249384Y274862*
X249281Y274719*
X249177Y274434*
Y274149*
X249281Y273863*
X249384Y273720*
X249696Y273578*
X250630*
X249903D02*
X249177Y272008D01*
X247205Y275005D02*
X248243Y273007D01*
X246686*
X247205Y275005D02*
Y272008D01*
X245233Y275005D02*
X245544Y274862D01*
X245648Y274577*
Y274291*
X245544Y274006*
X245336Y273863*
X244921Y273720*
X244610Y273578*
X244402Y273292*
X244298Y273007*
Y272579*
X244402Y272293*
X244506Y272151*
X244817Y272008*
X245233*
X245544Y272151*
X245648Y272293*
X245752Y272579*
Y273007*
X245648Y273292*
X245440Y273578*
X245129Y273720*
X244714Y273863*
X244506Y274006*
X244402Y274291*
Y274577*
X244506Y274862*
X244817Y275005*
X245233*
X345709Y302800D02*
Y300659D01*
X345605Y300231*
X345397Y299946*
X345086Y299803*
X344878*
X344567Y299946*
X344359Y300231*
X344256Y300659*
Y302800*
X343321Y302229D02*
X343114Y302372D01*
X342802Y302800*
Y299803*
X341246Y302800D02*
X341557Y302657D01*
X341764Y302229*
X341868Y301516*
Y301088*
X341764Y300374*
X341557Y299946*
X341246Y299803*
X341038*
X340727Y299946*
X340519Y300374*
X340415Y301088*
Y301516*
X340519Y302229*
X340727Y302657*
X341038Y302800*
X341246*
X448693Y296155D02*
Y293157D01*
Y296155D02*
X447759D01*
X447447Y296012*
X447344Y295869*
X447240Y295584*
Y295298*
X447344Y295013*
X447447Y294870*
X447759Y294727*
X448693*
X447966D02*
X447240Y293157D01*
X445268Y296155D02*
X446306Y294156D01*
X444749*
X445268Y296155D02*
Y293157D01*
X443815Y295584D02*
X443607Y295726D01*
X443296Y296155*
Y293157*
X463697Y295954D02*
Y292957D01*
Y295954D02*
X462763D01*
X462451Y295811*
X462348Y295668*
X462244Y295383*
Y295097*
X462348Y294812*
X462451Y294669*
X462763Y294527*
X463697*
X462970D02*
X462244Y292957D01*
X460272Y295954D02*
X461310Y293956D01*
X459753*
X460272Y295954D02*
Y292957D01*
X458611Y295954D02*
X457469D01*
X458092Y294812*
X457781*
X457573Y294669*
X457469Y294527*
X457365Y294098*
Y293813*
X457469Y293385*
X457677Y293099*
X457988Y292957*
X458300*
X458611Y293099*
X458715Y293242*
X458819Y293528*
X456874Y296265D02*
Y293268D01*
Y296265D02*
X455940D01*
X455628Y296122*
X455525Y295979*
X455421Y295694*
Y295408*
X455525Y295123*
X455628Y294980*
X455940Y294838*
X456874*
X456147D02*
X455421Y293268D01*
X453449Y296265D02*
X454487Y294267D01*
X452930*
X453449Y296265D02*
Y293268D01*
X451892Y295551D02*
Y295694D01*
X451788Y295979*
X451684Y296122*
X451477Y296265*
X451062*
X450854Y296122*
X450750Y295979*
X450646Y295694*
Y295408*
X450750Y295123*
X450958Y294695*
X451996Y293268*
X450543*
X431575Y296426D02*
Y293429D01*
Y296426D02*
X430641D01*
X430329Y296283*
X430225Y296141*
X430122Y295855*
Y295570*
X430225Y295284*
X430329Y295142*
X430641Y294999*
X431575*
X430848D02*
X430122Y293429D01*
X428980Y296426D02*
X427838D01*
X428461Y295284*
X428150*
X427942Y295142*
X427838Y294999*
X427734Y294571*
Y294285*
X427838Y293857*
X428046Y293572*
X428357Y293429*
X428669*
X428980Y293572*
X429084Y293715*
X429188Y294000*
X425451Y295427D02*
X425555Y294999D01*
X425762Y294714*
X426074Y294571*
X426178*
X426489Y294714*
X426696Y294999*
X426800Y295427*
Y295570*
X426696Y295998*
X426489Y296283*
X426178Y296426*
X426074*
X425762Y296283*
X425555Y295998*
X425451Y295427*
Y294714*
X425555Y294000*
X425762Y293572*
X426074Y293429*
X426281*
X426593Y293572*
X426696Y293857*
X440508Y296155D02*
Y293157D01*
Y296155D02*
X439574D01*
X439262Y296012*
X439159Y295869*
X439055Y295584*
Y295298*
X439159Y295013*
X439262Y294870*
X439574Y294727*
X440508*
X439781D02*
X439055Y293157D01*
X437083Y296155D02*
X438121Y294156D01*
X436564*
X437083Y296155D02*
Y293157D01*
X435007Y296155D02*
X435318Y296012D01*
X435526Y295584*
X435630Y294870*
Y294442*
X435526Y293728*
X435318Y293300*
X435007Y293157*
X434799*
X434488Y293300*
X434280Y293728*
X434176Y294442*
Y294870*
X434280Y295584*
X434488Y296012*
X434799Y296155*
X435007*
X469252Y113588D02*
Y110591D01*
Y113588D02*
X468525D01*
X468214Y113445*
X468006Y113159*
X467903Y112874*
X467799Y112446*
Y111732*
X467903Y111304*
X468006Y111019*
X468214Y110733*
X468525Y110591*
X469252*
X466346Y113588D02*
X466657Y113445D01*
X466761Y113159*
Y112874*
X466657Y112589*
X466450Y112446*
X466034Y112303*
X465723Y112160*
X465515Y111875*
X465412Y111590*
Y111161*
X465515Y110876*
X465619Y110733*
X465931Y110591*
X466346*
X466657Y110733*
X466761Y110876*
X466865Y111161*
Y111590*
X466761Y111875*
X466553Y112160*
X466242Y112303*
X465827Y112446*
X465619Y112589*
X465515Y112874*
Y113159*
X465619Y113445*
X465931Y113588*
X466346*
X250945Y296619D02*
Y293622D01*
Y296619D02*
X250011D01*
X249699Y296476*
X249596Y296334*
X249492Y296048*
Y295763*
X249596Y295477*
X249699Y295335*
X250011Y295192*
X250945*
X250218D02*
X249492Y293622D01*
X248350Y296619D02*
X247208D01*
X247831Y295477*
X247520*
X247312Y295335*
X247208Y295192*
X247105Y294764*
Y294478*
X247208Y294050*
X247416Y293765*
X247727Y293622*
X248039*
X248350Y293765*
X248454Y293907*
X248558Y294193*
X245651Y296619D02*
X245963Y296476D01*
X246067Y296191*
Y295906*
X245963Y295620*
X245755Y295477*
X245340Y295335*
X245029Y295192*
X244821Y294906*
X244717Y294621*
Y294193*
X244821Y293907*
X244925Y293765*
X245236Y293622*
X245651*
X245963Y293765*
X246067Y293907*
X246170Y294193*
Y294621*
X246067Y294906*
X245859Y295192*
X245548Y295335*
X245132Y295477*
X244925Y295620*
X244821Y295906*
Y296191*
X244925Y296476*
X245236Y296619*
X245651*
X243031Y296777D02*
Y293780D01*
Y296777D02*
X242097D01*
X241786Y296634*
X241682Y296491*
X241578Y296206*
Y295920*
X241682Y295635*
X241786Y295492*
X242097Y295349*
X243031*
X242305D02*
X241578Y293780D01*
X240437Y296777D02*
X239295D01*
X239918Y295635*
X239606*
X239399Y295492*
X239295Y295349*
X239191Y294921*
Y294636*
X239295Y294208*
X239503Y293922*
X239814Y293780*
X240125*
X240437Y293922*
X240540Y294065*
X240644Y294350*
X236804Y296777D02*
X237842Y293780D01*
X238257Y296777D02*
X236804D01*
X399291Y193206D02*
Y190209D01*
Y193206D02*
X398357D01*
X398046Y193063*
X397942Y192920*
X397838Y192635*
Y192349*
X397942Y192064*
X398046Y191921*
X398357Y191779*
X399291*
X398565D02*
X397838Y190209D01*
X395555Y193206D02*
X396593D01*
X396696Y191921*
X396593Y192064*
X396281Y192207*
X395970*
X395659Y192064*
X395451Y191779*
X395347Y191350*
X395451Y191065*
X395555Y190637*
X395762Y190351*
X396074Y190209*
X396385*
X396696Y190351*
X396800Y190494*
X396904Y190780*
X394309Y192492D02*
Y192635D01*
X394205Y192920*
X394102Y193063*
X393894Y193206*
X393479*
X393271Y193063*
X393167Y192920*
X393167D02*
X393064Y192635D01*
Y192349*
X393167Y192064*
X393167D02*
X393375Y191636D01*
X394413Y190209*
X392960*
X470827Y203696D02*
Y206693D01*
Y203696D02*
X471761D01*
X472072Y203839*
X472176Y203981*
X472280Y204267*
Y204552*
X472176Y204838*
X472072Y204980*
X471761Y205123*
X470827*
X471553D02*
X472280Y206693D01*
X474563Y203696D02*
X473525D01*
X473422Y204980*
X473525Y204838*
X473837Y204695*
X474148*
X474460Y204838*
X474667Y205123*
X474771Y205551*
X474667Y205837*
X474563Y206265*
X474356Y206550*
X474044Y206693*
X473733*
X473422Y206550*
X473318Y206407*
X473214Y206122*
X475913Y203696D02*
X477054D01*
X476432Y204838*
X476743*
X476951Y204980*
X477054Y205123*
X477158Y205551*
Y205837*
X477054Y206265*
X476847Y206550*
X476535Y206693*
X476224*
X475913Y206550*
X475809Y206407*
X475705Y206122*
X276693Y281580D02*
Y278583D01*
Y281580D02*
X275759D01*
X275447Y281437*
X275344Y281294*
X275240Y281009*
Y280723*
X275344Y280438*
X275447Y280295*
X275759Y280153*
X276693*
X275966D02*
X275240Y278583D01*
X273268Y281580D02*
X274306Y279582D01*
X272749*
X273268Y281580D02*
Y278583D01*
X270465Y280581D02*
X270569Y280153D01*
X270777Y279867*
X271088Y279724*
X271192*
X271503Y279867*
X271711Y280153*
X271815Y280581*
Y280723*
X271711Y281152*
X271503Y281437*
X271192Y281580*
X271088*
X270777Y281437*
X270569Y281152*
X270465Y280581*
Y279867*
X270569Y279154*
X270777Y278725*
X271088Y278583*
X271296*
X271607Y278725*
X271711Y279011*
X276575Y290005D02*
Y287008D01*
Y290005D02*
X275641D01*
X275329Y289862*
X275225Y289719*
X275122Y289434*
Y289149*
X275225Y288863*
X275329Y288720*
X275641Y288578*
X276575*
X275848D02*
X275122Y287008D01*
X273150Y290005D02*
X274188Y288007D01*
X272631*
X273150Y290005D02*
Y287008D01*
X270659Y290005D02*
X271696Y288007D01*
X270140*
X270659Y290005D02*
Y287008D01*
X242441Y275162D02*
Y272165D01*
Y275162D02*
X241507D01*
X241195Y275020*
X241092Y274877*
X240988Y274592*
Y274306*
X241092Y274021*
X241195Y273878*
X241507Y273735*
X242441*
X241714D02*
X240988Y272165D01*
X239016Y275162D02*
X240054Y273164D01*
X238497*
X239016Y275162D02*
Y272165D01*
X236110Y275162D02*
X237147Y272165D01*
X237563Y275162D02*
X236110D01*
X398898Y146029D02*
Y143031D01*
Y146029D02*
X397963D01*
X397652Y145886*
X397548Y145743*
X397445Y145458*
Y145172*
X397548Y144887*
X397652Y144744*
X397963Y144601*
X398898*
X398171D02*
X397445Y143031D01*
X395161Y146029D02*
X396199D01*
X396303Y144744*
X396199Y144887*
X395888Y145030*
X395576*
X395265Y144887*
X395057Y144601*
X394953Y144173*
X395057Y143888*
X395161Y143460*
X395369Y143174*
X395680Y143031*
X395991*
X396303Y143174*
X396407Y143317*
X396510Y143602*
X392566Y146029D02*
X393604Y143031D01*
X394019Y146029D02*
X392566D01*
X399130Y161883D02*
Y158886D01*
Y161883D02*
X398196D01*
X397884Y161740*
X397781Y161597*
X397677Y161312*
Y161027*
X397781Y160741*
X397884Y160598*
X398196Y160456*
X399130*
X398403D02*
X397677Y158886D01*
X395393Y161883D02*
X396431D01*
X396535Y160598*
X396431Y160741*
X396120Y160884*
X395809*
X395497Y160741*
X395290Y160456*
X395186Y160028*
X395290Y159742*
X395393Y159314*
X395601Y159029*
X395912Y158886*
X396224*
X396535Y159029*
X396639Y159171*
X396743Y159457*
X393006Y161455D02*
X393110Y161740D01*
X393421Y161883*
X393629*
X393940Y161740*
X394148Y161312*
X394252Y160598*
Y159885*
X394148Y159314*
X393940Y159029*
X393629Y158886*
X393525*
X393214Y159029*
X393006Y159314*
X392902Y159742*
Y159885*
X393006Y160313*
X393214Y160598*
X393525Y160741*
X393629*
X393940Y160598*
X394148Y160313*
X394252Y159885*
X404472Y139733D02*
Y136736D01*
Y139733D02*
X403538D01*
X403227Y139591*
X403123Y139448*
X403019Y139162*
Y138877*
X403123Y138592*
X403227Y138449*
X403538Y138306*
X404472*
X403746D02*
X403019Y136736D01*
X400736Y139733D02*
X401774D01*
X401878Y138449*
X401774Y138592*
X401462Y138734*
X401151*
X400840Y138592*
X400632Y138306*
X400528Y137878*
X400632Y137593*
X400736Y137164*
X400943Y136879*
X401255Y136736*
X401566*
X401878Y136879*
X401981Y137022*
X402085Y137307*
X399075Y139733D02*
X399387Y139591D01*
X399490Y139305*
Y139020*
X399387Y138734*
X399179Y138592*
X398764Y138449*
X398452Y138306*
X398245Y138021*
X398141Y137735*
Y137307*
X398245Y137022*
X398349Y136879*
X398660Y136736*
X399075*
X399387Y136879*
X399490Y137022*
X399594Y137307*
Y137735*
X399490Y138021*
X399283Y138306*
X398971Y138449*
X398556Y138592*
X398349Y138734*
X398245Y139020*
Y139305*
X398349Y139591*
X398660Y139733*
X399075*
X234252Y275477D02*
Y272480D01*
Y275477D02*
X233318D01*
X233006Y275335*
X232903Y275192*
X232799Y274906*
Y274621*
X232903Y274336*
X233006Y274193*
X233318Y274050*
X234252*
X233525D02*
X232799Y272480D01*
X230827Y275477D02*
X231865Y273479D01*
X230308*
X230827Y275477D02*
Y272480D01*
X228128Y275049D02*
X228232Y275335D01*
X228543Y275477*
X228751*
X229062Y275335*
X229270Y274906*
X229374Y274193*
Y273479*
X229270Y272908*
X229062Y272623*
X228751Y272480*
X228647*
X228336Y272623*
X228128Y272908*
X228024Y273337*
Y273479*
X228128Y273907*
X228336Y274193*
X228647Y274336*
X228751*
X229062Y274193*
X229270Y273907*
X229374Y273479*
X177205Y266265D02*
Y263268D01*
Y266265D02*
X176271D01*
X175959Y266122*
X175855Y265979*
X175752Y265694*
Y265408*
X175855Y265123*
X175959Y264980*
X176271Y264838*
X177205*
X176478D02*
X175752Y263268D01*
X173468Y266265D02*
X174506D01*
X174610Y264980*
X174506Y265123*
X174195Y265266*
X173883*
X173572Y265123*
X173364Y264838*
X173261Y264409*
X173364Y264124*
X173468Y263696*
X173676Y263410*
X173987Y263268*
X174298*
X174610Y263410*
X174714Y263553*
X174817Y263839*
X172326Y265694D02*
X172119Y265837D01*
X171807Y266265*
Y263268*
X167717Y266265D02*
Y263268D01*
Y266265D02*
X166782D01*
X166471Y266122*
X166367Y265979*
X166263Y265694*
Y265408*
X166367Y265123*
X166471Y264980*
X166782Y264838*
X167717*
X166990D02*
X166263Y263268D01*
X163980Y266265D02*
X165018D01*
X165122Y264980*
X165018Y265123*
X164707Y265266*
X164395*
X164084Y265123*
X163876Y264838*
X163772Y264409*
X163876Y264124*
X163980Y263696*
X164188Y263410*
X164499Y263268*
X164810*
X165122Y263410*
X165225Y263553*
X165329Y263839*
X162215Y266265D02*
X162527Y266122D01*
X162734Y265694*
X162838Y264980*
Y264552*
X162734Y263839*
X162527Y263410*
X162215Y263268*
X162008*
X161696Y263410*
X161489Y263839*
X161385Y264552*
Y264980*
X161489Y265694*
X161696Y266122*
X162008Y266265*
X162215*
X437008Y206895D02*
Y203898D01*
Y206895D02*
X436074D01*
X435762Y206752*
X435659Y206609*
X435555Y206324*
Y206038*
X435659Y205753*
X435762Y205610*
X436074Y205468*
X437008*
X436281D02*
X435555Y203898D01*
X433271Y206895D02*
X434309D01*
X434413Y205610*
X434309Y205753*
X433998Y205896*
X433686*
X433375Y205753*
X433168Y205468*
X433168D02*
X433064Y205039D01*
X433168Y204754*
X433168D02*
X433271Y204326D01*
X433479Y204040*
X433790Y203898*
X434102*
X434413Y204040*
X434517Y204183*
X434621Y204469*
X431092Y206895D02*
X432130Y204897D01*
X430573*
X431092Y206895D02*
Y203898D01*
X399291Y176981D02*
Y173984D01*
Y176981D02*
X398357D01*
X398046Y176839*
X397942Y176696*
X397838Y176410*
Y176125*
X397942Y175840*
X398046Y175697*
X398357Y175554*
X399291*
X398565D02*
X397838Y173984D01*
X395555Y176981D02*
X396593D01*
X396696Y175697*
X396593Y175840*
X396281Y175982*
X395970*
X395659Y175840*
X395451Y175554*
X395347Y175126*
X395451Y174841*
X395555Y174412*
X395762Y174127*
X396074Y173984*
X396385*
X396696Y174127*
X396800Y174270*
X396904Y174555*
X393064Y176981D02*
X394102D01*
X394205Y175697*
X394102Y175840*
X393790Y175982*
X393479*
X393167Y175840*
X393167D02*
X392960Y175554D01*
X392856Y175126*
X392960Y174841*
X393064Y174412*
X393271Y174127*
X393583Y173984*
X393894*
X394205Y174127*
X394309Y174270*
X394413Y174555*
X349173Y293548D02*
Y290551D01*
Y293548D02*
X348239D01*
X347928Y293406*
X347824Y293263*
X347720Y292977*
Y292692*
X347824Y292406*
X347928Y292264*
X348239Y292121*
X349173*
X348447D02*
X347720Y290551D01*
X345748Y293548D02*
X346786Y291550D01*
X345229*
X345748Y293548D02*
Y290551D01*
X342946Y293548D02*
X343984D01*
X344087Y292264*
X343984Y292406*
X343672Y292549*
X343361*
X343049Y292406*
X342842Y292121*
X342738Y291693*
X342842Y291407*
X342946Y290979*
X343153Y290694*
X343465Y290551*
X343776*
X344087Y290694*
X344191Y290837*
X344295Y291122*
X412685Y139733D02*
Y136736D01*
Y139733D02*
X411751D01*
X411440Y139591*
X411336Y139448*
X411232Y139162*
Y138877*
X411336Y138592*
X411440Y138449*
X411751Y138306*
X412685*
X411958D02*
X411232Y136736D01*
X408948Y139733D02*
X409986D01*
X410090Y138449*
X409986Y138592*
X409675Y138734*
X409364*
X409052Y138592*
X408845Y138306*
X408741Y137878*
X408845Y137593*
X408948Y137164*
X409156Y136879*
X409467Y136736*
X409779*
X410090Y136879*
X410194Y137022*
X410298Y137307*
X406457Y138734D02*
X406561Y138306D01*
X406769Y138021*
X407080Y137878*
X407184*
X407495Y138021*
X407703Y138306*
X407807Y138734*
Y138877*
X407703Y139305*
X407495Y139591*
X407184Y139733*
X407080*
X406769Y139591*
X406561Y139305*
X406457Y138734*
Y138021*
X406561Y137307*
X406769Y136879*
X407080Y136736*
X407288*
X407599Y136879*
X407703Y137164*
X469427Y273858D02*
X469531Y274144D01*
X469739Y274429*
X469946Y274572*
X470361*
X470569Y274429*
X470777Y274144*
X470880Y273858*
X470984Y273430*
Y272717*
X470880Y272288*
X470777Y272003*
X470569Y271718*
X470361Y271575*
X469946*
X469739Y271718*
X469531Y272003*
X469427Y272288*
X468389Y273858D02*
Y274001D01*
X468286Y274286*
X468182Y274429*
X467974Y274572*
X467559*
X467351Y274429*
X467248Y274286*
X467144Y274001*
Y273716*
X467248Y273430*
X467455Y273002*
X468493Y271575*
X467040*
X464653Y274572D02*
X465691Y271575D01*
X466106Y274572D02*
X464653D01*
X473994Y262992D02*
X474098Y263278D01*
X474306Y263563*
X474513Y263706*
X474928*
X475136Y263563*
X475344Y263278*
X475447Y262992*
X475551Y262564*
Y261850*
X475447Y261422*
X475344Y261137*
X475136Y260851*
X474928Y260709*
X474513*
X474306Y260851*
X474098Y261137*
X473994Y261422*
X472956Y262992D02*
Y263135D01*
X472853Y263420*
X472749Y263563*
X472541Y263706*
X472126*
X471918Y263563*
X471815Y263420*
X471711Y263135*
Y262849*
X471815Y262564*
X472022Y262136*
X473060Y260709*
X471607*
X470154Y263706D02*
X470465Y263563D01*
X470569Y263278*
Y262992*
X470465Y262707*
X470258Y262564*
X469843Y262421*
X469531Y262279*
X469324Y261993*
X469220Y261708*
Y261280*
X469324Y260994*
X469427Y260851*
X469739Y260709*
X470154*
X470465Y260851*
X470569Y260994*
X470673Y261280*
Y261708*
X470569Y261993*
X470361Y262279*
X470050Y262421*
X469635Y262564*
X469427Y262707*
X469324Y262992*
Y263278*
X469427Y263563*
X469739Y263706*
X470154*
G54D16*
X468570Y197100D02*
X468797Y196944D01*
X469025Y196631*
X469138Y196319*
X469252Y195850*
Y195069*
X469138Y194600*
X469025Y194288*
X468797Y193975*
X468570Y193819*
X468116*
X467888Y193975*
X467661Y194288*
X467547Y194600*
X467434Y195069*
Y195850*
X467547Y196319*
X467661Y196631*
X467888Y196944*
X468116Y197100*
X468570*
X468229Y194444D02*
X467547Y193506D01*
X466184Y197100D02*
X464934D01*
X465616Y195850*
X465275*
X465047Y195694*
X464934Y195538*
X464820Y195069*
Y194756*
X464934Y194288*
X465161Y193975*
X465502Y193819*
X465843*
X466184Y193975*
X466297Y194131*
X466411Y194444*
G74*
X0Y0D02*
M02*
