*
*
G04 PADS 9.5 Build Number: 522968 generated Gerber (RS-274-X) file*
G04 PC Version=2.1*
*
%IN "Variometer-STM32.pcb"*%
*
%MOIN*%
*
%FSLAX35Y35*%
*
*
*
*
G04 PC Standard Apertures*
*
*
G04 Thermal Relief Aperture macro.*
%AMTER*
1,1,$1,0,0*
1,0,$1-$2,0,0*
21,0,$3,$4,0,0,45*
21,0,$3,$4,0,0,135*
%
*
*
G04 Annular Aperture macro.*
%AMANN*
1,1,$1,0,0*
1,0,$2,0,0*
%
*
*
G04 Odd Aperture macro.*
%AMODD*
1,1,$1,0,0*
1,0,$1-0.005,0,0*
%
*
*
G04 PC Custom Aperture Macros*
*
*
*
*
*
*
G04 PC Aperture Table*
*
%ADD010C,0.001*%
%ADD011C,0.01*%
%ADD013C,0.00787*%
*
*
*
*
G04 PC Circuitry*
G04 Layer Name Variometer-STM32.pcb - circuitry*
%LPD*%
*
*
G04 PC Custom Flashes*
G04 Layer Name Variometer-STM32.pcb - flashes*
%LPD*%
*
*
G04 PC Circuitry*
G04 Layer Name Variometer-STM32.pcb - circuitry*
%LPD*%
*
G54D10*
G54D11*
G01X448031Y256457D02*
Y266417D01*
X454518Y256417D02*
X446468D01*
Y266417*
X454518*
X462018Y256417D02*
X470068D01*
Y266417*
X462018*
X457068Y269728D02*
X451268D01*
Y276728*
X457068*
X459468Y269728D02*
X465268D01*
Y276728*
X459468*
X263011Y283421D02*
X268811D01*
Y276421*
X263011*
X260611Y283421D02*
X254811D01*
Y276421*
X260611*
X456343Y205137D02*
Y210937D01*
X463343*
Y205137*
X456343Y202737D02*
Y196937D01*
X463343*
Y202737*
X170516Y276397D02*
Y282197D01*
X177516*
Y276397*
X170516Y273997D02*
Y268197D01*
X177516*
Y273997*
X263011Y292083D02*
X268811D01*
Y285083*
X263011*
X260611Y292083D02*
X254811D01*
Y285083*
X260611*
X243264Y283052D02*
Y277252D01*
X236264*
Y283052*
X243264Y285452D02*
Y291252D01*
X236264*
Y285452*
X390926Y194925D02*
X385126D01*
Y201925*
X390926*
X393326Y194925D02*
X399126D01*
Y201925*
X393326*
X390926Y147681D02*
X385126D01*
Y154681*
X390926*
X393326Y147681D02*
X399126D01*
Y154681*
X393326*
X390926Y163429D02*
X385126D01*
Y170429*
X390926*
X393326Y163429D02*
X399126D01*
Y170429*
X393326*
X234602Y283052D02*
Y277252D01*
X227602*
Y283052*
X234602Y285452D02*
Y291252D01*
X227602*
Y285452*
X251531Y283052D02*
Y277252D01*
X244531*
Y283052*
X251531Y285452D02*
Y291252D01*
X244531*
Y285452*
X161461Y276397D02*
Y282197D01*
X168461*
Y276397*
X161461Y273997D02*
Y268197D01*
X168461*
Y273997*
X465004Y205137D02*
Y210937D01*
X472004*
Y205137*
X465004Y202737D02*
Y196937D01*
X472004*
Y202737*
X390926Y179177D02*
X385126D01*
Y186177*
X390926*
X393326Y179177D02*
X399126D01*
Y186177*
X393326*
X336780Y309512D02*
X339280D01*
Y304512*
X330780Y309512D02*
X328280D01*
Y304512*
X334280Y300512D02*
X333280D01*
X332580Y288232D02*
X326780D01*
Y295232*
X332580*
X334980Y288232D02*
X340780D01*
Y295232*
X334980*
X398287Y128704D02*
Y134504D01*
X405287*
Y128704*
X398287Y126304D02*
Y120504D01*
X405287*
Y126304*
X413882D02*
Y120504D01*
X406882*
Y126304*
X413882Y128704D02*
Y134504D01*
X406882*
Y128704*
X442957Y305924D02*
Y311724D01*
X449957*
Y305924*
X442957Y303524D02*
Y297724D01*
X449957*
Y303524*
X460280Y305924D02*
Y311724D01*
X467280*
Y305924*
X460280Y303524D02*
Y297724D01*
X467280*
Y303524*
X451618Y305924D02*
Y311724D01*
X458618*
Y305924*
X451618Y303524D02*
Y297724D01*
X458618*
Y303524*
X425634Y305924D02*
Y311724D01*
X432634*
Y305924*
X425634Y303524D02*
Y297724D01*
X432634*
Y303524*
X434295Y305924D02*
Y311724D01*
X441295*
Y305924*
X434295Y303524D02*
Y297724D01*
X441295*
Y303524*
X432283Y207087D02*
Y188976D01*
X442520*
Y207087*
X432283*
G54D13*
X473994Y262992D02*
X474098Y263278D01*
X474306Y263563*
X474513Y263706*
X474928*
X475136Y263563*
X475344Y263278*
X475447Y262992*
X475551Y262564*
Y261850*
X475447Y261422*
X475344Y261137*
X475136Y260851*
X474928Y260709*
X474513*
X474306Y260851*
X474098Y261137*
X473994Y261422*
X471815Y263278D02*
X471918Y263563D01*
X472230Y263706*
X472437*
X472749Y263563*
X472956Y263135*
X473060Y262421*
Y261708*
X472956Y261137*
X472749Y260851*
X472437Y260709*
X472334*
X472022Y260851*
X471815Y261137*
X471711Y261565*
Y261708*
X471815Y262136*
X472022Y262421*
X472334Y262564*
X472437*
X472749Y262421*
X472956Y262136*
X473060Y261708*
X469427Y273858D02*
X469531Y274144D01*
X469739Y274429*
X469946Y274572*
X470361*
X470569Y274429*
X470777Y274144*
X470880Y273858*
X470984Y273430*
Y272717*
X470880Y272288*
X470777Y272003*
X470569Y271718*
X470361Y271575*
X469946*
X469739Y271718*
X469531Y272003*
X469427Y272288*
X467040Y274572D02*
X468078Y271575D01*
X468493Y274572D02*
X467040D01*
X276693Y281580D02*
Y278583D01*
Y281580D02*
X275759D01*
X275447Y281437*
X275344Y281294*
X275240Y281009*
Y280723*
X275344Y280438*
X275447Y280295*
X275759Y280153*
X276693*
X275966D02*
X275240Y278583D01*
X274202Y280866D02*
Y281009D01*
X274098Y281294*
X273994Y281437*
X273787Y281580*
X273372*
X273164Y281437*
X273060Y281294*
X272956Y281009*
Y280723*
X273060Y280438*
X273268Y280010*
X274306Y278583*
X272853*
X271815Y280866D02*
Y281009D01*
X271711Y281294*
X271607Y281437*
X271399Y281580*
X270984*
X270777Y281437*
X270673Y281294*
X270569Y281009*
Y280723*
X270673Y280438*
X270880Y280010*
X271918Y278583*
X270465*
X462795Y195084D02*
Y192087D01*
Y195084D02*
X461861D01*
X461550Y194941*
X461446Y194798*
X461342Y194513*
Y194227*
X461446Y193942*
X461550Y193799*
X461861Y193656*
X462795*
X462069D02*
X461342Y192087D01*
X460408Y194513D02*
X460200Y194656D01*
X459889Y195084*
Y192087*
X458747Y195084D02*
X457606D01*
X458228Y193942*
X457917*
X457709Y193799*
X457606Y193656*
X457502Y193228*
Y192943*
X457606Y192515*
X457813Y192229*
X458125Y192087*
X458436*
X458747Y192229*
X458851Y192372*
X458955Y192657*
X177205Y266265D02*
Y263268D01*
Y266265D02*
X176271D01*
X175959Y266122*
X175855Y265979*
X175752Y265694*
Y265408*
X175855Y265123*
X175959Y264980*
X176271Y264838*
X177205*
X176478D02*
X175752Y263268D01*
X173468Y266265D02*
X174506D01*
X174610Y264980*
X174506Y265123*
X174195Y265266*
X173883*
X173572Y265123*
X173364Y264838*
X173261Y264409*
X173364Y264124*
X173468Y263696*
X173676Y263410*
X173987Y263268*
X174298*
X174610Y263410*
X174714Y263553*
X174817Y263839*
X171704Y266265D02*
X172015Y266122D01*
X172223Y265694*
X172326Y264980*
Y264552*
X172223Y263839*
X172015Y263410*
X171704Y263268*
X171496*
X171185Y263410*
X170977Y263839*
X170873Y264552*
Y264980*
X170977Y265694*
X171185Y266122*
X171496Y266265*
X171704*
X276575Y290005D02*
Y287008D01*
Y290005D02*
X275641D01*
X275329Y289862*
X275225Y289719*
X275122Y289434*
Y289149*
X275225Y288863*
X275329Y288720*
X275641Y288578*
X276575*
X275848D02*
X275122Y287008D01*
X274084Y289291D02*
Y289434D01*
X273980Y289719*
X273876Y289862*
X273669Y290005*
X273253*
X273046Y289862*
X272942Y289719*
X272838Y289434*
Y289149*
X272942Y288863*
X273150Y288435*
X274188Y287008*
X272734*
X271593Y290005D02*
X270451D01*
X271074Y288863*
X270762*
X270555Y288720*
X270451Y288578*
X270347Y288150*
Y287864*
X270451Y287436*
X270659Y287151*
X270970Y287008*
X271281*
X271593Y287151*
X271696Y287293*
X271800Y287579*
X242441Y275162D02*
Y272165D01*
Y275162D02*
X241507D01*
X241195Y275020*
X241092Y274877*
X240988Y274592*
Y274306*
X241092Y274021*
X241195Y273878*
X241507Y273735*
X242441*
X241714D02*
X240988Y272165D01*
X239950Y274449D02*
Y274592D01*
X239846Y274877*
X239742Y275020*
X239535Y275162*
X239120*
X238912Y275020*
X238808Y274877*
X238704Y274592*
Y274306*
X238808Y274021*
X239016Y273593*
X240054Y272165*
X238601*
X236628Y275162D02*
X237666Y273164D01*
X236110*
X236628Y275162D02*
Y272165D01*
X399291Y193206D02*
Y190209D01*
Y193206D02*
X398357D01*
X398046Y193063*
X397942Y192920*
X397838Y192635*
Y192349*
X397942Y192064*
X398046Y191921*
X398357Y191779*
X399291*
X398565D02*
X397838Y190209D01*
X396904Y192635D02*
X396696Y192778D01*
X396385Y193206*
Y190209*
X395451Y192635D02*
X395243Y192778D01*
X394932Y193206*
Y190209*
X398898Y146029D02*
Y143031D01*
Y146029D02*
X397963D01*
X397652Y145886*
X397548Y145743*
X397445Y145458*
Y145172*
X397548Y144887*
X397652Y144744*
X397963Y144601*
X398898*
X398171D02*
X397445Y143031D01*
X396407Y145315D02*
Y145458D01*
X396303Y145743*
X396199Y145886*
X395991Y146029*
X395576*
X395369Y145886*
X395265Y145743*
X395161Y145458*
Y145172*
X395265Y144887*
X395472Y144459*
X396510Y143031*
X395057*
X392774Y146029D02*
X393812D01*
X393916Y144744*
X393812Y144887*
X393500Y145030*
X393189*
X392878Y144887*
X392670Y144601*
X392566Y144173*
X392670Y143888*
X392774Y143460*
X392981Y143174*
X393293Y143031*
X393604*
X393916Y143174*
X394019Y143317*
X394123Y143602*
X399130Y161883D02*
Y158886D01*
Y161883D02*
X398196D01*
X397884Y161740*
X397781Y161597*
X397677Y161312*
Y161027*
X397781Y160741*
X397884Y160598*
X398196Y160456*
X399130*
X398403D02*
X397677Y158886D01*
X396639Y161169D02*
Y161312D01*
X396535Y161597*
X396431Y161740*
X396224Y161883*
X395809*
X395601Y161740*
X395497Y161597*
X395393Y161312*
Y161027*
X395497Y160741*
X395705Y160313*
X396743Y158886*
X395290*
X393110Y161455D02*
X393214Y161740D01*
X393525Y161883*
X393733*
X394044Y161740*
X394252Y161312*
X394355Y160598*
Y159885*
X394252Y159314*
X394044Y159029*
X393733Y158886*
X393629*
X393317Y159029*
X393110Y159314*
X393006Y159742*
Y159885*
X393110Y160313*
X393317Y160598*
X393629Y160741*
X393733*
X394044Y160598*
X394252Y160313*
X394355Y159885*
X234252Y275477D02*
Y272480D01*
Y275477D02*
X233318D01*
X233006Y275335*
X232903Y275192*
X232799Y274906*
Y274621*
X232903Y274336*
X233006Y274193*
X233318Y274050*
X234252*
X233525D02*
X232799Y272480D01*
X230827Y275477D02*
X231865Y273479D01*
X230308*
X230827Y275477D02*
Y272480D01*
X229270Y274764D02*
Y274906D01*
X229166Y275192*
X229062Y275335*
X228855Y275477*
X228440*
X228232Y275335*
X228128Y275192*
X228024Y274906*
Y274621*
X228128Y274336*
X228336Y273907*
X229374Y272480*
X227921*
X250630Y275005D02*
Y272008D01*
Y275005D02*
X249696D01*
X249384Y274862*
X249281Y274719*
X249177Y274434*
Y274149*
X249281Y273863*
X249384Y273720*
X249696Y273578*
X250630*
X249903D02*
X249177Y272008D01*
X246997Y274577D02*
X247101Y274862D01*
X247412Y275005*
X247620*
X247931Y274862*
X248139Y274434*
X248243Y273720*
Y273007*
X248139Y272436*
X247931Y272151*
X247620Y272008*
X247516*
X247205Y272151*
X246997Y272436*
X246893Y272864*
Y273007*
X246997Y273435*
X247205Y273720*
X247516Y273863*
X247620*
X247931Y273720*
X248139Y273435*
X248243Y273007*
X244610Y274006D02*
X244714Y273578D01*
X244921Y273292*
X245233Y273150*
X245336*
X245648Y273292*
X245855Y273578*
X245959Y274006*
Y274149*
X245855Y274577*
X245648Y274862*
X245336Y275005*
X245233*
X244921Y274862*
X244714Y274577*
X244610Y274006*
Y273292*
X244714Y272579*
X244921Y272151*
X245233Y272008*
X245440*
X245752Y272151*
X245855Y272436*
X167717Y266265D02*
Y263268D01*
Y266265D02*
X166782D01*
X166471Y266122*
X166367Y265979*
X166263Y265694*
Y265408*
X166367Y265123*
X166471Y264980*
X166782Y264838*
X167717*
X166990D02*
X166263Y263268D01*
X163980Y266265D02*
X165018D01*
X165122Y264980*
X165018Y265123*
X164707Y265266*
X164395*
X164084Y265123*
X163876Y264838*
X163772Y264409*
X163876Y264124*
X163980Y263696*
X164188Y263410*
X164499Y263268*
X164810*
X165122Y263410*
X165225Y263553*
X165329Y263839*
X162838Y265694D02*
X162631Y265837D01*
X162319Y266265*
Y263268*
X471378Y195241D02*
Y192244D01*
Y195241D02*
X470444D01*
X470132Y195098*
X470029Y194956*
X469925Y194670*
Y194385*
X470029Y194099*
X470132Y193957*
X470444Y193814*
X471378*
X470651D02*
X469925Y192244D01*
X467641Y195241D02*
X468679D01*
X468783Y193957*
X468679Y194099*
X468368Y194242*
X468057*
X467745Y194099*
X467538Y193814*
X467434Y193386*
X467538Y193100*
X467641Y192672*
X467849Y192387*
X468160Y192244*
X468472*
X468783Y192387*
X468887Y192530*
X468991Y192815*
X465254Y194813D02*
X465358Y195098D01*
X465669Y195241*
X465877*
X466188Y195098*
X466396Y194670*
X466500Y193957*
Y193243*
X466396Y192672*
X466188Y192387*
X465877Y192244*
X465773*
X465462Y192387*
X465254Y192672*
X465150Y193100*
Y193243*
X465254Y193671*
X465462Y193957*
X465773Y194099*
X465877*
X466188Y193957*
X466396Y193671*
X466500Y193243*
X399291Y176981D02*
Y173984D01*
Y176981D02*
X398357D01*
X398046Y176839*
X397942Y176696*
X397838Y176410*
Y176125*
X397942Y175840*
X398046Y175697*
X398357Y175554*
X399291*
X398565D02*
X397838Y173984D01*
X395659Y176553D02*
X395762Y176839D01*
X396074Y176981*
X396281*
X396593Y176839*
X396800Y176410*
X396904Y175697*
Y174983*
X396800Y174412*
X396593Y174127*
X396281Y173984*
X396178*
X395866Y174127*
X395659Y174412*
X395555Y174841*
Y174983*
X395659Y175411*
X395866Y175697*
X396178Y175840*
X396281*
X396593Y175697*
X396800Y175411*
X396904Y174983*
X394621Y176410D02*
X394413Y176553D01*
X394102Y176981*
Y173984*
X345709Y302800D02*
Y300659D01*
X345605Y300231*
X345397Y299946*
X345086Y299803*
X344878*
X344567Y299946*
X344359Y300231*
X344256Y300659*
Y302800*
X342283D02*
X343321Y300802D01*
X341764*
X342283Y302800D02*
Y299803D01*
X349173Y293548D02*
Y290551D01*
Y293548D02*
X348239D01*
X347928Y293406*
X347824Y293263*
X347720Y292977*
Y292692*
X347824Y292406*
X347928Y292264*
X348239Y292121*
X349173*
X348447D02*
X347720Y290551D01*
X345540Y293120D02*
X345644Y293406D01*
X345956Y293548*
X346163*
X346475Y293406*
X346682Y292977*
X346786Y292264*
Y291550*
X346682Y290979*
X346475Y290694*
X346163Y290551*
X346059*
X345748Y290694*
X345540Y290979*
X345437Y291407*
Y291550*
X345540Y291978*
X345748Y292264*
X346059Y292406*
X346163*
X346475Y292264*
X346682Y291978*
X346786Y291550*
X344295Y293548D02*
X343153D01*
X343776Y292406*
X343465*
X343257Y292264*
X343153Y292121*
X343049Y291693*
Y291407*
X343153Y290979*
X343361Y290694*
X343672Y290551*
X343984*
X344295Y290694*
X344399Y290837*
X344503Y291122*
X404472Y139733D02*
Y136736D01*
Y139733D02*
X403538D01*
X403227Y139591*
X403123Y139448*
X403019Y139162*
Y138877*
X403123Y138592*
X403227Y138449*
X403538Y138306*
X404472*
X403746D02*
X403019Y136736D01*
X401878Y139733D02*
X400736D01*
X401359Y138592*
X401047*
X400840Y138449*
X400736Y138306*
X400632Y137878*
Y137593*
X400736Y137164*
X400943Y136879*
X401255Y136736*
X401566*
X401878Y136879*
X401981Y137022*
X402085Y137307*
X398452Y139305D02*
X398556Y139591D01*
X398868Y139733*
X399075*
X399387Y139591*
X399594Y139162*
X399698Y138449*
Y137735*
X399594Y137164*
X399387Y136879*
X399075Y136736*
X398971*
X398660Y136879*
X398452Y137164*
X398349Y137593*
Y137735*
X398452Y138163*
X398660Y138449*
X398971Y138592*
X399075*
X399387Y138449*
X399594Y138163*
X399698Y137735*
X412685Y139733D02*
Y136736D01*
Y139733D02*
X411751D01*
X411440Y139591*
X411336Y139448*
X411232Y139162*
Y138877*
X411336Y138592*
X411440Y138449*
X411751Y138306*
X412685*
X411958D02*
X411232Y136736D01*
X409052Y139305D02*
X409156Y139591D01*
X409467Y139733*
X409675*
X409986Y139591*
X410194Y139162*
X410298Y138449*
Y137735*
X410194Y137164*
X409986Y136879*
X409675Y136736*
X409571*
X409260Y136879*
X409052Y137164*
X408948Y137593*
Y137735*
X409052Y138163*
X409260Y138449*
X409571Y138592*
X409675*
X409986Y138449*
X410194Y138163*
X410298Y137735*
X406561Y139733D02*
X407599Y136736D01*
X408014Y139733D02*
X406561D01*
X448693Y296155D02*
Y293157D01*
Y296155D02*
X447759D01*
X447447Y296012*
X447344Y295869*
X447240Y295584*
Y295298*
X447344Y295013*
X447447Y294870*
X447759Y294727*
X448693*
X447966D02*
X447240Y293157D01*
X446306Y295584D02*
X446098Y295726D01*
X445787Y296155*
Y293157*
X443815Y296155D02*
X444853Y294156D01*
X443296*
X443815Y296155D02*
Y293157D01*
X463697Y295954D02*
Y292957D01*
Y295954D02*
X462763D01*
X462451Y295811*
X462348Y295668*
X462244Y295383*
Y295097*
X462348Y294812*
X462451Y294669*
X462763Y294527*
X463697*
X462970D02*
X462244Y292957D01*
X461206Y295240D02*
Y295383D01*
X461102Y295668*
X460998Y295811*
X460791Y295954*
X460375*
X460168Y295811*
X460064Y295668*
X459960Y295383*
Y295097*
X460064Y294812*
X460272Y294384*
X461310Y292957*
X459856*
X456874Y296265D02*
Y293268D01*
Y296265D02*
X455940D01*
X455628Y296122*
X455525Y295979*
X455421Y295694*
Y295408*
X455525Y295123*
X455628Y294980*
X455940Y294838*
X456874*
X456147D02*
X455421Y293268D01*
X454279Y296265D02*
X453137D01*
X453760Y295123*
X453449*
X453241Y294980*
X453137Y294838*
X453034Y294409*
Y294124*
X453137Y293696*
X453345Y293410*
X453656Y293268*
X453968*
X454279Y293410*
X454383Y293553*
X454487Y293839*
X431575Y296426D02*
Y293429D01*
Y296426D02*
X430641D01*
X430329Y296283*
X430225Y296141*
X430122Y295855*
Y295570*
X430225Y295284*
X430329Y295142*
X430641Y294999*
X431575*
X430848D02*
X430122Y293429D01*
X428980Y296426D02*
X427838D01*
X428461Y295284*
X428150*
X427942Y295142*
X427838Y294999*
X427734Y294571*
Y294285*
X427838Y293857*
X428046Y293572*
X428357Y293429*
X428669*
X428980Y293572*
X429084Y293715*
X429188Y294000*
X426800Y295855D02*
X426593Y295998D01*
X426281Y296426*
Y293429*
X440508Y296155D02*
Y293157D01*
Y296155D02*
X439574D01*
X439262Y296012*
X439159Y295869*
X439055Y295584*
Y295298*
X439159Y295013*
X439262Y294870*
X439574Y294727*
X440508*
X439781D02*
X439055Y293157D01*
X437913Y296155D02*
X436771D01*
X437394Y295013*
X437083*
X436875Y294870*
X436771Y294727*
X436667Y294299*
X436667D02*
Y294014D01*
X436667D02*
X436771Y293586D01*
X436979Y293300*
X437290Y293157*
X437602*
X437913Y293300*
X438017Y293443*
X438121Y293728*
X435630Y295441D02*
Y295584D01*
X435526Y295869*
X435422Y296012*
X435214Y296155*
X434799*
X434592Y296012*
X434488Y295869*
X434384Y295584*
Y295298*
X434488Y295013*
X434695Y294585*
X435733Y293157*
X434280*
X453236Y191265D02*
X453443Y191122D01*
X453651Y190837*
X453754Y190551*
X453858Y190123*
Y189409*
X453754Y188981*
X453651Y188696*
X453443Y188410*
X453236Y188268*
X453236D02*
X452820D01*
X452613Y188410*
X452405Y188696*
X452301Y188981*
X452198Y189409*
Y190123*
X452301Y190551*
X452405Y190837*
X452613Y191122*
X452820Y191265*
X453236*
X452924Y188839D02*
X452301Y187982D01*
X450225Y191265D02*
X451263Y189267D01*
X449707*
X450225Y191265D02*
Y188268D01*
X0Y0D02*
M02*
