*
*
G04 PADS 9.5 Build Number: 522968 generated Gerber (RS-274-X) file*
G04 PC Version=2.1*
*
%IN "Variometer-STM32.pcb"*%
*
%MOIN*%
*
%FSLAX35Y35*%
*
*
*
*
G04 PC Standard Apertures*
*
*
G04 Thermal Relief Aperture macro.*
%AMTER*
1,1,$1,0,0*
1,0,$1-$2,0,0*
21,0,$3,$4,0,0,45*
21,0,$3,$4,0,0,135*
%
*
*
G04 Annular Aperture macro.*
%AMANN*
1,1,$1,0,0*
1,0,$2,0,0*
%
*
*
G04 Odd Aperture macro.*
%AMODD*
1,1,$1,0,0*
1,0,$1-0.005,0,0*
%
*
*
G04 PC Custom Aperture Macros*
*
*
*
*
*
*
G04 PC Aperture Table*
*
%ADD010C,0.001*%
%ADD011C,0.01*%
%ADD012C,0.00472*%
%ADD013C,0.00787*%
%ADD014C,0.0063*%
%ADD015C,0.00945*%
*
*
*
*
G04 PC Circuitry*
G04 Layer Name Variometer-STM32.pcb - circuitry*
%LPD*%
*
*
G04 PC Custom Flashes*
G04 Layer Name Variometer-STM32.pcb - flashes*
%LPD*%
*
*
G04 PC Circuitry*
G04 Layer Name Variometer-STM32.pcb - circuitry*
%LPD*%
*
G54D10*
G54D11*
G01X298050Y167248D02*
X303850D01*
Y174248*
X298050*
X295650Y167248D02*
X289850D01*
Y174248*
X295650*
X430709Y275591D02*
X493701D01*
Y212598*
X430709*
Y275591*
X318504Y128366D02*
X331250D01*
Y127133*
X334892*
Y128366*
X347638*
Y108642*
X318504*
Y128366*
X409824Y276728D02*
X404024D01*
Y269728*
X409824*
X412224Y276728D02*
X418024D01*
Y269728*
X412224*
X156712Y227996D02*
X162512D01*
Y234996*
X156712*
X154312Y227996D02*
X148512D01*
Y234996*
X154312*
X192539Y210673D02*
X198339D01*
Y217673*
X192539*
X190139Y210673D02*
X184339D01*
Y217673*
X190139*
X154312Y226335D02*
X148512D01*
Y219335*
X154312*
X156712Y226335D02*
X162512D01*
Y219335*
X156712*
X483563Y192520D02*
Y209252D01*
X496358*
Y192520*
X483563*
X142932Y128783D02*
X148732D01*
Y135783*
X142932*
X140532Y128783D02*
X134732D01*
Y135783*
X140532*
X180465Y165024D02*
X177965D01*
Y160024*
X186465Y165024D02*
X188965D01*
Y160024*
X182965Y156024D02*
X183965D01*
X142677Y161811D02*
X152638D01*
X142638Y168297D02*
Y160247D01*
X142642Y160243D02*
G75*
G03X152642Y160252I4996J4659D01*
G01X152638Y160247D02*
Y168297D01*
X142638Y175797D02*
Y183847D01*
X152637Y183848D02*
G03X142638I-4999J-3767D01*
G01X152638Y183847D02*
Y175797D01*
X217244Y166024D02*
X225748D01*
X217154Y172516D02*
Y164516D01*
X226154*
Y172516*
X217154Y175516D02*
Y183516D01*
X226154*
Y175516*
X245551Y186720D02*
Y178217D01*
X252043Y186811D02*
X244043D01*
Y177811*
X252043*
X255043Y186811D02*
X263043D01*
Y177811*
X255043*
X273665Y165914D02*
Y160114D01*
X280665*
Y165914*
X273665Y168314D02*
Y174114D01*
X280665*
Y168314*
X261838Y127996D02*
X267638D01*
Y134996*
X261838*
X259438Y127996D02*
X253638D01*
Y134996*
X259438*
X243800D02*
X238000D01*
Y127996*
X243800*
X246200Y134996D02*
X252000D01*
Y127996*
X246200*
X228390Y172816D02*
Y167016D01*
X235390*
Y172816*
X228390Y175216D02*
Y181016D01*
X235390*
Y175216*
X231575Y233583D02*
X223071D01*
X231665Y227091D02*
Y235091D01*
X222665*
Y227091*
X231665Y224091D02*
Y216091D01*
X222665*
Y224091*
X242476Y226791D02*
Y232591D01*
X235476*
Y226791*
X242476Y224391D02*
Y218591D01*
X235476*
Y224391*
X253918Y211768D02*
X248118D01*
Y204768*
X253918*
X256318Y211768D02*
X262118D01*
Y204768*
X256318*
X275941Y226791D02*
Y232591D01*
X268941*
Y226791*
X275941Y224391D02*
Y218591D01*
X268941*
Y224391*
X188339Y231165D02*
X185839D01*
Y226165*
X194339Y231165D02*
X196839D01*
Y226165*
X190839Y222165D02*
X191839D01*
X156712Y193350D02*
X162512D01*
Y200350*
X156712*
X154312Y193350D02*
X148512D01*
Y200350*
X154312*
X173247Y193350D02*
X179047D01*
Y200350*
X173247*
X170847Y193350D02*
X165047D01*
Y200350*
X170847*
X468110Y314665D02*
X421850D01*
Y327461*
X468110*
Y314665*
X178803Y230165D02*
Y232665D01*
X173803*
X178803Y224165D02*
Y221665D01*
X173803*
X169803Y227665D02*
Y226665D01*
X183839Y135783D02*
X178039D01*
Y128783*
X183839*
X186239Y135783D02*
X192039D01*
Y128783*
X186239*
X366517Y130272D02*
X360717D01*
Y123272*
X366517*
X368917Y130272D02*
X374717D01*
Y123272*
X368917*
X202799Y225965D02*
Y220165D01*
X209799*
Y225965*
X202799Y228365D02*
Y234165D01*
X209799*
Y228365*
X176003Y210673D02*
X181803D01*
Y217673*
X176003*
X173603Y210673D02*
X167803D01*
Y217673*
X173603*
X158224Y116554D02*
Y122354D01*
X151224*
Y116554*
X158224Y114154D02*
Y108354D01*
X151224*
Y114154*
X366517Y121610D02*
X360717D01*
Y114610*
X366517*
X368917Y121610D02*
X374717D01*
Y114610*
X368917*
X366517Y112949D02*
X360717D01*
Y105949*
X366517*
X368917Y112949D02*
X374717D01*
Y105949*
X368917*
X408024Y265417D02*
X405524D01*
Y260417*
X414024Y265417D02*
X416524D01*
Y260417*
X410524Y256417D02*
X411524D01*
X275984Y116043D02*
X302559D01*
Y103248*
X275984*
Y116043*
X140532Y145232D02*
X134732D01*
Y138232*
X140532*
X142932Y145232D02*
X148732D01*
Y138232*
X142932*
X159886Y114154D02*
Y108354D01*
X166886*
Y114154*
X159886Y116554D02*
Y122354D01*
X166886*
Y116554*
X481496Y179528D02*
G03X481496I-27165J0D01*
G01X457847D02*
G03X457847I-3516J0D01*
G01X458429Y136181D02*
G03X458429I-13429J0D01*
G01X217126Y143701D02*
X213189Y147638D01*
Y155512*
X217126Y159449*
X226969*
X230906Y155512*
Y147638*
X226969Y143701*
X217126*
X417717Y151181D02*
G03X417717I-7481J0D01*
G01Y166929D02*
G03X417717I-7481J0D01*
G01Y198425D02*
G03X417717I-7481J0D01*
G01Y182677D02*
G03X417717I-7481J0D01*
G01X122835Y174803D02*
Y186614D01*
X105512*
G03Y174803I2446J-5905*
G01X122835*
Y175709D02*
X134646D01*
X122835Y185709D02*
X134646D01*
X122835Y233858D02*
Y245669D01*
X105512*
G03Y233858I2446J-5905*
G01X122835*
Y234764D02*
X134646D01*
X122835Y244764D02*
X134646D01*
X192913Y161654D02*
X209646D01*
Y183307*
X192913*
Y161654*
X195354Y182835D02*
Y171024D01*
X207362*
Y183150*
X320472Y140945D02*
X340157D01*
Y153543*
X320472*
Y140945*
X412224Y220909D02*
X418024D01*
Y227909*
X412224*
X409824Y220909D02*
X404024D01*
Y227909*
X409824*
X178965Y178028D02*
Y170028D01*
X187965*
Y178028*
X178965Y181028D02*
Y189028D01*
X187965*
Y181028*
X347280Y239783D02*
Y245583D01*
X340280*
Y239783*
X347280Y237383D02*
Y231583D01*
X340280*
Y237383*
X175547Y116554D02*
Y122354D01*
X168547*
Y116554*
X175547Y114154D02*
Y108354D01*
X168547*
Y114154*
X132696Y251224D02*
X138496D01*
Y258224*
X132696*
X130296Y251224D02*
X124496D01*
Y258224*
X130296*
X132696Y161854D02*
X138496D01*
Y168854*
X132696*
X130296Y161854D02*
X124496D01*
Y168854*
X130296*
X165767Y154965D02*
X171567D01*
Y161965*
X165767*
X163367Y154965D02*
X157567D01*
Y161965*
X163367*
X137776Y200350D02*
X131976D01*
Y193350*
X137776*
X140176Y200350D02*
X145976D01*
Y193350*
X140176*
X246212Y119335D02*
X252012D01*
Y126335*
X246212*
X243812Y119335D02*
X238012D01*
Y126335*
X243812*
X262275Y119335D02*
X268075D01*
Y126335*
X262275*
X259875Y119335D02*
X254075D01*
Y126335*
X259875*
X252343Y172791D02*
X246543D01*
Y165791*
X252343*
X254743Y172791D02*
X260543D01*
Y165791*
X254743*
X337280Y239783D02*
Y245583D01*
X330280*
Y239783*
X337280Y237383D02*
Y231583D01*
X330280*
Y237383*
X371279Y203587D02*
X377079D01*
Y210587*
X371279*
X368879Y203587D02*
X363079D01*
Y210587*
X368879*
X352713Y170098D02*
Y175898D01*
X345713*
Y170098*
X352713Y167698D02*
Y161898D01*
X345713*
Y167698*
X412224Y212248D02*
X418024D01*
Y219248*
X412224*
X409824Y212248D02*
X404024D01*
Y219248*
X409824*
X407855Y307043D02*
X402055D01*
Y300043*
X407855*
X410255Y307043D02*
X416055D01*
Y300043*
X410255*
X273665Y149371D02*
Y143571D01*
X280665*
Y149371*
X273665Y151771D02*
Y157571D01*
X280665*
Y151771*
X154312Y209012D02*
X148512D01*
Y202012*
X154312*
X156712Y209012D02*
X162512D01*
Y202012*
X156712*
X154312Y217673D02*
X148512D01*
Y210673*
X154312*
X156712Y217673D02*
X162512D01*
Y210673*
X156712*
X183839Y145232D02*
X178039D01*
Y138232*
X183839*
X186239Y145232D02*
X192039D01*
Y138232*
X186239*
X412224Y235083D02*
X418024D01*
Y242083*
X412224*
X409824Y235083D02*
X404024D01*
Y242083*
X409824*
X295650Y150744D02*
X289850D01*
Y143744*
X295650*
X298050Y150744D02*
X303850D01*
Y143744*
X298050*
X409824Y253106D02*
X404024D01*
Y246106*
X409824*
X412224Y253106D02*
X418024D01*
Y246106*
X412224*
X281909Y119335D02*
X287709D01*
Y126335*
X281909*
X279509Y119335D02*
X273709D01*
Y126335*
X279509*
X295650D02*
X289850D01*
Y119335*
X295650*
X298050Y126335D02*
X303850D01*
Y119335*
X298050*
X295650Y159406D02*
X289850D01*
Y152406*
X295650*
X298050Y159406D02*
X303850D01*
Y152406*
X298050*
X368879Y219051D02*
X363079D01*
Y212051*
X368879*
X371279Y219051D02*
X377079D01*
Y212051*
X371279*
X317169Y237383D02*
Y231583D01*
X324169*
Y237383*
X317169Y239783D02*
Y245583D01*
X324169*
Y239783*
X295688Y190398D02*
X301488D01*
Y197398*
X295688*
X293288Y190398D02*
X287488D01*
Y197398*
X293288*
X318067Y170098D02*
Y175898D01*
X311067*
Y170098*
X318067Y167698D02*
Y161898D01*
X311067*
Y167698*
X391869Y300043D02*
X397669D01*
Y307043*
X391869*
X389469Y300043D02*
X383669D01*
Y307043*
X389469*
X335390Y170098D02*
Y175898D01*
X328390*
Y170098*
X335390Y167698D02*
Y161898D01*
X328390*
Y167698*
X295988Y201012D02*
X303988D01*
Y210012*
X295988*
X292988Y201012D02*
X284988D01*
Y210012*
X292988*
X326728Y170098D02*
Y175898D01*
X319728*
Y170098*
X326728Y167698D02*
Y161898D01*
X319728*
Y167698*
X344051Y170098D02*
Y175898D01*
X337051*
Y170098*
X344051Y167698D02*
Y161898D01*
X337051*
Y167698*
X351531Y148444D02*
Y154244D01*
X344531*
Y148444*
X351531Y146044D02*
Y140244D01*
X344531*
Y146044*
X309098D02*
Y140244D01*
X316098*
Y146044*
X309098Y148444D02*
Y154244D01*
X316098*
Y148444*
G54D12*
X144488Y240945D02*
X211417D01*
Y327559*
X144488*
Y240945*
X259449Y147638D02*
X254281D01*
Y148376*
X252805*
Y147638*
X247638*
Y159449*
X259449*
Y147638*
X168110Y168307D02*
X161024D01*
Y179724*
X168110*
Y168307*
X249409Y222047D02*
Y229134D01*
X260827*
Y222047*
X249409*
X282677Y264921D02*
X272638D01*
Y266575*
X265827*
Y265394*
X229252*
Y264567*
X223150*
Y325236*
X232953*
Y321535*
X262362*
Y329055*
X277283*
Y321772*
X282795*
Y264921*
X387992Y325394D02*
X412008D01*
Y310827*
X387992*
Y325394*
X394488Y320866D02*
X405906D01*
Y315354*
X394488*
Y320866*
X396063Y319291D02*
X404331D01*
Y316929*
X396063*
Y319291*
X198228Y159375D02*
X199839D01*
X203508Y160482D02*
Y158268D01*
X202702Y159375D02*
X204313D01*
X464272Y312559D02*
X462205Y311986D01*
X464272Y311414D02*
X462205Y311986D01*
X463780Y309696D02*
X463976Y309767D01*
X464173Y309911*
X464272Y310054*
Y310340*
X464173Y310483*
X463976Y310626*
X463780Y310698*
X463484Y310770*
X462992*
X462697Y310698*
X462500Y310626*
X462303Y310483*
X462205Y310340*
Y310054*
X462303Y309911*
X462500Y309767*
X462697Y309696*
X463780Y307978D02*
X463976Y308049D01*
X464173Y308193*
X464272Y308336*
Y308622*
X464173Y308765*
X463976Y308908*
X463780Y308980*
X463484Y309052*
X462992*
X462697Y308980*
X462500Y308908*
X462303Y308765*
X462205Y308622*
Y308336*
X462303Y308193*
X462500Y308049*
X462697Y307978*
X459350Y311843D02*
X457776D01*
X457480Y311915*
X457382Y311986*
X457283Y312130*
Y312273*
X457382Y312416*
X457480Y312487*
X457776Y312559*
X457972*
X459350Y311199D02*
X457283D01*
X459350D02*
X457283Y310197D01*
X459350D02*
X457283D01*
X459350Y309052D02*
X457283D01*
X459350Y309553D02*
Y308550D01*
Y307906D02*
X457283D01*
X459350D02*
Y307262D01*
X459252Y307047*
X459154Y306976*
X458957Y306904*
X458760*
X458563Y306976*
X458465Y307047*
X458366Y307262*
Y307906*
Y307405D02*
X457283Y306904D01*
X459055Y305258D02*
X459252Y305401D01*
X459350Y305616*
Y305902*
X459252Y306117*
X459055Y306260*
X458858*
X458661Y306188*
X458563Y306117*
X458465Y305974*
X458268Y305544*
X458169Y305401*
X458071Y305329*
X457874Y305258*
X457579*
X457382Y305401*
X457283Y305616*
Y305902*
X457382Y306117*
X457579Y306260*
X459350Y304112D02*
X457283D01*
X459350Y304613D02*
Y303611D01*
X454429Y311843D02*
X452854D01*
X452559Y311915*
X452461Y311986*
X452362Y312130*
Y312273*
X452461Y312416*
X452559Y312487*
X452854Y312559*
X453051*
X454429Y310698D02*
X452362D01*
X454429Y311199D02*
Y310197D01*
Y309553D02*
X452362D01*
X454429D02*
Y309052D01*
X454331Y308837*
X454134Y308694*
X453937Y308622*
X453642Y308550*
X453150*
X452854Y308622*
X452657Y308694*
X452461Y308837*
X452362Y309052*
Y309553*
X454429Y307906D02*
X452362D01*
X449508Y311843D02*
X447933D01*
X447638Y311915*
X447539Y311986*
X447441Y312130*
Y312273*
X447539Y312416*
X447638Y312487*
X447933Y312559*
X448130*
X449508Y310698D02*
X447441D01*
X449508Y311199D02*
Y310197D01*
Y309553D02*
X447441D01*
X449508D02*
X447441Y308980D01*
X449508Y308407D02*
X447441Y308980D01*
X449508Y308407D02*
X447441D01*
X449213Y306761D02*
X449409Y306904D01*
X449508Y307119*
Y307405*
X449409Y307620*
X449213Y307763*
X449016*
X448819Y307691*
X448720Y307620*
X448622Y307477*
X448425Y307047*
X448327Y306904*
X448228Y306832*
X448228D02*
X448031Y306761D01*
X447736*
X447539Y306904*
X447441Y307119*
Y307405*
X447539Y307620*
X447736Y307763*
X444587Y311843D02*
X443012D01*
X442717Y311915*
X442618Y311986*
X442520Y312130*
Y312273*
X442618Y312416*
X442717Y312487*
X443012Y312559*
X443209*
X444587Y310698D02*
X442520D01*
X444587Y311199D02*
Y310197D01*
X444094Y308479D02*
X444291Y308550D01*
X444488Y308694*
X444587Y308837*
Y309123*
X444488Y309266*
X444291Y309409*
X444094Y309481*
X443799Y309553*
X443307*
X443012Y309481*
X442815Y309409*
X442618Y309266*
X442520Y309123*
Y308837*
X442618Y308694*
X442815Y308550*
X443012Y308479*
X444587Y307835D02*
X442520D01*
X444587Y306832D02*
X443209Y307835D01*
X443701Y307477D02*
X442520Y306832D01*
X439665Y311843D02*
X438091D01*
X437795Y311915*
X437697Y311986*
X437598Y312130*
Y312273*
X437697Y312416*
X437795Y312487*
X438091Y312559*
X438287*
X439665Y310698D02*
X437598D01*
X439665Y311199D02*
Y310197D01*
Y309553D02*
X437598D01*
X439665D02*
Y309052D01*
X439567Y308837*
X439370Y308694*
X439173Y308622*
X438878Y308550*
X438386*
X438091Y308622*
X437894Y308694*
X437697Y308837*
X437598Y309052*
Y309553*
X439665Y307477D02*
X439567Y307620D01*
X439370Y307763*
X439173Y307835*
X438878Y307906*
X438386*
X438091Y307835*
X437894Y307763*
X437697Y307620*
X437598Y307477*
Y307190*
X437697Y307047*
X437894Y306904*
X438091Y306832*
X438091D02*
X438386Y306761D01*
X438878*
X439173Y306832*
X439173D02*
X439370Y306904D01*
X439567Y307047*
X439665Y307190*
Y307477*
X434744Y312559D02*
X432677D01*
X434744D02*
Y311915D01*
X434646Y311700*
X434547Y311628*
X434350Y311557*
X434154*
X433957Y311628*
X433858Y311700*
X433760Y311915*
Y312559*
Y312058D02*
X432677Y311557D01*
X434744Y310913D02*
X432677D01*
X434744D02*
Y309982D01*
X433760Y310913D02*
Y310340D01*
X432677Y310913D02*
Y309982D01*
X434449Y308336D02*
X434646Y308479D01*
X434744Y308694*
Y308980*
X434646Y309195*
X434449Y309338*
X434252*
X434055Y309266*
X433957Y309195*
X433858Y309052*
X433661Y308622*
X433563Y308479*
X433465Y308407*
X433268Y308336*
X432972*
X432776Y308479*
X432677Y308694*
Y308980*
X432776Y309195*
X432972Y309338*
X434744Y307691D02*
X432677D01*
X434744D02*
Y306761D01*
X433760Y307691D02*
Y307119D01*
X432677Y307691D02*
Y306761D01*
X434744Y305616D02*
X432677D01*
X434744Y306117D02*
Y305115D01*
X429331Y311485D02*
X429528Y311557D01*
X429724Y311700*
X429823Y311843*
Y312130*
X429724Y312273*
X429528Y312416*
X429331Y312487*
X429035Y312559*
X428543*
X428248Y312487*
X428051Y312416*
X427854Y312273*
X427756Y312130*
Y311843*
X427854Y311700*
X428051Y311557*
X428248Y311485*
X428543*
Y311843D02*
Y311485D01*
X429823Y310841D02*
X427756D01*
X429823D02*
X427756Y309839D01*
X429823D02*
X427756D01*
X429823Y309195D02*
X427756D01*
X429823D02*
Y308694D01*
X429724Y308479*
X429528Y308336*
X429331Y308264*
X429035Y308193*
X428543*
X428248Y308264*
X428051Y308336*
X427854Y308479*
X427756Y308694*
Y309195*
G54D13*
X114961Y195472D02*
Y225000D01*
X97835*
Y195472*
X114961*
X290157Y324409D02*
Y253543D01*
X375984*
Y324409*
X290157*
X370472Y308661D02*
Y268898D01*
X360236*
Y308661*
X370472*
X350000Y311811D02*
Y266142D01*
X305118*
Y311811*
X350000*
X161811Y141339D02*
X163189D01*
Y140699*
X163583*
Y141339*
X164961*
Y131102*
X161811*
Y141339*
X319488Y192717D02*
X320079D01*
X320669Y193898*
X321260Y192717*
X343504*
Y216732*
X319488*
Y192717*
X198031Y104331D02*
X225591D01*
Y129921*
X198031*
Y104331*
X204921D02*
X218701D01*
Y99016*
X204921*
Y104331*
X392134Y104795D02*
X419693D01*
Y130386*
X392134*
Y104795*
X399024D02*
X412803D01*
Y99480*
X399024*
Y104795*
X291832Y178740D02*
X291729Y179026D01*
X291521Y179311*
X291314Y179454*
X290898*
X290691Y179311*
X290483Y179026*
X290379Y178740*
X290276Y178312*
Y177598*
X290379Y177170*
X290483Y176885*
X290691Y176599*
X290898Y176457*
X291314*
X291521Y176599*
X291729Y176885*
X291832Y177170*
X292767Y178883D02*
X292974Y179026D01*
X293286Y179454*
Y176457*
X294427Y179454D02*
X295569D01*
X294946Y178312*
X295258*
X295465Y178169*
X295569Y178027*
X295673Y177598*
Y177313*
X295569Y176885*
X295361Y176599*
X295050Y176457*
X294739*
X294427Y176599*
X294324Y176742*
X294220Y177028*
X213110Y244021D02*
Y241880D01*
X213214Y241452*
X213422Y241166*
X213733Y241024*
X213941*
X214252Y241166*
X214460Y241452*
X214563Y241880*
Y244021*
X215601Y243307D02*
Y243450D01*
X215705Y243735*
X215809Y243878*
X216016Y244021*
X216432*
X216639Y243878*
X216743Y243735*
X216847Y243450*
Y243164*
X216743Y242879*
X216535Y242451*
X215497Y241024*
X216951*
X488701Y281777D02*
Y278780D01*
Y281777D02*
X489531Y278780D01*
X490361Y281777D02*
X489531Y278780D01*
X490361Y281777D02*
Y278780D01*
X491399Y281063D02*
Y281206D01*
X491503Y281491*
X491607Y281634*
X491815Y281777*
X492230*
X492437Y281634*
X492541Y281491*
X492645Y281206*
Y280920*
X492541Y280635*
X492334Y280207*
X491296Y278780*
X492749*
X342362Y106540D02*
Y104400D01*
X342466Y103971*
X342674Y103686*
X342985Y103543*
X343193*
X343504Y103686*
X343712Y103971*
X343815Y104400*
Y106540*
X346099Y105541D02*
X345995Y105113D01*
X345787Y104828*
X345476Y104685*
X345372*
X345061Y104828*
X344853Y105113*
X344749Y105541*
Y105684*
X344853Y106112*
X345061Y106398*
X345372Y106540*
X345476*
X345787Y106398*
X345995Y106112*
X346099Y105541*
Y104828*
X345995Y104114*
X345787Y103686*
X345476Y103543*
X345268*
X344957Y103686*
X344853Y103971*
X120723Y201422D02*
Y199139D01*
X120619Y198711*
X120515Y198568*
X120308Y198425*
X120100*
X119893Y198568*
X119789Y198711*
X119685Y199139*
Y199424*
X121865Y201422D02*
X123006D01*
X122384Y200281*
X122695*
X122903Y200138*
X123006Y199995*
X123110Y199567*
Y199281*
X123006Y198853*
X122799Y198568*
X122487Y198425*
X122176*
X121865Y198568*
X121761Y198711*
X121657Y198996*
X395945Y274847D02*
Y271850D01*
Y274847D02*
X396879D01*
X397190Y274705*
X397294Y274562*
X397398Y274277*
Y273991*
X397294Y273706*
X397190Y273563*
X396879Y273420*
X395945D02*
X396879D01*
X397190Y273278*
X397294Y273135*
X397398Y272849*
Y272421*
X397294Y272136*
X397190Y271993*
X396879Y271850*
X395945*
X398332Y274277D02*
X398540Y274419D01*
X398851Y274847*
Y271850*
X378622Y257525D02*
Y254528D01*
Y257525D02*
X379452Y254528D01*
X380283Y257525D02*
X379452Y254528D01*
X380283Y257525D02*
Y254528D01*
X381217Y256954D02*
X381424Y257096D01*
X381736Y257525*
Y254528*
X140354Y233036D02*
Y230039D01*
Y233036D02*
X141288D01*
X141600Y232894*
X141704Y232751*
X141807Y232466*
Y232180*
X141704Y231895*
X141600Y231752*
X141288Y231609*
X140354*
X141081D02*
X141807Y230039D01*
X144195Y233036D02*
X143157Y230039D01*
X142742Y233036D02*
X144195D01*
X191890Y208824D02*
Y205827D01*
Y208824D02*
X192824D01*
X193135Y208681*
X193239Y208538*
X193343Y208253*
Y207968*
X193239Y207682*
X193135Y207539*
X192824Y207397*
X191890*
X192616D02*
X193343Y205827D01*
X194277Y208253D02*
X194485Y208396D01*
X194796Y208824*
Y205827*
X195938Y208824D02*
X197079D01*
X196457Y207682*
X196768*
X196976Y207539*
X197079Y207397*
X197183Y206969*
Y206683*
X197079Y206255*
X196872Y205969*
X196560Y205827*
X196249*
X195938Y205969*
X195834Y206112*
X195730Y206398*
X140354Y224099D02*
Y221102D01*
Y224099D02*
X141288D01*
X141600Y223957*
X141704Y223814*
X141807Y223529*
Y223243*
X141704Y222958*
X141600Y222815*
X141288Y222672*
X140354*
X141081D02*
X141807Y221102D01*
X143261Y224099D02*
X142949Y223957D01*
X142845Y223671*
Y223386*
X142949Y223100*
X143157Y222958*
X143572Y222815*
X143883Y222672*
X144091Y222387*
X144195Y222101*
Y221673*
X144091Y221388*
X143987Y221245*
X143676Y221102*
X143261*
X142949Y221245*
X142845Y221388*
X142742Y221673*
Y222101*
X142845Y222387*
X143053Y222672*
X143364Y222815*
X143780Y222958*
X143987Y223100*
X144091Y223386*
Y223671*
X143987Y223957*
X143676Y224099*
X143261*
X488321Y189808D02*
Y187525D01*
X488218Y187096*
X488114Y186954*
X487906Y186811*
X487699*
X487491Y186954*
X487387Y187096*
X487283Y187525*
Y187810*
X490293Y189808D02*
X489256Y187810D01*
X490812*
X490293Y189808D02*
Y186811D01*
X161181Y129060D02*
Y126919D01*
X161285Y126491*
X161492Y126206*
X161804Y126063*
X162011*
X162323Y126206*
X162530Y126491*
X162634Y126919*
Y129060*
X164087D02*
X163776Y128917D01*
X163672Y128632*
Y128346*
X163776Y128061*
X163984Y127918*
X164399Y127776*
X164710Y127633*
X164918Y127347*
X165021Y127062*
Y126634*
X164918Y126348*
X164814Y126206*
X164503Y126063*
X164087*
X163776Y126206*
X163672Y126348*
X163568Y126634*
Y127062*
X163672Y127347*
X163880Y127633*
X164191Y127776*
X164606Y127918*
X164814Y128061*
X164918Y128346*
Y128632*
X164814Y128917*
X164503Y129060*
X164087*
X146714Y125866D02*
X146611Y126152D01*
X146403Y126437*
X146195Y126580*
X145780*
X145573Y126437*
X145365Y126152*
X145261Y125866*
X145157Y125438*
Y124724*
X145261Y124296*
X145365Y124011*
X145573Y123725*
X145780Y123583*
X146195*
X146403Y123725*
X146611Y124011*
X146714Y124296*
X147752Y125866D02*
Y126009D01*
X147856Y126294*
X147960Y126437*
X148168Y126580*
X148168D02*
X148583D01*
X148790Y126437*
X148894Y126294*
X148998Y126009*
Y125723*
X148894Y125438*
X148686Y125010*
X147649Y123583*
X149102*
X150140Y125866D02*
Y126009D01*
X150243Y126294*
X150347Y126437*
X150555Y126580*
X150970*
X151178Y126437*
X151281Y126294*
X151385Y126009*
Y125723*
X151281Y125438*
X151074Y125010*
X150036Y123583*
X151489*
X254764Y145714D02*
Y143573D01*
X254868Y143145*
X255075Y142859*
X255387Y142717*
X255594*
X255906Y142859*
X256113Y143145*
X256217Y143573*
Y145714*
X258604D02*
X257566Y142717D01*
X257151Y145714D02*
X258604D01*
X168346Y166816D02*
Y164675D01*
X168450Y164247*
X168658Y163962*
X168969Y163819*
X169177*
X169488Y163962*
X169696Y164247*
X169800Y164675*
Y166816*
X172083D02*
X171045D01*
X170941Y165531*
X171045Y165674*
X171356Y165817*
X171668*
X171979Y165674*
X172187Y165389*
X172291Y164961*
X172187Y164675*
X172083Y164247*
X171875Y163962*
X171564Y163819*
X171253*
X170941Y163962*
X170838Y164104*
X170734Y164390*
X184449Y154099D02*
Y151959D01*
X184553Y151531*
X184760Y151245*
X185072Y151102*
X185279*
X185591Y151245*
X185798Y151531*
X185902Y151959*
Y154099*
X188082Y153671D02*
X187978Y153957D01*
X187666Y154099*
X187459*
X187147Y153957*
X186940Y153529*
X186836Y152815*
Y152101*
X186940Y151531*
X187147Y151245*
X187459Y151102*
X187563*
X187874Y151245*
X188082Y151531*
X188185Y151959*
Y152101*
X188082Y152530*
X187874Y152815*
X187563Y152958*
X187459*
X187147Y152815*
X186940Y152530*
X186836Y152101*
X149921Y156737D02*
Y153740D01*
Y156737D02*
X150648D01*
X150959Y156594*
X151167Y156309*
X151271Y156024*
X151374Y155595*
Y154882*
X151271Y154454*
X151167Y154168*
X150959Y153883*
X150648Y153740*
X149921*
X153658Y156737D02*
X152620D01*
X152516Y155453*
X152620Y155595*
X152931Y155738*
X153243*
X153554Y155595*
X153762Y155310*
X153865Y154882*
X153762Y154596*
X153658Y154168*
X153450Y153883*
X153139Y153740*
X152827*
X152516Y153883*
X152412Y154026*
X152309Y154311*
X220494Y187795D02*
X220390Y188081D01*
X220183Y188366*
X219975Y188509*
X219560*
X219352Y188366*
X219145Y188081*
X219041Y187795*
X218937Y187367*
Y186654*
X219041Y186225*
X219145Y185940*
X219352Y185655*
X219560Y185512*
X219975*
X220183Y185655*
X220390Y185940*
X220494Y186225*
X221428Y187938D02*
X221636Y188081D01*
X221947Y188509*
Y185512*
X223919Y188509D02*
X222881Y186511D01*
X224438*
X223919Y188509D02*
Y185512D01*
X267069Y183346D02*
X266965Y183632D01*
X266757Y183917*
X266550Y184060*
X266135*
X265927Y183917*
X265719Y183632*
X265616Y183346*
X265512Y182918*
Y182205*
X265616Y181777*
X265719Y181491*
X265927Y181206*
X266135Y181063*
X266550*
X266757Y181206*
X266965Y181491*
X267069Y181777*
X268003Y183489D02*
X268210Y183632D01*
X268522Y184060*
Y181063*
X270079Y184060D02*
X269767Y183917D01*
X269560Y183489*
X269456Y182776*
Y182347*
X269560Y181634*
X269767Y181206*
X270079Y181063*
X270286*
X270598Y181206*
X270805Y181634*
X270909Y182347*
Y182776*
X270805Y183489*
X270598Y183917*
X270286Y184060*
X270079*
X276124Y178898D02*
X276020Y179183D01*
X275812Y179469*
X275605Y179611*
X275190*
X274982Y179469*
X274775Y179183*
X274671Y178898*
X274567Y178469*
Y177756*
X274671Y177328*
X274775Y177042*
X274982Y176757*
X275190Y176614*
X275605*
X275812Y176757*
X276020Y177042*
X276124Y177328*
X277058Y179040D02*
X277266Y179183D01*
X277577Y179611*
Y176614*
X279030Y179611D02*
X278719Y179469D01*
X278615Y179183*
Y178898*
X278719Y178612*
X278926Y178469*
X279341Y178327*
X279653Y178184*
X279860Y177899*
X279964Y177613*
Y177185*
X279860Y176900*
X279757Y176757*
X279445Y176614*
X279030*
X278719Y176757*
X278615Y176900*
X278511Y177185*
Y177613*
X278615Y177899*
X278822Y178184*
X279134Y178327*
X279549Y178469*
X279757Y178612*
X279860Y178898*
Y179183*
X279757Y179469*
X279445Y179611*
X279030*
X262738Y139528D02*
X262634Y139813D01*
X262427Y140098*
X262219Y140241*
X261804*
X261596Y140098*
X261389Y139813*
X261285Y139528*
X261181Y139099*
Y138386*
X261285Y137958*
X261389Y137672*
X261596Y137387*
X261804Y137244*
X262219*
X262427Y137387*
X262634Y137672*
X262738Y137958*
X263776Y139528D02*
Y139670D01*
X263880Y139956*
X263984Y140098*
X264191Y140241*
X264606*
X264814Y140098*
X264918Y139956*
X265021Y139670*
Y139385*
X264918Y139099*
X264710Y138671*
X263672Y137244*
X265125*
X267097Y140241D02*
X266059Y138243D01*
X267616*
X267097Y140241D02*
Y137244D01*
X246496Y140241D02*
Y137244D01*
Y140241D02*
X247430D01*
X247742Y140098*
X247845Y139956*
X247949Y139670*
Y139385*
X247845Y139099*
X247742Y138957*
X247430Y138814*
X246496*
X247223D02*
X247949Y137244D01*
X248987Y139528D02*
Y139670D01*
X249091Y139956*
X249195Y140098*
X249402Y140241*
X249817*
X250025Y140098*
X250129Y139956*
X250233Y139670*
Y139385*
X250129Y139099*
X249921Y138671*
X248883Y137244*
X250336*
X251790Y140241D02*
X251478Y140098D01*
X251374Y139813*
Y139528*
X251478Y139242*
X251686Y139099*
X252101Y138957*
X252412Y138814*
X252620Y138529*
X252724Y138243*
Y137815*
X252620Y137530*
X252516Y137387*
X252205Y137244*
X251790*
X251478Y137387*
X251374Y137530*
X251271Y137815*
Y138243*
X251374Y138529*
X251582Y138814*
X251893Y138957*
X252309Y139099*
X252516Y139242*
X252620Y139528*
Y139813*
X252516Y140098*
X252205Y140241*
X251790*
X230376Y185984D02*
X230272Y186270D01*
X230064Y186555*
X229857Y186698*
X229442*
X229234Y186555*
X229026Y186270*
X228923Y185984*
X228819Y185556*
Y184843*
X228923Y184414*
X229026Y184129*
X229234Y183844*
X229442Y183701*
X229857*
X230064Y183844*
X230272Y184129*
X230376Y184414*
X231310Y186127D02*
X231518Y186270D01*
X231829Y186698*
Y183701*
X232867Y185984D02*
Y186127D01*
X232971Y186412*
X233074Y186555*
X233282Y186698*
X233697*
X233905Y186555*
X234009Y186412*
X234112Y186127*
Y185842*
X234009Y185556*
X233801Y185128*
X232763Y183701*
X234216*
X226754Y213543D02*
X226650Y213829D01*
X226442Y214114*
X226235Y214257*
X225820*
X225612Y214114*
X225404Y213829*
X225301Y213543*
X225197Y213115*
Y212402*
X225301Y211973*
X225404Y211688*
X225612Y211403*
X225820Y211260*
X226235*
X226442Y211403*
X226650Y211688*
X226754Y211973*
X227895Y214257D02*
X229037D01*
X228414Y213115*
X228726*
X228933Y212972*
X229037Y212830*
X229141Y212402*
Y212116*
X229037Y211688*
X228830Y211403*
X228518Y211260*
X228207*
X227895Y211403*
X227792Y211545*
X227688Y211831*
X238092Y216102D02*
X237989Y216388D01*
X237781Y216673*
X237573Y216816*
X237158*
X236951Y216673*
X236743Y216388*
X236639Y216102*
X236535Y215674*
Y214961*
X236639Y214532*
X236743Y214247*
X236951Y213962*
X237158Y213819*
X237573*
X237781Y213962*
X237989Y214247*
X238092Y214532*
X240064Y216816D02*
X239026Y214818D01*
X240583*
X240064Y216816D02*
Y213819D01*
X266203Y208937D02*
X266099Y209222D01*
X265891Y209508*
X265684Y209651*
X265268*
X265061Y209508*
X264853Y209222*
X264749Y208937*
X264646Y208509*
Y207795*
X264749Y207367*
X264853Y207082*
X265061Y206796*
X265268Y206654*
X265684*
X265891Y206796*
X266099Y207082*
X266203Y207367*
X268590Y209651D02*
X267552Y206654D01*
X267137Y209651D02*
X268590D01*
X261732Y227446D02*
Y225305D01*
X261836Y224877*
X262044Y224592*
X262355Y224449*
X262563*
X262874Y224592*
X263082Y224877*
X263185Y225305*
Y227446*
X264327D02*
X265469D01*
X264846Y226304*
X265157*
X265365Y226161*
X265469Y226019*
X265573Y225591*
Y225305*
X265469Y224877*
X265261Y224592*
X264950Y224449*
X264639*
X264327Y224592*
X264223Y224734*
X264120Y225020*
X271045Y216181D02*
X270941Y216467D01*
X270734Y216752*
X270526Y216895*
X270111*
X269903Y216752*
X269696Y216467*
X269592Y216181*
X269488Y215753*
Y215039*
X269592Y214611*
X269696Y214326*
X269903Y214040*
X270111Y213898*
X270526*
X270734Y214040*
X270941Y214326*
X271045Y214611*
X273329Y216895D02*
X272291D01*
X272187Y215610*
X272291Y215753*
X272602Y215896*
X272913*
X273225Y215753*
X273432Y215468*
X273536Y215039*
X273432Y214754*
X273329Y214326*
X273121Y214040*
X272810Y213898*
X272498*
X272187Y214040*
X272083Y214183*
X271979Y214469*
X186292Y238391D02*
X186084Y238248D01*
X185877Y237963*
X185773Y237677*
X185669Y237249*
Y236535*
X185773Y236107*
X185877Y235822*
X186084Y235536*
X186292Y235394*
X186707*
X186915Y235536*
X187122Y235822*
X187226Y236107*
X187330Y236535*
Y237249*
X187226Y237677*
X187122Y237963*
X186915Y238248*
X186707Y238391*
X186292*
X186603Y235965D02*
X187226Y235108D01*
X188368Y237677D02*
Y237820D01*
X188472Y238105*
X188576Y238248*
X188783Y238391*
X189198*
X189406Y238248*
X189510Y238105*
X189613Y237820*
Y237534*
X189510Y237249*
X189302Y236821*
X188264Y235394*
X189717*
X156220Y191698D02*
Y188701D01*
Y191698D02*
X157155D01*
X157466Y191555*
X157570Y191412*
X157674Y191127*
Y190842*
X157570Y190556*
X157466Y190413*
X157155Y190271*
X156220*
X156947D02*
X157674Y188701D01*
X158608Y191127D02*
X158815Y191270D01*
X159127Y191698*
Y188701*
X160580Y191698D02*
X160268Y191555D01*
X160165Y191270*
Y190984*
X160268Y190699*
X160476Y190556*
X160891Y190413*
X161203Y190271*
X161410Y189985*
X161514Y189700*
Y189272*
X161410Y188986*
X161306Y188844*
X160995Y188701*
X160580*
X160268Y188844*
X160165Y188986*
X160061Y189272*
Y189700*
X160165Y189985*
X160372Y190271*
X160684Y190413*
X161099Y190556*
X161306Y190699*
X161410Y190984*
Y191270*
X161306Y191555*
X160995Y191698*
X160580*
X166339Y191540D02*
Y188543D01*
Y191540D02*
X167273D01*
X167584Y191398*
X167688Y191255*
X167792Y190969*
Y190684*
X167688Y190399*
X167584Y190256*
X167273Y190113*
X166339*
X167065D02*
X167792Y188543D01*
X168726Y190969D02*
X168933Y191112D01*
X169245Y191540*
Y188543*
X171528Y190541D02*
X171424Y190113D01*
X171217Y189828*
X170906Y189685*
X170802*
X170490Y189828*
X170283Y190113*
X170179Y190541*
Y190684*
X170283Y191112*
X170490Y191398*
X170802Y191540*
X170906*
X171217Y191398*
X171424Y191112*
X171528Y190541*
Y189828*
X171424Y189114*
X171217Y188686*
X170906Y188543*
X170698*
X170387Y188686*
X170283Y188971*
X471081Y318107D02*
Y315824D01*
X470977Y315396*
X470874Y315253*
X470666Y315110*
X470458*
X470251Y315253*
X470147Y315396*
X470043Y315824*
Y316109*
X472015Y317536D02*
X472223Y317679D01*
X472534Y318107*
Y315110*
X278636Y262918D02*
Y260635D01*
X278533Y260207*
X278429Y260064*
X278221Y259921*
X278014*
X277806Y260064*
X277702Y260207*
X277598Y260635*
Y260920*
X279674Y262205D02*
Y262347D01*
X279778Y262633*
X279882Y262776*
X280089Y262918*
X280505*
X280712Y262776*
X280816Y262633*
X280920Y262347*
Y262062*
X280816Y261777*
X280608Y261348*
X279571Y259921*
X281024*
X169757Y238509D02*
X169549Y238366D01*
X169341Y238081*
X169238Y237795*
X169134Y237367*
Y236654*
X169238Y236225*
X169341Y235940*
X169549Y235655*
X169757Y235512*
X170172*
X170379Y235655*
X170587Y235940*
X170691Y236225*
X170795Y236654*
Y237367*
X170691Y237795*
X170587Y238081*
X170379Y238366*
X170172Y238509*
X169757*
X170068Y236083D02*
X170691Y235226D01*
X171729Y237938D02*
X171936Y238081D01*
X172248Y238509*
Y235512*
X195966Y133622D02*
X195863Y133907D01*
X195655Y134193*
X195447Y134336*
X195032*
X194825Y134193*
X194617Y133907*
X194513Y133622*
X194409Y133194*
Y132480*
X194513Y132052*
X194617Y131767*
X194825Y131481*
X195032Y131339*
X195447*
X195655Y131481*
X195863Y131767*
X195966Y132052*
X197004Y133622D02*
Y133765D01*
X197108Y134050*
X197212Y134193*
X197419Y134336*
X197835*
X198042Y134193*
X198146Y134050*
X198250Y133765*
Y133479*
X198146Y133194*
X197938Y132766*
X196901Y131339*
X196901D02*
X198354D01*
X199495Y134336D02*
X200637D01*
X200014Y133194*
X200326*
X200533Y133051*
X200637Y132908*
X200741Y132480*
Y132195*
X200637Y131767*
X200429Y131481*
X200118Y131339*
X199807*
X199495Y131481*
X199392Y131624*
X199288Y131909*
X377856Y128071D02*
X377752Y128356D01*
X377545Y128642*
X377337Y128784*
X376922*
X376714Y128642*
X376507Y128356*
X376403Y128071*
X376299Y127643*
Y126929*
X376403Y126501*
X376507Y126216*
X376714Y125930*
X376922Y125787*
X377337*
X377545Y125930*
X377752Y126216*
X377856Y126501*
X378894Y128071D02*
Y128214D01*
X378998Y128499*
X379102Y128642*
X379309Y128784*
X379724*
X379932Y128642*
X380036Y128499*
X380140Y128214*
Y127928*
X380036Y127643*
X379828Y127215*
X378790Y125787*
X380243*
X382527Y128784D02*
X381489D01*
X381385Y127500*
X381489Y127643*
X381800Y127785*
X382112*
X382423Y127643*
X382631Y127357*
X382734Y126929*
X382631Y126644*
X382527Y126216*
X382319Y125930*
X382008Y125787*
X381696*
X381385Y125930*
X381281Y126073*
X381178Y126358*
X353961Y187355D02*
Y185215D01*
X354064Y184786*
X354272Y184501*
X354583Y184358*
X354791*
X355102Y184501*
X355310Y184786*
X355414Y185215*
Y187355*
X357386D02*
X356348Y185357D01*
X357905*
X357386Y187355D02*
Y184358D01*
X414827Y313317D02*
X414620Y313602D01*
X414308Y313745*
X413893*
X413582Y313602*
X413374Y313317*
Y313031*
X413478Y312746*
X413582Y312603*
X413789Y312461*
X414412Y312175*
X414620Y312032*
X414723Y311890*
X414827Y311604*
Y311176*
X414620Y310891*
X414308Y310748*
X413893*
X413582Y310891*
X413374Y311176*
X415761Y313745D02*
X416280Y310748D01*
X416799Y313745D02*
X416280Y310748D01*
X416799Y313745D02*
X417318Y310748D01*
X417837Y313745D02*
X417318Y310748D01*
X418771Y313174D02*
X418979Y313317D01*
X419290Y313745*
Y310748*
X204921Y217564D02*
Y214567D01*
Y217564D02*
X205855D01*
X206167Y217421*
X206271Y217279*
X206374Y216993*
Y216708*
X206271Y216422*
X206167Y216280*
X205855Y216137*
X204921*
X205648D02*
X206374Y214567D01*
X208658Y216565D02*
X208554Y216137D01*
X208346Y215851*
X208035Y215709*
X207931*
X207620Y215851*
X207412Y216137*
X207309Y216565*
Y216708*
X207412Y217136*
X207620Y217421*
X207931Y217564*
X208035*
X208346Y217421*
X208554Y217136*
X208658Y216565*
Y215851*
X208554Y215138*
X208346Y214710*
X208035Y214567*
X207827*
X207516Y214710*
X207412Y214995*
X177677Y208903D02*
Y205906D01*
Y208903D02*
X178611D01*
X178923Y208760*
X179026Y208617*
X179130Y208332*
Y208046*
X179026Y207761*
X178923Y207618*
X178611Y207475*
X177677*
X178404D02*
X179130Y205906D01*
X180064Y208332D02*
X180272Y208474D01*
X180583Y208903*
Y205906*
X181621Y208189D02*
Y208332D01*
X181725Y208617*
X181829Y208760*
X182037Y208903*
X182452*
X182659Y208760*
X182763Y208617*
X182867Y208332*
Y208046*
X182763Y207761*
X182555Y207333*
X181518Y205906*
X182971*
X154155Y105866D02*
X154052Y106152D01*
X153844Y106437*
X153636Y106580*
X153221*
X153014Y106437*
X152806Y106152*
X152702Y105866*
X152598Y105438*
Y104724*
X152702Y104296*
X152806Y104011*
X153014Y103725*
X153221Y103583*
X153636*
X153844Y103725*
X154052Y104011*
X154155Y104296*
X155193Y105866D02*
Y106009D01*
X155297Y106294*
X155401Y106437*
X155608Y106580*
X156024*
X156231Y106437*
X156335Y106294*
X156439Y106009*
Y105723*
X156335Y105438*
X156127Y105010*
X155089Y103583*
X156543*
X158722Y106152D02*
X158618Y106437D01*
X158307Y106580*
X158100*
X158100D02*
X157788Y106437D01*
X157581Y106009*
X157477Y105295*
Y104582*
X157581Y104011*
X157788Y103725*
X158100Y103583*
X158100D02*
X158203D01*
X158515Y103725*
X158722Y104011*
X158826Y104439*
Y104582*
X158722Y105010*
X158515Y105295*
X158203Y105438*
X158100*
X158100D02*
X157788Y105295D01*
X157581Y105010*
X157477Y104582*
X376461Y119284D02*
Y116287D01*
Y119284D02*
X377395D01*
X377706Y119142*
X377810Y118999*
X377914Y118714*
Y118428*
X377810Y118143*
X377706Y118000*
X377395Y117857*
X376461*
X377187D02*
X377914Y116287D01*
X379055Y119284D02*
X380197D01*
X379574Y118143*
X379886*
X380093Y118000*
X380197Y117857*
X380301Y117429*
Y117144*
X380197Y116716*
X379990Y116430*
X379678Y116287*
X379367*
X379055Y116430*
X378952Y116573*
X378848Y116858*
X381443Y119284D02*
X382584D01*
X381962Y118143*
X382273*
X382481Y118000*
X382584Y117857*
X382688Y117429*
Y117144*
X382584Y116716*
X382377Y116430*
X382065Y116287*
X382065D02*
X381754D01*
X381443Y116430*
X381339Y116573*
X381235Y116858*
X376461Y111170D02*
Y108173D01*
Y111170D02*
X377395D01*
X377706Y111028*
X377810Y110885*
X377914Y110599*
Y110314*
X377810Y110029*
X377706Y109886*
X377395Y109743*
X376461*
X377187D02*
X377914Y108173D01*
X379055Y111170D02*
X380197D01*
X379574Y110029*
X379886*
X380093Y109886*
X380197Y109743*
X380301Y109315*
Y109030*
X380197Y108601*
X379990Y108316*
X379678Y108173*
X379367*
X379055Y108316*
X378952Y108459*
X378848Y108744*
X382481Y110742D02*
X382377Y111028D01*
X382065Y111170*
X382065D02*
X381858D01*
X381547Y111028*
X381339Y110599*
X381235Y109886*
Y109172*
X381339Y108601*
X381547Y108316*
X381858Y108173*
X381962*
X382273Y108316*
X382481Y108601*
X382584Y109030*
Y109172*
X382481Y109600*
X382273Y109886*
X381962Y110029*
X381858*
X381547Y109886*
X381339Y109600*
X381235Y109172*
X395787Y263115D02*
Y260974D01*
X395891Y260546*
X396099Y260261*
X396410Y260118*
X396618*
X396929Y260261*
X397137Y260546*
X397241Y260974*
Y263115*
X398175Y262544D02*
X398382Y262687D01*
X398694Y263115*
Y260118*
X306353Y107525D02*
Y105241D01*
X306249Y104813*
X306145Y104670*
X305938Y104528*
X305730*
X305523Y104670*
X305419Y104813*
X305315Y105241*
Y105527*
X308533Y107096D02*
X308429Y107382D01*
X308117Y107525*
X307910*
X307598Y107382*
X307391Y106954*
X307287Y106240*
Y105527*
X307391Y104956*
X307598Y104670*
X307910Y104528*
X308014*
X308325Y104670*
X308533Y104956*
X308636Y105384*
Y105527*
X308533Y105955*
X308325Y106240*
X308014Y106383*
X307910*
X307598Y106240*
X307391Y105955*
X307287Y105527*
X144234Y149685D02*
X144130Y149970D01*
X143923Y150256*
X143715Y150399*
X143300*
X143092Y150256*
X142885Y149970*
X142781Y149685*
X142677Y149257*
Y148543*
X142781Y148115*
X142885Y147830*
X143092Y147544*
X143300Y147402*
X143715*
X143923Y147544*
X144130Y147830*
X144234Y148115*
X145168Y149828D02*
X145376Y149970D01*
X145687Y150399*
Y147402*
X147971Y149400D02*
X147867Y148971D01*
X147659Y148686*
X147348Y148543*
X147244*
X146933Y148686*
X146725Y148971*
X146621Y149400*
Y149542*
X146725Y149970*
X146933Y150256*
X147244Y150399*
X147348*
X147659Y150256*
X147867Y149970*
X147971Y149400*
Y148686*
X147867Y147972*
X147659Y147544*
X147348Y147402*
X147140*
X146829Y147544*
X146725Y147830*
X230036Y107136D02*
X229828Y107421D01*
X229517Y107564*
X229102*
X228790Y107421*
X228583Y107136*
Y106850*
X228686Y106565*
X228790Y106422*
X228998Y106280*
X229621Y105994*
X229828Y105851*
X229932Y105709*
X230036Y105423*
Y104995*
X229828Y104710*
X229517Y104567*
X229102*
X228790Y104710*
X228583Y104995*
X230970Y107564D02*
X231489Y104567D01*
X232008Y107564D02*
X231489Y104567D01*
X232008Y107564D02*
X232527Y104567D01*
X233046Y107564D02*
X232527Y104567D01*
X234084Y106850D02*
Y106993D01*
X234188Y107279*
X234291Y107421*
X234499Y107564*
X234914*
X235122Y107421*
X235225Y107279*
X235329Y106993*
Y106708*
X235225Y106422*
X235018Y105994*
X233980Y104567*
X235433*
X160197Y106580D02*
Y103583D01*
Y106580D02*
X161131D01*
X161442Y106437*
X161546Y106294*
X161650Y106009*
Y105723*
X161546Y105438*
X161442Y105295*
X161131Y105153*
X160197*
X160923D02*
X161650Y103583D01*
X162792Y106580D02*
X163933D01*
X163311Y105438*
X163622*
X163830Y105295*
X163933Y105153*
X164037Y104724*
Y104439*
X163933Y104011*
X163726Y103725*
X163414Y103583*
X163103*
X162792Y103725*
X162688Y103868*
X162584Y104154*
X166009Y106580D02*
X164971Y104582D01*
X166528*
X166009Y106580D02*
Y103583D01*
X423508Y108238D02*
X423301Y108524D01*
X422989Y108666*
X422574*
X422263Y108524*
X422055Y108238*
Y107953*
X422159Y107667*
X422263Y107525*
X422470Y107382*
X423093Y107096*
X423301Y106954*
X423404Y106811*
X423508Y106526*
Y106097*
X423301Y105812*
X422989Y105669*
X422574*
X422263Y105812*
X422055Y106097*
X424442Y108666D02*
X424961Y105669D01*
X425480Y108666D02*
X424961Y105669D01*
X425480Y108666D02*
X425999Y105669D01*
X426518Y108666D02*
X425999Y105669D01*
X427660Y108666D02*
X428802D01*
X428179Y107525*
X428490*
X428698Y107382*
X428802Y107239*
X428906Y106811*
Y106526*
X428802Y106097*
X428594Y105812*
X428283Y105669*
X427971*
X427660Y105812*
X427556Y105955*
X427452Y106240*
X473363Y154958D02*
X471909Y151961D01*
Y154958D02*
X473363D01*
X471909Y151961D02*
X473363D01*
X474297Y154387D02*
X474504Y154530D01*
X474816Y154958*
Y151961*
X455870Y124997D02*
Y122000D01*
X457116*
X458257Y124997D02*
X459399D01*
X458776Y123855*
X459088*
X459295Y123713*
X459399Y123570*
X459503Y123142*
Y122856*
X459399Y122428*
X459191Y122143*
X458880Y122000*
X458569*
X458257Y122143*
X458154Y122285*
X458050Y122571*
X220197Y141580D02*
Y138583D01*
X221442*
X222480Y140866D02*
Y141009D01*
X222584Y141294*
X222688Y141437*
X222895Y141580*
X223311*
X223518Y141437*
X223622Y141294*
X223726Y141009*
Y140723*
X223622Y140438*
X223414Y140010*
X222377Y138583*
X223830*
X418087Y146462D02*
Y143465D01*
Y146462D02*
X418813D01*
X419125Y146319*
X419332Y146033*
X419436Y145748*
X419540Y145320*
Y144606*
X419436Y144178*
X419332Y143893*
X419125Y143607*
X418813Y143465*
X418087*
X421927Y146462D02*
X420889Y143465D01*
X420474Y146462D02*
X421927D01*
X418087Y162202D02*
Y159205D01*
Y162202D02*
X418813D01*
X419125Y162059*
X419332Y161774*
X419436Y161488*
X419540Y161060*
Y160346*
X419436Y159918*
X419332Y159633*
X419125Y159347*
X418813Y159205*
X418087*
X421719Y161774D02*
X421616Y162059D01*
X421304Y162202*
X421097*
X420785Y162059*
X420578Y161631*
X420474Y160917*
Y160204*
X420578Y159633*
X420785Y159347*
X421097Y159205*
X421200*
X421512Y159347*
X421719Y159633*
X421823Y160061*
Y160204*
X421719Y160632*
X421512Y160917*
X421200Y161060*
X421097*
X420785Y160917*
X420578Y160632*
X420474Y160204*
X418087Y194009D02*
Y191012D01*
Y194009D02*
X418813D01*
X419125Y193866*
X419332Y193581*
X419436Y193295*
X419540Y192867*
Y192154*
X419436Y191725*
X419332Y191440*
X419125Y191155*
X418813Y191012*
X418087*
X420578Y193295D02*
Y193438D01*
X420681Y193723*
X420785Y193866*
X420993Y194009*
X421408*
X421616Y193866*
X421719Y193723*
X421823Y193438*
Y193153*
X421719Y192867*
X421512Y192439*
X420474Y191012*
X421927*
X418087Y177946D02*
Y174949D01*
Y177946D02*
X418813D01*
X419125Y177803*
X419332Y177518*
X419436Y177232*
X419540Y176804*
Y176091*
X419436Y175662*
X419332Y175377*
X419125Y175092*
X418813Y174949*
X418087*
X420681Y177946D02*
X421823D01*
X421200Y176804*
X421512*
X421719Y176661*
X421823Y176519*
X421927Y176091*
Y175805*
X421823Y175377*
X421616Y175092*
X421304Y174949*
X420993*
X420681Y175092*
X420578Y175234*
X420474Y175520*
X119213Y172682D02*
Y169685D01*
Y172682D02*
X119939D01*
X120251Y172539*
X120458Y172254*
X120562Y171969*
X120666Y171540*
Y170827*
X120562Y170399*
X120458Y170113*
X120251Y169828*
X119939Y169685*
X119213*
X122638Y172682D02*
X121600Y170684D01*
X123157*
X122638Y172682D02*
Y169685D01*
X117598Y250674D02*
Y247677D01*
Y250674D02*
X118325D01*
X118636Y250531*
X118844Y250246*
X118948Y249961*
X119052Y249532*
Y248819*
X118948Y248391*
X118844Y248105*
X118636Y247820*
X118325Y247677*
X117598*
X119986Y250103D02*
X120193Y250246D01*
X120505Y250674*
Y247677*
X206865Y160477D02*
Y158194D01*
X206761Y157766*
X206657Y157623*
X206450Y157480*
X206242*
X206034Y157623*
X205931Y157766*
X205827Y158194*
Y158479*
X209148Y160477D02*
X208110D01*
X208006Y159193*
X208110Y159336*
X208422Y159478*
X208733*
X209044Y159336*
X209252Y159050*
X209356Y158622*
X209252Y158337*
X209148Y157908*
X208941Y157623*
X208629Y157480*
X208318*
X208006Y157623*
X207903Y157766*
X207799Y158051*
X332480Y138666D02*
X333933Y135669D01*
Y138666D02*
X332480Y135669D01*
X335906Y138666D02*
X334868Y136668D01*
X336424*
X335906Y138666D02*
Y135669D01*
X396142Y225753D02*
Y222756D01*
Y225753D02*
X397076D01*
X397387Y225610*
X397491Y225468*
X397595Y225182*
Y224897*
X397491Y224611*
X397387Y224469*
X397076Y224326*
X396142*
X396868D02*
X397595Y222756D01*
X398529Y225182D02*
X398737Y225325D01*
X399048Y225753*
Y222756*
X400605Y225753D02*
X400293Y225610D01*
X400086Y225182*
X399982Y224469*
Y224040*
X400086Y223327*
X400293Y222899*
X400605Y222756*
X400812*
X401124Y222899*
X401331Y223327*
X401435Y224040*
Y224469*
X401331Y225182*
X401124Y225610*
X400812Y225753*
X400605*
X184510Y193386D02*
X184406Y193671D01*
X184198Y193957*
X183991Y194099*
X183576*
X183368Y193957*
X183160Y193671*
X183057Y193386*
X182953Y192958*
Y192244*
X183057Y191816*
X183160Y191531*
X183368Y191245*
X183576Y191102*
X183991*
X184198Y191245*
X184406Y191531*
X184510Y191816*
X185444Y193529D02*
X185651Y193671D01*
X185963Y194099*
Y191102*
X186897Y193529D02*
X187105Y193671D01*
X187416Y194099*
Y191102*
X341063Y230005D02*
Y227008D01*
Y230005D02*
X341997D01*
X342309Y229862*
X342412Y229719*
X342516Y229434*
Y229149*
X342412Y228863*
X342309Y228720*
X341997Y228578*
X341063*
X341790D02*
X342516Y227008D01*
X344800Y230005D02*
X343762D01*
X343658Y228720*
X343762Y228863*
X344073Y229006*
X344384*
X344696Y228863*
X344903Y228578*
X345007Y228150*
X344903Y227864*
X344800Y227436*
X344592Y227151*
X344281Y227008*
X343969*
X343658Y227151*
X343554Y227293*
X343450Y227579*
X168976Y106580D02*
Y103583D01*
Y106580D02*
X169911D01*
X170222Y106437*
X170326Y106294*
X170429Y106009*
Y105723*
X170326Y105438*
X170222Y105295*
X169911Y105153*
X168976*
X169703D02*
X170429Y103583D01*
X171571Y106580D02*
X172713D01*
X172090Y105438*
X172402*
X172609Y105295*
X172713Y105153*
X172817Y104724*
Y104439*
X172713Y104011*
X172505Y103725*
X172194Y103583*
X171883*
X171571Y103725*
X171467Y103868*
X171364Y104154*
X175100Y106580D02*
X174062D01*
X173958Y105295*
X174062Y105438*
X174374Y105581*
X174685*
X174996Y105438*
X175204Y105153*
X175308Y104724*
X175204Y104439*
X175100Y104011*
X174893Y103725*
X174581Y103583*
X174270*
X173958Y103725*
X173855Y103868*
X173751Y104154*
X117559Y256344D02*
Y253346D01*
Y256344D02*
X118493D01*
X118805Y256201*
X118908Y256058*
X119012Y255773*
Y255487*
X118908Y255202*
X118805Y255059*
X118493Y254916*
X117559*
X118286D02*
X119012Y253346D01*
X120050Y255630D02*
Y255773D01*
X120154Y256058*
X120258Y256201*
X120465Y256344*
X120880*
X121088Y256201*
X121192Y256058*
X121296Y255773*
Y255487*
X121192Y255202*
X120984Y254774*
X119946Y253346*
X121399*
X117402Y166422D02*
Y163425D01*
Y166422D02*
X118336D01*
X118647Y166280*
X118751Y166137*
X118855Y165851*
Y165566*
X118751Y165281*
X118647Y165138*
X118336Y164995*
X117402*
X118128D02*
X118855Y163425D01*
X119893Y165709D02*
Y165851D01*
X119996Y166137*
X120100Y166280*
X120308Y166422*
X120723*
X120931Y166280*
X121034Y166137*
X121138Y165851*
Y165566*
X121034Y165281*
X120827Y164852*
X119789Y163425*
X121242*
X122799Y166422D02*
X122487Y166280D01*
X122280Y165851*
X122176Y165138*
Y164710*
X122280Y163996*
X122487Y163568*
X122799Y163425*
X123006*
X123318Y163568*
X123525Y163996*
X123629Y164710*
Y165138*
X123525Y165851*
X123318Y166280*
X123006Y166422*
X122799*
X166102Y152958D02*
Y149961D01*
Y152958D02*
X167037D01*
X167348Y152815*
X167452Y152672*
X167555Y152387*
Y152101*
X167452Y151816*
X167348Y151673*
X167037Y151531*
X166102*
X166829D02*
X167555Y149961D01*
X168593Y152244D02*
Y152387D01*
X168697Y152672*
X168801Y152815*
X169009Y152958*
X169424*
X169631Y152815*
X169735Y152672*
X169839Y152387*
Y152101*
X169735Y151816*
X169528Y151388*
X168490Y149961*
X169943*
X171084Y152958D02*
X172226D01*
X171603Y151816*
X171915*
X172122Y151673*
X172226Y151531*
X172330Y151102*
Y150817*
X172226Y150389*
X172019Y150103*
X171707Y149961*
X171396*
X171084Y150103*
X170981Y150246*
X170877Y150531*
X140197Y191698D02*
Y188701D01*
Y191698D02*
X141131D01*
X141442Y191555*
X141546Y191412*
X141650Y191127*
Y190842*
X141546Y190556*
X141442Y190413*
X141131Y190271*
X140197*
X140923D02*
X141650Y188701D01*
X142584Y191127D02*
X142792Y191270D01*
X143103Y191698*
Y188701*
X145490Y191698D02*
X144452Y188701D01*
X144037Y191698D02*
X145490D01*
X246654Y117761D02*
Y114764D01*
Y117761D02*
X247588D01*
X247899Y117618*
X248003Y117475*
X248107Y117190*
Y116905*
X248003Y116619*
X247899Y116476*
X247588Y116334*
X246654*
X247380D02*
X248107Y114764D01*
X249145Y117047D02*
Y117190D01*
X249248Y117475*
X249352Y117618*
X249560Y117761*
X249975*
X250183Y117618*
X250286Y117475*
X250390Y117190*
Y116905*
X250286Y116619*
X250079Y116191*
X249041Y114764*
X250494*
X252777Y116762D02*
X252674Y116334D01*
X252466Y116048*
X252155Y115906*
X252051*
X251739Y116048*
X251532Y116334*
X251428Y116762*
Y116905*
X251532Y117333*
X251739Y117618*
X252051Y117761*
X252155*
X252466Y117618*
X252674Y117333*
X252777Y116762*
Y116048*
X252674Y115335*
X252466Y114906*
X252155Y114764*
X251947*
X251636Y114906*
X251532Y115192*
X261024Y117958D02*
Y114961D01*
Y117958D02*
X261958D01*
X262269Y117815*
X262373Y117672*
X262477Y117387*
Y117101*
X262373Y116816*
X262269Y116673*
X261958Y116531*
X261024*
X261750D02*
X262477Y114961D01*
X263618Y117958D02*
X264760D01*
X264137Y116816*
X264449*
X264656Y116673*
X264760Y116531*
X264864Y116102*
Y115817*
X264760Y115389*
X264553Y115103*
X264241Y114961*
X263930*
X263618Y115103*
X263515Y115246*
X263411Y115531*
X266421Y117958D02*
X266110Y117815D01*
X265902Y117387*
X265798Y116673*
Y116245*
X265902Y115531*
X266110Y115103*
X266421Y114961*
X266628*
X266940Y115103*
X267147Y115531*
X267251Y116245*
Y116673*
X267147Y117387*
X266940Y117815*
X266628Y117958*
X266421*
X262677Y170832D02*
Y167835D01*
Y170832D02*
X263611D01*
X263923Y170689*
X264026Y170546*
X264130Y170261*
Y169975*
X264026Y169690*
X263923Y169547*
X263611Y169405*
X262677*
X263404D02*
X264130Y167835D01*
X265168Y170118D02*
Y170261D01*
X265272Y170546*
X265376Y170689*
X265583Y170832*
X265999*
X266206Y170689*
X266310Y170546*
X266414Y170261*
Y169975*
X266310Y169690*
X266102Y169262*
X265064Y167835*
X266518*
X267452Y170261D02*
X267659Y170404D01*
X267971Y170832*
Y167835*
X331142Y230084D02*
Y227087D01*
Y230084D02*
X332076D01*
X332387Y229941*
X332491Y229798*
X332595Y229513*
Y229227*
X332491Y228942*
X332387Y228799*
X332076Y228656*
X331142*
X331868D02*
X332595Y227087D01*
X334567Y230084D02*
X333529Y228086D01*
X335086*
X334567Y230084D02*
Y227087D01*
X379130Y208836D02*
Y205839D01*
Y208836D02*
X380064D01*
X380375Y208693*
X380479Y208550*
X380583Y208265*
Y207979*
X380479Y207694*
X380375Y207551*
X380064Y207408*
X379130*
X379856D02*
X380583Y205839D01*
X381517Y208265D02*
X381725Y208407D01*
X382036Y208836*
Y205839*
X384216Y208407D02*
X384112Y208693D01*
X383801Y208836*
X383593*
X383282Y208693*
X383074Y208265*
X382970Y207551*
Y206838*
X383074Y206267*
X383282Y205981*
X383593Y205839*
X383697*
X384008Y205981*
X384216Y206267*
X384320Y206695*
Y206838*
X384216Y207266*
X384008Y207551*
X383697Y207694*
X383593*
X383282Y207551*
X383074Y207266*
X382970Y206838*
X345906Y160399D02*
Y157402D01*
Y160399D02*
X346840D01*
X347151Y160256*
X347255Y160113*
X347359Y159828*
Y159542*
X347255Y159257*
X347151Y159114*
X346840Y158971*
X345906*
X346632D02*
X347359Y157402D01*
X348397Y159685D02*
Y159828D01*
X348500Y160113*
X348604Y160256*
X348812Y160399*
X349227*
X349435Y160256*
X349538Y160113*
X349642Y159828*
Y159542*
X349538Y159257*
X349331Y158829*
X348293Y157402*
X349746*
X350784Y159685D02*
Y159828D01*
X350888Y160113*
X350991Y160256*
X351199Y160399*
X351614*
X351822Y160256*
X351926Y160113*
X352029Y159828*
Y159542*
X351926Y159257*
X351718Y158829*
X350680Y157402*
X352133*
X395945Y216344D02*
Y213346D01*
Y216344D02*
X396879D01*
X397190Y216201*
X397294Y216058*
X397398Y215773*
Y215487*
X397294Y215202*
X397190Y215059*
X396879Y214916*
X395945*
X396671D02*
X397398Y213346D01*
X398332Y215773D02*
X398540Y215915D01*
X398851Y216344*
Y213346*
X400823Y216344D02*
X399785Y214345D01*
X401342*
X400823Y216344D02*
Y213346D01*
X402854Y297836D02*
Y294839D01*
Y297836D02*
X403788D01*
X404100Y297693*
X404204Y297550*
X404307Y297265*
Y296979*
X404204Y296694*
X404100Y296551*
X403788Y296408*
X402854*
X403581D02*
X404307Y294839D01*
X405242Y297265D02*
X405449Y297407D01*
X405761Y297836*
Y294839*
X275394Y141737D02*
Y138740D01*
Y141737D02*
X276328D01*
X276639Y141594*
X276743Y141452*
X276847Y141166*
Y140881*
X276743Y140595*
X276639Y140453*
X276328Y140310*
X275394*
X276120D02*
X276847Y138740D01*
X277885Y141024D02*
Y141166D01*
X277989Y141452*
X278092Y141594*
X278300Y141737*
X278715*
X278923Y141594*
X279026Y141452*
X279130Y141166*
Y140881*
X279026Y140595*
X278819Y140167*
X277781Y138740*
X279234*
X281518Y141737D02*
X280480D01*
X280376Y140453*
X280480Y140595*
X280791Y140738*
X281102*
X281414Y140595*
X281621Y140310*
X281725Y139882*
X281621Y139596*
X281518Y139168*
X281310Y138883*
X280999Y138740*
X280687*
X280376Y138883*
X280272Y139026*
X280168Y139311*
X140197Y206580D02*
Y203583D01*
Y206580D02*
X141131D01*
X141442Y206437*
X141546Y206294*
X141650Y206009*
Y205723*
X141546Y205438*
X141442Y205295*
X141131Y205153*
X140197*
X140923D02*
X141650Y203583D01*
X142584Y206009D02*
X142792Y206152D01*
X143103Y206580*
Y203583*
X145387Y206580D02*
X144349D01*
X144245Y205295*
X144349Y205438*
X144660Y205581*
X144971*
X145283Y205438*
X145490Y205153*
X145594Y204724*
X145490Y204439*
X145387Y204011*
X145179Y203725*
X144868Y203583*
X144556*
X144245Y203725*
X144141Y203868*
X144037Y204154*
X140354Y215202D02*
Y212205D01*
Y215202D02*
X141288D01*
X141600Y215059*
X141704Y214916*
X141807Y214631*
Y214345*
X141704Y214060*
X141600Y213917*
X141288Y213775*
X140354*
X141081D02*
X141807Y212205D01*
X142742Y214631D02*
X142949Y214774D01*
X143261Y215202*
Y212205*
X144195Y214631D02*
X144402Y214774D01*
X144714Y215202*
Y212205*
X194606Y143115D02*
Y140118D01*
Y143115D02*
X195540D01*
X195852Y142972*
X195956Y142830*
X196059Y142544*
Y142259*
X195956Y141973*
X195852Y141831*
X195540Y141688*
X194606*
X195333D02*
X196059Y140118D01*
X197097Y142402D02*
Y142544D01*
X197201Y142830*
X197305Y142972*
X197513Y143115*
X197928*
X198135Y142972*
X198239Y142830*
X198343Y142544*
Y142259*
X198239Y141973*
X198031Y141545*
X196994Y140118*
X198447*
X200834Y143115D02*
X199796Y140118D01*
X199381Y143115D02*
X200834D01*
X395787Y240162D02*
Y237165D01*
Y240162D02*
X396722D01*
X397033Y240020*
X397137Y239877*
X397241Y239592*
Y239306*
X397137Y239021*
X397033Y238878*
X396722Y238735*
X395787*
X396514D02*
X397241Y237165D01*
X399420Y239734D02*
X399316Y240020D01*
X399005Y240162*
X398797*
X398486Y240020*
X398278Y239592*
X398175Y238878*
Y238164*
X398278Y237594*
X398486Y237308*
X398797Y237165*
X398901*
X399213Y237308*
X399420Y237594*
X399524Y238022*
Y238164*
X399420Y238593*
X399213Y238878*
X398901Y239021*
X398797*
X398486Y238878*
X398278Y238593*
X398175Y238164*
X290276Y142092D02*
Y139094D01*
Y142092D02*
X291210D01*
X291521Y141949*
X291625Y141806*
X291729Y141521*
Y141235*
X291625Y140950*
X291521Y140807*
X291210Y140664*
X290276*
X291002D02*
X291729Y139094D01*
X292767Y141378D02*
Y141521D01*
X292870Y141806*
X292974Y141949*
X293182Y142092*
X293597*
X293805Y141949*
X293908Y141806*
X294012Y141521*
Y141235*
X293908Y140950*
X293701Y140522*
X292663Y139094*
X294116*
X296296Y141663D02*
X296192Y141949D01*
X295880Y142092*
X295673*
X295361Y141949*
X295154Y141521*
X295050Y140807*
Y140094*
X295154Y139523*
X295361Y139237*
X295673Y139094*
X295777*
X296088Y139237*
X296296Y139523*
X296399Y139951*
Y140094*
X296296Y140522*
X296088Y140807*
X295777Y140950*
X295673*
X295361Y140807*
X295154Y140522*
X295050Y140094*
X395945Y250871D02*
Y247874D01*
Y250871D02*
X396879D01*
X397190Y250728*
X397294Y250586*
X397398Y250300*
Y250015*
X397294Y249729*
X397190Y249587*
X396879Y249444*
X395945*
X396671D02*
X397398Y247874D01*
X398540Y250871D02*
X399681D01*
X399059Y249729*
X399370*
X399578Y249587*
X399681Y249444*
X399785Y249016*
Y248730*
X399681Y248302*
X399474Y248017*
X399162Y247874*
X398851*
X398540Y248017*
X398436Y248159*
X398332Y248445*
X274409Y131344D02*
Y128346D01*
Y131344D02*
X275344D01*
X275344D02*
X275655Y131201D01*
X275759Y131058*
X275863Y130773*
Y130487*
X275759Y130202*
X275655Y130059*
X275344Y129916*
X274409*
X275136D02*
X275863Y128346D01*
X277004Y131344D02*
X278146D01*
X278146D02*
X277523Y130202D01*
X277835*
X278042Y130059*
X278146Y129916*
X278250Y129488*
Y129203*
X278146Y128775*
X277938Y128489*
X277627Y128346*
X277316*
X277004Y128489*
X276901Y128632*
X276901D02*
X276797Y128917D01*
X279184Y130773D02*
X279392Y130915D01*
X279703Y131344*
X279703D02*
Y128346D01*
X289961Y131344D02*
Y128346D01*
Y131344D02*
X290895D01*
X291206Y131201*
X291310Y131058*
X291414Y130773*
Y130487*
X291310Y130202*
X291206Y130059*
X290895Y129916*
X289961*
X290687D02*
X291414Y128346D01*
X292555Y131344D02*
X293697D01*
X293074Y130202*
X293386*
X293593Y130059*
X293697Y129916*
X293801Y129488*
Y129203*
X293697Y128775*
X293490Y128489*
X293178Y128346*
X292867*
X292555Y128489*
X292452Y128632*
X292348Y128917*
X294839Y130630D02*
Y130773D01*
X294943Y131058*
X295047Y131201*
X295254Y131344*
X295669*
X295877Y131201*
X295981Y131058*
X296084Y130773*
Y130487*
X295981Y130202*
X295773Y129774*
X294735Y128346*
X296188*
X290472Y164887D02*
Y161890D01*
Y164887D02*
X291407D01*
X291718Y164744*
X291822Y164601*
X291926Y164316*
Y164031*
X291822Y163745*
X291718Y163602*
X291407Y163460*
X290472*
X291199D02*
X291926Y161890D01*
X292963Y164173D02*
Y164316D01*
X293067Y164601*
X293171Y164744*
X293379Y164887*
X293794*
X294001Y164744*
X294105Y164601*
X294209Y164316*
Y164031*
X294105Y163745*
X293898Y163317*
X292860Y161890*
X294313*
X296285Y164887D02*
X295247Y162889D01*
X296804*
X296285Y164887D02*
Y161890D01*
X380687Y216126D02*
X380583Y216411D01*
X380375Y216697*
X380168Y216840*
X379753*
X379545Y216697*
X379338Y216411*
X379234Y216126*
X379130Y215698*
Y214984*
X379234Y214556*
X379338Y214271*
X379545Y213985*
X379753Y213843*
X380168*
X380375Y213985*
X380583Y214271*
X380687Y214556*
X382866Y216411D02*
X382763Y216697D01*
X382451Y216840*
X382244*
X381932Y216697*
X381725Y216269*
X381621Y215555*
Y214842*
X381725Y214271*
X381932Y213985*
X382244Y213843*
X382348*
X382659Y213985*
X382866Y214271*
X382866D02*
X382970Y214699D01*
Y214842*
X382866Y215270*
X382866D02*
X382659Y215555D01*
X382348Y215698*
X382244*
X381932Y215555*
X381725Y215270*
X381621Y214842*
X319809Y229787D02*
X319705Y230073D01*
X319497Y230358*
X319290Y230501*
X318875*
X318667Y230358*
X318460Y230073*
X318356Y229787*
X318252Y229359*
Y228646*
X318356Y228218*
X318460Y227932*
X318667Y227647*
X318875Y227504*
X319290*
X319497Y227647*
X319705Y227932*
X319809Y228218*
X320847Y229787D02*
Y229930D01*
X320951Y230216*
X321054Y230358*
X321262Y230501*
X321677*
X321885Y230358*
X321989Y230216*
X322092Y229930*
Y229645*
X321989Y229359*
X321781Y228931*
X320743Y227504*
X322196*
X281864Y194409D02*
X281760Y194695D01*
X281553Y194980*
X281345Y195123*
X280930*
X280722Y194980*
X280515Y194695*
X280411Y194409*
X280307Y193981*
Y193268*
X280411Y192840*
X280515Y192554*
X280722Y192269*
X280930Y192126*
X281345*
X281553Y192269*
X281760Y192554*
X281864Y192840*
X284147Y194124D02*
X284044Y193696D01*
X283836Y193410*
X283525Y193268*
X283421*
X283110Y193410*
X282902Y193696*
X282798Y194124*
Y194267*
X282902Y194695*
X283110Y194980*
X283421Y195123*
X283525*
X283836Y194980*
X284044Y194695*
X284147Y194124*
Y193410*
X284044Y192697*
X283836Y192269*
X283525Y192126*
X283317*
X283006Y192269*
X282902Y192554*
X313718Y159898D02*
X313615Y160183D01*
X313407Y160469*
X313199Y160611*
X312784*
X312577Y160469*
X312369Y160183*
X312265Y159898*
X312161Y159469*
Y158756*
X312265Y158328*
X312369Y158042*
X312577Y157757*
X312784Y157614*
X313199*
X313407Y157757*
X313615Y158042*
X313718Y158328*
X314652Y160040D02*
X314860Y160183D01*
X315171Y160611*
Y157614*
X317455Y160611D02*
X316417D01*
X316313Y159327*
X316417Y159469*
X316728Y159612*
X317040*
X317351Y159469*
X317559Y159184*
X317662Y158756*
X317559Y158470*
X317455Y158042*
X317247Y157757*
X316936Y157614*
X316625*
X316313Y157757*
X316209Y157900*
X316106Y158185*
X385238Y297295D02*
X385134Y297581D01*
X384927Y297866*
X384719Y298009*
X384304*
X384096Y297866*
X383889Y297581*
X383785Y297295*
X383681Y296867*
Y296154*
X383785Y295725*
X383889Y295440*
X384096Y295155*
X384304Y295012*
X384719*
X384927Y295155*
X385134Y295440*
X385238Y295725*
X386172Y297438D02*
X386380Y297581D01*
X386691Y298009*
Y295012*
X330458Y159898D02*
X330355Y160183D01*
X330147Y160469*
X329940Y160611*
X329524*
X329317Y160469*
X329109Y160183*
X329005Y159898*
X328902Y159469*
Y158756*
X329005Y158328*
X329109Y158042*
X329317Y157757*
X329524Y157614*
X329940*
X330147Y157757*
X330355Y158042*
X330458Y158328*
X331393Y160040D02*
X331600Y160183D01*
X331912Y160611*
Y157614*
X334091Y160183D02*
X333987Y160469D01*
X333676Y160611*
X333469*
X333157Y160469*
X332950Y160040*
X332846Y159327*
Y158613*
X332950Y158042*
X333157Y157757*
X333469Y157614*
X333572*
X333884Y157757*
X334091Y158042*
X334195Y158470*
Y158613*
X334091Y159041*
X333884Y159327*
X333572Y159469*
X333469*
X333157Y159327*
X332950Y159041*
X332846Y158613*
X278061Y205654D02*
X277957Y205939D01*
X277749Y206224*
X277542Y206367*
X277127*
X276919Y206224*
X276712Y205939*
X276608Y205654*
X276504Y205225*
Y204512*
X276608Y204084*
X276712Y203798*
X276919Y203513*
X277127Y203370*
X277542*
X277749Y203513*
X277957Y203798*
X278061Y204084*
X279514Y206367D02*
X279203Y206224D01*
X279099Y205939*
Y205654*
X279203Y205368*
X279410Y205225*
X279825Y205083*
X280137Y204940*
X280344Y204655*
X280448Y204369*
Y203941*
X280344Y203656*
X280241Y203513*
X279929Y203370*
X279514*
X279203Y203513*
X279099Y203656*
X278995Y203941*
Y204369*
X279099Y204655*
X279306Y204940*
X279618Y205083*
X280033Y205225*
X280241Y205368*
X280344Y205654*
Y205939*
X280241Y206224*
X279929Y206367*
X279514*
X321740Y160505D02*
Y157508D01*
X322986*
X323920Y159934D02*
X324127Y160077D01*
X324439Y160505*
Y157508*
X339199Y160004D02*
X339095Y160289D01*
X338887Y160575*
X338680Y160718*
X338264*
X338264D02*
X338057Y160575D01*
X337849Y160289*
X337746Y160004*
X337642Y159576*
Y158862*
X337746Y158434*
X337849Y158149*
X338057Y157863*
X338264Y157720*
X338264D02*
X338680D01*
X338887Y157863*
X339095Y158149*
X339199Y158434*
X340133Y160147D02*
X340340Y160289D01*
X340652Y160718*
Y157720*
X343039Y160718D02*
X342001Y157720D01*
X341586Y160718D02*
X343039D01*
X346884Y138083D02*
X346780Y138368D01*
X346572Y138654*
X346365Y138796*
X345950*
X345742Y138654*
X345534Y138368*
X345431Y138083*
X345327Y137655*
Y136941*
X345431Y136513*
X345534Y136227*
X345742Y135942*
X345950Y135799*
X346365*
X346572Y135942*
X346780Y136227*
X346884Y136513*
X347922Y138083D02*
Y138225D01*
X348025Y138511*
X348129Y138654*
X348337Y138796*
X348752*
X348960Y138654*
X349063Y138511*
X349167Y138225*
Y137940*
X349063Y137655*
X348856Y137226*
X347818Y135799*
X349271*
X350205Y138225D02*
X350413Y138368D01*
X350724Y138796*
Y135799*
X311667Y137732D02*
X311563Y138018D01*
X311356Y138303*
X311148Y138446*
X310733*
X310525Y138303*
X310318Y138018*
X310214Y137732*
X310110Y137304*
Y136591*
X310214Y136162*
X310318Y135877*
X310525Y135592*
X310733Y135449*
X311148*
X311356Y135592*
X311563Y135877*
X311667Y136162*
X312705Y137732D02*
Y137875D01*
X312809Y138160*
X312913Y138303*
X313120Y138446*
X313535*
X313743Y138303*
X313847Y138160*
X313951Y137875*
Y137590*
X313847Y137304*
X313639Y136876*
X312601Y135449*
X314054*
X315611Y138446D02*
X315300Y138303D01*
X315092Y137875*
X314989Y137161*
Y136733*
X315092Y136020*
X315300Y135592*
X315611Y135449*
X315819*
X316130Y135592*
X316338Y136020*
X316442Y136733*
Y137161*
X316338Y137875*
X316130Y138303*
X315819Y138446*
X315611*
X392047Y199882D02*
Y196575D01*
Y199882D02*
X392963Y196575D01*
X393880Y199882D02*
X392963Y196575D01*
X393880Y199882D02*
Y196575D01*
X396628Y199094D02*
X396514Y199409D01*
X396285Y199724*
X396056Y199882*
X395598*
X395369Y199724*
X395140Y199409*
X395025Y199094*
X394911Y198622*
Y197835*
X395025Y197362*
X395140Y197047*
X395369Y196732*
X395598Y196575*
X396056*
X396285Y196732*
X396514Y197047*
X396628Y197362*
X397659Y199882D02*
Y197520D01*
X397774Y197047*
X398003Y196732*
X398346Y196575*
X398576*
X398919Y196732*
X399148Y197047*
X399263Y197520*
Y199882*
X393844Y183386D02*
X393729Y183701D01*
X393500Y184016*
X393271Y184173*
X392813*
X392584Y184016*
X392355Y183701*
X392241Y183386*
X392126Y182913*
Y182126*
X392241Y181654*
X392355Y181339*
X392584Y181024*
X392813Y180866*
X393271*
X393500Y181024*
X393729Y181339*
X393844Y181654*
Y182126*
X393271D02*
X393844D01*
X394875Y184173D02*
Y180866D01*
Y184173D02*
X395906D01*
X396249Y184016*
X396364Y183858*
X396478Y183543*
Y183071*
X396364Y182756*
X396249Y182598*
X395906Y182441*
X394875*
X399112Y183701D02*
X398883Y184016D01*
X398540Y184173*
X398082*
X397738Y184016*
X397509Y183701*
Y183386*
X397623Y183071*
X397738Y182913*
X397967Y182756*
X398654Y182441*
X398883Y182283*
X398998Y182126*
X399112Y181811*
Y181339*
X398883Y181024*
X398540Y180866*
X398082*
X397738Y181024*
X397509Y181339*
X392362Y168701D02*
Y165394D01*
Y168701D02*
X393393D01*
X393737Y168543*
X393851Y168386*
X393966Y168071*
Y167756*
X393851Y167441*
X393737Y167283*
X393393Y167126*
X392362D02*
X393393D01*
X393737Y166969*
X393851Y166811*
X393966Y166496*
Y166024*
X393851Y165709*
X393737Y165551*
X393393Y165394*
X392362*
X395798Y168701D02*
Y165394D01*
X394996Y168701D02*
X396600D01*
X392244Y152913D02*
Y149606D01*
Y152913D02*
X393275D01*
X393618Y152756*
X393733Y152598*
X393848Y152283*
Y151811*
X393733Y151496*
X393618Y151339*
X393275Y151181*
X392244*
X394878Y152913D02*
X395451Y149606D01*
X396024Y152913D02*
X395451Y149606D01*
X396024Y152913D02*
X396596Y149606D01*
X397169Y152913D02*
X396596Y149606D01*
X398200Y152913D02*
Y149606D01*
Y152913D02*
X399230D01*
X399574Y152756*
X399689Y152598*
X399803Y152283*
Y151969*
X399689Y151654*
X399574Y151496*
X399230Y151339*
X398200*
X399001D02*
X399803Y149606D01*
X107795Y173071D02*
Y169764D01*
Y173071D02*
X109284D01*
X107795Y171496D02*
X108712D01*
X110315Y173071D02*
Y170709D01*
X110429Y170236*
X110659Y169921*
X111002Y169764*
X111231*
X111575Y169921*
X111804Y170236*
X111918Y170709*
Y173071*
X112949D02*
Y169764D01*
X114324*
X115354Y173071D02*
Y169764D01*
X116729*
X109513Y249764D02*
X109399Y250079D01*
X109170Y250394*
X108941Y250551*
X108482*
X108253Y250394*
X108024Y250079*
X107910Y249764*
X107795Y249291*
Y248504*
X107910Y248031*
X108024Y247717*
X108253Y247402*
X108482Y247244*
X108941*
X109170Y247402*
X109399Y247717*
X109513Y248031*
X110544Y250551D02*
Y247244D01*
X112147Y250551D02*
Y247244D01*
X110544Y248976D02*
X112147D01*
X114896Y249764D02*
X114782Y250079D01*
X114553Y250394*
X114324Y250551*
X113865*
X113636Y250394*
X113407Y250079*
X113293Y249764*
X113178Y249291*
Y248504*
X113293Y248031*
X113407Y247717*
X113636Y247402*
X113865Y247244*
X114324*
X114553Y247402*
X114782Y247717*
X114896Y248031*
Y248504*
X114324D02*
X114896D01*
X192677Y188976D02*
Y185669D01*
X194052*
X195082Y188976D02*
X195197Y188819D01*
X195311Y188976*
X195197Y189134*
X195082Y188976*
X195197Y187874D02*
Y185669D01*
X196342Y188976D02*
Y185669D01*
Y188976D02*
X197373D01*
X197717Y188819*
X197831Y188661*
X197946Y188346*
Y187874*
X197831Y187559*
X197717Y187402*
X197373Y187244*
X196342*
X199549Y187874D02*
X199320Y187717D01*
X199091Y187402*
X198976Y186929*
Y186614*
X199091Y186142*
X199320Y185827*
X199549Y185669*
X199893*
X200122Y185827*
X200351Y186142*
X200465Y186614*
Y186929*
X200351Y187402*
X200122Y187717*
X199893Y187874*
X199549*
X204130Y188976D02*
Y185669D01*
Y188976D02*
X205161D01*
X205505Y188819*
X205619Y188661*
X205734Y188346*
Y188031*
X205619Y187717*
X205505Y187559*
X205161Y187402*
X204130D02*
X205161D01*
X205505Y187244*
X205619Y187087*
X205734Y186772*
Y186299*
X205619Y185984*
X205505Y185827*
X205161Y185669*
X204130*
X207681Y188976D02*
X206764Y185669D01*
X207681Y188976D02*
X208597Y185669D01*
X207108Y186772D02*
X208253D01*
X210429Y188976D02*
Y185669D01*
X209628Y188976D02*
X211231D01*
X247323Y112913D02*
Y110551D01*
X247437Y110079*
X247666Y109764*
X248010Y109606*
X248239*
X248583Y109764*
X248812Y110079*
X248926Y110551*
Y112913*
X250873D02*
X249957Y109606D01*
X250873Y112913D02*
X251790Y109606D01*
X250301Y110709D02*
X251446D01*
X252820Y112913D02*
Y109606D01*
Y112913D02*
X253851D01*
X254195Y112756*
X254309Y112598*
X254424Y112283*
Y111969*
X254309Y111654*
X254195Y111496*
X253851Y111339*
X252820*
X253622D02*
X254424Y109606D01*
X256256Y112913D02*
Y109606D01*
X255455Y112913D02*
X257058D01*
X258089Y112283D02*
X258318Y112441D01*
X258661Y112913*
Y109606*
X263128Y113543D02*
X262899Y113228D01*
X262670Y112756*
X262441Y112126*
X262326Y111339*
Y110709*
X262441Y109921*
X262670Y109291*
X262899Y108819*
X263128Y108504*
X264159Y112913D02*
Y109606D01*
Y112913D02*
X264961D01*
X265304Y112756*
X265533Y112441*
X265648Y112126*
X265762Y111654*
Y110866*
X265648Y110394*
X265533Y110079*
X265304Y109764*
X264961Y109606*
X264159*
X266793Y112913D02*
Y109606D01*
Y112913D02*
X267824D01*
X268168Y112756*
X268168D02*
X268282Y112598D01*
X268397Y112283*
Y111969*
X268282Y111654*
X268168Y111496*
X268168D02*
X267824Y111339D01*
X266793D02*
X267824D01*
X268168Y111181*
X268168D02*
X268282Y111024D01*
X268397Y110709*
Y110236*
X268282Y109921*
X268168Y109764*
X268168D02*
X267824Y109606D01*
X266793*
X271145Y112126D02*
X271031Y112441D01*
X270802Y112756*
X270573Y112913*
X270115*
X269885Y112756*
X269656Y112441*
X269542Y112126*
X269427Y111654*
Y110866*
X269542Y110394*
X269656Y110079*
X269885Y109764*
X270115Y109606*
X270573*
X270802Y109764*
X271031Y110079*
X271145Y110394*
Y110866*
X270573D02*
X271145D01*
X272176Y113543D02*
X272405Y113228D01*
X272634Y112756*
X272863Y112126*
X272978Y111339*
Y110709*
X272863Y109921*
X272634Y109291*
X272405Y108819*
X272176Y108504*
X252004Y107126D02*
Y104646D01*
X251102Y105886D02*
X252906D01*
X256113Y107539D02*
Y104646D01*
Y107539D02*
X257015D01*
X257316Y107402*
X257416Y107264*
X257516Y106988*
Y106713*
X257416Y106437*
X257316Y106299*
X257015Y106161*
X256113*
X256815D02*
X257516Y104646D01*
X261424Y107539D02*
Y104646D01*
X260723Y107539D02*
X262126D01*
X265333Y105886D02*
X267137D01*
X379134Y313130D02*
Y310236D01*
Y313130D02*
X380036D01*
X380336Y312992*
X380437Y312854*
X380537Y312579*
Y312303*
X380437Y312028*
X380336Y311890*
X380036Y311752*
X379134*
X379835D02*
X380537Y310236D01*
X382842Y312717D02*
X382641Y312992D01*
X382341Y313130*
X381940*
X381639Y312992*
X381439Y312717*
Y312441*
X381539Y312165*
X381639Y312028*
X381840Y311890*
X382441Y311614*
X382641Y311476*
X382742Y311339*
X382842Y311063*
Y310650*
X382641Y310374*
X382341Y310236*
X381940*
X381639Y310374*
X381439Y310650*
X384445Y313130D02*
Y310236D01*
X383744Y313130D02*
X385147D01*
X421969Y118484D02*
Y115591D01*
Y118484D02*
X422870D01*
X423171Y118346*
X423271Y118209*
X423372Y117933*
Y117657*
X423271Y117382*
X423171Y117244*
X422870Y117106*
X421969D02*
X422870D01*
X423171Y116969*
X423271Y116831*
X423372Y116555*
Y116142*
X423271Y115866*
X423171Y115728*
X422870Y115591*
X421969*
X424875Y118484D02*
X424674Y118346D01*
X424474Y118071*
X424374Y117795*
X424273Y117382*
Y116693*
X424374Y116280*
X424474Y116004*
X424674Y115728*
X424875Y115591*
X425276*
X425476Y115728*
X425676Y116004*
X425777Y116280*
X425877Y116693*
Y117382*
X425777Y117795*
X425676Y118071*
X425476Y118346*
X425276Y118484*
X424875*
X427380D02*
X427180Y118346D01*
X426979Y118071*
X426879Y117795*
X426779Y117382*
Y116693*
X426879Y116280*
X426979Y116004*
X427180Y115728*
X427380Y115591*
X427781*
X427981Y115728*
X428182Y116004*
X428282Y116280*
X428382Y116693*
Y117382*
X428282Y117795*
X428182Y118071*
X427981Y118346*
X427781Y118484*
X427380*
X429986D02*
Y115591D01*
X429284Y118484D02*
X430687D01*
X432190D02*
X431890Y118346D01*
X431689Y117933*
X431589Y117244*
Y116831*
X431689Y116142*
X431890Y115728*
X432190Y115591*
X432391*
X432691Y115728*
X432892Y116142*
X432992Y116831*
Y117244*
X432892Y117933*
X432691Y118346*
X432391Y118484*
X432190*
X421969Y113799D02*
Y110906D01*
Y113799D02*
X423271D01*
X421969Y112421D02*
X422770D01*
X424173Y113799D02*
Y111732D01*
X424273Y111319*
X424474Y111043*
X424775Y110906*
X424975*
X425276Y111043*
X425476Y111319*
X425576Y111732*
Y113799*
X426478D02*
Y110906D01*
Y113799D02*
X427881Y110906D01*
Y113799D02*
Y110906D01*
X430286Y113110D02*
X430186Y113386D01*
X429986Y113661*
X429785Y113799*
X429384*
X429184Y113661*
X428984Y113386*
X428883Y113110*
X428783Y112697*
Y112008*
X428883Y111594*
X428984Y111319*
X429184Y111043*
X429384Y110906*
X429785*
X429986Y111043*
X430186Y111319*
X430286Y111594*
X228307Y112854D02*
Y109961D01*
Y112854D02*
X229209D01*
X229510Y112717*
X229610Y112579*
X229710Y112303*
Y111890*
X229610Y111614*
X229510Y111476*
X229209Y111339*
X228307*
X231213Y112854D02*
X231013Y112717D01*
X230812Y112441*
X230712Y112165*
X230612Y111752*
Y111063*
X230712Y110650*
X230812Y110374*
X231013Y110098*
X231213Y109961*
X231614*
X231815Y110098*
X232015Y110374*
X232115Y110650*
X232215Y111063*
Y111752*
X232115Y112165*
X232015Y112441*
X231815Y112717*
X231614Y112854*
X231213*
X233117D02*
X233618Y109961D01*
X234120Y112854D02*
X233618Y109961D01*
X234120Y112854D02*
X234621Y109961D01*
X235122Y112854D02*
X234621Y109961D01*
X236024Y112854D02*
Y109961D01*
Y112854D02*
X237326D01*
X236024Y111476D02*
X236825D01*
X236024Y109961D02*
X237326D01*
X238228Y112854D02*
Y109961D01*
Y112854D02*
X239130D01*
X239431Y112717*
X239531Y112579*
X239631Y112303*
Y112028*
X239531Y111752*
X239431Y111614*
X239130Y111476*
X238228*
X238930D02*
X239631Y109961D01*
G54D14*
X496171Y190118D02*
X493071D01*
X496171D02*
Y188722D01*
X494695Y190118D02*
Y189259D01*
X493071Y190118D02*
Y188722D01*
X496171Y187756D02*
X493071Y186253D01*
X496171D02*
X493071Y187756D01*
X496171Y184535D02*
X493071D01*
X496171Y185286D02*
Y183783D01*
Y180347D02*
X493071D01*
X496171D02*
Y179381D01*
X496024Y179059*
X495876Y178951*
X495581Y178844*
X495138*
X494843Y178951*
X494695Y179059*
X494547Y179381*
Y180347*
X496171Y177878D02*
X493071D01*
X496171Y176911D02*
X493071D01*
X496171D02*
Y175515D01*
X494695Y176911D02*
Y176052D01*
X493071Y176911D02*
Y175515D01*
X496171Y173046D02*
X493071Y174549D01*
X496171D02*
Y173046D01*
X493071Y174549D02*
Y173046D01*
X496171Y171435D02*
X496024Y171650D01*
X495728Y171865*
X495433Y171972*
X494990Y172079*
X494252*
X493809Y171972*
X493514Y171865*
X493219Y171650*
X493071Y171435*
Y171006*
X493219Y170791*
X493514Y170576*
X493809Y170469*
X494252Y170361*
X494990*
X495433Y170469*
X495728Y170576*
X496024Y170791*
X496171Y171006*
Y171435*
X233031Y245103D02*
X233747Y242520D01*
X234463Y245103D02*
X233747Y242520D01*
X236342Y244242D02*
Y242520D01*
Y243873D02*
X236163Y244119D01*
X235984Y244242*
X235716*
X235537Y244119*
X235358Y243873*
X235268Y243504*
Y243258*
X235358Y242889*
X235537Y242643*
X235716Y242520*
X235984*
X236163Y242643*
X236342Y242889*
X237147Y244242D02*
Y242520D01*
Y243504D02*
X237237Y243873D01*
X237416Y244119*
X237595Y244242*
X237863*
X238669Y245103D02*
X238758Y244980D01*
X238848Y245103*
X238758Y245226*
X238669Y245103*
X238758Y244242D02*
Y242520D01*
X240100Y244242D02*
X239921Y244119D01*
X239742Y243873*
X239653Y243504*
Y243258*
X239742Y242889*
X239921Y242643*
X240100Y242520*
X240369*
X240548Y242643*
X240727Y242889*
X240816Y243258*
Y243504*
X240727Y243873*
X240548Y244119*
X240369Y244242*
X240100*
X241621D02*
Y242520D01*
Y243750D02*
X241890Y244119D01*
X242069Y244242*
X242337*
X242516Y244119*
X242606Y243750*
Y242520*
Y243750D02*
X242874Y244119D01*
X243053Y244242*
X243321*
X243500Y244119*
X243590Y243750*
Y242520*
X244395Y243504D02*
X245469D01*
Y243750*
X245379Y243996*
X245290Y244119*
X245111Y244242*
X244843*
X244664Y244119*
X244485Y243873*
X244395Y243504*
Y243258*
X244485Y242889*
X244664Y242643*
X244843Y242520*
X245111*
X245290Y242643*
X245469Y242889*
X246543Y245103D02*
Y243012D01*
X246632Y242643*
X246811Y242520*
X246990*
X246274Y244242D02*
X246901D01*
X247795Y243504D02*
X248869D01*
Y243750*
X248780Y243996*
X248690Y244119*
X248511Y244242*
X248243*
X248064Y244119*
X247885Y243873*
X247795Y243504*
Y243258*
X247885Y242889*
X248064Y242643*
X248243Y242520*
X248511*
X248690Y242643*
X248869Y242889*
X249674Y244242D02*
Y242520D01*
Y243504D02*
X249764Y243873D01*
X249943Y244119*
X250122Y244242*
X250390*
X255043Y243996D02*
Y244119D01*
X254953Y244242*
X254864*
X254775Y244119*
X254685Y243873*
X254506Y243258*
X254327Y242889*
X254148Y242643*
X253969Y242520*
X253611*
X253432Y242643*
X253343Y242766*
X253253Y243012*
Y243258*
X253343Y243504*
X253432Y243627*
X254059Y244119*
X254148Y244242*
X254238Y244488*
Y244734*
X254148Y244980*
X253969Y245103*
X253790Y244980*
X253701Y244734*
Y244488*
X253790Y244119*
X253969Y243750*
X254417Y242889*
X254596Y242643*
X254775Y242520*
X254953*
X255043Y242643*
Y242766*
X259248Y244488D02*
X259159Y244734D01*
X258980Y244980*
X258801Y245103*
X258443*
X258264Y244980*
X258085Y244734*
X257996Y244488*
X257906Y244119*
Y243504*
X257996Y243135*
X258085Y242889*
X258264Y242643*
X258443Y242520*
X258801*
X258980Y242643*
X259159Y242889*
X259248Y243135*
Y243504*
X258801D02*
X259248D01*
X260054Y245103D02*
Y242520D01*
Y245103D02*
X260859D01*
X261127Y244980*
X261217Y244857*
X261306Y244611*
Y244242*
X261217Y243996*
X261127Y243873*
X260859Y243750*
X260054*
X263364Y244734D02*
X263185Y244980D01*
X262917Y245103*
X262559*
X262291Y244980*
X262112Y244734*
Y244488*
X262201Y244242*
X262291Y244119*
X262470Y243996*
X263006Y243750*
X263185Y243627*
X263275Y243504*
X263364Y243258*
Y242889*
X263185Y242643*
X262917Y242520*
X262559*
X262291Y242643*
X262112Y242889*
X266228Y245103D02*
Y242520D01*
X267301*
X268554Y244242D02*
X268375Y244119D01*
X268196Y243873*
X268107Y243504*
Y243258*
X268196Y242889*
X268375Y242643*
X268554Y242520*
X268822*
X269001Y242643*
X269180Y242889*
X269270Y243258*
Y243504*
X269180Y243873*
X269001Y244119*
X268822Y244242*
X268554*
X271149D02*
Y242274D01*
X271059Y241905*
X270970Y241781*
X270791Y241658*
X270523*
X270344Y241781*
X271149Y243873D02*
X270970Y244119D01*
X270791Y244242*
X270523*
X270344Y244119*
X270165Y243873*
X270075Y243504*
Y243258*
X270165Y242889*
X270344Y242643*
X270523Y242520*
X270791*
X270970Y242643*
X271149Y242889*
X273028Y244242D02*
Y242274D01*
X272938Y241905*
X272849Y241781*
X272670Y241658*
X272402*
X272223Y241781*
X273028Y243873D02*
X272849Y244119D01*
X272670Y244242*
X272402*
X272223Y244119*
X272044Y243873*
X271954Y243504*
Y243258*
X272044Y242889*
X272223Y242643*
X272402Y242520*
X272670*
X272849Y242643*
X273028Y242889*
X273833Y243504D02*
X274907D01*
Y243750*
X274817Y243996*
X274728Y244119*
X274549Y244242*
X274281*
X274102Y244119*
X273923Y243873*
X273833Y243504*
Y243258*
X273923Y242889*
X274102Y242643*
X274281Y242520*
X274549*
X274728Y242643*
X274907Y242889*
X275712Y244242D02*
Y242520D01*
Y243504D02*
X275802Y243873D01*
X275981Y244119*
X276160Y244242*
X276428*
X279291D02*
X279649Y242520D01*
X280007Y244242D02*
X279649Y242520D01*
X280007Y244242D02*
X280365Y242520D01*
X280723Y244242D02*
X280365Y242520D01*
X283139Y245595D02*
X281528Y241658D01*
X284213Y245103D02*
Y243012D01*
X284302Y242643*
X284481Y242520*
X284660*
X283944Y244242D02*
X284571D01*
X287523Y245103D02*
Y242520D01*
Y245103D02*
X288329D01*
X288597Y244980*
X288686Y244857*
X288776Y244611*
Y244365*
X288686Y244119*
X288597Y243996*
X288329Y243873*
X287523D02*
X288329D01*
X288597Y243750*
X288686Y243627*
X288776Y243381*
Y243012*
X288686Y242766*
X288597Y242643*
X288329Y242520*
X287523*
X290208Y245103D02*
Y242520D01*
X289581Y245103D02*
X290834D01*
G54D15*
X233150Y252037D02*
Y248110D01*
Y252037D02*
X234918D01*
X233150Y250167D02*
X234238D01*
X236142Y252037D02*
Y248110D01*
X237366Y252037D02*
X237502Y251850D01*
X237638Y252037*
X237502Y252224*
X237366Y252037*
X237502Y250728D02*
Y248110D01*
X240494Y250728D02*
Y247736D01*
X240358Y247175*
X240222Y246988*
X239950Y246801*
X239542*
X239270Y246988*
X240494Y250167D02*
X240222Y250541D01*
X239950Y250728*
X239542*
X239270Y250541*
X238998Y250167*
X238862Y249606*
Y249232*
X238998Y248671*
X239270Y248297*
X239542Y248110*
X239950*
X240222Y248297*
X240494Y248671*
X241718Y252037D02*
Y248110D01*
Y249980D02*
X242126Y250541D01*
X242398Y250728*
X242806*
X243078Y250541*
X243214Y249980*
Y248110*
X244846Y252037D02*
Y248858D01*
X244982Y248297*
X245254Y248110*
X245526*
X244438Y250728D02*
X245390D01*
X250966Y252037D02*
X249878Y248110D01*
X250966Y252037D02*
X252054Y248110D01*
X250286Y249419D02*
X251646D01*
X254775Y250167D02*
X254639Y250541D01*
X254230Y250728*
X253822*
X253414Y250541*
X253278Y250167*
X253414Y249793*
X253686Y249606*
X254366Y249419*
X254366D02*
X254639Y249232D01*
X254775Y248858*
Y248671*
X254639Y248297*
X254230Y248110*
X253822*
X253414Y248297*
X253278Y248671*
X257495Y250167D02*
X257359Y250541D01*
X256951Y250728*
X256543*
X256135Y250541*
X255999Y250167*
X256135Y249793*
X256407Y249606*
X257087Y249419*
X257359Y249232*
X257495Y248858*
Y248671*
X257359Y248297*
X256951Y248110*
X256543*
X256135Y248297*
X255999Y248671*
X258719Y252037D02*
X258855Y251850D01*
X258991Y252037*
X258855Y252224*
X258719Y252037*
X258855Y250728D02*
Y248110D01*
X261711Y250167D02*
X261575Y250541D01*
X261167Y250728*
X260759*
X260351Y250541*
X260215Y250167*
X260351Y249793*
X260623Y249606*
X261303Y249419*
X261575Y249232*
X261711Y248858*
Y248671*
X261575Y248297*
X261167Y248110*
X260759*
X260351Y248297*
X260215Y248671*
X263343Y252037D02*
Y248858D01*
X263479Y248297*
X263751Y248110*
X264023*
X262935Y250728D02*
X263887D01*
X266879D02*
Y248110D01*
Y250167D02*
X266607Y250541D01*
X266335Y250728*
X265927*
X265655Y250541*
X265383Y250167*
X265247Y249606*
Y249232*
X265383Y248671*
X265655Y248297*
X265927Y248110*
X266335*
X266607Y248297*
X266879Y248671*
X268103Y250728D02*
Y248110D01*
Y249980D02*
X268511Y250541D01*
X268783Y250728*
X269191*
X269463Y250541*
X269599Y249980*
Y248110*
X271231Y252037D02*
Y248858D01*
X271367Y248297*
X271639Y248110*
X271911*
X270823Y250728D02*
X271775D01*
X276263D02*
X277079Y248110D01*
X277895Y250728D02*
X277079Y248110D01*
X279120Y251289D02*
X279392Y251476D01*
X279800Y252037*
Y248110*
X281160Y248484D02*
X281024Y248297D01*
X281160Y248110*
X281296Y248297*
X281160Y248484*
X283336Y252037D02*
X282928Y251850D01*
X282656Y251289*
X282520Y250354*
Y249793*
X282656Y248858*
X282928Y248297*
X283336Y248110*
X283608*
X284016Y248297*
X284288Y248858*
X284424Y249793*
Y250354*
X284288Y251289*
X284016Y251850*
X283608Y252037*
X283336*
G74*
X0Y0D02*
M02*
