*
*
G04 PADS 9.5 Build Number: 522968 generated Gerber (RS-274-X) file*
G04 PC Version=2.1*
*
%IN "Variometer-STM32-Rev2.p"*%
*
%MOIN*%
*
%FSLAX35Y35*%
*
*
*
*
G04 PC Standard Apertures*
*
*
G04 Thermal Relief Aperture macro.*
%AMTER*
1,1,$1,0,0*
1,0,$1-$2,0,0*
21,0,$3,$4,0,0,45*
21,0,$3,$4,0,0,135*
%
*
*
G04 Annular Aperture macro.*
%AMANN*
1,1,$1,0,0*
1,0,$2,0,0*
%
*
*
G04 Odd Aperture macro.*
%AMODD*
1,1,$1,0,0*
1,0,$1-0.005,0,0*
%
*
*
G04 PC Custom Aperture Macros*
*
*
*
*
*
*
G04 PC Aperture Table*
*
%ADD010C,0.001*%
%ADD011C,0.01*%
%ADD012C,0.00472*%
%ADD013C,0.00787*%
%ADD014C,0.0063*%
%ADD015C,0.007*%
%ADD016C,0.005*%
%ADD017C,0.00709*%
%ADD018C,0.00551*%
*
*
*
*
G04 PC Circuitry*
G04 Layer Name Variometer-STM32-Rev2.p - circuitry*
%LPD*%
*
*
G04 PC Custom Flashes*
G04 Layer Name Variometer-STM32-Rev2.p - flashes*
%LPD*%
*
*
G04 PC Circuitry*
G04 Layer Name Variometer-STM32-Rev2.p - circuitry*
%LPD*%
*
G54D10*
G54D11*
G01X294350Y156343D02*
X300150D01*
Y163343*
X294350*
X291950Y156343D02*
X286150D01*
Y163343*
X291950*
X397244Y261024D02*
Y324016D01*
X460236*
Y261024*
X397244*
X153169Y227996D02*
X158969D01*
Y234996*
X153169*
X150769Y227996D02*
X144969D01*
Y234996*
X150769*
X192539Y210673D02*
X198339D01*
Y217673*
X192539*
X190139Y210673D02*
X184339D01*
Y217673*
X190139*
X150769Y226335D02*
X144969D01*
Y219335*
X150769*
X153169Y226335D02*
X158969D01*
Y219335*
X153169*
X436772Y115571D02*
X453504D01*
Y102776*
X436772*
Y115571*
X141672Y126579D02*
X147472D01*
Y133579*
X141672*
X139272Y126579D02*
X133472D01*
Y133579*
X139272*
X189126Y176244D02*
X186626D01*
Y171244*
X195126Y176244D02*
X197626D01*
Y171244*
X191626Y167244D02*
X192626D01*
X172756Y149921D02*
Y159882D01*
X165482Y149882D02*
X173532D01*
X173536Y149886D02*
G75*
G03X173528Y159886I-4659J4996D01*
G01X173532Y159882D02*
X165482D01*
X157982Y149882D02*
X149932D01*
Y159881D02*
G03Y149882I3767J-4999D01*
G01Y159882D02*
X157982D01*
X263193Y227953D02*
Y236457D01*
X256815Y227862D02*
X264815D01*
Y236862*
X256815*
X253815Y227862D02*
X245815D01*
Y236862*
X253815*
X414524Y245373D02*
Y251173D01*
X407524*
Y245373*
X414524Y242973D02*
Y237173D01*
X407524*
Y242973*
X153011Y183626D02*
X158811D01*
Y190626*
X153011*
X150611Y183626D02*
X144811D01*
Y190626*
X150611*
X242004Y127027D02*
Y132827D01*
X235004*
Y127027*
X242004Y124627D02*
Y118827D01*
X235004*
Y124627*
X263193Y180669D02*
Y189173D01*
X256815Y180579D02*
X264815D01*
Y189579*
X256815*
X253815Y180579D02*
X245815D01*
Y189579*
X253815*
X368879Y219051D02*
X363079D01*
Y212051*
X368879*
X371279Y219051D02*
X377079D01*
Y212051*
X371279*
X235004Y178879D02*
Y173079D01*
X242004*
Y178879*
X235004Y181279D02*
Y187079D01*
X242004*
Y181279*
X274445Y162932D02*
Y168732D01*
X267445*
Y162932*
X274445Y160532D02*
Y154732D01*
X267445*
Y160532*
X188339Y231165D02*
X185839D01*
Y226165*
X194339Y231165D02*
X196839D01*
Y226165*
X190839Y222165D02*
X191839D01*
X153169Y193350D02*
X158969D01*
Y200350*
X153169*
X150769Y193350D02*
X144969D01*
Y200350*
X150769*
X171357Y193350D02*
X177157D01*
Y200350*
X171357*
X168957Y193350D02*
X163157D01*
Y200350*
X168957*
X257831Y250334D02*
Y256134D01*
X250831*
Y250334*
X257831Y247934D02*
Y242134D01*
X250831*
Y247934*
X178803Y230165D02*
Y232665D01*
X173803*
X178803Y224165D02*
Y221665D01*
X173803*
X169803Y227665D02*
Y226665D01*
X184154Y137043D02*
X178354D01*
Y130043*
X184154*
X186554Y137043D02*
X192354D01*
Y130043*
X186554*
X321610Y168917D02*
Y174717D01*
X314610*
Y168917*
X321610Y166517D02*
Y160717D01*
X314610*
Y166517*
X202799Y225965D02*
Y220165D01*
X209799*
Y225965*
X202799Y228365D02*
Y234165D01*
X209799*
Y228365*
X176003Y210673D02*
X181803D01*
Y217673*
X176003*
X173603Y210673D02*
X167803D01*
Y217673*
X173603*
X160390Y113090D02*
Y118890D01*
X153390*
Y113090*
X160390Y110690D02*
Y104890D01*
X153390*
Y110690*
X275984Y116043D02*
X302559D01*
Y103248*
X275984*
Y116043*
X139272Y142476D02*
X133472D01*
Y135476*
X139272*
X141672Y142476D02*
X147472D01*
Y135476*
X141672*
X162957Y110690D02*
Y104890D01*
X169957*
Y110690*
X162957Y113090D02*
Y118890D01*
X169957*
Y113090*
X481496Y179528D02*
G03X481496I-27165J0D01*
G01X457847D02*
G03X457847I-3516J0D01*
G01X458429Y136181D02*
G03X458429I-13429J0D01*
G01X417717Y151181D02*
G03X417717I-7481J0D01*
G01Y166929D02*
G03X417717I-7481J0D01*
G01Y198425D02*
G03X417717I-7481J0D01*
G01Y182677D02*
G03X417717I-7481J0D01*
G01X122835Y174803D02*
Y186614D01*
X105512*
G03Y174803I2446J-5905*
G01X122835*
Y175709D02*
X134646D01*
X122835Y185709D02*
X134646D01*
X122835Y233858D02*
Y245669D01*
X105512*
G03Y233858I2446J-5905*
G01X122835*
Y234764D02*
X134646D01*
X122835Y244764D02*
X134646D01*
X269074Y142130D02*
X274874D01*
Y149130*
X269074*
X266674Y142130D02*
X260874D01*
Y149130*
X266674*
X200591Y135787D02*
X217323D01*
Y157441*
X200591*
Y135787*
X203031Y156969D02*
Y145157D01*
X215039*
Y157283*
X321654Y141417D02*
X341339D01*
Y154016*
X321654*
Y141417*
X266807Y250334D02*
Y256134D01*
X259807*
Y250334*
X266807Y247934D02*
Y242134D01*
X259807*
Y247934*
X234209Y250334D02*
Y256134D01*
X227209*
Y250334*
X234209Y247934D02*
Y242134D01*
X227209*
Y247934*
X450154Y245373D02*
Y251173D01*
X443154*
Y245373*
X450154Y242973D02*
Y237173D01*
X443154*
Y242973*
X189169Y191626D02*
X181169D01*
Y182626*
X189169*
X192169Y191626D02*
X200169D01*
Y182626*
X192169*
X343657Y242381D02*
Y248181D01*
X336657*
Y242381*
X343657Y239981D02*
Y234181D01*
X336657*
Y239981*
X149091Y173444D02*
Y179244D01*
X142091*
Y173444*
X149091Y171044D02*
Y165244D01*
X142091*
Y171044*
X182594Y173444D02*
Y179244D01*
X175594*
Y173444*
X182594Y171044D02*
Y165244D01*
X175594*
Y171044*
X184154Y128461D02*
X178354D01*
Y121461*
X184154*
X186554Y128461D02*
X192354D01*
Y121461*
X186554*
X235004Y207934D02*
Y202134D01*
X242004*
Y207934*
X235004Y210334D02*
Y216134D01*
X242004*
Y210334*
X254115Y161531D02*
X248315D01*
Y154531*
X254115*
X256515Y161531D02*
X262315D01*
Y154531*
X256515*
X334996Y242381D02*
Y248181D01*
X327996*
Y242381*
X334996Y239981D02*
Y234181D01*
X327996*
Y239981*
X371279Y203587D02*
X377079D01*
Y210587*
X371279*
X368879Y203587D02*
X363079D01*
Y210587*
X368879*
X340594Y166517D02*
Y160717D01*
X347594*
Y166517*
X340594Y168917D02*
Y174717D01*
X347594*
Y168917*
X458815Y245373D02*
Y251173D01*
X451815*
Y245373*
X458815Y242973D02*
Y237173D01*
X451815*
Y242973*
X469650Y246753D02*
Y240953D01*
X476650*
Y246753*
X469650Y249153D02*
Y254953D01*
X476650*
Y249153*
X150769Y209012D02*
X144969D01*
Y202012*
X150769*
X153169Y209012D02*
X158969D01*
Y202012*
X153169*
X150769Y217673D02*
X144969D01*
Y210673*
X150769*
X153169Y217673D02*
X158969D01*
Y210673*
X153169*
X423382Y245373D02*
Y251173D01*
X416382*
Y245373*
X423382Y242973D02*
Y237173D01*
X416382*
Y242973*
X291950Y145823D02*
X286150D01*
Y138823*
X291950*
X294350Y145823D02*
X300150D01*
Y138823*
X294350*
Y127996D02*
X300150D01*
Y134996*
X294350*
X291950Y127996D02*
X286150D01*
Y134996*
X291950*
X294350Y119335D02*
X300150D01*
Y126335*
X294350*
X291950Y119335D02*
X286150D01*
Y126335*
X291950*
Y154681D02*
X286150D01*
Y147681*
X291950*
X294350Y154681D02*
X300150D01*
Y147681*
X294350*
X274445Y180924D02*
Y186724D01*
X267445*
Y180924*
X274445Y178524D02*
Y172724D01*
X267445*
Y178524*
X317169Y239981D02*
Y234181D01*
X324169*
Y239981*
X317169Y242381D02*
Y248181D01*
X324169*
Y242381*
X294350Y190398D02*
X300150D01*
Y197398*
X294350*
X291950Y190398D02*
X286150D01*
Y197398*
X291950*
X476650Y231121D02*
Y236921D01*
X469650*
Y231121*
X476650Y228721D02*
Y222921D01*
X469650*
Y228721*
X338933Y168917D02*
Y174717D01*
X331933*
Y168917*
X338933Y166517D02*
Y160717D01*
X331933*
Y166517*
X293014Y199201D02*
X301014D01*
Y208201*
X293014*
X290014Y199201D02*
X282014D01*
Y208201*
X290014*
X330272Y168917D02*
Y174717D01*
X323272*
Y168917*
X330272Y166517D02*
Y160717D01*
X323272*
Y166517*
X352319Y149192D02*
Y154992D01*
X345319*
Y149192*
X352319Y146792D02*
Y140992D01*
X345319*
Y146792*
X310673D02*
Y140992D01*
X317673*
Y146792*
X310673Y149192D02*
Y154992D01*
X317673*
Y149192*
X405665Y245373D02*
Y251173D01*
X398665*
Y245373*
X405665Y242973D02*
Y237173D01*
X398665*
Y242973*
X396378Y254335D02*
X387874D01*
X396469Y247957D02*
Y255957D01*
X387469*
Y247957*
X396469Y244957D02*
Y236957D01*
X387469*
Y244957*
X358643Y127909D02*
X352843D01*
Y120909*
X358643*
X361043Y127909D02*
X366843D01*
Y120909*
X361043*
X274445Y228287D02*
Y234087D01*
X267445*
Y228287*
X274445Y225887D02*
Y220087D01*
X267445*
Y225887*
X235004D02*
Y220087D01*
X242004*
Y225887*
X235004Y228287D02*
Y234087D01*
X242004*
Y228287*
X235004Y141005D02*
Y135205D01*
X242004*
Y141005*
X235004Y143405D02*
Y149205D01*
X242004*
Y143405*
X274445Y210334D02*
Y216134D01*
X267445*
Y210334*
X274445Y207934D02*
Y202134D01*
X267445*
Y207934*
X171357Y183626D02*
X177157D01*
Y190626*
X171357*
X168957Y183626D02*
X163157D01*
Y190626*
X168957*
X184154Y146256D02*
X178354D01*
Y139256*
X184154*
X186554Y146256D02*
X192354D01*
Y139256*
X186554*
X256515Y200909D02*
X262315D01*
Y207909*
X256515*
X254115Y200909D02*
X248315D01*
Y207909*
X254115*
X235004Y160532D02*
Y154732D01*
X242004*
Y160532*
X235004Y162932D02*
Y168732D01*
X242004*
Y162932*
X291950Y183028D02*
X286150D01*
Y176028*
X291950*
X294350Y183028D02*
X300150D01*
Y176028*
X294350*
X291950Y174366D02*
X286150D01*
Y167366*
X291950*
X294350Y174366D02*
X300150D01*
Y167366*
X294350*
X358643Y119248D02*
X352843D01*
Y112248*
X358643*
X361043Y119248D02*
X366843D01*
Y112248*
X361043*
X358643Y110587D02*
X352843D01*
Y103587*
X358643*
X361043Y110587D02*
X366843D01*
Y103587*
X361043*
X386220Y261732D02*
Y266732D01*
Y286732D02*
Y291732D01*
X381220Y286732D02*
X391220D01*
Y266732*
X381220*
Y286732*
X232594Y162932D02*
Y168732D01*
X225594*
Y162932*
X232594Y160532D02*
Y154732D01*
X225594*
Y160532*
X254115Y122004D02*
X248315D01*
Y115004*
X254115*
X256515Y122004D02*
X262315D01*
Y115004*
X256515*
X267445Y124627D02*
Y118827D01*
X274445*
Y124627*
X267445Y127027D02*
Y132827D01*
X274445*
Y127027*
X248697Y250334D02*
Y256134D01*
X241697*
Y250334*
X248697Y247934D02*
Y242134D01*
X241697*
Y247934*
X250414Y149130D02*
X244614D01*
Y142130*
X250414*
X252814Y149130D02*
X258614D01*
Y142130*
X252814*
G54D12*
X165276Y166535D02*
X158189D01*
Y177953*
X165276*
Y166535*
X282677Y264921D02*
X272638D01*
Y266575*
X265827*
Y265394*
X229252*
Y264567*
X223150*
Y325236*
X232953*
Y321535*
X262362*
Y329055*
X277283*
Y321772*
X282795*
Y264921*
X480748Y226890D02*
Y250906D01*
X495315*
Y226890*
X480748*
X485276Y233386D02*
Y244803D01*
X490787*
Y233386*
X485276*
X486850Y234961D02*
Y243228D01*
X489213*
Y234961*
X486850*
X251772Y177205D02*
X258858D01*
Y165787*
X251772*
Y177205*
Y223858D02*
X258858D01*
Y212441*
X251772*
Y223858*
X144488Y240945D02*
X211417D01*
Y327559*
X144488*
Y240945*
X230587Y105679D02*
X230379Y105965D01*
X230068Y106107*
X229653*
X229341Y105965*
X229134Y105679*
Y105394*
X229238Y105108*
X229341Y104966*
X229549Y104823*
X230172Y104537*
X230379Y104395*
X230483Y104252*
X230587Y103967*
Y103538*
X230379Y103253*
X230068Y103110*
X229653*
X229341Y103253*
X229134Y103538*
X231521Y106107D02*
X232040Y103110D01*
X232559Y106107D02*
X232040Y103110D01*
X232559Y106107D02*
X233078Y103110D01*
X233597Y106107D02*
X233078Y103110D01*
X234635Y105394D02*
Y105536D01*
X234739Y105822*
X234843Y105965*
X235050Y106107*
X235465*
X235673Y105965*
X235777Y105822*
X235880Y105536*
Y105251*
X235777Y104966*
X235569Y104537*
X234531Y103110*
X235984*
X303407Y161142D02*
X303304Y161427D01*
X303096Y161713*
X302888Y161855*
X302473*
X302266Y161713*
X302058Y161427*
X301954Y161142*
X301850Y160714*
Y160000*
X301954Y159572*
X302058Y159286*
X302266Y159001*
X302473Y158858*
X302888*
X303096Y159001*
X303304Y159286*
X303407Y159572*
X304341Y161284D02*
X304549Y161427D01*
X304860Y161855*
Y158858*
X306002Y161855D02*
X307144D01*
X306521Y160714*
X306832*
X306832D02*
X307040Y160571D01*
X307144Y160428*
X307248Y160000*
Y159715*
X307144Y159286*
X306936Y159001*
X306625Y158858*
X306314*
X306002Y159001*
X305898Y159144*
X305795Y159429*
X453465Y270359D02*
Y267362D01*
Y270359D02*
X454295Y267362D01*
X455125Y270359D02*
X454295Y267362D01*
X455125Y270359D02*
Y267362D01*
X456163Y269646D02*
Y269788D01*
X456267Y270074*
X456371Y270217*
X456578Y270359*
X456994*
X457201Y270217*
X457305Y270074*
X457409Y269788*
Y269503*
X457305Y269218*
X457097Y268789*
X456059Y267362*
X457513*
X118873Y194690D02*
Y192406D01*
X118769Y191978*
X118665Y191836*
X118457Y191693*
X118250*
X118042Y191836*
X117938Y191978*
X117835Y192406*
Y192692*
X120014Y194690D02*
X121156D01*
X120533Y193548*
X120845*
X121052Y193406*
X121156Y193263*
X121260Y192835*
Y192549*
X121156Y192121*
X120948Y191836*
X120637Y191693*
X120326*
X120014Y191836*
X119911Y191978*
X119807Y192264*
X138228Y232840D02*
Y229843D01*
Y232840D02*
X139162D01*
X139474Y232697*
X139578Y232554*
X139681Y232269*
Y231983*
X139578Y231698*
X139474Y231555*
X139162Y231412*
X138228*
X138955D02*
X139681Y229843D01*
X142069Y232840D02*
X141031Y229843D01*
X140616Y232840D02*
X142069D01*
X191890Y208824D02*
Y205827D01*
Y208824D02*
X192824D01*
X193135Y208681*
X193239Y208538*
X193343Y208253*
Y207968*
X193239Y207682*
X193135Y207539*
X192824Y207397*
X191890*
X192616D02*
X193343Y205827D01*
X194277Y208253D02*
X194485Y208396D01*
X194796Y208824*
Y205827*
X195938Y208824D02*
X197079D01*
X196457Y207682*
X196768*
X196976Y207539*
X197079Y207397*
X197183Y206969*
Y206683*
X197079Y206255*
X196872Y205969*
X196560Y205827*
X196249*
X195938Y205969*
X195834Y206112*
X195730Y206398*
X138110Y224099D02*
Y221102D01*
Y224099D02*
X139044D01*
X139356Y223957*
X139460Y223814*
X139563Y223529*
Y223243*
X139460Y222958*
X139356Y222815*
X139044Y222672*
X138110*
X138837D02*
X139563Y221102D01*
X141016Y224099D02*
X140705Y223957D01*
X140601Y223671*
Y223386*
X140705Y223100*
X140913Y222958*
X141328Y222815*
X141639Y222672*
X141847Y222387*
X141951Y222101*
Y221673*
X141847Y221388*
X141743Y221245*
X141432Y221102*
X141016*
X140705Y221245*
X140601Y221388*
X140497Y221673*
Y222101*
X140601Y222387*
X140809Y222672*
X141120Y222815*
X141535Y222958*
X141743Y223100*
X141847Y223386*
Y223671*
X141743Y223957*
X141432Y224099*
X141016*
X456707Y105950D02*
Y103666D01*
X456603Y103238*
X456500Y103095*
X456292Y102953*
X456084*
X455877Y103095*
X455773Y103238*
X455669Y103666*
Y103952*
X458679Y105950D02*
X457641Y103952D01*
X459198*
X458679Y105950D02*
Y102953D01*
X159724Y126934D02*
Y124793D01*
X159828Y124365*
X160036Y124080*
X160347Y123937*
X160555*
X160866Y124080*
X161074Y124365*
X161178Y124793*
Y126934*
X162631D02*
X162319Y126791D01*
X162215Y126506*
Y126220*
X162319Y125935*
X162527Y125792*
X162942Y125650*
X163253Y125507*
X163461Y125221*
X163565Y124936*
Y124508*
X163461Y124222*
X163357Y124080*
X163046Y123937*
X162631*
X162319Y124080*
X162215Y124222*
X162112Y124508*
Y124936*
X162215Y125221*
X162423Y125507*
X162734Y125650*
X163150Y125792*
X163357Y125935*
X163461Y126220*
Y126506*
X163357Y126791*
X163046Y126934*
X162631*
X142147Y124331D02*
X142044Y124616D01*
X141836Y124902*
X141628Y125044*
X141213*
X141006Y124902*
X140798Y124616*
X140694Y124331*
X140591Y123903*
Y123189*
X140694Y122761*
X140798Y122475*
X141006Y122190*
X141213Y122047*
X141628*
X141836Y122190*
X142044Y122475*
X142147Y122761*
X143185Y124331D02*
Y124473D01*
X143289Y124759*
X143393Y124902*
X143601Y125044*
X144016*
X144223Y124902*
X144327Y124759*
X144431Y124473*
Y124188*
X144327Y123903*
X144120Y123474*
X143082Y122047*
X144535*
X145573Y124331D02*
Y124473D01*
X145676Y124759*
X145780Y124902*
X145988Y125044*
X146403*
X146611Y124902*
X146714Y124759*
X146818Y124473*
Y124188*
X146714Y123903*
X146507Y123474*
X145469Y122047*
X146922*
X159724Y164847D02*
Y162707D01*
X159828Y162279*
X160036Y161993*
X160347Y161850*
X160555*
X160866Y161993*
X161074Y162279*
X161178Y162707*
Y164847*
X163461D02*
X162423D01*
X162319Y163563*
X162423Y163706*
X162734Y163848*
X163046*
X163357Y163706*
X163565Y163420*
X163669Y162992*
X163565Y162707*
X163461Y162279*
X163253Y161993*
X162942Y161850*
X162631*
X162319Y161993*
X162215Y162136*
X162112Y162421*
X192992Y164729D02*
Y162589D01*
X193096Y162160*
X193304Y161875*
X193615Y161732*
X193822*
X194134Y161875*
X194341Y162160*
X194445Y162589*
Y164729*
X196625Y164301D02*
X196521Y164587D01*
X196210Y164729*
X196002*
X195691Y164587*
X195483Y164158*
X195379Y163445*
Y162731*
X195483Y162160*
X195691Y161875*
X196002Y161732*
X196106*
X196417Y161875*
X196625Y162160*
X196729Y162589*
Y162731*
X196625Y163159*
X196417Y163445*
X196106Y163588*
X196002*
X195691Y163445*
X195483Y163159*
X195379Y162731*
X177756Y152721D02*
Y149724D01*
Y152721D02*
X178482D01*
X178794Y152579*
X179001Y152293*
X179105Y152008*
X179209Y151580*
Y150866*
X179105Y150438*
X179001Y150153*
X178794Y149867*
X178482Y149724*
X177756*
X181492Y152721D02*
X180455D01*
X180351Y151437*
X180455Y151580*
X180766Y151722*
X181077*
X181389Y151580*
X181596Y151294*
X181700Y150866*
X181596Y150581*
X181492Y150153*
X181285Y149867*
X180974Y149724*
X180662*
X180351Y149867*
X180247Y150010*
X180143Y150295*
X260691Y226220D02*
X260587Y226506D01*
X260379Y226791*
X260172Y226934*
X259757*
X259549Y226791*
X259341Y226506*
X259238Y226220*
X259134Y225792*
Y225079*
X259238Y224651*
X259341Y224365*
X259549Y224080*
X259757Y223937*
X260172*
X260379Y224080*
X260587Y224365*
X260691Y224651*
X261625Y226363D02*
X261832Y226506D01*
X261832D02*
X262144Y226934D01*
Y223937*
X264116Y226934D02*
X263078Y224936D01*
X264635*
X264116Y226934D02*
Y223937D01*
X409982Y234567D02*
X409878Y234852D01*
X409671Y235138*
X409463Y235281*
X409048*
X408840Y235138*
X408633Y234852*
X408529Y234567*
X408425Y234139*
Y233425*
X408529Y232997*
X408633Y232712*
X408840Y232426*
X409048Y232283*
X409463*
X409671Y232426*
X409878Y232712*
X409982Y232997*
X410916Y234710D02*
X411124Y234852D01*
X411435Y235281*
Y232283*
X412888Y235281D02*
X412577Y235138D01*
X412473Y234852*
Y234567*
X412577Y234281*
X412785Y234139*
X413200Y233996*
X413511Y233853*
X413719Y233568*
X413822Y233282*
Y232854*
X413719Y232569*
X413615Y232426*
X413304Y232283*
X412888*
X412577Y232426*
X412473Y232569*
X412369Y232854*
Y233282*
X412473Y233568*
X412681Y233853*
X412992Y233996*
X413407Y234139*
X413615Y234281*
X413719Y234567*
Y234852*
X413615Y235138*
X413304Y235281*
X412888*
X139352Y187874D02*
X139248Y188159D01*
X139041Y188445*
X138833Y188588*
X138418*
X138210Y188445*
X138003Y188159*
X137899Y187874*
X137795Y187446*
Y186732*
X137899Y186304*
X138003Y186019*
X138210Y185733*
X138418Y185591*
X138833*
X139041Y185733*
X139248Y186019*
X139352Y186304*
X140390Y187874D02*
Y188017D01*
X140494Y188302*
X140598Y188445*
X140805Y188588*
X141220*
X141428Y188445*
X141532Y188302*
X141636Y188017*
Y187731*
X141532Y187446*
X141324Y187018*
X140286Y185591*
X141739*
X143712Y188588D02*
X142674Y186590D01*
X144230*
X143712Y188588D02*
Y185591D01*
X227362Y133824D02*
Y130827D01*
Y133824D02*
X228296D01*
X228608Y133681*
X228712Y133538*
X228815Y133253*
Y132968*
X228712Y132682*
X228608Y132539*
X228296Y132397*
X227362*
X228089D02*
X228815Y130827D01*
X230995Y133396D02*
X230891Y133681D01*
X230580Y133824*
X230372*
X230061Y133681*
X229853Y133253*
X229749Y132539*
Y131826*
X229853Y131255*
X230061Y130969*
X230372Y130827*
X230476*
X230787Y130969*
X230995Y131255*
X231099Y131683*
Y131826*
X230995Y132254*
X230787Y132539*
X230476Y132682*
X230372*
X230061Y132539*
X229853Y132254*
X229749Y131826*
X232656Y133824D02*
X232344Y133681D01*
X232137Y133253*
X232033Y132539*
Y132111*
X232137Y131398*
X232344Y130969*
X232656Y130827*
X232863*
X233175Y130969*
X233382Y131398*
X233486Y132111*
Y132539*
X233382Y133253*
X233175Y133681*
X232863Y133824*
X232656*
X261636Y179055D02*
X261532Y179341D01*
X261324Y179626*
X261117Y179769*
X260702*
X260494Y179626*
X260286Y179341*
X260183Y179055*
X260079Y178627*
Y177913*
X260183Y177485*
X260286Y177200*
X260494Y176914*
X260702Y176772*
X261117*
X261324Y176914*
X261532Y177200*
X261636Y177485*
X262777Y179769D02*
X263919D01*
X263296Y178627*
X263608*
X263815Y178484*
X263919Y178342*
X264023Y177913*
Y177628*
X263919Y177200*
X263712Y176914*
X263400Y176772*
X263089*
X262777Y176914*
X262674Y177057*
X262570Y177343*
X380376Y216614D02*
X380272Y216900D01*
X380064Y217185*
X379857Y217328*
X379442*
X379234Y217185*
X379026Y216900*
X378923Y216614*
X378819Y216186*
Y215472*
X378923Y215044*
X379026Y214759*
X379234Y214473*
X379442Y214331*
X379857*
X380064Y214473*
X380272Y214759*
X380376Y215044*
X382348Y217328D02*
X381310Y215330D01*
X382867*
X382348Y217328D02*
Y214331D01*
X237620Y191220D02*
X237516Y191506D01*
X237309Y191791*
X237101Y191934*
X236686*
X236478Y191791*
X236271Y191506*
X236167Y191220*
X236063Y190792*
Y190079*
X236167Y189651*
X236271Y189365*
X236478Y189080*
X236686Y188937*
X237101*
X237309Y189080*
X237516Y189365*
X237620Y189651*
X240007Y191934D02*
X238969Y188937D01*
X238554Y191934D02*
X240007D01*
X270191Y152461D02*
X270087Y152746D01*
X269879Y153031*
X269672Y153174*
X269257*
X269049Y153031*
X268841Y152746*
X268738Y152461*
X268634Y152032*
Y151319*
X268738Y150891*
X268841Y150605*
X269049Y150320*
X269257Y150177*
X269672*
X269879Y150320*
X270087Y150605*
X270191Y150891*
X272474Y153174D02*
X271436D01*
X271333Y151890*
X271333D02*
X271436Y152032D01*
X271748Y152175*
X272059*
X272370Y152032*
X272578Y151747*
X272682Y151319*
X272578Y151033*
X272474Y150605*
X272267Y150320*
X271955Y150177*
X271644*
X271333Y150320*
X271333D02*
X271229Y150463D01*
X271125Y150748*
X198064Y224139D02*
X197856Y223996D01*
X197649Y223711*
X197545Y223425*
X197441Y222997*
Y222283*
X197545Y221855*
X197649Y221570*
X197856Y221284*
X198064Y221142*
X198479*
X198686Y221284*
X198894Y221570*
X198998Y221855*
X199102Y222283*
Y222997*
X198998Y223425*
X198894Y223711*
X198686Y223996*
X198479Y224139*
X198064*
X198375Y221713D02*
X198998Y220856D01*
X200140Y223425D02*
Y223568D01*
X200243Y223853*
X200347Y223996*
X200555Y224139*
X200970*
X201178Y223996*
X201281Y223853*
X201385Y223568*
Y223282*
X201281Y222997*
X201074Y222569*
X200036Y221142*
X201489*
X137913Y197879D02*
Y194882D01*
Y197879D02*
X138848D01*
X139159Y197736*
X139263Y197594*
X139366Y197308*
X139366D02*
Y197023D01*
X139366D02*
X139263Y196737D01*
X139159Y196594*
X138848Y196452*
X137913*
X138640D02*
X139366Y194882D01*
X140301Y197308D02*
X140508Y197451D01*
X140820Y197879*
Y194882*
X142273Y197879D02*
X141961Y197736D01*
X141858Y197451*
Y197165*
X141961Y196880*
X142169Y196737*
X142584Y196594*
X142895Y196452*
X143103Y196166*
X143207Y195881*
Y195453*
X143103Y195167*
X142999Y195025*
X142688Y194882*
X142273*
X141961Y195025*
X141858Y195167*
X141754Y195453*
Y195881*
X141858Y196166*
X142065Y196452*
X142377Y196594*
X142792Y196737*
X142999Y196880*
X143103Y197165*
Y197451*
X142999Y197736*
X142688Y197879*
X142273*
X163622Y204966D02*
Y201969D01*
Y204966D02*
X164556D01*
X164868Y204823*
X164971Y204680*
X165075Y204395*
Y204109*
X164971Y203824*
X164868Y203681*
X164556Y203538*
X163622*
X164349D02*
X165075Y201969D01*
X166009Y204395D02*
X166217Y204537D01*
X166528Y204966*
Y201969*
X168812Y203967D02*
X168708Y203538D01*
X168500Y203253*
X168189Y203110*
X168085*
X167774Y203253*
X167566Y203538*
X167462Y203967*
Y204109*
X167566Y204537*
X167774Y204823*
X168085Y204966*
X168189*
X168500Y204823*
X168708Y204537*
X168812Y203967*
Y203253*
X168708Y202539*
X168500Y202111*
X168189Y201969*
X168189D02*
X167981D01*
X167981D02*
X167670Y202111D01*
X167566Y202397*
X282928Y263273D02*
Y260989D01*
X282824Y260561*
X282720Y260418*
X282513Y260276*
X282305*
X282097Y260418*
X281994Y260561*
X281890Y260989*
Y261275*
X283966Y262559D02*
Y262702D01*
X284069Y262987*
X284173Y263130*
X284381Y263273*
X284796*
X285004Y263130*
X285107Y262987*
X285211Y262702*
Y262416*
X285107Y262131*
X284900Y261703*
X283862Y260276*
X285315*
X251772Y241225D02*
Y238228D01*
Y241225D02*
X252706D01*
X253017Y241083*
X253121Y240940*
X253225Y240655*
Y240369*
X253121Y240084*
X253017Y239941*
X252706Y239798*
X251772*
X252498D02*
X253225Y238228D01*
X255197Y241225D02*
X254159Y239227D01*
X255716*
X255197Y241225D02*
Y238228D01*
X257169Y241225D02*
X256858Y241083D01*
X256754Y240797*
Y240512*
X256858Y240226*
X257065Y240084*
X257480Y239941*
X257792Y239798*
X257999Y239513*
X258103Y239227*
Y238799*
X257999Y238514*
X257895Y238371*
X257584Y238228*
X257169*
X256858Y238371*
X256754Y238514*
X256650Y238799*
Y239227*
X256754Y239513*
X256961Y239798*
X257273Y239941*
X257688Y240084*
X257895Y240226*
X257999Y240512*
Y240797*
X257895Y241083*
X257584Y241225*
X257169*
X181174Y223666D02*
X180966Y223524D01*
X180759Y223238*
X180655Y222953*
X180551Y222525*
Y221811*
X180655Y221383*
X180759Y221097*
X180966Y220812*
X181174Y220669*
X181589*
X181797Y220812*
X182004Y221097*
X182108Y221383*
X182212Y221811*
Y222525*
X182108Y222953*
X182004Y223238*
X181797Y223524*
X181589Y223666*
X181174*
X181485Y221240D02*
X182108Y220384D01*
X183146Y223095D02*
X183354Y223238D01*
X183665Y223666*
Y220669*
X194825Y134409D02*
X194721Y134695D01*
X194513Y134980*
X194306Y135123*
X193890*
X193683Y134980*
X193475Y134695*
X193372Y134409*
X193268Y133981*
Y133268*
X193372Y132840*
X193475Y132554*
X193683Y132269*
X193890Y132126*
X194306*
X194513Y132269*
X194721Y132554*
X194825Y132840*
X195863Y134409D02*
Y134552D01*
X195966Y134838*
X196070Y134980*
X196278Y135123*
X196693*
X196901Y134980*
X196901D02*
X197004Y134838D01*
X197108Y134552*
Y134267*
X197004Y133981*
X196797Y133553*
X195759Y132126*
X197212*
X198354Y135123D02*
X199495D01*
X198873Y133981*
X199184*
X199392Y133839*
X199495Y133696*
X199599Y133268*
Y132982*
X199495Y132554*
X199288Y132269*
X198976Y132126*
X198665*
X198354Y132269*
X198250Y132411*
X198146Y132697*
X316478Y158898D02*
X316374Y159183D01*
X316167Y159469*
X315959Y159611*
X315544*
X315336Y159469*
X315129Y159183*
X315025Y158898*
X314921Y158469*
Y157756*
X315025Y157328*
X315129Y157042*
X315336Y156757*
X315544Y156614*
X315959*
X316167Y156757*
X316374Y157042*
X316478Y157328*
X317516Y158898D02*
Y159040D01*
X317620Y159326*
X317724Y159469*
X317931Y159611*
X318346*
X318554Y159469*
X318658Y159326*
X318762Y159040*
Y158755*
X318658Y158469*
X318450Y158041*
X317412Y156614*
X318865*
X321149Y159611D02*
X320111D01*
X320007Y158327*
X320111Y158469*
X320422Y158612*
X320734*
X321045Y158469*
X321253Y158184*
X321356Y157756*
X321253Y157470*
X321149Y157042*
X320941Y156757*
X320630Y156614*
X320319*
X320007Y156757*
X319903Y156900*
X319800Y157185*
X346417Y183509D02*
Y181368D01*
X346521Y180940*
X346729Y180655*
X347040Y180512*
X347248*
X347559Y180655*
X347767Y180940*
X347870Y181368*
Y183509*
X349843D02*
X348805Y181511D01*
X350361*
X349843Y183509D02*
Y180512D01*
X493382Y222687D02*
X493175Y222972D01*
X492863Y223115*
X492448*
X492137Y222972*
X491929Y222687*
Y222402*
X492033Y222116*
X492137Y221973*
X492344Y221831*
X492967Y221545*
X493175Y221403*
X493278Y221260*
X493382Y220974*
Y220546*
X493175Y220261*
X492863Y220118*
X492448*
X492137Y220261*
X491929Y220546*
X494316Y223115D02*
X494835Y220118D01*
X495354Y223115D02*
X494835Y220118D01*
X495354Y223115D02*
X495873Y220118D01*
X496392Y223115D02*
X495873Y220118D01*
X497326Y222544D02*
X497534Y222687D01*
X497845Y223115*
Y220118*
X204370Y219021D02*
Y216024D01*
Y219021D02*
X205304D01*
X205616Y218878*
X205719Y218735*
X205823Y218450*
Y218164*
X205719Y217879*
X205616Y217736*
X205304Y217594*
X204370*
X205097D02*
X205823Y216024D01*
X208107Y218022D02*
X208003Y217594D01*
X207795Y217308*
X207484Y217165*
X207380*
X207069Y217308*
X206861Y217594*
X206757Y218022*
Y218164*
X206861Y218593*
X207069Y218878*
X207380Y219021*
X207484*
X207795Y218878*
X208003Y218593*
X208107Y218022*
Y217308*
X208003Y216594*
X207795Y216166*
X207484Y216024*
X207276*
X206965Y216166*
X206861Y216452*
X177677Y208903D02*
Y205906D01*
Y208903D02*
X178611D01*
X178923Y208760*
X179026Y208617*
X179130Y208332*
Y208046*
X179026Y207761*
X178923Y207618*
X178611Y207475*
X177677*
X178404D02*
X179130Y205906D01*
X180064Y208332D02*
X180272Y208474D01*
X180583Y208903*
Y205906*
X181621Y208189D02*
Y208332D01*
X181725Y208617*
X181829Y208760*
X182037Y208903*
X182452*
X182659Y208760*
X182763Y208617*
X182867Y208332*
Y208046*
X182763Y207761*
X182555Y207333*
X181518Y205906*
X182971*
X146872Y107992D02*
X146768Y108278D01*
X146560Y108563*
X146353Y108706*
X145938*
X145730Y108563*
X145523Y108278*
X145419Y107992*
X145315Y107564*
Y106850*
X145419Y106422*
X145523Y106137*
X145730Y105851*
X145938Y105709*
X146353*
X146560Y105851*
X146768Y106137*
X146872Y106422*
X147910Y107992D02*
Y108135D01*
X148014Y108420*
X148117Y108563*
X148325Y108706*
X148740*
X148948Y108563*
X149052Y108420*
X149155Y108135*
Y107849*
X149052Y107564*
X148844Y107136*
X147806Y105709*
X149259*
X151439Y108278D02*
X151335Y108563D01*
X151024Y108706*
X150816*
X150505Y108563*
X150297Y108135*
X150193Y107421*
Y106708*
X150297Y106137*
X150505Y105851*
X150816Y105709*
X150920*
X151231Y105851*
X151439Y106137*
X151543Y106565*
Y106708*
X151439Y107136*
X151231Y107421*
X150920Y107564*
X150816*
X150505Y107421*
X150297Y107136*
X150193Y106708*
X305369Y106973D02*
Y104690D01*
X305265Y104262*
X305161Y104119*
X304953Y103976*
X304746*
X304538Y104119*
X304435Y104262*
X304435D02*
X304331Y104690D01*
Y104975*
X307548Y106545D02*
X307445Y106831D01*
X307133Y106973*
X306926*
X306614Y106831*
X306407Y106403*
X306303Y105689*
Y104975*
X306407Y104405*
X306614Y104119*
X306926Y103976*
X307029*
X307341Y104119*
X307548Y104405*
X307652Y104833*
Y104975*
X307548Y105404*
X307341Y105689*
X307029Y105832*
X306926*
X306614Y105689*
X306407Y105404*
X306303Y104975*
X142974Y146929D02*
X142870Y147215D01*
X142663Y147500*
X142455Y147643*
X142040*
X141832Y147500*
X141832D02*
X141625Y147215D01*
X141521Y146929*
X141417Y146501*
Y145787*
X141521Y145359*
X141625Y145074*
X141832Y144788*
X141832D02*
X142040Y144646D01*
X142455*
X142663Y144788*
X142870Y145074*
X142974Y145359*
X143908Y147072D02*
X144116Y147215D01*
X144427Y147643*
Y144646*
X146711Y146644D02*
X146607Y146216D01*
X146399Y145930*
X146088Y145787*
X145984*
X145673Y145930*
X145465Y146216*
X145361Y146644*
Y146786*
X145465Y147215*
X145673Y147500*
X145984Y147643*
X146088*
X146399Y147500*
X146607Y147215*
X146711Y146644*
Y145930*
X146607Y145217*
X146399Y144788*
X146088Y144646*
X145880*
X145569Y144788*
X145465Y145074*
X172283Y108627D02*
Y105630D01*
Y108627D02*
X173218D01*
X173529Y108484*
X173633Y108342*
X173737Y108056*
Y107771*
X173633Y107485*
X173529Y107343*
X173218Y107200*
X172283*
X173010D02*
X173737Y105630D01*
X174878Y108627D02*
X176020D01*
X175397Y107485*
X175709*
X175916Y107343*
X176020Y107200*
X176124Y106772*
Y106486*
X176020Y106058*
X175812Y105773*
X175501Y105630*
X175190*
X174878Y105773*
X174775Y105915*
X174671Y106201*
X178096Y108627D02*
X177058Y106629D01*
X178615*
X178096Y108627D02*
Y105630D01*
X422752Y105876D02*
X422545Y106161D01*
X422233Y106304*
X421818*
X421507Y106161*
X421299Y105876*
Y105591*
X421403Y105305*
X421507Y105162*
X421714Y105020*
X422337Y104734*
X422545Y104592*
X422649Y104449*
X422752Y104163*
Y103735*
X422545Y103450*
X422233Y103307*
X421818*
X421507Y103450*
X421299Y103735*
X423686Y106304D02*
X424205Y103307D01*
X424724Y106304D02*
X424205Y103307D01*
X424724Y106304D02*
X425243Y103307D01*
X425762Y106304D02*
X425243Y103307D01*
X426904Y106304D02*
X428046D01*
X427423Y105162*
X427734*
X427942Y105020*
X428046Y104877*
X428150Y104449*
Y104163*
X428046Y103735*
X427838Y103450*
X427527Y103307*
X427215*
X426904Y103450*
X426800Y103593*
X426696Y103878*
X445587Y160989D02*
X444134Y157992D01*
Y160989D02*
X445587D01*
X444134Y157992D02*
X445587D01*
X446521Y160418D02*
X446729Y160561D01*
X447040Y160989*
Y157992*
X447835Y128666D02*
Y125669D01*
X449080*
X450222Y128666D02*
X451364D01*
X450741Y127525*
X451052*
X451260Y127382*
X451364Y127239*
X451467Y126811*
Y126526*
X451364Y126097*
X451156Y125812*
X450845Y125669*
X450533*
X450222Y125812*
X450118Y125955*
X450014Y126240*
X418087Y146462D02*
Y143465D01*
Y146462D02*
X418813D01*
X419125Y146319*
X419332Y146033*
X419436Y145748*
X419540Y145320*
Y144606*
X419436Y144178*
X419332Y143893*
X419125Y143607*
X418813Y143465*
X418087*
X421927Y146462D02*
X420889Y143465D01*
X420474Y146462D02*
X421927D01*
X418087Y162202D02*
Y159205D01*
Y162202D02*
X418813D01*
X419125Y162059*
X419332Y161774*
X419436Y161488*
X419540Y161060*
Y160346*
X419436Y159918*
X419332Y159633*
X419125Y159347*
X418813Y159205*
X418087*
X421719Y161774D02*
X421616Y162059D01*
X421304Y162202*
X421097*
X420785Y162059*
X420578Y161631*
X420474Y160917*
Y160204*
X420578Y159633*
X420785Y159347*
X421097Y159205*
X421200*
X421512Y159347*
X421719Y159633*
X421823Y160061*
Y160204*
X421719Y160632*
X421512Y160917*
X421200Y161060*
X421097*
X420785Y160917*
X420578Y160632*
X420474Y160204*
X418087Y194009D02*
Y191012D01*
Y194009D02*
X418813D01*
X419125Y193866*
X419332Y193581*
X419436Y193295*
X419540Y192867*
Y192154*
X419436Y191725*
X419332Y191440*
X419125Y191155*
X418813Y191012*
X418087*
X420578Y193295D02*
Y193438D01*
X420681Y193723*
X420785Y193866*
X420993Y194009*
X421408*
X421616Y193866*
X421719Y193723*
X421823Y193438*
Y193153*
X421719Y192867*
X421512Y192439*
X420474Y191012*
X421927*
X418087Y177946D02*
Y174949D01*
Y177946D02*
X418813D01*
X419125Y177803*
X419332Y177518*
X419436Y177232*
X419540Y176804*
Y176091*
X419436Y175662*
X419332Y175377*
X419125Y175092*
X418813Y174949*
X418087*
X420681Y177946D02*
X421823D01*
X421200Y176804*
X421512*
X421719Y176661*
X421823Y176519*
X421927Y176091*
Y175805*
X421823Y175377*
X421616Y175092*
X421304Y174949*
X420993*
X420681Y175092*
X420578Y175234*
X420474Y175520*
X109528Y192092D02*
Y189094D01*
Y192092D02*
X110254D01*
X110565Y191949*
X110565D02*
X110773Y191663D01*
X110877Y191378*
X110981Y190950*
Y190236*
X110877Y189808*
X110773Y189523*
X110565Y189237*
X110565D02*
X110254Y189094D01*
X109528*
X112953Y192092D02*
X111915Y190094D01*
X111915D02*
X113472D01*
X112953Y192092D02*
Y189094D01*
X109252Y231973D02*
Y228976D01*
Y231973D02*
X109979D01*
X110290Y231831*
X110497Y231545*
X110601Y231260*
X110705Y230832*
Y230118*
X110601Y229690*
X110497Y229405*
X110290Y229119*
X109979Y228976*
X109252*
X111639Y231403D02*
X111847Y231545D01*
X112158Y231973*
Y228976*
X269646Y141029D02*
Y138031D01*
Y141029D02*
X270580D01*
X270891Y140886*
X270995Y140743*
X271099Y140458*
Y140172*
X270995Y139887*
X270891Y139744*
X270580Y139601*
X269646*
X270372D02*
X271099Y138031D01*
X273071Y141029D02*
X272033Y139031D01*
X273590*
X273071Y141029D02*
Y138031D01*
X274524Y140458D02*
X274732Y140600D01*
X275043Y141029*
Y138031*
X219857Y138745D02*
Y136462D01*
X219753Y136033*
X219649Y135891*
X219442Y135748*
X219234*
X219026Y135891*
X218923Y136033*
X218819Y136462*
Y136747*
X222140Y138745D02*
X221102D01*
X220999Y137461*
X221102Y137603*
X221414Y137746*
X221725*
X222037Y137603*
X222244Y137318*
X222348Y136890*
X222244Y136604*
X222140Y136176*
X221933Y135891*
X221621Y135748*
X221310*
X220999Y135891*
X220895Y136033*
X220791Y136319*
X333661Y139139D02*
X335115Y136142D01*
Y139139D02*
X333661Y136142D01*
X337087Y139139D02*
X336049Y137141D01*
X337606*
X337087Y139139D02*
Y136142D01*
X260669Y241225D02*
Y238228D01*
Y241225D02*
X261603D01*
X261915Y241083*
X262019Y240940*
X262122Y240655*
Y240369*
X262019Y240084*
X261915Y239941*
X261603Y239798*
X260669*
X261396D02*
X262122Y238228D01*
X263264Y241225D02*
X264406D01*
X263783Y240084*
X264094*
X264302Y239941*
X264406Y239798*
X264510Y239370*
Y239085*
X264406Y238656*
X264198Y238371*
X263887Y238228*
X263576*
X263264Y238371*
X263160Y238514*
X263057Y238799*
X265963Y241225D02*
X265651Y241083D01*
X265548Y240797*
Y240512*
X265651Y240226*
X265859Y240084*
X266274Y239941*
X266586Y239798*
X266793Y239513*
X266897Y239227*
Y238799*
X266793Y238514*
X266689Y238371*
X266378Y238228*
X265963*
X265651Y238371*
X265548Y238514*
X265444Y238799*
Y239227*
X265548Y239513*
X265755Y239798*
X266067Y239941*
X266482Y240084*
X266689Y240226*
X266793Y240512*
Y240797*
X266689Y241083*
X266378Y241225*
X265963*
X227441Y241186D02*
Y238189D01*
Y241186D02*
X228375D01*
X228686Y241043*
X228790Y240901*
X228894Y240615*
Y240330*
X228790Y240044*
X228686Y239902*
X228375Y239759*
X227441*
X228168D02*
X228894Y238189D01*
X230036Y241186D02*
X231178D01*
X230555Y240044*
X230866*
X231074Y239902*
X231178Y239759*
X231281Y239331*
Y239045*
X231178Y238617*
X230970Y238332*
X230659Y238189*
X230347*
X230036Y238332*
X229932Y238474*
X229828Y238760*
X233669Y241186D02*
X232631Y238189D01*
X232215Y241186D02*
X233669D01*
X443976Y235281D02*
Y232283D01*
Y235281D02*
X444911D01*
X445222Y235138*
X445326Y234995*
X445429Y234710*
Y234424*
X445326Y234139*
X445222Y233996*
X444911Y233853*
X443976*
X444703D02*
X445429Y232283D01*
X446364Y234710D02*
X446571Y234852D01*
X446883Y235281*
Y232283*
X448440Y235281D02*
X448128Y235138D01*
X447921Y234710*
X447817Y233996*
Y233568*
X447921Y232854*
X448128Y232426*
X448440Y232283*
X448647*
X448958Y232426*
X449166Y232854*
X449270Y233568*
Y233996*
X449166Y234710*
X448958Y235138*
X448647Y235281*
X448440*
X197502Y180709D02*
X197398Y180994D01*
X197190Y181280*
X196983Y181422*
X196568*
X196360Y181280*
X196152Y180994*
X196049Y180709*
X195945Y180281*
Y179567*
X196049Y179139*
X196152Y178853*
X196360Y178568*
X196568Y178425*
X196983*
X197190Y178568*
X197398Y178853*
X197502Y179139*
X198436Y180851D02*
X198644Y180994D01*
X198955Y181422*
Y178425*
X199889Y180851D02*
X200097Y180994D01*
X200408Y181422*
Y178425*
X338031Y233076D02*
Y230079D01*
Y233076D02*
X338966D01*
X339277Y232933*
X339381Y232790*
X339485Y232505*
Y232219*
X339381Y231934*
X339277Y231791*
X338966Y231649*
X338031*
X338758D02*
X339485Y230079D01*
X341768Y233076D02*
X340730D01*
X340626Y231791*
X340730Y231934*
X341042Y232077*
X341353*
X341664Y231934*
X341872Y231649*
X341976Y231220*
X341872Y230935*
X341768Y230507*
X341560Y230221*
X341249Y230079*
X340938*
X340626Y230221*
X340523Y230364*
X340419Y230650*
X142480Y163588D02*
Y160591D01*
Y163588D02*
X143414D01*
X143726Y163445*
X143830Y163302*
X143933Y163017*
Y162731*
X143830Y162446*
X143726Y162303*
X143414Y162160*
X142480*
X143207D02*
X143933Y160591D01*
X144971Y162874D02*
Y163017D01*
X145075Y163302*
X145179Y163445*
X145387Y163588*
X145802*
X146009Y163445*
X146113Y163302*
X146217Y163017*
Y162731*
X146113Y162446*
X145906Y162018*
X144868Y160591*
X146321*
X147462Y163588D02*
X148604D01*
X147981Y162446*
X148293*
X148500Y162303*
X148604Y162160*
X148708Y161732*
Y161447*
X148604Y161019*
X148397Y160733*
X148085Y160591*
X147774*
X147462Y160733*
X147359Y160876*
X147255Y161161*
X176496Y163588D02*
Y160591D01*
Y163588D02*
X177430D01*
X177742Y163445*
X177845Y163302*
X177949Y163017*
Y162731*
X177845Y162446*
X177742Y162303*
X177430Y162160*
X176496*
X177223D02*
X177949Y160591D01*
X178883Y163017D02*
X179091Y163159D01*
X179402Y163588*
Y160591*
X181790Y163588D02*
X180752Y160591D01*
X180336Y163588D02*
X181790D01*
X185472Y119966D02*
Y116969D01*
Y119966D02*
X186407D01*
X186718Y119823*
X186822Y119680*
X186926Y119395*
Y119109*
X186822Y118824*
X186718Y118681*
X186407Y118538*
X185472*
X186199D02*
X186926Y116969D01*
X187963Y119252D02*
Y119395D01*
X188067Y119680*
X188171Y119823*
X188379Y119966*
X188794*
X189001Y119823*
X189105Y119680*
X189209Y119395*
Y119109*
X189105Y118824*
X188898Y118396*
X187860Y116969*
X189313*
X191596Y118967D02*
X191492Y118538D01*
X191285Y118253*
X190974Y118110*
X190870*
X190558Y118253*
X190351Y118538*
X190247Y118967*
Y119109*
X190351Y119537*
X190558Y119823*
X190870Y119966*
X190974*
X191285Y119823*
X191492Y119537*
X191596Y118967*
Y118253*
X191492Y117539*
X191285Y117111*
X190974Y116969*
X190766*
X190455Y117111*
X190351Y117397*
X235551Y200359D02*
Y197362D01*
Y200359D02*
X236485D01*
X236797Y200217*
X236901Y200074*
X237004Y199788*
Y199503*
X236901Y199218*
X236797Y199075*
X236485Y198932*
X235551*
X236278D02*
X237004Y197362D01*
X239184Y199931D02*
X239080Y200217D01*
X238769Y200359*
X238561*
X238250Y200217*
X238042Y199788*
X237938Y199075*
Y198361*
X238042Y197790*
X238250Y197505*
X238561Y197362*
X238665*
X238976Y197505*
X239184Y197790*
X239288Y198219*
Y198361*
X239184Y198789*
X238976Y199075*
X238665Y199218*
X238561*
X238250Y199075*
X238042Y198789*
X237938Y198361*
X240741Y200359D02*
X240429Y200217D01*
X240326Y199931*
Y199646*
X240429Y199360*
X240637Y199218*
X241052Y199075*
X241364Y198932*
X241571Y198647*
X241675Y198361*
Y197933*
X241571Y197648*
X241467Y197505*
X241156Y197362*
X240741*
X240429Y197505*
X240326Y197648*
X240222Y197933*
Y198361*
X240326Y198647*
X240533Y198932*
X240845Y199075*
X241260Y199218*
X241467Y199360*
X241571Y199646*
Y199931*
X241467Y200217*
X241156Y200359*
X240741*
X256417Y153391D02*
Y150394D01*
Y153391D02*
X257351D01*
X257663Y153248*
X257767Y153105*
X257870Y152820*
Y152534*
X257767Y152249*
X257663Y152106*
X257351Y151964*
X256417*
X257144D02*
X257870Y150394D01*
X260050Y152963D02*
X259946Y153248D01*
X259635Y153391*
X259427*
X259116Y153248*
X258908Y152820*
X258805Y152106*
Y151393*
X258908Y150822*
X259116Y150536*
X259427Y150394*
X259531*
X259843Y150536*
X260050Y150822*
X260154Y151250*
Y151393*
X260050Y151821*
X259843Y152106*
X259531Y152249*
X259427*
X259116Y152106*
X258908Y151821*
X258805Y151393*
X262126Y153391D02*
X261088Y151393D01*
X262645*
X262126Y153391D02*
Y150394D01*
X329606Y233036D02*
Y230039D01*
Y233036D02*
X330540D01*
X330852Y232894*
X330956Y232751*
X331059Y232466*
Y232180*
X330956Y231895*
X330852Y231752*
X330540Y231609*
X329606*
X330333D02*
X331059Y230039D01*
X333031Y233036D02*
X331994Y231038D01*
X333550*
X333031Y233036D02*
Y230039D01*
X379130Y208836D02*
Y205839D01*
Y208836D02*
X380064D01*
X380375Y208693*
X380479Y208550*
X380583Y208265*
Y207979*
X380479Y207694*
X380375Y207551*
X380064Y207408*
X379130*
X379856D02*
X380583Y205839D01*
X381517Y208265D02*
X381725Y208407D01*
X382036Y208836*
Y205839*
X384216Y208407D02*
X384112Y208693D01*
X383801Y208836*
X383593*
X383282Y208693*
X383074Y208265*
X382970Y207551*
Y206838*
X383074Y206267*
X383282Y205981*
X383593Y205839*
X383697*
X384008Y205981*
X384216Y206267*
X384320Y206695*
Y206838*
X384216Y207266*
X384008Y207551*
X383697Y207694*
X383593*
X383282Y207551*
X383074Y207266*
X382970Y206838*
X341575Y159611D02*
Y156614D01*
Y159611D02*
X342509D01*
X342820Y159469*
X342924Y159326*
X343028Y159040*
Y158755*
X342924Y158469*
X342820Y158327*
X342509Y158184*
X341575*
X342301D02*
X343028Y156614D01*
X344066Y158898D02*
Y159040D01*
X344170Y159326*
X344273Y159469*
X344481Y159611*
X344896*
X345104Y159469*
X345208Y159326*
X345311Y159040*
Y158755*
X345208Y158469*
X345000Y158041*
X343962Y156614*
X345415*
X346453Y158898D02*
Y159040D01*
X346557Y159326*
X346661Y159469*
X346868Y159611*
X347283*
X347491Y159469*
X347595Y159326*
X347699Y159040*
Y158755*
X347595Y158469*
X347387Y158041*
X346349Y156614*
X347802*
X452559Y235084D02*
Y232087D01*
Y235084D02*
X453493D01*
X453805Y234941*
X453908Y234798*
X454012Y234513*
Y234227*
X453908Y233942*
X453805Y233799*
X453493Y233656*
X452559*
X453286D02*
X454012Y232087D01*
X454946Y234513D02*
X455154Y234656D01*
X455465Y235084*
Y232087*
X457437Y235084D02*
X456399Y233086D01*
X457956*
X457437Y235084D02*
Y232087D01*
X471732Y259651D02*
Y256654D01*
Y259651D02*
X472666D01*
X472978Y259508*
X473082Y259365*
X473185Y259080*
Y258794*
X473082Y258509*
X472978Y258366*
X472666Y258223*
X471732*
X472459D02*
X473185Y256654D01*
X474120Y259080D02*
X474327Y259222D01*
X474639Y259651*
Y256654*
X138031Y206619D02*
Y203622D01*
Y206619D02*
X138966D01*
X139277Y206476*
X139381Y206334*
X139485Y206048*
Y205763*
X139381Y205477*
X139277Y205335*
X138966Y205192*
X138031*
X138758D02*
X139485Y203622D01*
X140419Y206048D02*
X140626Y206191D01*
X140938Y206619*
Y203622*
X143221Y206619D02*
X142183D01*
X142079Y205335*
X142183Y205477*
X142495Y205620*
X142806*
X143117Y205477*
X143325Y205192*
X143429Y204764*
X143325Y204478*
X143221Y204050*
X143014Y203765*
X142702Y203622*
X142391*
X142079Y203765*
X141976Y203907*
X141872Y204193*
X138031Y215359D02*
Y212362D01*
Y215359D02*
X138966D01*
X139277Y215217*
X139381Y215074*
X139485Y214788*
Y214503*
X139381Y214218*
X139277Y214075*
X138966Y213932*
X138031*
X138758D02*
X139485Y212362D01*
X140419Y214788D02*
X140626Y214931D01*
X140938Y215359*
Y212362*
X141872Y214788D02*
X142079Y214931D01*
X142391Y215359*
Y212362*
X418228Y235281D02*
Y232283D01*
Y235281D02*
X419162D01*
X419474Y235138*
X419578Y234995*
X419681Y234710*
Y234424*
X419578Y234139*
X419474Y233996*
X419162Y233853*
X418228*
X418955D02*
X419681Y232283D01*
X421861Y234852D02*
X421757Y235138D01*
X421446Y235281*
X421238*
X420927Y235138*
X420719Y234710*
X420616Y233996*
Y233282*
X420719Y232712*
X420927Y232426*
X421238Y232283*
X421342*
X421654Y232426*
X421861Y232712*
X421965Y233140*
Y233282*
X421861Y233711*
X421654Y233996*
X421342Y234139*
X421238*
X420927Y233996*
X420719Y233711*
X420616Y233282*
X301693Y144178D02*
Y141181D01*
Y144178D02*
X302627D01*
X302938Y144035*
X303042Y143893*
X303146Y143607*
Y143322*
X303042Y143036*
X302938Y142894*
X302627Y142751*
X301693*
X302419D02*
X303146Y141181D01*
X304184Y143465D02*
Y143607D01*
X304288Y143893*
X304392Y144035*
X304599Y144178*
X305014*
X305222Y144035*
X305326Y143893*
X305429Y143607*
Y143322*
X305326Y143036*
X305118Y142608*
X304080Y141181*
X305533*
X307713Y143750D02*
X307609Y144035D01*
X307298Y144178*
X307090*
X306779Y144035*
X306571Y143607*
X306467Y142894*
Y142180*
X306571Y141609*
X306779Y141324*
X307090Y141181*
X307194*
X307505Y141324*
X307713Y141609*
X307817Y142037*
Y142180*
X307713Y142608*
X307505Y142894*
X307194Y143036*
X307090*
X306779Y142894*
X306571Y142608*
X306467Y142180*
X301614Y133627D02*
Y130630D01*
Y133627D02*
X302548D01*
X302860Y133484*
X302963Y133342*
X303067Y133056*
Y132771*
X302963Y132485*
X302860Y132343*
X302548Y132200*
X301614*
X302341D02*
X303067Y130630D01*
X304209Y133627D02*
X305351D01*
X304728Y132485*
X305039*
X305247Y132343*
X305351Y132200*
X305455Y131772*
Y131486*
X305351Y131058*
X305143Y130773*
X304832Y130630*
X304520*
X304209Y130773*
X304105Y130915*
X304001Y131201*
X306389Y133056D02*
X306596Y133199D01*
X306908Y133627*
Y130630*
X301850Y124336D02*
Y121339D01*
Y124336D02*
X302785D01*
X303096Y124193*
X303200Y124050*
X303304Y123765*
Y123479*
X303200Y123194*
X303096Y123051*
X302785Y122908*
X301850*
X302577D02*
X303304Y121339D01*
X304445Y124336D02*
X305587D01*
X304964Y123194*
X305276*
X305483Y123051*
X305587Y122908*
X305691Y122480*
Y122195*
X305587Y121767*
X305379Y121481*
X305068Y121339*
X304757*
X304445Y121481*
X304341Y121624*
X304238Y121909*
X306729Y123622D02*
Y123765D01*
X306832Y124050*
X306832D02*
X306936Y124193D01*
X307144Y124336*
X307559*
X307767Y124193*
X307870Y124050*
X307974Y123765*
Y123479*
X307870Y123194*
X307663Y122766*
X306625Y121339*
X308078*
X301693Y152918D02*
Y149921D01*
Y152918D02*
X302627D01*
X302938Y152776*
X303042Y152633*
X303146Y152347*
Y152062*
X303042Y151777*
X302938Y151634*
X302627Y151491*
X301693*
X302419D02*
X303146Y149921D01*
X304184Y152205D02*
Y152347D01*
X304288Y152633*
X304392Y152776*
X304599Y152918*
X305014*
X305222Y152776*
X305326Y152633*
X305429Y152347*
Y152062*
X305326Y151777*
X305118Y151348*
X304080Y149921*
X305533*
X307505Y152918D02*
X306467Y150920D01*
X308024*
X307505Y152918D02*
Y149921D01*
X270494Y190906D02*
X270390Y191191D01*
X270183Y191476*
X269975Y191619*
X269560*
X269352Y191476*
X269145Y191191*
X269041Y190906*
X268937Y190477*
Y189764*
X269041Y189336*
X269145Y189050*
X269352Y188765*
X269560Y188622*
X269975*
X270183Y188765*
X270390Y189050*
X270494Y189336*
X272674Y191191D02*
X272570Y191476D01*
X272258Y191619*
X272051*
X271739Y191476*
X271532Y191048*
X271428Y190335*
Y189621*
X271532Y189050*
X271739Y188765*
X272051Y188622*
X272155*
X272466Y188765*
X272674Y189050*
X272777Y189478*
Y189621*
X272674Y190049*
X272466Y190335*
X272155Y190477*
X272051*
X271739Y190335*
X271532Y190049*
X271428Y189621*
X320100Y232441D02*
X319996Y232726D01*
X319789Y233012*
X319581Y233155*
X319166*
X318958Y233012*
X318751Y232726*
X318647Y232441*
X318543Y232013*
Y231299*
X318647Y230871*
X318751Y230586*
X318958Y230300*
X319166Y230157*
X319581*
X319789Y230300*
X319996Y230586*
X320100Y230871*
X321138Y232441D02*
Y232584D01*
X321242Y232869*
X321346Y233012*
X321553Y233155*
X321969*
X322176Y233012*
X322280Y232869*
X322384Y232584*
Y232298*
X322280Y232013*
X322072Y231585*
X321034Y230157*
X322487*
X295966Y188031D02*
X295863Y188317D01*
X295655Y188602*
X295447Y188745*
X295032*
X294825Y188602*
X294617Y188317*
X294513Y188031*
X294409Y187603*
Y186890*
X294513Y186462*
X294617Y186176*
X294825Y185891*
X295032Y185748*
X295447*
X295655Y185891*
X295863Y186176*
X295966Y186462*
X296901Y188174D02*
X297108Y188317D01*
X297419Y188745*
Y185748*
X299703Y188745D02*
X298665D01*
X298561Y187461*
X298665Y187603*
X298976Y187746*
X299288*
X299599Y187603*
X299807Y187318*
X299911Y186890*
X299807Y186604*
X299703Y186176*
X299495Y185891*
X299184Y185748*
X298873*
X298561Y185891*
X298457Y186033*
X298354Y186319*
X473486Y220827D02*
X473382Y221112D01*
X473175Y221398*
X472967Y221540*
X472552*
X472344Y221398*
X472137Y221112*
X472033Y220827*
X471929Y220399*
Y219685*
X472033Y219257*
X472137Y218971*
X472344Y218686*
X472552Y218543*
X472967*
X473175Y218686*
X473382Y218971*
X473486Y219257*
X474420Y220969D02*
X474628Y221112D01*
X474939Y221540*
Y218543*
X334392Y158701D02*
X334288Y158986D01*
X334080Y159272*
X333873Y159414*
X333457*
X333250Y159272*
X333042Y158986*
X332938Y158701*
X332835Y158273*
Y157559*
X332938Y157131*
X333042Y156845*
X333250Y156560*
X333457Y156417*
X333873*
X334080Y156560*
X334288Y156845*
X334392Y157131*
X335326Y158844D02*
X335533Y158986D01*
X335845Y159414*
Y156417*
X338024Y158986D02*
X337921Y159272D01*
X337609Y159414*
X337402*
X337090Y159272*
X336883Y158844*
X336779Y158130*
Y157416*
X336883Y156845*
X337090Y156560*
X337402Y156417*
X337505*
X337817Y156560*
X338024Y156845*
X338128Y157274*
Y157416*
X338024Y157844*
X337817Y158130*
X337505Y158273*
X337402*
X337090Y158130*
X336883Y157844*
X336779Y157416*
X295770Y212559D02*
X295666Y212844D01*
X295458Y213130*
X295251Y213273*
X294835*
X294628Y213130*
X294420Y212844*
X294316Y212559*
X294213Y212131*
Y211417*
X294316Y210989*
X294420Y210704*
X294628Y210418*
X294835Y210276*
X295251*
X295458Y210418*
X295666Y210704*
X295770Y210989*
X297223Y213273D02*
X296911Y213130D01*
X296807Y212844*
Y212559*
X296911Y212274*
X297119Y212131*
X297534Y211988*
X297845Y211845*
X298053Y211560*
X298157Y211275*
Y210846*
X298053Y210561*
X297949Y210418*
X297638Y210276*
X297223*
X296911Y210418*
X296807Y210561*
X296704Y210846*
Y211275*
X296807Y211560*
X297015Y211845*
X297326Y211988*
X297742Y212131*
X297949Y212274*
X298053Y212559*
Y212844*
X297949Y213130*
X297638Y213273*
X297223*
X325039Y159532D02*
Y156535D01*
X326285*
X327219Y158962D02*
X327427Y159104D01*
X327738Y159532*
Y156535*
X347671Y138831D02*
X347567Y139116D01*
X347360Y139402*
X347152Y139544*
X346737*
X346529Y139402*
X346322Y139116*
X346218Y138831*
X346114Y138403*
Y137689*
X346218Y137261*
X346322Y136975*
X346529Y136690*
X346737Y136547*
X347152*
X347360Y136690*
X347567Y136975*
X347671Y137261*
X348709Y138831D02*
Y138973D01*
X348813Y139259*
X348917Y139402*
X349124Y139544*
X349539*
X349747Y139402*
X349851Y139259*
X349955Y138973*
Y138688*
X349851Y138403*
X349643Y137974*
X348605Y136547*
X350058*
X350992Y138973D02*
X351200Y139116D01*
X351511Y139544*
Y136547*
X313242Y138480D02*
X313138Y138766D01*
X312931Y139051*
X312723Y139194*
X312308*
X312100Y139051*
X311893Y138766*
X311789Y138480*
X311685Y138052*
Y137339*
X311789Y136910*
X311893Y136625*
X312100Y136340*
X312308Y136197*
X312723*
X312931Y136340*
X313138Y136625*
X313242Y136910*
X314280Y138480D02*
Y138623D01*
X314384Y138908*
X314487Y139051*
X314695Y139194*
X315110*
X315318Y139051*
X315422Y138908*
X315525Y138623*
Y138338*
X315422Y138052*
X315214Y137624*
X314176Y136197*
X315629*
X317186Y139194D02*
X316875Y139051D01*
X316667Y138623*
X316563Y137909*
Y137481*
X316667Y136768*
X316875Y136340*
X317186Y136197*
X317394*
X317705Y136340*
X317913Y136768*
X318016Y137481*
Y137909*
X317913Y138623*
X317705Y139051*
X317394Y139194*
X317186*
X400179Y234370D02*
X400075Y234656D01*
X399868Y234941*
X399660Y235084*
X399245*
X399037Y234941*
X398830Y234656*
X398726Y234370*
X398622Y233942*
Y233228*
X398726Y232800*
X398830Y232515*
X399037Y232229*
X399245Y232087*
X399660*
X399868Y232229*
X400075Y232515*
X400179Y232800*
X401217Y234370D02*
Y234513D01*
X401321Y234798*
X401424Y234941*
X401632Y235084*
X402047*
X402255Y234941*
X402359Y234798*
X402462Y234513*
Y234227*
X402359Y233942*
X402151Y233514*
X401113Y232087*
X402566*
X404953Y235084D02*
X403916Y232087D01*
X403500Y235084D02*
X404953D01*
X390494Y234567D02*
X390390Y234852D01*
X390183Y235138*
X389975Y235281*
X389560*
X389352Y235138*
X389145Y234852*
X389041Y234567*
X388937Y234139*
Y233425*
X389041Y232997*
X389145Y232712*
X389352Y232426*
X389560Y232283*
X389975*
X390183Y232426*
X390390Y232712*
X390494Y232997*
X391532Y234567D02*
Y234710D01*
X391636Y234995*
X391739Y235138*
X391947Y235281*
X392362*
X392570Y235138*
X392674Y234995*
X392777Y234710*
Y234424*
X392674Y234139*
X392466Y233711*
X391428Y232283*
X392881*
X394334Y235281D02*
X394023Y235138D01*
X393919Y234852*
Y234567*
X394023Y234281*
X394230Y234139*
X394646Y233996*
X394957Y233853*
X395165Y233568*
X395268Y233282*
Y232854*
X395165Y232569*
X395061Y232426*
X394749Y232283*
X394334*
X394023Y232426*
X393919Y232569*
X393815Y232854*
Y233282*
X393919Y233568*
X394127Y233853*
X394438Y233996*
X394853Y234139*
X395061Y234281*
X395165Y234567*
Y234852*
X395061Y235138*
X394749Y235281*
X394334*
X331850Y108076D02*
Y105935D01*
X331954Y105507*
X332162Y105221*
X332473Y105079*
X332681*
X332992Y105221*
X333200Y105507*
X333304Y105935*
Y108076*
X335587Y107077D02*
X335483Y106649D01*
X335276Y106363*
X334964Y106220*
X334860*
X334549Y106363*
X334341Y106649*
X334238Y107077*
Y107219*
X334341Y107648*
X334549Y107933*
X334860Y108076*
X334964*
X335276Y107933*
X335483Y107648*
X335587Y107077*
Y106363*
X335483Y105650*
X335276Y105221*
X334964Y105079*
X334757*
X334445Y105221*
X334341Y105507*
X370218Y124567D02*
X370115Y124852D01*
X369907Y125138*
X369699Y125281*
X369284*
X369077Y125138*
X368869Y124852*
X368765Y124567*
X368661Y124139*
Y123425*
X368765Y122997*
X368869Y122712*
X369077Y122426*
X369284Y122283*
X369699*
X369907Y122426*
X370115Y122712*
X370218Y122997*
X372502Y124281D02*
X372398Y123853D01*
X372190Y123568*
X371879Y123425*
X371775*
X371464Y123568*
X371256Y123853*
X371152Y124281*
Y124424*
X371256Y124852*
X371464Y125138*
X371775Y125281*
X371879*
X372190Y125138*
X372398Y124852*
X372502Y124281*
Y123568*
X372398Y122854*
X372190Y122426*
X371879Y122283*
X371671*
X371360Y122426*
X371256Y122712*
X259764Y166107D02*
Y163967D01*
X259868Y163538*
X260075Y163253*
X260387Y163110*
X260594*
X260906Y163253*
X261113Y163538*
X261217Y163967*
Y166107*
X262151Y165536D02*
X262359Y165679D01*
X262670Y166107*
Y163110*
X269667Y238189D02*
X269563Y238474D01*
X269356Y238760*
X269148Y238903*
X268733*
X268525Y238760*
X268318Y238474*
X268214Y238189*
X268110Y237761*
Y237047*
X268214Y236619*
X268318Y236334*
X268525Y236048*
X268733Y235906*
X269148*
X269356Y236048*
X269563Y236334*
X269667Y236619*
X270809Y238903D02*
X271951D01*
X271328Y237761*
X271639*
X271847Y237618*
X271951Y237475*
X272054Y237047*
Y236762*
X271951Y236334*
X271743Y236048*
X271432Y235906*
X271120*
X270809Y236048*
X270705Y236191*
X270601Y236476*
X273611Y238903D02*
X273300Y238760D01*
X273092Y238332*
X272989Y237618*
Y237190*
X273092Y236476*
X273300Y236048*
X273611Y235906*
X273819*
X274130Y236048*
X274338Y236476*
X274442Y237190*
Y237618*
X274338Y238332*
X274130Y238760*
X273819Y238903*
X273611*
X236793Y237677D02*
X236689Y237963D01*
X236482Y238248*
X236274Y238391*
X235859*
X235651Y238248*
X235444Y237963*
X235340Y237677*
X235236Y237249*
Y236535*
X235340Y236107*
X235444Y235822*
X235651Y235536*
X235859Y235394*
X236274*
X236482Y235536*
X236689Y235822*
X236793Y236107*
X237935Y238391D02*
X239077D01*
X238454Y237249*
X238765*
X238973Y237106*
X239077Y236964*
X239180Y236535*
Y236250*
X239077Y235822*
X238869Y235536*
X238558Y235394*
X238246*
X237935Y235536*
X237831Y235679*
X237727Y235965*
X240115Y237820D02*
X240322Y237963D01*
X240634Y238391*
X240634D02*
Y235394D01*
X228919Y146929D02*
X228815Y147215D01*
X228608Y147500*
X228400Y147643*
X227985*
X227777Y147500*
X227570Y147215*
X227466Y146929*
X227362Y146501*
Y145787*
X227466Y145359*
X227570Y145074*
X227777Y144788*
X227985Y144646*
X228400*
X228608Y144788*
X228815Y145074*
X228919Y145359*
X230061Y147643D02*
X231203D01*
X230580Y146501*
X230891*
X231099Y146358*
X231203Y146216*
X231306Y145787*
Y145502*
X231203Y145074*
X230995Y144788*
X230684Y144646*
X230372*
X230061Y144788*
X229957Y144931*
X229853Y145217*
X233590Y147643D02*
X232552D01*
X232448Y146358*
X232552Y146501*
X232863Y146644*
X233175*
X233486Y146501*
X233694Y146216*
X233797Y145787*
X233694Y145502*
X233590Y145074*
X233382Y144788*
X233071Y144646*
X232759*
X232448Y144788*
X232344Y144931*
X232241Y145217*
X270266Y200382D02*
X270162Y200667D01*
X269954Y200953*
X269747Y201095*
X269331*
X269124Y200953*
X268916Y200667*
X268812Y200382*
X268709Y199954*
Y199240*
X268812Y198812*
X268916Y198527*
X269124Y198241*
X269331Y198098*
X269747*
X269954Y198241*
X270162Y198527*
X270266Y198812*
X272238Y201095D02*
X271200Y199097D01*
X272757*
X272238Y201095D02*
Y198098D01*
X273691Y200525D02*
X273898Y200667D01*
X274210Y201095*
Y198098*
X164352Y181811D02*
X164248Y182096D01*
X164041Y182382*
X163833Y182525*
X163418*
X163210Y182382*
X163003Y182096*
X162899Y181811*
X162795Y181383*
Y180669*
X162899Y180241*
X163003Y179956*
X163210Y179670*
X163418Y179528*
X163833*
X164041Y179670*
X164248Y179956*
X164352Y180241*
X166324Y182525D02*
X165286Y180527D01*
X166843*
X166324Y182525D02*
Y179528D01*
X167881Y181811D02*
Y181954D01*
X167985Y182239*
X168089Y182382*
X168296Y182525*
X168712*
X168919Y182382*
X169023Y182239*
X169127Y181954*
Y181668*
X169023Y181383*
X168815Y180955*
X167777Y179528*
X169230*
X193386Y144060D02*
Y141063D01*
Y144060D02*
X194320D01*
X194631Y143917*
X194735Y143775*
X194839Y143489*
Y143204*
X194735Y142918*
X194631Y142776*
X194320Y142633*
X193386*
X194112D02*
X194839Y141063D01*
X195981Y144060D02*
X197122D01*
X196500Y142918*
X196811*
X197019Y142776*
X197122Y142633*
X197226Y142205*
Y141919*
X197122Y141491*
X196915Y141206*
X196603Y141063*
X196292*
X195981Y141206*
X195877Y141348*
X195773Y141634*
X198783Y144060D02*
X198472Y143917D01*
X198264Y143489*
X198160Y142776*
Y142347*
X198264Y141634*
X198472Y141206*
X198783Y141063*
X198991*
X199302Y141206*
X199510Y141634*
X199613Y142347*
Y142776*
X199510Y143489*
X199302Y143917*
X198991Y144060*
X198783*
X256457Y199375D02*
Y196378D01*
Y199375D02*
X257391D01*
X257702Y199232*
X257806Y199090*
X257910Y198804*
Y198519*
X257806Y198233*
X257702Y198091*
X257391Y197948*
X256457*
X257183D02*
X257910Y196378D01*
X259052Y199375D02*
X260193D01*
X259571Y198233*
X259882*
X260089Y198091*
X260193Y197948*
X260297Y197520*
Y197234*
X260193Y196806*
X259986Y196521*
X259674Y196378*
X259363*
X259052Y196521*
X258948Y196663*
X258844Y196949*
X262581Y198376D02*
X262477Y197948D01*
X262269Y197662*
X261958Y197520*
X261854*
X261543Y197662*
X261335Y197948*
X261231Y198376*
Y198519*
X261335Y198947*
X261543Y199232*
X261854Y199375*
X261958*
X262269Y199232*
X262477Y198947*
X262581Y198376*
Y197662*
X262477Y196949*
X262269Y196521*
X261958Y196378*
X261750*
X261439Y196521*
X261335Y196806*
X235394Y153273D02*
Y150276D01*
Y153273D02*
X236328D01*
X236639Y153130*
X236743Y152987*
X236847Y152702*
Y152416*
X236743Y152131*
X236639Y151988*
X236328Y151845*
X235394*
X236120D02*
X236847Y150276D01*
X239026Y152844D02*
X238923Y153130D01*
X238611Y153273*
X238404*
X238092Y153130*
X237885Y152702*
X237781Y151988*
Y151275*
X237885Y150704*
X238092Y150418*
X238404Y150276*
X238508*
X238819Y150418*
X239026Y150704*
X239130Y151132*
Y151275*
X239026Y151703*
X238819Y151988*
X238508Y152131*
X238404*
X238092Y151988*
X237885Y151703*
X237781Y151275*
X240168Y152559D02*
Y152702D01*
X240272Y152987*
X240376Y153130*
X240583Y153273*
X240999*
X241206Y153130*
X241310Y152987*
X241414Y152702*
Y152416*
X241310Y152131*
X241102Y151703*
X240064Y150276*
X241518*
X302008Y180714D02*
Y177717D01*
Y180714D02*
X302942D01*
X303253Y180571*
X303357Y180428*
X303461Y180143*
Y179857*
X303357Y179572*
X303253Y179429*
X302942Y179286*
X302008*
X302734D02*
X303461Y177717D01*
X305641Y180285D02*
X305537Y180571D01*
X305225Y180714*
X305018*
X304707Y180571*
X304499Y180143*
X304395Y179429*
Y178716*
X304499Y178145*
X304707Y177859*
X305018Y177717*
X305122*
X305433Y177859*
X305641Y178145*
X305744Y178573*
Y178716*
X305641Y179144*
X305433Y179429*
X305122Y179572*
X305018*
X304707Y179429*
X304499Y179144*
X304395Y178716*
X307924Y180285D02*
X307820Y180571D01*
X307509Y180714*
X307301*
X306990Y180571*
X306782Y180143*
X306679Y179429*
Y178716*
X306782Y178145*
X306990Y177859*
X307301Y177717*
X307405*
X307717Y177859*
X307924Y178145*
X308028Y178573*
Y178716*
X307924Y179144*
X307717Y179429*
X307405Y179572*
X307301*
X306990Y179429*
X306782Y179144*
X306679Y178716*
X301850Y172603D02*
Y169606D01*
Y172603D02*
X302785D01*
X303096Y172461*
X303200Y172318*
X303304Y172032*
Y171747*
X303200Y171462*
X303096Y171319*
X302785Y171176*
X301850*
X302577D02*
X303304Y169606D01*
X305483Y172175D02*
X305379Y172461D01*
X305068Y172603*
X304860*
X304549Y172461*
X304341Y172032*
X304238Y171319*
Y170605*
X304341Y170034*
X304549Y169749*
X304860Y169606*
X304964*
X305276Y169749*
X305483Y170034*
X305587Y170463*
Y170605*
X305483Y171033*
X305276Y171319*
X304964Y171462*
X304860*
X304549Y171319*
X304341Y171033*
X304238Y170605*
X307974Y172603D02*
X306936Y169606D01*
X306521Y172603D02*
X307974D01*
X368661Y117249D02*
Y114252D01*
Y117249D02*
X369596D01*
X369907Y117106*
X370011Y116964*
X370115Y116678*
Y116393*
X370011Y116107*
X369907Y115965*
X369596Y115822*
X368661*
X369388D02*
X370115Y114252D01*
X372294Y116821D02*
X372190Y117106D01*
X371879Y117249*
X371671*
X371360Y117106*
X371152Y116678*
X371049Y115965*
Y115251*
X371152Y114680*
X371360Y114395*
X371671Y114252*
X371775*
X372087Y114395*
X372294Y114680*
X372398Y115108*
Y115251*
X372294Y115679*
X372087Y115965*
X371775Y116107*
X371671*
X371360Y115965*
X371152Y115679*
X371049Y115251*
X374681Y116250D02*
X374578Y115822D01*
X374370Y115536*
X374059Y115394*
X373955*
X373644Y115536*
X373436Y115822*
X373332Y116250*
Y116393*
X373436Y116821*
X373644Y117106*
X373955Y117249*
X374059*
X374370Y117106*
X374578Y116821*
X374681Y116250*
Y115536*
X374578Y114823*
X374370Y114395*
X374059Y114252*
X373851*
X373540Y114395*
X373436Y114680*
X368661Y109257D02*
Y106260D01*
Y109257D02*
X369596D01*
X369907Y109114*
X370011Y108971*
X370115Y108686*
Y108401*
X370011Y108115*
X369907Y107972*
X369596Y107830*
X368661*
X369388D02*
X370115Y106260D01*
X372502Y109257D02*
X371464Y106260D01*
X371049Y109257D02*
X372502D01*
X374059D02*
X373747Y109114D01*
X373540Y108686*
X373436Y107972*
Y107544*
X373540Y106831*
X373747Y106403*
X374059Y106260*
X374266*
X374578Y106403*
X374785Y106831*
X374889Y107544*
Y107972*
X374785Y108686*
X374578Y109114*
X374266Y109257*
X374059*
X259646Y212525D02*
Y210384D01*
X259749Y209956*
X259957Y209670*
X260268Y209528*
X260476*
X260787Y209670*
X260995Y209956*
X261099Y210384*
Y212525*
X262033Y211954D02*
X262241Y212096D01*
X262552Y212525*
Y209528*
X263486Y211954D02*
X263694Y212096D01*
X264005Y212525*
Y209528*
X366024Y255753D02*
Y252756D01*
Y255753D02*
X366854Y252756D01*
X367684Y255753D02*
X366854Y252756D01*
X367684Y255753D02*
Y252756D01*
X368618Y255182D02*
X368826Y255325D01*
X369137Y255753*
Y252756*
X213110Y244021D02*
Y241880D01*
X213214Y241452*
X213422Y241166*
X213733Y241024*
X213941*
X214252Y241166*
X214460Y241452*
X214563Y241880*
Y244021*
X215601Y243307D02*
Y243450D01*
X215705Y243735*
X215809Y243878*
X216016Y244021*
X216432*
X216639Y243878*
X216743Y243735*
X216847Y243450*
Y243164*
X216743Y242879*
X216535Y242451*
X215497Y241024*
X216951*
X391693Y265123D02*
Y262126D01*
Y265123D02*
X392627D01*
X392938Y264980*
X393042Y264838*
X393146Y264552*
Y264267*
X393042Y263981*
X392938Y263839*
X392627Y263696*
X391693D02*
X392627D01*
X392938Y263553*
X393042Y263410*
X393146Y263125*
Y262697*
X393042Y262411*
X392938Y262269*
X392627Y262126*
X391693*
X394080Y264552D02*
X394288Y264695D01*
X394599Y265123*
Y262126*
X226732Y153548D02*
Y150551D01*
Y153548D02*
X227666D01*
X227978Y153406*
X228082Y153263*
X228185Y152977*
Y152692*
X228082Y152406*
X227978Y152264*
X227666Y152121*
X226732*
X227459D02*
X228185Y150551D01*
X229223Y152835D02*
Y152977D01*
X229327Y153263*
X229431Y153406*
X229639Y153548*
X230054*
X230261Y153406*
X230365Y153263*
X230469Y152977*
Y152692*
X230365Y152406*
X230157Y151978*
X229120Y150551*
X230573*
X231507Y152977D02*
X231714Y153120D01*
X232026Y153548*
Y150551*
X259449Y125989D02*
Y123848D01*
X259553Y123420*
X259760Y123135*
X260072Y122992*
X260279*
X260591Y123135*
X260798Y123420*
X260902Y123848*
Y125989*
X263289D02*
X262251Y122992D01*
X261836Y125989D02*
X263289D01*
X258801Y113386D02*
X258697Y113671D01*
X258490Y113957*
X258282Y114099*
X257867*
X257659Y113957*
X257452Y113671*
X257348Y113386*
X257244Y112958*
Y112244*
X257348Y111816*
X257452Y111531*
X257659Y111245*
X257867Y111102*
X258282*
X258490Y111245*
X258697Y111531*
X258801Y111816*
X259735Y113529D02*
X259943Y113671D01*
X260254Y114099*
Y111102*
X262641Y114099D02*
X261603Y111102D01*
X261188Y114099D02*
X262641D01*
X266693Y117761D02*
Y114764D01*
Y117761D02*
X267627D01*
X267938Y117618*
X268042Y117475*
X268146Y117190*
Y116905*
X268042Y116619*
X267938Y116476*
X267627Y116334*
X266693*
X267419D02*
X268146Y114764D01*
X269184Y117047D02*
Y117190D01*
X269288Y117475*
X269392Y117618*
X269599Y117761*
X270014*
X270222Y117618*
X270326Y117475*
X270429Y117190*
Y116905*
X270326Y116619*
X270118Y116191*
X269080Y114764*
X270533*
X272817Y117761D02*
X271779D01*
X271675Y116476*
X271779Y116619*
X272090Y116762*
X272402*
X272713Y116619*
X272921Y116334*
X273024Y115906*
X272921Y115620*
X272817Y115192*
X272609Y114906*
X272298Y114764*
X271986*
X271675Y114906*
X271571Y115049*
X271467Y115335*
X243604Y240591D02*
X243500Y240876D01*
X243293Y241161*
X243085Y241304*
X242670*
X242462Y241161*
X242255Y240876*
X242151Y240591*
X242047Y240162*
Y239449*
X242151Y239021*
X242255Y238735*
X242462Y238450*
X242670Y238307*
X243085*
X243293Y238450*
X243500Y238735*
X243604Y239021*
X244642Y240591D02*
Y240733D01*
X244746Y241019*
X244850Y241161*
X245057Y241304*
X245472*
X245680Y241161*
X245784Y241019*
X245888Y240733*
Y240448*
X245784Y240162*
X245576Y239734*
X244538Y238307*
X245991*
X248275Y240305D02*
X248171Y239877D01*
X247963Y239592*
X247652Y239449*
X247548*
X247237Y239592*
X247029Y239877*
X246926Y240305*
Y240448*
X247029Y240876*
X247237Y241161*
X247548Y241304*
X247652*
X247963Y241161*
X248171Y240876*
X248275Y240305*
Y239592*
X248171Y238878*
X247963Y238450*
X247652Y238307*
X247445*
X247133Y238450*
X247029Y238735*
X253425Y141265D02*
Y138268D01*
Y141265D02*
X254359D01*
X254671Y141122*
X254775Y140979*
X254878Y140694*
Y140408*
X254775Y140123*
X254671Y139980*
X254359Y139838*
X253425*
X254152D02*
X254878Y138268D01*
X255916Y140551D02*
Y140694D01*
X256020Y140979*
X256124Y141122*
X256331Y141265*
X256747*
X256954Y141122*
X257058Y140979*
X257162Y140694*
Y140408*
X257058Y140123*
X256850Y139695*
X255812Y138268*
X257266*
X258719Y141265D02*
X258407Y141122D01*
X258304Y140837*
Y140551*
X258407Y140266*
X258615Y140123*
X259030Y139980*
X259341Y139838*
X259549Y139552*
X259653Y139267*
Y138839*
X259549Y138553*
X259445Y138410*
X259134Y138268*
X258719*
X258407Y138410*
X258304Y138553*
X258200Y138839*
Y139267*
X258304Y139552*
X258511Y139838*
X258822Y139980*
X259238Y140123*
X259445Y140266*
X259549Y140551*
Y140837*
X259445Y141122*
X259134Y141265*
X258719*
G54D13*
X199606Y104331D02*
X227165D01*
Y129921*
X199606*
Y104331*
X206496D02*
X220276D01*
Y99016*
X206496*
Y104331*
X114961Y195472D02*
Y225000D01*
X97835*
Y195472*
X114961*
X160157Y139488D02*
X161535D01*
Y138848*
X161929*
Y139488*
X163307*
Y129252*
X160157*
Y139488*
X319488Y192717D02*
X320079D01*
X320669Y193898*
X321260Y192717*
X343504*
Y216732*
X319488*
Y192717*
X392134Y104795D02*
X419693D01*
Y130386*
X392134*
Y104795*
X399024D02*
X412803D01*
Y99480*
X399024*
Y104795*
X300394Y250118D02*
X371260D01*
Y328858*
X300394*
Y250118*
X332244Y323346D02*
X355906D01*
Y313110*
X332244*
Y323346*
X312992Y302874D02*
X358661D01*
Y257992*
X312992*
Y302874*
X256831Y126437D02*
X255504D01*
Y127138*
X255125*
Y126437*
X253799*
Y137657*
X256831*
Y126437*
X421299Y119193D02*
Y116299D01*
Y119193D02*
X422201D01*
X422502Y119055*
X422602Y118917*
X422702Y118642*
Y118366*
X422602Y118091*
X422502Y117953*
X422201Y117815*
X421299D02*
X422201D01*
X422502Y117677*
X422602Y117539*
X422702Y117264*
Y116850*
X422602Y116575*
X422502Y116437*
X422201Y116299*
X421299*
X424205Y119193D02*
X424005Y119055D01*
X423805Y118780*
X423704Y118504*
X423604Y118091*
Y117402*
X423704Y116988*
X423805Y116713*
X424005Y116437*
X424205Y116299*
X424606*
X424807Y116437*
X425007Y116713*
X425107Y116988*
X425208Y117402*
Y118091*
X425107Y118504*
X425007Y118780*
X424807Y119055*
X424606Y119193*
X424205*
X426711D02*
X426510Y119055D01*
X426310Y118780*
X426210Y118504*
X426110Y118091*
Y117402*
X426210Y116988*
X426310Y116713*
X426510Y116437*
X426711Y116299*
X427112*
X427312Y116437*
X427513Y116713*
X427613Y116988*
X427713Y117402*
Y118091*
X427613Y118504*
X427513Y118780*
X427312Y119055*
X427112Y119193*
X426711*
X429316D02*
Y116299D01*
X428615Y119193D02*
X430018D01*
X431521D02*
X431220Y119055D01*
X431020Y118642*
X430920Y117953*
Y117539*
X431020Y116850*
X431220Y116437*
X431521Y116299*
X431722*
X432022Y116437*
X432223Y116850*
X432323Y117539*
Y117953*
X432223Y118642*
X432022Y119055*
X431722Y119193*
X431521*
X421299Y114508D02*
Y111614D01*
Y114508D02*
X422602D01*
X421299Y113130D02*
X422101D01*
X423504Y114508D02*
Y112441D01*
X423604Y112028*
X423805Y111752*
X424105Y111614*
X424306*
X424606Y111752*
X424807Y112028*
X424907Y112441*
Y114508*
X425809D02*
Y111614D01*
Y114508D02*
X427212Y111614D01*
Y114508D02*
Y111614D01*
X429617Y113819D02*
X429517Y114094D01*
X429316Y114370*
X429116Y114508*
X428715*
X428515Y114370*
X428314Y114094*
X428214Y113819*
X428114Y113406*
Y112717*
X428214Y112303*
X428314Y112028*
X428515Y111752*
X428715Y111614*
X429116*
X429316Y111752*
X429517Y112028*
X429617Y112303*
G54D14*
X392283Y200079D02*
Y196772D01*
Y200079D02*
X393200Y196772D01*
X394116Y200079D02*
X393200Y196772D01*
X394116Y200079D02*
Y196772D01*
X396865Y199291D02*
X396750Y199606D01*
X396521Y199921*
X396292Y200079*
X395834*
X395605Y199921*
X395376Y199606*
X395261Y199291*
X395147Y198819*
Y198031*
X395261Y197559*
X395376Y197244*
X395605Y196929*
X395834Y196772*
X396292*
X396521Y196929*
X396750Y197244*
X396865Y197559*
X397895Y200079D02*
Y197717D01*
X398010Y197244*
X398239Y196929*
X398583Y196772*
X398812*
X399155Y196929*
X399384Y197244*
X399499Y197717*
Y200079*
X393726Y183740D02*
X393611Y184055D01*
X393382Y184370*
X393153Y184528*
X392695*
X392466Y184370*
X392237Y184055*
X392122Y183740*
X392008Y183268*
Y182480*
X392122Y182008*
X392237Y181693*
X392466Y181378*
X392695Y181220*
X393153*
X393382Y181378*
X393611Y181693*
X393726Y182008*
Y182480*
X393153D02*
X393726D01*
X394757Y184528D02*
Y181220D01*
Y184528D02*
X395787D01*
X396131Y184370*
X396246Y184213*
X396360Y183898*
Y183425*
X396246Y183110*
X396131Y182953*
X395787Y182795*
X394757*
X398994Y184055D02*
X398765Y184370D01*
X398422Y184528*
X397963*
X397620Y184370*
X397391Y184055*
Y183740*
X397505Y183425*
X397620Y183268*
X397849Y183110*
X398536Y182795*
X398765Y182638*
X398880Y182480*
X398994Y182165*
Y181693*
X398765Y181378*
X398422Y181220*
X397963*
X397620Y181378*
X397391Y181693*
X393819Y168150D02*
Y164843D01*
Y168150D02*
X394850D01*
X395193Y167992*
X395308Y167835*
X395422Y167520*
Y167205*
X395308Y166890*
X395193Y166732*
X394850Y166575*
X393819D02*
X394850D01*
X395193Y166417*
X395308Y166260*
X395422Y165945*
Y165472*
X395308Y165157*
X395193Y165000*
X394850Y164843*
X393819*
X397255Y168150D02*
Y164843D01*
X396453Y168150D02*
X398057D01*
X392283Y153110D02*
Y149803D01*
Y153110D02*
X393314D01*
X393658Y152953*
X393772Y152795*
X393887Y152480*
Y152008*
X393772Y151693*
X393658Y151535*
X393314Y151378*
X392283*
X394918Y153110D02*
X395490Y149803D01*
X396063Y153110D02*
X395490Y149803D01*
X396063Y153110D02*
X396636Y149803D01*
X397208Y153110D02*
X396636Y149803D01*
X398239Y153110D02*
Y149803D01*
Y153110D02*
X399270D01*
X399613Y152953*
X399728Y152795*
X399843Y152480*
Y152165*
X399728Y151850*
X399613Y151693*
X399270Y151535*
X398239*
X399041D02*
X399843Y149803D01*
X106654Y172677D02*
Y169370D01*
Y172677D02*
X108142D01*
X106654Y171102D02*
X107570D01*
X109173Y172677D02*
Y170315D01*
X109288Y169843*
X109517Y169528*
X109860Y169370*
X110089*
X110433Y169528*
X110662Y169843*
X110777Y170315*
Y172677*
X111807D02*
Y169370D01*
X113182*
X114213Y172677D02*
Y169370D01*
X115587*
X109946Y250512D02*
X109832Y250827D01*
X109603Y251142*
X109374Y251299*
X108916*
X108686Y251142*
X108457Y250827*
X108343Y250512*
X108228Y250039*
Y249252*
X108343Y248780*
X108457Y248465*
X108686Y248150*
X108916Y247992*
X109374*
X109603Y248150*
X109832Y248465*
X109946Y248780*
X110977Y251299D02*
Y247992D01*
X112581Y251299D02*
Y247992D01*
X110977Y249724D02*
X112581D01*
X115329Y250512D02*
X115215Y250827D01*
X114986Y251142*
X114757Y251299*
X114298*
X114069Y251142*
X113840Y250827*
X113726Y250512*
X113611Y250039*
Y249252*
X113726Y248780*
X113840Y248465*
X114069Y248150*
X114298Y247992*
X114757*
X114986Y248150*
X115215Y248465*
X115329Y248780*
Y249252*
X114757D02*
X115329D01*
X199921Y162323D02*
Y159016D01*
X201296*
X202326Y162323D02*
X202441Y162165D01*
X202555Y162323*
X202441Y162480*
X202326Y162323*
X202441Y161220D02*
Y159016D01*
X203586Y162323D02*
Y159016D01*
Y162323D02*
X204617D01*
X204961Y162165*
X205075Y162008*
X205190Y161693*
Y161220*
X205075Y160906*
X204961Y160748*
X204617Y160591*
X203586*
X206793Y161220D02*
X206564Y161063D01*
X206335Y160748*
X206220Y160276*
Y159961*
X206335Y159488*
X206564Y159173*
X206793Y159016*
X207137*
X207366Y159173*
X207595Y159488*
X207709Y159961*
Y160276*
X207595Y160748*
X207366Y161063*
X207137Y161220*
X206793*
X211374Y162323D02*
Y159016D01*
Y162323D02*
X212405D01*
X212749Y162165*
X212863Y162008*
X212978Y161693*
Y161378*
X212863Y161063*
X212749Y160906*
X212405Y160748*
X211374D02*
X212405D01*
X212749Y160591*
X212863Y160433*
X212978Y160118*
Y159646*
X212863Y159331*
X212749Y159173*
X212405Y159016*
X211374*
X214925Y162323D02*
X214009Y159016D01*
X214925Y162323D02*
X215841Y159016D01*
X214352Y160118D02*
X215497D01*
X217674Y162323D02*
Y159016D01*
X216872Y162323D02*
X218475D01*
X206339Y133351D02*
X207949D01*
X211618Y134459D02*
Y132244D01*
X210812Y133351D02*
X212423D01*
X248031Y110118D02*
Y107756D01*
X248146Y107283*
X248375Y106969*
X248719Y106811*
X248948*
X249291Y106969*
X249520Y107283*
X249635Y107756*
Y110118*
X251582D02*
X250666Y106811D01*
X251582Y110118D02*
X252498Y106811D01*
X251009Y107913D02*
X252155D01*
X253529Y110118D02*
Y106811D01*
Y110118D02*
X254560D01*
X254903Y109961*
X255018Y109803*
X255132Y109488*
Y109173*
X255018Y108858*
X254903Y108701*
X254560Y108543*
X253529*
X254331D02*
X255132Y106811D01*
X256965Y110118D02*
Y106811D01*
X256163Y110118D02*
X257767D01*
X258797Y109488D02*
X259026Y109646D01*
X259370Y110118*
Y106811*
X263837Y110748D02*
X263608Y110433D01*
X263379Y109961*
X263150Y109331*
X263035Y108543*
Y107913*
X263150Y107126*
X263379Y106496*
X263608Y106024*
X263837Y105709*
X264868Y110118D02*
Y106811D01*
Y110118D02*
X265669D01*
X266013Y109961*
X266242Y109646*
X266356Y109331*
X266471Y108858*
Y108071*
X266356Y107598*
X266242Y107283*
X266013Y106969*
X265669Y106811*
X264868*
X267502Y110118D02*
Y106811D01*
Y110118D02*
X268533D01*
X268876Y109961*
X268991Y109803*
X269105Y109488*
Y109173*
X268991Y108858*
X268876Y108701*
X268533Y108543*
X267502D02*
X268533D01*
X268876Y108386*
X268991Y108228*
X269105Y107913*
Y107441*
X268991Y107126*
X268876Y106969*
X268533Y106811*
X267502*
X271854Y109331D02*
X271739Y109646D01*
X271510Y109961*
X271281Y110118*
X270823*
X270594Y109961*
X270365Y109646*
X270251Y109331*
X270136Y108858*
Y108071*
X270251Y107598*
X270365Y107283*
X270594Y106969*
X270823Y106811*
X271281*
X271510Y106969*
X271739Y107283*
X271854Y107598*
Y108071*
X271281D02*
X271854D01*
X272885Y110748D02*
X273114Y110433D01*
X273343Y109961*
X273572Y109331*
X273686Y108543*
Y107913*
X273572Y107126*
X273343Y106496*
X273114Y106024*
X272885Y105709*
X254918Y104882D02*
Y102402D01*
X254016Y103642D02*
X255820D01*
X259026Y105295D02*
Y102402D01*
Y105295D02*
X259928D01*
X260229Y105157*
X260329Y105020*
X260429Y104744*
Y104469*
X260329Y104193*
X260229Y104055*
X259928Y103917*
X259026*
X259728D02*
X260429Y102402D01*
X264338Y105295D02*
Y102402D01*
X263636Y105295D02*
X265039D01*
X268246Y103642D02*
X270050D01*
X436457Y120226D02*
Y117126D01*
Y120226D02*
X437853D01*
X436457Y118750D02*
X437316D01*
X436457Y117126D02*
X437853D01*
X438819Y120226D02*
X440322Y117126D01*
Y120226D02*
X438819Y117126D01*
X442040Y120226D02*
Y117126D01*
X441288Y120226D02*
X442792D01*
X446228D02*
Y117126D01*
Y120226D02*
X447194D01*
X447516Y120079*
X447623Y119931*
X447731Y119636*
Y119193*
X447623Y118898*
X447516Y118750*
X447194Y118602*
X446228*
X448697Y120226D02*
Y117126D01*
X449664Y120226D02*
Y117126D01*
Y120226D02*
X451059D01*
X449664Y118750D02*
X450523D01*
X449664Y117126D02*
X451059D01*
X453529Y120226D02*
X452026Y117126D01*
Y120226D02*
X453529D01*
X452026Y117126D02*
X453529D01*
X455140Y120226D02*
X454925Y120079D01*
X454710Y119783*
X454603Y119488*
X454495Y119045*
Y118307*
X454603Y117864*
X454710Y117569*
X454925Y117274*
X455140Y117126*
X455569*
X455784Y117274*
X455999Y117569*
X456106Y117864*
X456213Y118307*
Y119045*
X456106Y119488*
X455999Y119783*
X455784Y120079*
X455569Y120226*
X455140*
X491850Y256161D02*
Y253268D01*
Y256161D02*
X492752D01*
X493053Y256024*
X493153Y255886*
X493253Y255610*
Y255335*
X493153Y255059*
X493053Y254921*
X492752Y254783*
X491850*
X492552D02*
X493253Y253268D01*
X495558Y255748D02*
X495358Y256024D01*
X495057Y256161*
X494656*
X494356Y256024*
X494155Y255748*
Y255472*
X494256Y255197*
X494356Y255059*
X494556Y254921*
X495157Y254646*
X495358Y254508*
X495458Y254370*
X495558Y254094*
Y253681*
X495358Y253406*
X495057Y253268*
X494656*
X494356Y253406*
X494155Y253681*
X497162Y256161D02*
Y253268D01*
X496460Y256161D02*
X497863D01*
X229134Y111122D02*
Y108228D01*
Y111122D02*
X230036D01*
X230336Y110984*
X230437Y110846*
X230537Y110571*
Y110157*
X230437Y109882*
X230336Y109744*
X230036Y109606*
X229134*
X232040Y111122D02*
X231840Y110984D01*
X231639Y110709*
X231539Y110433*
X231439Y110020*
Y109331*
X231539Y108917*
X231639Y108642*
X231840Y108366*
X232040Y108228*
X232441*
X232641Y108366*
X232842Y108642*
X232942Y108917*
X233042Y109331*
Y110020*
X232942Y110433*
X232842Y110709*
X232641Y110984*
X232441Y111122*
X232040*
X233944D02*
X234445Y108228D01*
X234946Y111122D02*
X234445Y108228D01*
X234946Y111122D02*
X235447Y108228D01*
X235948Y111122D02*
X235447Y108228D01*
X236850Y111122D02*
Y108228D01*
Y111122D02*
X238153D01*
X236850Y109744D02*
X237652D01*
X236850Y108228D02*
X238153D01*
X239055Y111122D02*
Y108228D01*
Y111122D02*
X239957D01*
X240258Y110984*
X240358Y110846*
X240458Y110571*
Y110295*
X240358Y110020*
X240258Y109882*
X239957Y109744*
X239055*
X239757D02*
X240458Y108228D01*
X203937Y326161D02*
Y323268D01*
X204839Y326161D02*
Y323268D01*
Y326161D02*
X205641Y323268D01*
X206442Y326161D02*
X205641Y323268D01*
X206442Y326161D02*
Y323268D01*
X207344Y326161D02*
Y324094D01*
X207445Y323681*
X207645Y323406*
X207946Y323268*
X208146*
X208447Y323406*
X208647Y323681*
X208747Y324094*
Y326161*
X272938Y326732D02*
X272738Y327008D01*
X272437Y327146*
X272037*
X271736Y327008*
X271535Y326732*
Y326457*
X271636Y326181*
X271736Y326043*
X271936Y325906*
X272538Y325630*
X272738Y325492*
X272838Y325354*
X272938Y325079*
Y324665*
X272738Y324390*
X272437Y324252*
X272037*
X271736Y324390*
X271535Y324665*
X273840Y327146D02*
Y324252D01*
Y327146D02*
X274542D01*
X274843Y327008*
X275043Y326732*
X275143Y326457*
X275243Y326043*
Y325354*
X275143Y324941*
X275043Y324665*
X274843Y324390*
X274542Y324252*
X273840*
X349252Y327303D02*
Y324409D01*
Y327303D02*
X350154D01*
X350455Y327165*
X350555Y327028*
X350655Y326752*
Y326476*
X350555Y326201*
X350455Y326063*
X350154Y325925*
X349252D02*
X350154D01*
X350455Y325787*
X350555Y325650*
X350655Y325374*
Y324961*
X350555Y324685*
X350455Y324547*
X350154Y324409*
X349252*
X351557Y327303D02*
Y324409D01*
X352759*
X353661Y327303D02*
Y325236D01*
X353762Y324823*
X353962Y324547*
X354263Y324409*
X354463*
X354764Y324547*
X354964Y324823*
X355064Y325236*
Y327303*
X355966D02*
Y324409D01*
Y327303D02*
X357269D01*
X355966Y325925D02*
X356768D01*
X355966Y324409D02*
X357269D01*
X358873Y327303D02*
Y324409D01*
X358171Y327303D02*
X359574D01*
X361077D02*
X360877Y327165D01*
X360676Y326890*
X360576Y326614*
X360476Y326201*
Y325512*
X360576Y325098*
X360676Y324823*
X360877Y324547*
X361077Y324409*
X361478*
X361679Y324547*
X361879Y324823*
X361979Y325098*
X362079Y325512*
Y326201*
X361979Y326614*
X361879Y326890*
X361679Y327165*
X361478Y327303*
X361077*
X363583D02*
X363382Y327165D01*
X363182Y326890*
X363082Y326614*
X362981Y326201*
Y325512*
X363082Y325098*
X363182Y324823*
X363382Y324547*
X363583Y324409*
X363984*
X364184Y324547*
X364384Y324823*
X364485Y325098*
X364585Y325512*
Y326201*
X364485Y326614*
X364384Y326890*
X364184Y327165*
X363984Y327303*
X363583*
X366188D02*
Y324409D01*
X365487Y327303D02*
X366890D01*
X367792D02*
Y324409D01*
X369195Y327303D02*
Y324409D01*
X367792Y325925D02*
X369195D01*
X446818Y321496D02*
X446718Y321772D01*
X446518Y322047*
X446317Y322185*
X445916*
X445716Y322047*
X445515Y321772*
X445415Y321496*
X445315Y321083*
Y320394*
X445415Y319980*
X445515Y319705*
X445716Y319429*
X445916Y319291*
X446317*
X446518Y319429*
X446718Y319705*
X446818Y319980*
Y320394*
X446317D02*
X446818D01*
X447720Y322185D02*
Y319291D01*
Y322185D02*
X448622D01*
X448923Y322047*
X449023Y321909*
X449123Y321634*
Y321220*
X449023Y320945*
X448923Y320807*
X448622Y320669*
X447720*
X451428Y321772D02*
X451228Y322047D01*
X450927Y322185*
X450526*
X450225Y322047*
X450025Y321772*
Y321496*
X450125Y321220*
X450225Y321083*
X450426Y320945*
X451027Y320669*
X451228Y320531*
X451328Y320394*
X451428Y320118*
Y319705*
X451228Y319429*
X450927Y319291*
X450526*
X450225Y319429*
X450025Y319705*
G54D15*
X329596Y125591D02*
G03X329596I-1250J0D01*
G01X325390Y128150D02*
Y108858D01*
X338390*
Y128150*
X325390*
G54D16*
X303110Y323990D02*
Y320709D01*
Y323990D02*
X304588D01*
X303110Y322427D02*
X304019D01*
X305610Y323990D02*
X305724Y323834D01*
X305838Y323990*
X305724Y324146*
X305610Y323990*
X305724Y322896D02*
Y320709D01*
X306860Y322896D02*
Y320709D01*
Y321959D02*
X306974Y322427D01*
X307201Y322740*
X307428Y322896*
X307769*
X308792D02*
Y320709D01*
Y322271D02*
X309133Y322740D01*
X309360Y322896*
X309701*
X309928Y322740*
X310042Y322271*
Y320709*
Y322271D02*
X310383Y322740D01*
X310610Y322896*
X310951*
X311178Y322740*
X311292Y322271*
Y320709*
X312656Y323990D02*
Y321334D01*
X312769Y320865*
X312997Y320709*
X313224*
X312315Y322896D02*
X313110D01*
X314247Y321959D02*
X315610D01*
Y322271*
X315497Y322584*
X315383Y322740*
X315156Y322896*
X314815*
X314588Y322740*
X314360Y322427*
X314247Y321959*
Y321646*
X314360Y321177*
X314588Y320865*
X314815Y320709*
X315156*
X315383Y320865*
X315610Y321177*
X317997Y322427D02*
X317769Y322740D01*
X317542Y322896*
X317201*
X316974Y322740*
X316747Y322427*
X316633Y321959*
Y321646*
X316747Y321177*
X316974Y320865*
X317201Y320709*
X317542*
X317769Y320865*
X317997Y321177*
X319019Y323990D02*
Y320709D01*
Y322271D02*
X319360Y322740D01*
X319588Y322896*
X319928*
X320156Y322740*
X320269Y322271*
Y320709*
X303189Y317573D02*
Y314291D01*
Y317573D02*
X304666D01*
X303189Y316010D02*
X304098D01*
X305689Y317573D02*
Y314291D01*
Y317573D02*
X306712D01*
X307053Y317416*
X307166Y317260*
X307280Y316948*
Y316635*
X307166Y316323*
X307053Y316166*
X306712Y316010*
X305689D02*
X306712D01*
X307053Y315854*
X307166Y315698*
X307280Y315385*
Y314916*
X307166Y314604*
X307053Y314448*
X306712Y314291*
X305689*
X308303Y316948D02*
X308530Y317104D01*
X308871Y317573*
Y314291*
X311371Y317573D02*
X310234D01*
X310121Y316166*
X310234Y316323*
X310575Y316479*
X310916*
X311257Y316323*
X311484Y316010*
X311598Y315541*
X311484Y315229*
X311371Y314760*
X311144Y314448*
X310803Y314291*
X310462*
X310121Y314448*
X310007Y314604*
X309894Y314916*
X312848Y317573D02*
X314098D01*
X313416Y316323*
X313757*
X313984Y316166*
X314098Y316010*
X314212Y315541*
Y315229*
X314098Y314760*
X313871Y314448*
X313530Y314291*
X313189*
X312848Y314448*
X312734Y314604*
X312621Y314916*
X315234Y317573D02*
Y314291D01*
Y317573D02*
X316257D01*
X316598Y317416*
X316712Y317260*
X316825Y316948*
Y316635*
X316712Y316323*
X316598Y316166*
X316257Y316010*
X315234D02*
X316257D01*
X316598Y315854*
X316712Y315698*
X316825Y315385*
Y314916*
X316712Y314604*
X316598Y314448*
X316257Y314291*
X315234*
X319553Y316791D02*
X319439Y317104D01*
X319212Y317416*
X318984Y317573*
X318530*
X318303Y317416*
X318075Y317104*
X317962Y316791*
X317848Y316323*
Y315541*
X317962Y315073*
X318075Y314760*
X318303Y314448*
X318530Y314291*
X318984*
X319212Y314448*
X319439Y314760*
X319553Y315073*
X320575Y313666D02*
X322962D01*
X325234Y317104D02*
X325007Y317416D01*
X324666Y317573*
X324212*
X323871Y317416*
X323644Y317104*
Y316791*
X323757Y316479*
X323871Y316323*
X324098Y316166*
X324780Y315854*
X325007Y315698*
X325121Y315541*
X325234Y315229*
Y314760*
X325007Y314448*
X324666Y314291*
X324212*
X323871Y314448*
X323644Y314760*
G54D17*
X496969Y214567D02*
X492835D01*
X496969D02*
Y212706D01*
X495000Y214567D02*
Y213422D01*
X496969Y211417D02*
X492835D01*
X496969Y210129D02*
X496772Y209986D01*
X496969Y209843*
X497165Y209986*
X496969Y210129*
X495591Y209986D02*
X492835D01*
X495591Y206836D02*
X492441D01*
X491850Y206979*
X491654Y207122*
X491457Y207409*
Y207838*
X491654Y208125*
X495000Y206836D02*
X495394Y207122D01*
X495591Y207409*
Y207838*
X495394Y208125*
X495000Y208411*
X494409Y208554*
X494016*
X493425Y208411*
X493031Y208125*
X492835Y207838*
Y207409*
X493031Y207122*
X493425Y206836*
X496969Y205548D02*
X492835D01*
X494803D02*
X495394Y205118D01*
X495591Y204832*
Y204402*
X495394Y204116*
X494803Y203973*
X492835*
X496969Y202255D02*
X493622D01*
X493031Y202112*
X492835Y201825*
Y201539*
X495591Y202684D02*
Y201682D01*
X496969Y195812D02*
X492835Y196958D01*
X496969Y195812D02*
X492835Y194667D01*
X494213Y196528D02*
Y195097D01*
X495000Y191804D02*
X495394Y191947D01*
X495591Y192377*
Y192806*
X495394Y193236*
X495000Y193379*
X494606Y193236*
X494409Y192949*
X494213Y192233*
X494016Y191947*
X493622Y191804*
X493425*
X493031Y191947*
X492835Y192377*
Y192806*
X493031Y193236*
X493425Y193379*
X495000Y188941D02*
X495394Y189084D01*
X495591Y189513*
Y189943*
X495394Y190372*
X495000Y190515*
X494606Y190372*
X494409Y190086*
X494213Y189370*
X494016Y189084*
X493622Y188941*
X493425*
X493031Y189084*
X492835Y189513*
Y189943*
X493031Y190372*
X493425Y190515*
X496969Y187652D02*
X496772Y187509D01*
X496969Y187366*
X497165Y187509*
X496969Y187652*
X495591Y187509D02*
X492835D01*
X495000Y184503D02*
X495394Y184646D01*
X495591Y185075*
Y185505*
X495394Y185934*
X495000Y186077*
X494606Y185934*
X494409Y185648*
X494213Y184932*
X494016Y184646*
X493622Y184503*
X493425*
X493031Y184646*
X492835Y185075*
Y185505*
X493031Y185934*
X493425Y186077*
X496969Y182785D02*
X493622D01*
X493031Y182641*
X492835Y182355*
Y182069*
X495591Y183214D02*
Y182212D01*
Y179062D02*
X492835D01*
X495000D02*
X495394Y179349D01*
X495591Y179635*
Y180064*
X495394Y180351*
X495000Y180637*
X494409Y180780*
X494016*
X493425Y180637*
X493031Y180351*
X492835Y180064*
Y179635*
X493031Y179349*
X493425Y179062*
X495591Y177774D02*
X492835D01*
X494803D02*
X495394Y177344D01*
X495591Y177058*
Y176628*
X495394Y176342*
X494803Y176199*
X492835*
X496969Y174481D02*
X493622D01*
X493031Y174338*
X492835Y174052*
Y173765*
X495591Y174911D02*
Y173908D01*
Y169184D02*
X492835Y168325D01*
X495591Y167466D02*
X492835Y168325D01*
X496181Y166178D02*
X496378Y165891D01*
X496969Y165462*
X492835*
X493228Y164030D02*
X493031Y164173D01*
X492835Y164030*
X493031Y163887*
X493228Y164030*
X496969Y161739D02*
X496772Y162169D01*
X496181Y162455*
X495197Y162598*
X494606*
X493622Y162455*
X493031Y162169*
X492835Y161739*
Y161453*
X493031Y161024*
X493622Y160737*
X494606Y160594*
X495197*
X496181Y160737*
X496772Y161024*
X496969Y161453*
Y161739*
Y156013D02*
X492835D01*
X496969D02*
Y154724D01*
X496772Y154295*
X496575Y154152*
X496181Y154009*
X495787*
X495394Y154152*
X495197Y154295*
X495000Y154724*
Y156013*
Y155011D02*
X492835Y154009D01*
X494409Y152720D02*
Y151002D01*
X494803*
X495197Y151145*
X495394Y151288*
X495591Y151575*
Y152004*
X495394Y152291*
X495000Y152577*
X494409Y152720*
X494016*
X493425Y152577*
X493031Y152291*
X492835Y152004*
Y151575*
X493031Y151288*
X493425Y151002*
X495591Y149714D02*
X492835Y148855D01*
X495591Y147996D02*
X492835Y148855D01*
X496181Y146707D02*
X496378Y146421D01*
X496969Y145991*
X492835*
G54D18*
X489008Y214567D02*
X486063Y213751D01*
X489008Y212935D02*
X486063Y213751D01*
X488027Y210793D02*
X486063D01*
X487606D02*
X487886Y210997D01*
X488027Y211201*
Y211507*
X487886Y211711*
X487606Y211915*
X487185Y212017*
X486905*
X486484Y211915*
X486203Y211711*
X486063Y211507*
Y211201*
X486203Y210997*
X486484Y210793*
X488027Y209875D02*
X486063D01*
X487185D02*
X487606Y209773D01*
X487886Y209569*
X488027Y209365*
Y209059*
X489008Y208141D02*
X488868Y208039D01*
X489008Y207937*
X489149Y208039*
X489008Y208141*
X488027Y208039D02*
X486063D01*
X488027Y206509D02*
X487886Y206713D01*
X487606Y206917*
X487185Y207019*
X486905*
X486484Y206917*
X486203Y206713*
X486063Y206509*
Y206203*
X486203Y205999*
X486484Y205795*
X486905Y205693*
X487185*
X487606Y205795*
X487886Y205999*
X488027Y206203*
Y206509*
Y204775D02*
X486063D01*
X487466D02*
X487886Y204469D01*
X488027Y204264*
Y203958*
X487886Y203754*
X487466Y203652*
X486063*
X487466D02*
X487886Y203346D01*
X488027Y203142*
Y202836*
X487886Y202632*
X487466Y202530*
X486063*
X487185Y201612D02*
Y200388D01*
X487466*
X487746Y200490*
X487886Y200592*
X488027Y200796*
Y201102*
X487886Y201306*
X487606Y201510*
X487185Y201612*
X486905*
X486484Y201510*
X486203Y201306*
X486063Y201102*
Y200796*
X486203Y200592*
X486484Y200388*
X489008Y199164D02*
X486624D01*
X486203Y199062*
X486063Y198858*
Y198654*
X488027Y199470D02*
Y198756D01*
X487185Y197736D02*
Y196512D01*
X487466*
X487746Y196614*
X487886Y196716*
X488027Y196920*
Y197226*
X487886Y197430*
X487606Y197634*
X487185Y197736*
X486905*
X486484Y197634*
X486203Y197430*
X486063Y197226*
Y196920*
X486203Y196716*
X486484Y196512*
X488027Y195594D02*
X486063D01*
X487185D02*
X487606Y195492D01*
X487886Y195288*
X488027Y195084*
Y194778*
X487746Y189474D02*
X487886D01*
X488027Y189576*
Y189678*
X487886Y189780*
X487606Y189882*
X486905Y190086*
X486484Y190290*
X486203Y190494*
X486063Y190698*
Y191106*
X486203Y191310*
X486344Y191412*
X486624Y191514*
X486905*
X487185Y191412*
X487325Y191310*
X487886Y190596*
X488027Y190494*
X488307Y190392*
X488588*
X488868Y190494*
X489008Y190698*
X488868Y190902*
X488588Y191004*
X488307*
X487886Y190902*
X487466Y190698*
X486484Y190188*
X486203Y189984*
X486063Y189780*
Y189576*
X486203Y189474*
X486344*
X488307Y184680D02*
X488588Y184782D01*
X488868Y184986*
X489008Y185190*
Y185598*
X488868Y185802*
X488588Y186006*
X488307Y186108*
X487886Y186210*
X487185*
X486764Y186108*
X486484Y186006*
X486203Y185802*
X486063Y185598*
Y185190*
X486203Y184986*
X486484Y184782*
X486764Y184680*
X487185*
Y185190D02*
Y184680D01*
X489008Y183762D02*
X486063D01*
X489008D02*
Y182844D01*
X488868Y182538*
X488728Y182436*
X488447Y182334*
X488027*
X487746Y182436*
X487606Y182538*
X487466Y182844*
Y183762*
X488588Y179987D02*
X488868Y180191D01*
X489008Y180497*
Y180906*
X488868Y181212*
X488588Y181416*
X488307*
X488027Y181314*
X487886Y181212*
X487746Y181008*
X487466Y180395*
X487325Y180191*
X487185Y180089*
X486905Y179987*
X486484*
X486203Y180191*
X486063Y180497*
Y180906*
X486203Y181212*
X486484Y181416*
X489008Y176723D02*
X486063D01*
Y175499*
X488027Y174071D02*
X487886Y174275D01*
X487606Y174479*
X487185Y174581*
X486905*
X486484Y174479*
X486203Y174275*
X486063Y174071*
Y173765*
X486203Y173561*
X486484Y173357*
X486905Y173255*
X487185*
X487606Y173357*
X487886Y173561*
X488027Y173765*
Y174071*
Y171113D02*
X485782D01*
X485362Y171215*
X485221Y171317*
X485081Y171521*
Y171827*
X485221Y172031*
X487606Y171113D02*
X487886Y171317D01*
X488027Y171521*
Y171827*
X487886Y172031*
X487606Y172235*
X487185Y172337*
X486905*
X486484Y172235*
X486203Y172031*
X486063Y171827*
Y171521*
X486203Y171317*
X486484Y171113*
X488027Y168971D02*
X485782D01*
X485362Y169073*
X485221Y169175*
X485081Y169379*
Y169685*
X485221Y169889*
X487606Y168971D02*
X487886Y169175D01*
X488027Y169379*
Y169685*
X487886Y169889*
X487606Y170093*
X487185Y170195*
X486905*
X486484Y170093*
X486203Y169889*
X486063Y169685*
Y169379*
X486203Y169175*
X486484Y168971*
X487185Y168053D02*
Y166829D01*
X487466*
X487746Y166931*
X487886Y167033*
X488027Y167237*
Y167543*
X487886Y167747*
X487606Y167951*
X487185Y168053*
X486905*
X486484Y167951*
X486203Y167747*
X486063Y167543*
Y167237*
X486203Y167033*
X486484Y166829*
X488027Y165911D02*
X486063D01*
X487185D02*
X487606Y165809D01*
X487886Y165605*
X488027Y165401*
Y165095*
Y161831D02*
X486063Y161423D01*
X488027Y161015D02*
X486063Y161423D01*
X488027Y161015D02*
X486063Y160607D01*
X488027Y160199D02*
X486063Y160607D01*
X489569Y157445D02*
X485081Y159281D01*
X489008Y154180D02*
X486063D01*
X489008D02*
Y153262D01*
X488868Y152956*
X488728Y152854*
X488447Y152752*
X488167*
X487886Y152854*
X487746Y152956*
X487606Y153262*
Y154180D02*
Y153262D01*
X487466Y152956*
X487325Y152854*
X487045Y152752*
X486624*
X486344Y152854*
X486203Y152956*
X486063Y153262*
Y154180*
X489008Y151120D02*
X486063D01*
X489008Y151834D02*
Y150406D01*
G74*
X0Y0D02*
M02*
